%TF.GenerationSoftware,KiCad,Pcbnew,9.0.0-250-g02b756189b*%
%TF.CreationDate,2025-03-30T18:15:54-05:00*%
%TF.ProjectId,PicoPowerManagement,5069636f-506f-4776-9572-4d616e616765,rev?*%
%TF.SameCoordinates,Original*%
%TF.FileFunction,Legend,Top*%
%TF.FilePolarity,Positive*%
%FSLAX46Y46*%
G04 Gerber Fmt 4.6, Leading zero omitted, Abs format (unit mm)*
G04 Created by KiCad (PCBNEW 9.0.0-250-g02b756189b) date 2025-03-30 18:15:54*
%MOMM*%
%LPD*%
G01*
G04 APERTURE LIST*
%ADD10C,0.100000*%
%ADD11C,0.150000*%
%ADD12C,0.127000*%
%ADD13C,0.200000*%
%ADD14C,0.120000*%
%ADD15C,0.152400*%
%ADD16C,0.508000*%
%ADD17C,0.250000*%
G04 APERTURE END LIST*
D10*
X45720000Y-38100000D02*
X48260000Y-38100000D01*
X48260000Y-40640000D01*
X45720000Y-40640000D01*
X45720000Y-38100000D01*
X43180000Y-35560000D02*
X45720000Y-35560000D01*
X45720000Y-38100000D01*
X43180000Y-38100000D01*
X43180000Y-35560000D01*
X57979000Y-68393000D02*
X73339000Y-68393000D01*
X73339000Y-70993000D01*
X57979000Y-70993000D01*
X57979000Y-68393000D01*
X74549000Y-73787000D02*
X84963000Y-73787000D01*
X84963000Y-81661000D01*
X74549000Y-81661000D01*
X74549000Y-73787000D01*
G36*
X74549000Y-73787000D02*
G01*
X84963000Y-73787000D01*
X84963000Y-81661000D01*
X74549000Y-81661000D01*
X74549000Y-73787000D01*
G37*
X74789312Y-46735419D02*
X74455979Y-46259228D01*
X74217884Y-46735419D02*
X74217884Y-45735419D01*
X74217884Y-45735419D02*
X74598836Y-45735419D01*
X74598836Y-45735419D02*
X74694074Y-45783038D01*
X74694074Y-45783038D02*
X74741693Y-45830657D01*
X74741693Y-45830657D02*
X74789312Y-45925895D01*
X74789312Y-45925895D02*
X74789312Y-46068752D01*
X74789312Y-46068752D02*
X74741693Y-46163990D01*
X74741693Y-46163990D02*
X74694074Y-46211609D01*
X74694074Y-46211609D02*
X74598836Y-46259228D01*
X74598836Y-46259228D02*
X74217884Y-46259228D01*
X26211884Y-69976466D02*
X26973789Y-69976466D01*
X26592836Y-70357419D02*
X26592836Y-69595514D01*
X27973788Y-70357419D02*
X27402360Y-70357419D01*
X27688074Y-70357419D02*
X27688074Y-69357419D01*
X27688074Y-69357419D02*
X27592836Y-69500276D01*
X27592836Y-69500276D02*
X27497598Y-69595514D01*
X27497598Y-69595514D02*
X27402360Y-69643133D01*
X28354741Y-69452657D02*
X28402360Y-69405038D01*
X28402360Y-69405038D02*
X28497598Y-69357419D01*
X28497598Y-69357419D02*
X28735693Y-69357419D01*
X28735693Y-69357419D02*
X28830931Y-69405038D01*
X28830931Y-69405038D02*
X28878550Y-69452657D01*
X28878550Y-69452657D02*
X28926169Y-69547895D01*
X28926169Y-69547895D02*
X28926169Y-69643133D01*
X28926169Y-69643133D02*
X28878550Y-69785990D01*
X28878550Y-69785990D02*
X28307122Y-70357419D01*
X28307122Y-70357419D02*
X28926169Y-70357419D01*
X29211884Y-69357419D02*
X29545217Y-70357419D01*
X29545217Y-70357419D02*
X29878550Y-69357419D01*
X59562419Y-78817115D02*
X58562419Y-78817115D01*
X58562419Y-78817115D02*
X58562419Y-78579020D01*
X58562419Y-78579020D02*
X58610038Y-78436163D01*
X58610038Y-78436163D02*
X58705276Y-78340925D01*
X58705276Y-78340925D02*
X58800514Y-78293306D01*
X58800514Y-78293306D02*
X58990990Y-78245687D01*
X58990990Y-78245687D02*
X59133847Y-78245687D01*
X59133847Y-78245687D02*
X59324323Y-78293306D01*
X59324323Y-78293306D02*
X59419561Y-78340925D01*
X59419561Y-78340925D02*
X59514800Y-78436163D01*
X59514800Y-78436163D02*
X59562419Y-78579020D01*
X59562419Y-78579020D02*
X59562419Y-78817115D01*
X59562419Y-77817115D02*
X58895752Y-77817115D01*
X58562419Y-77817115D02*
X58610038Y-77864734D01*
X58610038Y-77864734D02*
X58657657Y-77817115D01*
X58657657Y-77817115D02*
X58610038Y-77769496D01*
X58610038Y-77769496D02*
X58562419Y-77817115D01*
X58562419Y-77817115D02*
X58657657Y-77817115D01*
X59514800Y-77388544D02*
X59562419Y-77293306D01*
X59562419Y-77293306D02*
X59562419Y-77102830D01*
X59562419Y-77102830D02*
X59514800Y-77007592D01*
X59514800Y-77007592D02*
X59419561Y-76959973D01*
X59419561Y-76959973D02*
X59371942Y-76959973D01*
X59371942Y-76959973D02*
X59276704Y-77007592D01*
X59276704Y-77007592D02*
X59229085Y-77102830D01*
X59229085Y-77102830D02*
X59229085Y-77245687D01*
X59229085Y-77245687D02*
X59181466Y-77340925D01*
X59181466Y-77340925D02*
X59086228Y-77388544D01*
X59086228Y-77388544D02*
X59038609Y-77388544D01*
X59038609Y-77388544D02*
X58943371Y-77340925D01*
X58943371Y-77340925D02*
X58895752Y-77245687D01*
X58895752Y-77245687D02*
X58895752Y-77102830D01*
X58895752Y-77102830D02*
X58943371Y-77007592D01*
X58895752Y-76531401D02*
X59895752Y-76531401D01*
X58943371Y-76531401D02*
X58895752Y-76436163D01*
X58895752Y-76436163D02*
X58895752Y-76245687D01*
X58895752Y-76245687D02*
X58943371Y-76150449D01*
X58943371Y-76150449D02*
X58990990Y-76102830D01*
X58990990Y-76102830D02*
X59086228Y-76055211D01*
X59086228Y-76055211D02*
X59371942Y-76055211D01*
X59371942Y-76055211D02*
X59467180Y-76102830D01*
X59467180Y-76102830D02*
X59514800Y-76150449D01*
X59514800Y-76150449D02*
X59562419Y-76245687D01*
X59562419Y-76245687D02*
X59562419Y-76436163D01*
X59562419Y-76436163D02*
X59514800Y-76531401D01*
X59562419Y-75483782D02*
X59514800Y-75579020D01*
X59514800Y-75579020D02*
X59419561Y-75626639D01*
X59419561Y-75626639D02*
X58562419Y-75626639D01*
X59562419Y-74674258D02*
X59038609Y-74674258D01*
X59038609Y-74674258D02*
X58943371Y-74721877D01*
X58943371Y-74721877D02*
X58895752Y-74817115D01*
X58895752Y-74817115D02*
X58895752Y-75007591D01*
X58895752Y-75007591D02*
X58943371Y-75102829D01*
X59514800Y-74674258D02*
X59562419Y-74769496D01*
X59562419Y-74769496D02*
X59562419Y-75007591D01*
X59562419Y-75007591D02*
X59514800Y-75102829D01*
X59514800Y-75102829D02*
X59419561Y-75150448D01*
X59419561Y-75150448D02*
X59324323Y-75150448D01*
X59324323Y-75150448D02*
X59229085Y-75102829D01*
X59229085Y-75102829D02*
X59181466Y-75007591D01*
X59181466Y-75007591D02*
X59181466Y-74769496D01*
X59181466Y-74769496D02*
X59133847Y-74674258D01*
X58895752Y-74293305D02*
X59562419Y-74055210D01*
X58895752Y-73817115D02*
X59562419Y-74055210D01*
X59562419Y-74055210D02*
X59800514Y-74150448D01*
X59800514Y-74150448D02*
X59848133Y-74198067D01*
X59848133Y-74198067D02*
X59895752Y-74293305D01*
X29085265Y-61292800D02*
X29228122Y-61340419D01*
X29228122Y-61340419D02*
X29466217Y-61340419D01*
X29466217Y-61340419D02*
X29561455Y-61292800D01*
X29561455Y-61292800D02*
X29609074Y-61245180D01*
X29609074Y-61245180D02*
X29656693Y-61149942D01*
X29656693Y-61149942D02*
X29656693Y-61054704D01*
X29656693Y-61054704D02*
X29609074Y-60959466D01*
X29609074Y-60959466D02*
X29561455Y-60911847D01*
X29561455Y-60911847D02*
X29466217Y-60864228D01*
X29466217Y-60864228D02*
X29275741Y-60816609D01*
X29275741Y-60816609D02*
X29180503Y-60768990D01*
X29180503Y-60768990D02*
X29132884Y-60721371D01*
X29132884Y-60721371D02*
X29085265Y-60626133D01*
X29085265Y-60626133D02*
X29085265Y-60530895D01*
X29085265Y-60530895D02*
X29132884Y-60435657D01*
X29132884Y-60435657D02*
X29180503Y-60388038D01*
X29180503Y-60388038D02*
X29275741Y-60340419D01*
X29275741Y-60340419D02*
X29513836Y-60340419D01*
X29513836Y-60340419D02*
X29656693Y-60388038D01*
X29990027Y-60340419D02*
X30228122Y-61340419D01*
X30228122Y-61340419D02*
X30418598Y-60626133D01*
X30418598Y-60626133D02*
X30609074Y-61340419D01*
X30609074Y-61340419D02*
X30847170Y-60340419D01*
X31799550Y-61245180D02*
X31751931Y-61292800D01*
X31751931Y-61292800D02*
X31609074Y-61340419D01*
X31609074Y-61340419D02*
X31513836Y-61340419D01*
X31513836Y-61340419D02*
X31370979Y-61292800D01*
X31370979Y-61292800D02*
X31275741Y-61197561D01*
X31275741Y-61197561D02*
X31228122Y-61102323D01*
X31228122Y-61102323D02*
X31180503Y-60911847D01*
X31180503Y-60911847D02*
X31180503Y-60768990D01*
X31180503Y-60768990D02*
X31228122Y-60578514D01*
X31228122Y-60578514D02*
X31275741Y-60483276D01*
X31275741Y-60483276D02*
X31370979Y-60388038D01*
X31370979Y-60388038D02*
X31513836Y-60340419D01*
X31513836Y-60340419D02*
X31609074Y-60340419D01*
X31609074Y-60340419D02*
X31751931Y-60388038D01*
X31751931Y-60388038D02*
X31799550Y-60435657D01*
X32704312Y-61340419D02*
X32228122Y-61340419D01*
X32228122Y-61340419D02*
X32228122Y-60340419D01*
X33037646Y-61340419D02*
X33037646Y-60340419D01*
X33609074Y-61340419D02*
X33180503Y-60768990D01*
X33609074Y-60340419D02*
X33037646Y-60911847D01*
X73090693Y-53911038D02*
X72995455Y-53863419D01*
X72995455Y-53863419D02*
X72852598Y-53863419D01*
X72852598Y-53863419D02*
X72709741Y-53911038D01*
X72709741Y-53911038D02*
X72614503Y-54006276D01*
X72614503Y-54006276D02*
X72566884Y-54101514D01*
X72566884Y-54101514D02*
X72519265Y-54291990D01*
X72519265Y-54291990D02*
X72519265Y-54434847D01*
X72519265Y-54434847D02*
X72566884Y-54625323D01*
X72566884Y-54625323D02*
X72614503Y-54720561D01*
X72614503Y-54720561D02*
X72709741Y-54815800D01*
X72709741Y-54815800D02*
X72852598Y-54863419D01*
X72852598Y-54863419D02*
X72947836Y-54863419D01*
X72947836Y-54863419D02*
X73090693Y-54815800D01*
X73090693Y-54815800D02*
X73138312Y-54768180D01*
X73138312Y-54768180D02*
X73138312Y-54434847D01*
X73138312Y-54434847D02*
X72947836Y-54434847D01*
X73566884Y-54863419D02*
X73566884Y-53863419D01*
X73566884Y-53863419D02*
X74138312Y-54863419D01*
X74138312Y-54863419D02*
X74138312Y-53863419D01*
X74614503Y-54863419D02*
X74614503Y-53863419D01*
X74614503Y-53863419D02*
X74852598Y-53863419D01*
X74852598Y-53863419D02*
X74995455Y-53911038D01*
X74995455Y-53911038D02*
X75090693Y-54006276D01*
X75090693Y-54006276D02*
X75138312Y-54101514D01*
X75138312Y-54101514D02*
X75185931Y-54291990D01*
X75185931Y-54291990D02*
X75185931Y-54434847D01*
X75185931Y-54434847D02*
X75138312Y-54625323D01*
X75138312Y-54625323D02*
X75090693Y-54720561D01*
X75090693Y-54720561D02*
X74995455Y-54815800D01*
X74995455Y-54815800D02*
X74852598Y-54863419D01*
X74852598Y-54863419D02*
X74614503Y-54863419D01*
X67563419Y-76277115D02*
X66563419Y-76277115D01*
X66563419Y-76277115D02*
X66563419Y-75896163D01*
X66563419Y-75896163D02*
X66611038Y-75800925D01*
X66611038Y-75800925D02*
X66658657Y-75753306D01*
X66658657Y-75753306D02*
X66753895Y-75705687D01*
X66753895Y-75705687D02*
X66896752Y-75705687D01*
X66896752Y-75705687D02*
X66991990Y-75753306D01*
X66991990Y-75753306D02*
X67039609Y-75800925D01*
X67039609Y-75800925D02*
X67087228Y-75896163D01*
X67087228Y-75896163D02*
X67087228Y-76277115D01*
X67563419Y-75277115D02*
X66896752Y-75277115D01*
X66563419Y-75277115D02*
X66611038Y-75324734D01*
X66611038Y-75324734D02*
X66658657Y-75277115D01*
X66658657Y-75277115D02*
X66611038Y-75229496D01*
X66611038Y-75229496D02*
X66563419Y-75277115D01*
X66563419Y-75277115D02*
X66658657Y-75277115D01*
X66563419Y-74896163D02*
X66563419Y-74277116D01*
X66563419Y-74277116D02*
X66944371Y-74610449D01*
X66944371Y-74610449D02*
X66944371Y-74467592D01*
X66944371Y-74467592D02*
X66991990Y-74372354D01*
X66991990Y-74372354D02*
X67039609Y-74324735D01*
X67039609Y-74324735D02*
X67134847Y-74277116D01*
X67134847Y-74277116D02*
X67372942Y-74277116D01*
X67372942Y-74277116D02*
X67468180Y-74324735D01*
X67468180Y-74324735D02*
X67515800Y-74372354D01*
X67515800Y-74372354D02*
X67563419Y-74467592D01*
X67563419Y-74467592D02*
X67563419Y-74753306D01*
X67563419Y-74753306D02*
X67515800Y-74848544D01*
X67515800Y-74848544D02*
X67468180Y-74896163D01*
X80232693Y-44199038D02*
X80137455Y-44151419D01*
X80137455Y-44151419D02*
X79994598Y-44151419D01*
X79994598Y-44151419D02*
X79851741Y-44199038D01*
X79851741Y-44199038D02*
X79756503Y-44294276D01*
X79756503Y-44294276D02*
X79708884Y-44389514D01*
X79708884Y-44389514D02*
X79661265Y-44579990D01*
X79661265Y-44579990D02*
X79661265Y-44722847D01*
X79661265Y-44722847D02*
X79708884Y-44913323D01*
X79708884Y-44913323D02*
X79756503Y-45008561D01*
X79756503Y-45008561D02*
X79851741Y-45103800D01*
X79851741Y-45103800D02*
X79994598Y-45151419D01*
X79994598Y-45151419D02*
X80089836Y-45151419D01*
X80089836Y-45151419D02*
X80232693Y-45103800D01*
X80232693Y-45103800D02*
X80280312Y-45056180D01*
X80280312Y-45056180D02*
X80280312Y-44722847D01*
X80280312Y-44722847D02*
X80089836Y-44722847D01*
X80708884Y-45151419D02*
X80708884Y-44151419D01*
X80708884Y-44151419D02*
X81280312Y-45151419D01*
X81280312Y-45151419D02*
X81280312Y-44151419D01*
X81756503Y-45151419D02*
X81756503Y-44151419D01*
X81756503Y-44151419D02*
X81994598Y-44151419D01*
X81994598Y-44151419D02*
X82137455Y-44199038D01*
X82137455Y-44199038D02*
X82232693Y-44294276D01*
X82232693Y-44294276D02*
X82280312Y-44389514D01*
X82280312Y-44389514D02*
X82327931Y-44579990D01*
X82327931Y-44579990D02*
X82327931Y-44722847D01*
X82327931Y-44722847D02*
X82280312Y-44913323D01*
X82280312Y-44913323D02*
X82232693Y-45008561D01*
X82232693Y-45008561D02*
X82137455Y-45103800D01*
X82137455Y-45103800D02*
X81994598Y-45151419D01*
X81994598Y-45151419D02*
X81756503Y-45151419D01*
X75376693Y-68613038D02*
X75281455Y-68565419D01*
X75281455Y-68565419D02*
X75138598Y-68565419D01*
X75138598Y-68565419D02*
X74995741Y-68613038D01*
X74995741Y-68613038D02*
X74900503Y-68708276D01*
X74900503Y-68708276D02*
X74852884Y-68803514D01*
X74852884Y-68803514D02*
X74805265Y-68993990D01*
X74805265Y-68993990D02*
X74805265Y-69136847D01*
X74805265Y-69136847D02*
X74852884Y-69327323D01*
X74852884Y-69327323D02*
X74900503Y-69422561D01*
X74900503Y-69422561D02*
X74995741Y-69517800D01*
X74995741Y-69517800D02*
X75138598Y-69565419D01*
X75138598Y-69565419D02*
X75233836Y-69565419D01*
X75233836Y-69565419D02*
X75376693Y-69517800D01*
X75376693Y-69517800D02*
X75424312Y-69470180D01*
X75424312Y-69470180D02*
X75424312Y-69136847D01*
X75424312Y-69136847D02*
X75233836Y-69136847D01*
X75852884Y-69565419D02*
X75852884Y-68565419D01*
X75852884Y-68565419D02*
X76424312Y-69565419D01*
X76424312Y-69565419D02*
X76424312Y-68565419D01*
X76900503Y-69565419D02*
X76900503Y-68565419D01*
X76900503Y-68565419D02*
X77138598Y-68565419D01*
X77138598Y-68565419D02*
X77281455Y-68613038D01*
X77281455Y-68613038D02*
X77376693Y-68708276D01*
X77376693Y-68708276D02*
X77424312Y-68803514D01*
X77424312Y-68803514D02*
X77471931Y-68993990D01*
X77471931Y-68993990D02*
X77471931Y-69136847D01*
X77471931Y-69136847D02*
X77424312Y-69327323D01*
X77424312Y-69327323D02*
X77376693Y-69422561D01*
X77376693Y-69422561D02*
X77281455Y-69517800D01*
X77281455Y-69517800D02*
X77138598Y-69565419D01*
X77138598Y-69565419D02*
X76900503Y-69565419D01*
X82409312Y-54863419D02*
X82075979Y-54387228D01*
X81837884Y-54863419D02*
X81837884Y-53863419D01*
X81837884Y-53863419D02*
X82218836Y-53863419D01*
X82218836Y-53863419D02*
X82314074Y-53911038D01*
X82314074Y-53911038D02*
X82361693Y-53958657D01*
X82361693Y-53958657D02*
X82409312Y-54053895D01*
X82409312Y-54053895D02*
X82409312Y-54196752D01*
X82409312Y-54196752D02*
X82361693Y-54291990D01*
X82361693Y-54291990D02*
X82314074Y-54339609D01*
X82314074Y-54339609D02*
X82218836Y-54387228D01*
X82218836Y-54387228D02*
X81837884Y-54387228D01*
X77088419Y-60148115D02*
X76088419Y-60148115D01*
X76088419Y-60148115D02*
X76088419Y-59767163D01*
X76088419Y-59767163D02*
X76136038Y-59671925D01*
X76136038Y-59671925D02*
X76183657Y-59624306D01*
X76183657Y-59624306D02*
X76278895Y-59576687D01*
X76278895Y-59576687D02*
X76421752Y-59576687D01*
X76421752Y-59576687D02*
X76516990Y-59624306D01*
X76516990Y-59624306D02*
X76564609Y-59671925D01*
X76564609Y-59671925D02*
X76612228Y-59767163D01*
X76612228Y-59767163D02*
X76612228Y-60148115D01*
X77088419Y-59005258D02*
X77040800Y-59100496D01*
X77040800Y-59100496D02*
X76993180Y-59148115D01*
X76993180Y-59148115D02*
X76897942Y-59195734D01*
X76897942Y-59195734D02*
X76612228Y-59195734D01*
X76612228Y-59195734D02*
X76516990Y-59148115D01*
X76516990Y-59148115D02*
X76469371Y-59100496D01*
X76469371Y-59100496D02*
X76421752Y-59005258D01*
X76421752Y-59005258D02*
X76421752Y-58862401D01*
X76421752Y-58862401D02*
X76469371Y-58767163D01*
X76469371Y-58767163D02*
X76516990Y-58719544D01*
X76516990Y-58719544D02*
X76612228Y-58671925D01*
X76612228Y-58671925D02*
X76897942Y-58671925D01*
X76897942Y-58671925D02*
X76993180Y-58719544D01*
X76993180Y-58719544D02*
X77040800Y-58767163D01*
X77040800Y-58767163D02*
X77088419Y-58862401D01*
X77088419Y-58862401D02*
X77088419Y-59005258D01*
X76421752Y-58338591D02*
X77088419Y-58148115D01*
X77088419Y-58148115D02*
X76612228Y-57957639D01*
X76612228Y-57957639D02*
X77088419Y-57767163D01*
X77088419Y-57767163D02*
X76421752Y-57576687D01*
X77040800Y-56814782D02*
X77088419Y-56910020D01*
X77088419Y-56910020D02*
X77088419Y-57100496D01*
X77088419Y-57100496D02*
X77040800Y-57195734D01*
X77040800Y-57195734D02*
X76945561Y-57243353D01*
X76945561Y-57243353D02*
X76564609Y-57243353D01*
X76564609Y-57243353D02*
X76469371Y-57195734D01*
X76469371Y-57195734D02*
X76421752Y-57100496D01*
X76421752Y-57100496D02*
X76421752Y-56910020D01*
X76421752Y-56910020D02*
X76469371Y-56814782D01*
X76469371Y-56814782D02*
X76564609Y-56767163D01*
X76564609Y-56767163D02*
X76659847Y-56767163D01*
X76659847Y-56767163D02*
X76755085Y-57243353D01*
X77088419Y-56338591D02*
X76421752Y-56338591D01*
X76612228Y-56338591D02*
X76516990Y-56290972D01*
X76516990Y-56290972D02*
X76469371Y-56243353D01*
X76469371Y-56243353D02*
X76421752Y-56148115D01*
X76421752Y-56148115D02*
X76421752Y-56052877D01*
X72389419Y-78309115D02*
X71389419Y-78309115D01*
X71389419Y-78309115D02*
X71389419Y-77928163D01*
X71389419Y-77928163D02*
X71437038Y-77832925D01*
X71437038Y-77832925D02*
X71484657Y-77785306D01*
X71484657Y-77785306D02*
X71579895Y-77737687D01*
X71579895Y-77737687D02*
X71722752Y-77737687D01*
X71722752Y-77737687D02*
X71817990Y-77785306D01*
X71817990Y-77785306D02*
X71865609Y-77832925D01*
X71865609Y-77832925D02*
X71913228Y-77928163D01*
X71913228Y-77928163D02*
X71913228Y-78309115D01*
X72389419Y-77166258D02*
X72341800Y-77261496D01*
X72341800Y-77261496D02*
X72294180Y-77309115D01*
X72294180Y-77309115D02*
X72198942Y-77356734D01*
X72198942Y-77356734D02*
X71913228Y-77356734D01*
X71913228Y-77356734D02*
X71817990Y-77309115D01*
X71817990Y-77309115D02*
X71770371Y-77261496D01*
X71770371Y-77261496D02*
X71722752Y-77166258D01*
X71722752Y-77166258D02*
X71722752Y-77023401D01*
X71722752Y-77023401D02*
X71770371Y-76928163D01*
X71770371Y-76928163D02*
X71817990Y-76880544D01*
X71817990Y-76880544D02*
X71913228Y-76832925D01*
X71913228Y-76832925D02*
X72198942Y-76832925D01*
X72198942Y-76832925D02*
X72294180Y-76880544D01*
X72294180Y-76880544D02*
X72341800Y-76928163D01*
X72341800Y-76928163D02*
X72389419Y-77023401D01*
X72389419Y-77023401D02*
X72389419Y-77166258D01*
X71722752Y-76499591D02*
X72389419Y-76309115D01*
X72389419Y-76309115D02*
X71913228Y-76118639D01*
X71913228Y-76118639D02*
X72389419Y-75928163D01*
X72389419Y-75928163D02*
X71722752Y-75737687D01*
X72341800Y-74975782D02*
X72389419Y-75071020D01*
X72389419Y-75071020D02*
X72389419Y-75261496D01*
X72389419Y-75261496D02*
X72341800Y-75356734D01*
X72341800Y-75356734D02*
X72246561Y-75404353D01*
X72246561Y-75404353D02*
X71865609Y-75404353D01*
X71865609Y-75404353D02*
X71770371Y-75356734D01*
X71770371Y-75356734D02*
X71722752Y-75261496D01*
X71722752Y-75261496D02*
X71722752Y-75071020D01*
X71722752Y-75071020D02*
X71770371Y-74975782D01*
X71770371Y-74975782D02*
X71865609Y-74928163D01*
X71865609Y-74928163D02*
X71960847Y-74928163D01*
X71960847Y-74928163D02*
X72056085Y-75404353D01*
X72389419Y-74499591D02*
X71722752Y-74499591D01*
X71913228Y-74499591D02*
X71817990Y-74451972D01*
X71817990Y-74451972D02*
X71770371Y-74404353D01*
X71770371Y-74404353D02*
X71722752Y-74309115D01*
X71722752Y-74309115D02*
X71722752Y-74213877D01*
X79882419Y-59322687D02*
X79406228Y-59656020D01*
X79882419Y-59894115D02*
X78882419Y-59894115D01*
X78882419Y-59894115D02*
X78882419Y-59513163D01*
X78882419Y-59513163D02*
X78930038Y-59417925D01*
X78930038Y-59417925D02*
X78977657Y-59370306D01*
X78977657Y-59370306D02*
X79072895Y-59322687D01*
X79072895Y-59322687D02*
X79215752Y-59322687D01*
X79215752Y-59322687D02*
X79310990Y-59370306D01*
X79310990Y-59370306D02*
X79358609Y-59417925D01*
X79358609Y-59417925D02*
X79406228Y-59513163D01*
X79406228Y-59513163D02*
X79406228Y-59894115D01*
X79834800Y-58513163D02*
X79882419Y-58608401D01*
X79882419Y-58608401D02*
X79882419Y-58798877D01*
X79882419Y-58798877D02*
X79834800Y-58894115D01*
X79834800Y-58894115D02*
X79739561Y-58941734D01*
X79739561Y-58941734D02*
X79358609Y-58941734D01*
X79358609Y-58941734D02*
X79263371Y-58894115D01*
X79263371Y-58894115D02*
X79215752Y-58798877D01*
X79215752Y-58798877D02*
X79215752Y-58608401D01*
X79215752Y-58608401D02*
X79263371Y-58513163D01*
X79263371Y-58513163D02*
X79358609Y-58465544D01*
X79358609Y-58465544D02*
X79453847Y-58465544D01*
X79453847Y-58465544D02*
X79549085Y-58941734D01*
X79834800Y-58084591D02*
X79882419Y-57989353D01*
X79882419Y-57989353D02*
X79882419Y-57798877D01*
X79882419Y-57798877D02*
X79834800Y-57703639D01*
X79834800Y-57703639D02*
X79739561Y-57656020D01*
X79739561Y-57656020D02*
X79691942Y-57656020D01*
X79691942Y-57656020D02*
X79596704Y-57703639D01*
X79596704Y-57703639D02*
X79549085Y-57798877D01*
X79549085Y-57798877D02*
X79549085Y-57941734D01*
X79549085Y-57941734D02*
X79501466Y-58036972D01*
X79501466Y-58036972D02*
X79406228Y-58084591D01*
X79406228Y-58084591D02*
X79358609Y-58084591D01*
X79358609Y-58084591D02*
X79263371Y-58036972D01*
X79263371Y-58036972D02*
X79215752Y-57941734D01*
X79215752Y-57941734D02*
X79215752Y-57798877D01*
X79215752Y-57798877D02*
X79263371Y-57703639D01*
X79834800Y-56846496D02*
X79882419Y-56941734D01*
X79882419Y-56941734D02*
X79882419Y-57132210D01*
X79882419Y-57132210D02*
X79834800Y-57227448D01*
X79834800Y-57227448D02*
X79739561Y-57275067D01*
X79739561Y-57275067D02*
X79358609Y-57275067D01*
X79358609Y-57275067D02*
X79263371Y-57227448D01*
X79263371Y-57227448D02*
X79215752Y-57132210D01*
X79215752Y-57132210D02*
X79215752Y-56941734D01*
X79215752Y-56941734D02*
X79263371Y-56846496D01*
X79263371Y-56846496D02*
X79358609Y-56798877D01*
X79358609Y-56798877D02*
X79453847Y-56798877D01*
X79453847Y-56798877D02*
X79549085Y-57275067D01*
X79215752Y-56513162D02*
X79215752Y-56132210D01*
X78882419Y-56370305D02*
X79739561Y-56370305D01*
X79739561Y-56370305D02*
X79834800Y-56322686D01*
X79834800Y-56322686D02*
X79882419Y-56227448D01*
X79882419Y-56227448D02*
X79882419Y-56132210D01*
X29466265Y-56339800D02*
X29609122Y-56387419D01*
X29609122Y-56387419D02*
X29847217Y-56387419D01*
X29847217Y-56387419D02*
X29942455Y-56339800D01*
X29942455Y-56339800D02*
X29990074Y-56292180D01*
X29990074Y-56292180D02*
X30037693Y-56196942D01*
X30037693Y-56196942D02*
X30037693Y-56101704D01*
X30037693Y-56101704D02*
X29990074Y-56006466D01*
X29990074Y-56006466D02*
X29942455Y-55958847D01*
X29942455Y-55958847D02*
X29847217Y-55911228D01*
X29847217Y-55911228D02*
X29656741Y-55863609D01*
X29656741Y-55863609D02*
X29561503Y-55815990D01*
X29561503Y-55815990D02*
X29513884Y-55768371D01*
X29513884Y-55768371D02*
X29466265Y-55673133D01*
X29466265Y-55673133D02*
X29466265Y-55577895D01*
X29466265Y-55577895D02*
X29513884Y-55482657D01*
X29513884Y-55482657D02*
X29561503Y-55435038D01*
X29561503Y-55435038D02*
X29656741Y-55387419D01*
X29656741Y-55387419D02*
X29894836Y-55387419D01*
X29894836Y-55387419D02*
X30037693Y-55435038D01*
X30371027Y-55387419D02*
X30609122Y-56387419D01*
X30609122Y-56387419D02*
X30799598Y-55673133D01*
X30799598Y-55673133D02*
X30990074Y-56387419D01*
X30990074Y-56387419D02*
X31228170Y-55387419D01*
X31609122Y-56387419D02*
X31609122Y-55387419D01*
X31609122Y-55387419D02*
X31847217Y-55387419D01*
X31847217Y-55387419D02*
X31990074Y-55435038D01*
X31990074Y-55435038D02*
X32085312Y-55530276D01*
X32085312Y-55530276D02*
X32132931Y-55625514D01*
X32132931Y-55625514D02*
X32180550Y-55815990D01*
X32180550Y-55815990D02*
X32180550Y-55958847D01*
X32180550Y-55958847D02*
X32132931Y-56149323D01*
X32132931Y-56149323D02*
X32085312Y-56244561D01*
X32085312Y-56244561D02*
X31990074Y-56339800D01*
X31990074Y-56339800D02*
X31847217Y-56387419D01*
X31847217Y-56387419D02*
X31609122Y-56387419D01*
X32609122Y-56387419D02*
X32609122Y-55387419D01*
X33275788Y-55387419D02*
X33466264Y-55387419D01*
X33466264Y-55387419D02*
X33561502Y-55435038D01*
X33561502Y-55435038D02*
X33656740Y-55530276D01*
X33656740Y-55530276D02*
X33704359Y-55720752D01*
X33704359Y-55720752D02*
X33704359Y-56054085D01*
X33704359Y-56054085D02*
X33656740Y-56244561D01*
X33656740Y-56244561D02*
X33561502Y-56339800D01*
X33561502Y-56339800D02*
X33466264Y-56387419D01*
X33466264Y-56387419D02*
X33275788Y-56387419D01*
X33275788Y-56387419D02*
X33180550Y-56339800D01*
X33180550Y-56339800D02*
X33085312Y-56244561D01*
X33085312Y-56244561D02*
X33037693Y-56054085D01*
X33037693Y-56054085D02*
X33037693Y-55720752D01*
X33037693Y-55720752D02*
X33085312Y-55530276D01*
X33085312Y-55530276D02*
X33180550Y-55435038D01*
X33180550Y-55435038D02*
X33275788Y-55387419D01*
X82107693Y-50990038D02*
X82012455Y-50942419D01*
X82012455Y-50942419D02*
X81869598Y-50942419D01*
X81869598Y-50942419D02*
X81726741Y-50990038D01*
X81726741Y-50990038D02*
X81631503Y-51085276D01*
X81631503Y-51085276D02*
X81583884Y-51180514D01*
X81583884Y-51180514D02*
X81536265Y-51370990D01*
X81536265Y-51370990D02*
X81536265Y-51513847D01*
X81536265Y-51513847D02*
X81583884Y-51704323D01*
X81583884Y-51704323D02*
X81631503Y-51799561D01*
X81631503Y-51799561D02*
X81726741Y-51894800D01*
X81726741Y-51894800D02*
X81869598Y-51942419D01*
X81869598Y-51942419D02*
X81964836Y-51942419D01*
X81964836Y-51942419D02*
X82107693Y-51894800D01*
X82107693Y-51894800D02*
X82155312Y-51847180D01*
X82155312Y-51847180D02*
X82155312Y-51513847D01*
X82155312Y-51513847D02*
X81964836Y-51513847D01*
X31434693Y-49750038D02*
X31339455Y-49702419D01*
X31339455Y-49702419D02*
X31196598Y-49702419D01*
X31196598Y-49702419D02*
X31053741Y-49750038D01*
X31053741Y-49750038D02*
X30958503Y-49845276D01*
X30958503Y-49845276D02*
X30910884Y-49940514D01*
X30910884Y-49940514D02*
X30863265Y-50130990D01*
X30863265Y-50130990D02*
X30863265Y-50273847D01*
X30863265Y-50273847D02*
X30910884Y-50464323D01*
X30910884Y-50464323D02*
X30958503Y-50559561D01*
X30958503Y-50559561D02*
X31053741Y-50654800D01*
X31053741Y-50654800D02*
X31196598Y-50702419D01*
X31196598Y-50702419D02*
X31291836Y-50702419D01*
X31291836Y-50702419D02*
X31434693Y-50654800D01*
X31434693Y-50654800D02*
X31482312Y-50607180D01*
X31482312Y-50607180D02*
X31482312Y-50273847D01*
X31482312Y-50273847D02*
X31291836Y-50273847D01*
X31910884Y-50702419D02*
X31910884Y-49702419D01*
X31910884Y-49702419D02*
X32482312Y-50702419D01*
X32482312Y-50702419D02*
X32482312Y-49702419D01*
X32958503Y-50702419D02*
X32958503Y-49702419D01*
X32958503Y-49702419D02*
X33196598Y-49702419D01*
X33196598Y-49702419D02*
X33339455Y-49750038D01*
X33339455Y-49750038D02*
X33434693Y-49845276D01*
X33434693Y-49845276D02*
X33482312Y-49940514D01*
X33482312Y-49940514D02*
X33529931Y-50130990D01*
X33529931Y-50130990D02*
X33529931Y-50273847D01*
X33529931Y-50273847D02*
X33482312Y-50464323D01*
X33482312Y-50464323D02*
X33434693Y-50559561D01*
X33434693Y-50559561D02*
X33339455Y-50654800D01*
X33339455Y-50654800D02*
X33196598Y-50702419D01*
X33196598Y-50702419D02*
X32958503Y-50702419D01*
X27100884Y-75310419D02*
X27100884Y-74310419D01*
X27100884Y-74310419D02*
X27481836Y-74310419D01*
X27481836Y-74310419D02*
X27577074Y-74358038D01*
X27577074Y-74358038D02*
X27624693Y-74405657D01*
X27624693Y-74405657D02*
X27672312Y-74500895D01*
X27672312Y-74500895D02*
X27672312Y-74643752D01*
X27672312Y-74643752D02*
X27624693Y-74738990D01*
X27624693Y-74738990D02*
X27577074Y-74786609D01*
X27577074Y-74786609D02*
X27481836Y-74834228D01*
X27481836Y-74834228D02*
X27100884Y-74834228D01*
X28005646Y-74310419D02*
X28243741Y-75310419D01*
X28243741Y-75310419D02*
X28434217Y-74596133D01*
X28434217Y-74596133D02*
X28624693Y-75310419D01*
X28624693Y-75310419D02*
X28862789Y-74310419D01*
X29243741Y-75310419D02*
X29243741Y-74310419D01*
X29243741Y-74310419D02*
X29577074Y-75024704D01*
X29577074Y-75024704D02*
X29910407Y-74310419D01*
X29910407Y-74310419D02*
X29910407Y-75310419D01*
X31561693Y-57975038D02*
X31466455Y-57927419D01*
X31466455Y-57927419D02*
X31323598Y-57927419D01*
X31323598Y-57927419D02*
X31180741Y-57975038D01*
X31180741Y-57975038D02*
X31085503Y-58070276D01*
X31085503Y-58070276D02*
X31037884Y-58165514D01*
X31037884Y-58165514D02*
X30990265Y-58355990D01*
X30990265Y-58355990D02*
X30990265Y-58498847D01*
X30990265Y-58498847D02*
X31037884Y-58689323D01*
X31037884Y-58689323D02*
X31085503Y-58784561D01*
X31085503Y-58784561D02*
X31180741Y-58879800D01*
X31180741Y-58879800D02*
X31323598Y-58927419D01*
X31323598Y-58927419D02*
X31418836Y-58927419D01*
X31418836Y-58927419D02*
X31561693Y-58879800D01*
X31561693Y-58879800D02*
X31609312Y-58832180D01*
X31609312Y-58832180D02*
X31609312Y-58498847D01*
X31609312Y-58498847D02*
X31418836Y-58498847D01*
X32037884Y-58927419D02*
X32037884Y-57927419D01*
X32037884Y-57927419D02*
X32609312Y-58927419D01*
X32609312Y-58927419D02*
X32609312Y-57927419D01*
X33085503Y-58927419D02*
X33085503Y-57927419D01*
X33085503Y-57927419D02*
X33323598Y-57927419D01*
X33323598Y-57927419D02*
X33466455Y-57975038D01*
X33466455Y-57975038D02*
X33561693Y-58070276D01*
X33561693Y-58070276D02*
X33609312Y-58165514D01*
X33609312Y-58165514D02*
X33656931Y-58355990D01*
X33656931Y-58355990D02*
X33656931Y-58498847D01*
X33656931Y-58498847D02*
X33609312Y-58689323D01*
X33609312Y-58689323D02*
X33561693Y-58784561D01*
X33561693Y-58784561D02*
X33466455Y-58879800D01*
X33466455Y-58879800D02*
X33323598Y-58927419D01*
X33323598Y-58927419D02*
X33085503Y-58927419D01*
X30085312Y-48132419D02*
X29751979Y-47656228D01*
X29513884Y-48132419D02*
X29513884Y-47132419D01*
X29513884Y-47132419D02*
X29894836Y-47132419D01*
X29894836Y-47132419D02*
X29990074Y-47180038D01*
X29990074Y-47180038D02*
X30037693Y-47227657D01*
X30037693Y-47227657D02*
X30085312Y-47322895D01*
X30085312Y-47322895D02*
X30085312Y-47465752D01*
X30085312Y-47465752D02*
X30037693Y-47560990D01*
X30037693Y-47560990D02*
X29990074Y-47608609D01*
X29990074Y-47608609D02*
X29894836Y-47656228D01*
X29894836Y-47656228D02*
X29513884Y-47656228D01*
X30513884Y-47608609D02*
X30847217Y-47608609D01*
X30990074Y-48132419D02*
X30513884Y-48132419D01*
X30513884Y-48132419D02*
X30513884Y-47132419D01*
X30513884Y-47132419D02*
X30990074Y-47132419D01*
X31371027Y-48084800D02*
X31513884Y-48132419D01*
X31513884Y-48132419D02*
X31751979Y-48132419D01*
X31751979Y-48132419D02*
X31847217Y-48084800D01*
X31847217Y-48084800D02*
X31894836Y-48037180D01*
X31894836Y-48037180D02*
X31942455Y-47941942D01*
X31942455Y-47941942D02*
X31942455Y-47846704D01*
X31942455Y-47846704D02*
X31894836Y-47751466D01*
X31894836Y-47751466D02*
X31847217Y-47703847D01*
X31847217Y-47703847D02*
X31751979Y-47656228D01*
X31751979Y-47656228D02*
X31561503Y-47608609D01*
X31561503Y-47608609D02*
X31466265Y-47560990D01*
X31466265Y-47560990D02*
X31418646Y-47513371D01*
X31418646Y-47513371D02*
X31371027Y-47418133D01*
X31371027Y-47418133D02*
X31371027Y-47322895D01*
X31371027Y-47322895D02*
X31418646Y-47227657D01*
X31418646Y-47227657D02*
X31466265Y-47180038D01*
X31466265Y-47180038D02*
X31561503Y-47132419D01*
X31561503Y-47132419D02*
X31799598Y-47132419D01*
X31799598Y-47132419D02*
X31942455Y-47180038D01*
X32371027Y-47608609D02*
X32704360Y-47608609D01*
X32847217Y-48132419D02*
X32371027Y-48132419D01*
X32371027Y-48132419D02*
X32371027Y-47132419D01*
X32371027Y-47132419D02*
X32847217Y-47132419D01*
X33132932Y-47132419D02*
X33704360Y-47132419D01*
X33418646Y-48132419D02*
X33418646Y-47132419D01*
X74932217Y-51799609D02*
X75075074Y-51847228D01*
X75075074Y-51847228D02*
X75122693Y-51894847D01*
X75122693Y-51894847D02*
X75170312Y-51990085D01*
X75170312Y-51990085D02*
X75170312Y-52132942D01*
X75170312Y-52132942D02*
X75122693Y-52228180D01*
X75122693Y-52228180D02*
X75075074Y-52275800D01*
X75075074Y-52275800D02*
X74979836Y-52323419D01*
X74979836Y-52323419D02*
X74598884Y-52323419D01*
X74598884Y-52323419D02*
X74598884Y-51323419D01*
X74598884Y-51323419D02*
X74932217Y-51323419D01*
X74932217Y-51323419D02*
X75027455Y-51371038D01*
X75027455Y-51371038D02*
X75075074Y-51418657D01*
X75075074Y-51418657D02*
X75122693Y-51513895D01*
X75122693Y-51513895D02*
X75122693Y-51609133D01*
X75122693Y-51609133D02*
X75075074Y-51704371D01*
X75075074Y-51704371D02*
X75027455Y-51751990D01*
X75027455Y-51751990D02*
X74932217Y-51799609D01*
X74932217Y-51799609D02*
X74598884Y-51799609D01*
X27497693Y-66738038D02*
X27402455Y-66690419D01*
X27402455Y-66690419D02*
X27259598Y-66690419D01*
X27259598Y-66690419D02*
X27116741Y-66738038D01*
X27116741Y-66738038D02*
X27021503Y-66833276D01*
X27021503Y-66833276D02*
X26973884Y-66928514D01*
X26973884Y-66928514D02*
X26926265Y-67118990D01*
X26926265Y-67118990D02*
X26926265Y-67261847D01*
X26926265Y-67261847D02*
X26973884Y-67452323D01*
X26973884Y-67452323D02*
X27021503Y-67547561D01*
X27021503Y-67547561D02*
X27116741Y-67642800D01*
X27116741Y-67642800D02*
X27259598Y-67690419D01*
X27259598Y-67690419D02*
X27354836Y-67690419D01*
X27354836Y-67690419D02*
X27497693Y-67642800D01*
X27497693Y-67642800D02*
X27545312Y-67595180D01*
X27545312Y-67595180D02*
X27545312Y-67261847D01*
X27545312Y-67261847D02*
X27354836Y-67261847D01*
X27973884Y-67690419D02*
X27973884Y-66690419D01*
X27973884Y-66690419D02*
X28545312Y-67690419D01*
X28545312Y-67690419D02*
X28545312Y-66690419D01*
X29021503Y-67690419D02*
X29021503Y-66690419D01*
X29021503Y-66690419D02*
X29259598Y-66690419D01*
X29259598Y-66690419D02*
X29402455Y-66738038D01*
X29402455Y-66738038D02*
X29497693Y-66833276D01*
X29497693Y-66833276D02*
X29545312Y-66928514D01*
X29545312Y-66928514D02*
X29592931Y-67118990D01*
X29592931Y-67118990D02*
X29592931Y-67261847D01*
X29592931Y-67261847D02*
X29545312Y-67452323D01*
X29545312Y-67452323D02*
X29497693Y-67547561D01*
X29497693Y-67547561D02*
X29402455Y-67642800D01*
X29402455Y-67642800D02*
X29259598Y-67690419D01*
X29259598Y-67690419D02*
X29021503Y-67690419D01*
X38607419Y-61227687D02*
X38131228Y-61561020D01*
X38607419Y-61799115D02*
X37607419Y-61799115D01*
X37607419Y-61799115D02*
X37607419Y-61418163D01*
X37607419Y-61418163D02*
X37655038Y-61322925D01*
X37655038Y-61322925D02*
X37702657Y-61275306D01*
X37702657Y-61275306D02*
X37797895Y-61227687D01*
X37797895Y-61227687D02*
X37940752Y-61227687D01*
X37940752Y-61227687D02*
X38035990Y-61275306D01*
X38035990Y-61275306D02*
X38083609Y-61322925D01*
X38083609Y-61322925D02*
X38131228Y-61418163D01*
X38131228Y-61418163D02*
X38131228Y-61799115D01*
X37607419Y-60894353D02*
X38607419Y-60227687D01*
X37607419Y-60227687D02*
X38607419Y-60894353D01*
X62229419Y-76277115D02*
X61229419Y-76277115D01*
X61229419Y-76277115D02*
X61229419Y-75896163D01*
X61229419Y-75896163D02*
X61277038Y-75800925D01*
X61277038Y-75800925D02*
X61324657Y-75753306D01*
X61324657Y-75753306D02*
X61419895Y-75705687D01*
X61419895Y-75705687D02*
X61562752Y-75705687D01*
X61562752Y-75705687D02*
X61657990Y-75753306D01*
X61657990Y-75753306D02*
X61705609Y-75800925D01*
X61705609Y-75800925D02*
X61753228Y-75896163D01*
X61753228Y-75896163D02*
X61753228Y-76277115D01*
X62229419Y-75277115D02*
X61562752Y-75277115D01*
X61229419Y-75277115D02*
X61277038Y-75324734D01*
X61277038Y-75324734D02*
X61324657Y-75277115D01*
X61324657Y-75277115D02*
X61277038Y-75229496D01*
X61277038Y-75229496D02*
X61229419Y-75277115D01*
X61229419Y-75277115D02*
X61324657Y-75277115D01*
X62229419Y-74277116D02*
X62229419Y-74848544D01*
X62229419Y-74562830D02*
X61229419Y-74562830D01*
X61229419Y-74562830D02*
X61372276Y-74658068D01*
X61372276Y-74658068D02*
X61467514Y-74753306D01*
X61467514Y-74753306D02*
X61515133Y-74848544D01*
X70103419Y-76277115D02*
X69103419Y-76277115D01*
X69103419Y-76277115D02*
X69103419Y-75896163D01*
X69103419Y-75896163D02*
X69151038Y-75800925D01*
X69151038Y-75800925D02*
X69198657Y-75753306D01*
X69198657Y-75753306D02*
X69293895Y-75705687D01*
X69293895Y-75705687D02*
X69436752Y-75705687D01*
X69436752Y-75705687D02*
X69531990Y-75753306D01*
X69531990Y-75753306D02*
X69579609Y-75800925D01*
X69579609Y-75800925D02*
X69627228Y-75896163D01*
X69627228Y-75896163D02*
X69627228Y-76277115D01*
X70103419Y-75277115D02*
X69436752Y-75277115D01*
X69103419Y-75277115D02*
X69151038Y-75324734D01*
X69151038Y-75324734D02*
X69198657Y-75277115D01*
X69198657Y-75277115D02*
X69151038Y-75229496D01*
X69151038Y-75229496D02*
X69103419Y-75277115D01*
X69103419Y-75277115D02*
X69198657Y-75277115D01*
X69436752Y-74372354D02*
X70103419Y-74372354D01*
X69055800Y-74610449D02*
X69770085Y-74848544D01*
X69770085Y-74848544D02*
X69770085Y-74229497D01*
X64896419Y-76277115D02*
X63896419Y-76277115D01*
X63896419Y-76277115D02*
X63896419Y-75896163D01*
X63896419Y-75896163D02*
X63944038Y-75800925D01*
X63944038Y-75800925D02*
X63991657Y-75753306D01*
X63991657Y-75753306D02*
X64086895Y-75705687D01*
X64086895Y-75705687D02*
X64229752Y-75705687D01*
X64229752Y-75705687D02*
X64324990Y-75753306D01*
X64324990Y-75753306D02*
X64372609Y-75800925D01*
X64372609Y-75800925D02*
X64420228Y-75896163D01*
X64420228Y-75896163D02*
X64420228Y-76277115D01*
X64896419Y-75277115D02*
X64229752Y-75277115D01*
X63896419Y-75277115D02*
X63944038Y-75324734D01*
X63944038Y-75324734D02*
X63991657Y-75277115D01*
X63991657Y-75277115D02*
X63944038Y-75229496D01*
X63944038Y-75229496D02*
X63896419Y-75277115D01*
X63896419Y-75277115D02*
X63991657Y-75277115D01*
X63991657Y-74848544D02*
X63944038Y-74800925D01*
X63944038Y-74800925D02*
X63896419Y-74705687D01*
X63896419Y-74705687D02*
X63896419Y-74467592D01*
X63896419Y-74467592D02*
X63944038Y-74372354D01*
X63944038Y-74372354D02*
X63991657Y-74324735D01*
X63991657Y-74324735D02*
X64086895Y-74277116D01*
X64086895Y-74277116D02*
X64182133Y-74277116D01*
X64182133Y-74277116D02*
X64324990Y-74324735D01*
X64324990Y-74324735D02*
X64896419Y-74896163D01*
X64896419Y-74896163D02*
X64896419Y-74277116D01*
X37734419Y-56480972D02*
X37734419Y-55909544D01*
X38734419Y-56195258D02*
X37734419Y-56195258D01*
X37734419Y-55671448D02*
X38734419Y-55004782D01*
X37734419Y-55004782D02*
X38734419Y-55671448D01*
X27545312Y-72770419D02*
X27211979Y-72294228D01*
X26973884Y-72770419D02*
X26973884Y-71770419D01*
X26973884Y-71770419D02*
X27354836Y-71770419D01*
X27354836Y-71770419D02*
X27450074Y-71818038D01*
X27450074Y-71818038D02*
X27497693Y-71865657D01*
X27497693Y-71865657D02*
X27545312Y-71960895D01*
X27545312Y-71960895D02*
X27545312Y-72103752D01*
X27545312Y-72103752D02*
X27497693Y-72198990D01*
X27497693Y-72198990D02*
X27450074Y-72246609D01*
X27450074Y-72246609D02*
X27354836Y-72294228D01*
X27354836Y-72294228D02*
X26973884Y-72294228D01*
X27973884Y-72770419D02*
X27973884Y-71770419D01*
X27973884Y-71770419D02*
X28354836Y-71770419D01*
X28354836Y-71770419D02*
X28450074Y-71818038D01*
X28450074Y-71818038D02*
X28497693Y-71865657D01*
X28497693Y-71865657D02*
X28545312Y-71960895D01*
X28545312Y-71960895D02*
X28545312Y-72103752D01*
X28545312Y-72103752D02*
X28497693Y-72198990D01*
X28497693Y-72198990D02*
X28450074Y-72246609D01*
X28450074Y-72246609D02*
X28354836Y-72294228D01*
X28354836Y-72294228D02*
X27973884Y-72294228D01*
X28973884Y-72770419D02*
X28973884Y-71770419D01*
X28973884Y-71770419D02*
X29307217Y-72484704D01*
X29307217Y-72484704D02*
X29640550Y-71770419D01*
X29640550Y-71770419D02*
X29640550Y-72770419D01*
D11*
X54657666Y-19139819D02*
X54657666Y-19854104D01*
X54657666Y-19854104D02*
X54610047Y-19996961D01*
X54610047Y-19996961D02*
X54514809Y-20092200D01*
X54514809Y-20092200D02*
X54371952Y-20139819D01*
X54371952Y-20139819D02*
X54276714Y-20139819D01*
X55562428Y-19139819D02*
X55371952Y-19139819D01*
X55371952Y-19139819D02*
X55276714Y-19187438D01*
X55276714Y-19187438D02*
X55229095Y-19235057D01*
X55229095Y-19235057D02*
X55133857Y-19377914D01*
X55133857Y-19377914D02*
X55086238Y-19568390D01*
X55086238Y-19568390D02*
X55086238Y-19949342D01*
X55086238Y-19949342D02*
X55133857Y-20044580D01*
X55133857Y-20044580D02*
X55181476Y-20092200D01*
X55181476Y-20092200D02*
X55276714Y-20139819D01*
X55276714Y-20139819D02*
X55467190Y-20139819D01*
X55467190Y-20139819D02*
X55562428Y-20092200D01*
X55562428Y-20092200D02*
X55610047Y-20044580D01*
X55610047Y-20044580D02*
X55657666Y-19949342D01*
X55657666Y-19949342D02*
X55657666Y-19711247D01*
X55657666Y-19711247D02*
X55610047Y-19616009D01*
X55610047Y-19616009D02*
X55562428Y-19568390D01*
X55562428Y-19568390D02*
X55467190Y-19520771D01*
X55467190Y-19520771D02*
X55276714Y-19520771D01*
X55276714Y-19520771D02*
X55181476Y-19568390D01*
X55181476Y-19568390D02*
X55133857Y-19616009D01*
X55133857Y-19616009D02*
X55086238Y-19711247D01*
X34750476Y-45384819D02*
X34750476Y-46099104D01*
X34750476Y-46099104D02*
X34702857Y-46241961D01*
X34702857Y-46241961D02*
X34607619Y-46337200D01*
X34607619Y-46337200D02*
X34464762Y-46384819D01*
X34464762Y-46384819D02*
X34369524Y-46384819D01*
X35750476Y-46384819D02*
X35179048Y-46384819D01*
X35464762Y-46384819D02*
X35464762Y-45384819D01*
X35464762Y-45384819D02*
X35369524Y-45527676D01*
X35369524Y-45527676D02*
X35274286Y-45622914D01*
X35274286Y-45622914D02*
X35179048Y-45670533D01*
X36655238Y-45384819D02*
X36179048Y-45384819D01*
X36179048Y-45384819D02*
X36131429Y-45861009D01*
X36131429Y-45861009D02*
X36179048Y-45813390D01*
X36179048Y-45813390D02*
X36274286Y-45765771D01*
X36274286Y-45765771D02*
X36512381Y-45765771D01*
X36512381Y-45765771D02*
X36607619Y-45813390D01*
X36607619Y-45813390D02*
X36655238Y-45861009D01*
X36655238Y-45861009D02*
X36702857Y-45956247D01*
X36702857Y-45956247D02*
X36702857Y-46194342D01*
X36702857Y-46194342D02*
X36655238Y-46289580D01*
X36655238Y-46289580D02*
X36607619Y-46337200D01*
X36607619Y-46337200D02*
X36512381Y-46384819D01*
X36512381Y-46384819D02*
X36274286Y-46384819D01*
X36274286Y-46384819D02*
X36179048Y-46337200D01*
X36179048Y-46337200D02*
X36131429Y-46289580D01*
X44868180Y-64638095D02*
X44058657Y-64638095D01*
X44058657Y-64638095D02*
X43963419Y-64685714D01*
X43963419Y-64685714D02*
X43915800Y-64733333D01*
X43915800Y-64733333D02*
X43868180Y-64828571D01*
X43868180Y-64828571D02*
X43868180Y-65019047D01*
X43868180Y-65019047D02*
X43915800Y-65114285D01*
X43915800Y-65114285D02*
X43963419Y-65161904D01*
X43963419Y-65161904D02*
X44058657Y-65209523D01*
X44058657Y-65209523D02*
X44868180Y-65209523D01*
X44534847Y-66114285D02*
X43868180Y-66114285D01*
X44915800Y-65876190D02*
X44201514Y-65638095D01*
X44201514Y-65638095D02*
X44201514Y-66257142D01*
X34036095Y-28966819D02*
X34036095Y-27966819D01*
X34036095Y-28443009D02*
X34607523Y-28443009D01*
X34607523Y-28966819D02*
X34607523Y-27966819D01*
X34988476Y-27966819D02*
X35607523Y-27966819D01*
X35607523Y-27966819D02*
X35274190Y-28347771D01*
X35274190Y-28347771D02*
X35417047Y-28347771D01*
X35417047Y-28347771D02*
X35512285Y-28395390D01*
X35512285Y-28395390D02*
X35559904Y-28443009D01*
X35559904Y-28443009D02*
X35607523Y-28538247D01*
X35607523Y-28538247D02*
X35607523Y-28776342D01*
X35607523Y-28776342D02*
X35559904Y-28871580D01*
X35559904Y-28871580D02*
X35512285Y-28919200D01*
X35512285Y-28919200D02*
X35417047Y-28966819D01*
X35417047Y-28966819D02*
X35131333Y-28966819D01*
X35131333Y-28966819D02*
X35036095Y-28919200D01*
X35036095Y-28919200D02*
X34988476Y-28871580D01*
X33565180Y-70310476D02*
X32850895Y-70310476D01*
X32850895Y-70310476D02*
X32708038Y-70262857D01*
X32708038Y-70262857D02*
X32612800Y-70167619D01*
X32612800Y-70167619D02*
X32565180Y-70024762D01*
X32565180Y-70024762D02*
X32565180Y-69929524D01*
X32565180Y-71310476D02*
X32565180Y-70739048D01*
X32565180Y-71024762D02*
X33565180Y-71024762D01*
X33565180Y-71024762D02*
X33422323Y-70929524D01*
X33422323Y-70929524D02*
X33327085Y-70834286D01*
X33327085Y-70834286D02*
X33279466Y-70739048D01*
X32565180Y-72262857D02*
X32565180Y-71691429D01*
X32565180Y-71977143D02*
X33565180Y-71977143D01*
X33565180Y-71977143D02*
X33422323Y-71881905D01*
X33422323Y-71881905D02*
X33327085Y-71786667D01*
X33327085Y-71786667D02*
X33279466Y-71691429D01*
X47585333Y-70050819D02*
X47252000Y-69574628D01*
X47013905Y-70050819D02*
X47013905Y-69050819D01*
X47013905Y-69050819D02*
X47394857Y-69050819D01*
X47394857Y-69050819D02*
X47490095Y-69098438D01*
X47490095Y-69098438D02*
X47537714Y-69146057D01*
X47537714Y-69146057D02*
X47585333Y-69241295D01*
X47585333Y-69241295D02*
X47585333Y-69384152D01*
X47585333Y-69384152D02*
X47537714Y-69479390D01*
X47537714Y-69479390D02*
X47490095Y-69527009D01*
X47490095Y-69527009D02*
X47394857Y-69574628D01*
X47394857Y-69574628D02*
X47013905Y-69574628D01*
X48537714Y-70050819D02*
X47966286Y-70050819D01*
X48252000Y-70050819D02*
X48252000Y-69050819D01*
X48252000Y-69050819D02*
X48156762Y-69193676D01*
X48156762Y-69193676D02*
X48061524Y-69288914D01*
X48061524Y-69288914D02*
X47966286Y-69336533D01*
X77676476Y-72084819D02*
X77676476Y-72799104D01*
X77676476Y-72799104D02*
X77628857Y-72941961D01*
X77628857Y-72941961D02*
X77533619Y-73037200D01*
X77533619Y-73037200D02*
X77390762Y-73084819D01*
X77390762Y-73084819D02*
X77295524Y-73084819D01*
X78676476Y-73084819D02*
X78105048Y-73084819D01*
X78390762Y-73084819D02*
X78390762Y-72084819D01*
X78390762Y-72084819D02*
X78295524Y-72227676D01*
X78295524Y-72227676D02*
X78200286Y-72322914D01*
X78200286Y-72322914D02*
X78105048Y-72370533D01*
X79295524Y-72084819D02*
X79390762Y-72084819D01*
X79390762Y-72084819D02*
X79486000Y-72132438D01*
X79486000Y-72132438D02*
X79533619Y-72180057D01*
X79533619Y-72180057D02*
X79581238Y-72275295D01*
X79581238Y-72275295D02*
X79628857Y-72465771D01*
X79628857Y-72465771D02*
X79628857Y-72703866D01*
X79628857Y-72703866D02*
X79581238Y-72894342D01*
X79581238Y-72894342D02*
X79533619Y-72989580D01*
X79533619Y-72989580D02*
X79486000Y-73037200D01*
X79486000Y-73037200D02*
X79390762Y-73084819D01*
X79390762Y-73084819D02*
X79295524Y-73084819D01*
X79295524Y-73084819D02*
X79200286Y-73037200D01*
X79200286Y-73037200D02*
X79152667Y-72989580D01*
X79152667Y-72989580D02*
X79105048Y-72894342D01*
X79105048Y-72894342D02*
X79057429Y-72703866D01*
X79057429Y-72703866D02*
X79057429Y-72465771D01*
X79057429Y-72465771D02*
X79105048Y-72275295D01*
X79105048Y-72275295D02*
X79152667Y-72180057D01*
X79152667Y-72180057D02*
X79200286Y-72132438D01*
X79200286Y-72132438D02*
X79295524Y-72084819D01*
X55223580Y-66206666D02*
X55271200Y-66254285D01*
X55271200Y-66254285D02*
X55318819Y-66397142D01*
X55318819Y-66397142D02*
X55318819Y-66492380D01*
X55318819Y-66492380D02*
X55271200Y-66635237D01*
X55271200Y-66635237D02*
X55175961Y-66730475D01*
X55175961Y-66730475D02*
X55080723Y-66778094D01*
X55080723Y-66778094D02*
X54890247Y-66825713D01*
X54890247Y-66825713D02*
X54747390Y-66825713D01*
X54747390Y-66825713D02*
X54556914Y-66778094D01*
X54556914Y-66778094D02*
X54461676Y-66730475D01*
X54461676Y-66730475D02*
X54366438Y-66635237D01*
X54366438Y-66635237D02*
X54318819Y-66492380D01*
X54318819Y-66492380D02*
X54318819Y-66397142D01*
X54318819Y-66397142D02*
X54366438Y-66254285D01*
X54366438Y-66254285D02*
X54414057Y-66206666D01*
X54414057Y-65825713D02*
X54366438Y-65778094D01*
X54366438Y-65778094D02*
X54318819Y-65682856D01*
X54318819Y-65682856D02*
X54318819Y-65444761D01*
X54318819Y-65444761D02*
X54366438Y-65349523D01*
X54366438Y-65349523D02*
X54414057Y-65301904D01*
X54414057Y-65301904D02*
X54509295Y-65254285D01*
X54509295Y-65254285D02*
X54604533Y-65254285D01*
X54604533Y-65254285D02*
X54747390Y-65301904D01*
X54747390Y-65301904D02*
X55318819Y-65873332D01*
X55318819Y-65873332D02*
X55318819Y-65254285D01*
X22997200Y-42058332D02*
X23044819Y-41915475D01*
X23044819Y-41915475D02*
X23044819Y-41677380D01*
X23044819Y-41677380D02*
X22997200Y-41582142D01*
X22997200Y-41582142D02*
X22949580Y-41534523D01*
X22949580Y-41534523D02*
X22854342Y-41486904D01*
X22854342Y-41486904D02*
X22759104Y-41486904D01*
X22759104Y-41486904D02*
X22663866Y-41534523D01*
X22663866Y-41534523D02*
X22616247Y-41582142D01*
X22616247Y-41582142D02*
X22568628Y-41677380D01*
X22568628Y-41677380D02*
X22521009Y-41867856D01*
X22521009Y-41867856D02*
X22473390Y-41963094D01*
X22473390Y-41963094D02*
X22425771Y-42010713D01*
X22425771Y-42010713D02*
X22330533Y-42058332D01*
X22330533Y-42058332D02*
X22235295Y-42058332D01*
X22235295Y-42058332D02*
X22140057Y-42010713D01*
X22140057Y-42010713D02*
X22092438Y-41963094D01*
X22092438Y-41963094D02*
X22044819Y-41867856D01*
X22044819Y-41867856D02*
X22044819Y-41629761D01*
X22044819Y-41629761D02*
X22092438Y-41486904D01*
X22044819Y-41153570D02*
X23044819Y-40915475D01*
X23044819Y-40915475D02*
X22330533Y-40724999D01*
X22330533Y-40724999D02*
X23044819Y-40534523D01*
X23044819Y-40534523D02*
X22044819Y-40296428D01*
X23044819Y-39391666D02*
X23044819Y-39963094D01*
X23044819Y-39677380D02*
X22044819Y-39677380D01*
X22044819Y-39677380D02*
X22187676Y-39772618D01*
X22187676Y-39772618D02*
X22282914Y-39867856D01*
X22282914Y-39867856D02*
X22330533Y-39963094D01*
X29811666Y-19139819D02*
X29811666Y-19854104D01*
X29811666Y-19854104D02*
X29764047Y-19996961D01*
X29764047Y-19996961D02*
X29668809Y-20092200D01*
X29668809Y-20092200D02*
X29525952Y-20139819D01*
X29525952Y-20139819D02*
X29430714Y-20139819D01*
X30811666Y-20139819D02*
X30240238Y-20139819D01*
X30525952Y-20139819D02*
X30525952Y-19139819D01*
X30525952Y-19139819D02*
X30430714Y-19282676D01*
X30430714Y-19282676D02*
X30335476Y-19377914D01*
X30335476Y-19377914D02*
X30240238Y-19425533D01*
X83951904Y-47154180D02*
X83951904Y-46344657D01*
X83951904Y-46344657D02*
X83904285Y-46249419D01*
X83904285Y-46249419D02*
X83856666Y-46201800D01*
X83856666Y-46201800D02*
X83761428Y-46154180D01*
X83761428Y-46154180D02*
X83570952Y-46154180D01*
X83570952Y-46154180D02*
X83475714Y-46201800D01*
X83475714Y-46201800D02*
X83428095Y-46249419D01*
X83428095Y-46249419D02*
X83380476Y-46344657D01*
X83380476Y-46344657D02*
X83380476Y-47154180D01*
X82999523Y-47154180D02*
X82380476Y-47154180D01*
X82380476Y-47154180D02*
X82713809Y-46773228D01*
X82713809Y-46773228D02*
X82570952Y-46773228D01*
X82570952Y-46773228D02*
X82475714Y-46725609D01*
X82475714Y-46725609D02*
X82428095Y-46677990D01*
X82428095Y-46677990D02*
X82380476Y-46582752D01*
X82380476Y-46582752D02*
X82380476Y-46344657D01*
X82380476Y-46344657D02*
X82428095Y-46249419D01*
X82428095Y-46249419D02*
X82475714Y-46201800D01*
X82475714Y-46201800D02*
X82570952Y-46154180D01*
X82570952Y-46154180D02*
X82856666Y-46154180D01*
X82856666Y-46154180D02*
X82951904Y-46201800D01*
X82951904Y-46201800D02*
X82999523Y-46249419D01*
X90490266Y-51615180D02*
X90490266Y-52615180D01*
X90490266Y-52615180D02*
X90252171Y-52615180D01*
X90252171Y-52615180D02*
X90109314Y-52567561D01*
X90109314Y-52567561D02*
X90014076Y-52472323D01*
X90014076Y-52472323D02*
X89966457Y-52377085D01*
X89966457Y-52377085D02*
X89918838Y-52186609D01*
X89918838Y-52186609D02*
X89918838Y-52043752D01*
X89918838Y-52043752D02*
X89966457Y-51853276D01*
X89966457Y-51853276D02*
X90014076Y-51758038D01*
X90014076Y-51758038D02*
X90109314Y-51662800D01*
X90109314Y-51662800D02*
X90252171Y-51615180D01*
X90252171Y-51615180D02*
X90490266Y-51615180D01*
X89109314Y-51662800D02*
X89204552Y-51615180D01*
X89204552Y-51615180D02*
X89395028Y-51615180D01*
X89395028Y-51615180D02*
X89490266Y-51662800D01*
X89490266Y-51662800D02*
X89537885Y-51758038D01*
X89537885Y-51758038D02*
X89537885Y-52138990D01*
X89537885Y-52138990D02*
X89490266Y-52234228D01*
X89490266Y-52234228D02*
X89395028Y-52281847D01*
X89395028Y-52281847D02*
X89204552Y-52281847D01*
X89204552Y-52281847D02*
X89109314Y-52234228D01*
X89109314Y-52234228D02*
X89061695Y-52138990D01*
X89061695Y-52138990D02*
X89061695Y-52043752D01*
X89061695Y-52043752D02*
X89537885Y-51948514D01*
X88680742Y-51662800D02*
X88585504Y-51615180D01*
X88585504Y-51615180D02*
X88395028Y-51615180D01*
X88395028Y-51615180D02*
X88299790Y-51662800D01*
X88299790Y-51662800D02*
X88252171Y-51758038D01*
X88252171Y-51758038D02*
X88252171Y-51805657D01*
X88252171Y-51805657D02*
X88299790Y-51900895D01*
X88299790Y-51900895D02*
X88395028Y-51948514D01*
X88395028Y-51948514D02*
X88537885Y-51948514D01*
X88537885Y-51948514D02*
X88633123Y-51996133D01*
X88633123Y-51996133D02*
X88680742Y-52091371D01*
X88680742Y-52091371D02*
X88680742Y-52138990D01*
X88680742Y-52138990D02*
X88633123Y-52234228D01*
X88633123Y-52234228D02*
X88537885Y-52281847D01*
X88537885Y-52281847D02*
X88395028Y-52281847D01*
X88395028Y-52281847D02*
X88299790Y-52234228D01*
X87823599Y-51615180D02*
X87823599Y-52281847D01*
X87823599Y-52615180D02*
X87871218Y-52567561D01*
X87871218Y-52567561D02*
X87823599Y-52519942D01*
X87823599Y-52519942D02*
X87775980Y-52567561D01*
X87775980Y-52567561D02*
X87823599Y-52615180D01*
X87823599Y-52615180D02*
X87823599Y-52519942D01*
X86918838Y-52281847D02*
X86918838Y-51472323D01*
X86918838Y-51472323D02*
X86966457Y-51377085D01*
X86966457Y-51377085D02*
X87014076Y-51329466D01*
X87014076Y-51329466D02*
X87109314Y-51281847D01*
X87109314Y-51281847D02*
X87252171Y-51281847D01*
X87252171Y-51281847D02*
X87347409Y-51329466D01*
X86918838Y-51662800D02*
X87014076Y-51615180D01*
X87014076Y-51615180D02*
X87204552Y-51615180D01*
X87204552Y-51615180D02*
X87299790Y-51662800D01*
X87299790Y-51662800D02*
X87347409Y-51710419D01*
X87347409Y-51710419D02*
X87395028Y-51805657D01*
X87395028Y-51805657D02*
X87395028Y-52091371D01*
X87395028Y-52091371D02*
X87347409Y-52186609D01*
X87347409Y-52186609D02*
X87299790Y-52234228D01*
X87299790Y-52234228D02*
X87204552Y-52281847D01*
X87204552Y-52281847D02*
X87014076Y-52281847D01*
X87014076Y-52281847D02*
X86918838Y-52234228D01*
X86442647Y-52281847D02*
X86442647Y-51615180D01*
X86442647Y-52186609D02*
X86395028Y-52234228D01*
X86395028Y-52234228D02*
X86299790Y-52281847D01*
X86299790Y-52281847D02*
X86156933Y-52281847D01*
X86156933Y-52281847D02*
X86061695Y-52234228D01*
X86061695Y-52234228D02*
X86014076Y-52138990D01*
X86014076Y-52138990D02*
X86014076Y-51615180D01*
X85109314Y-51615180D02*
X85109314Y-52138990D01*
X85109314Y-52138990D02*
X85156933Y-52234228D01*
X85156933Y-52234228D02*
X85252171Y-52281847D01*
X85252171Y-52281847D02*
X85442647Y-52281847D01*
X85442647Y-52281847D02*
X85537885Y-52234228D01*
X85109314Y-51662800D02*
X85204552Y-51615180D01*
X85204552Y-51615180D02*
X85442647Y-51615180D01*
X85442647Y-51615180D02*
X85537885Y-51662800D01*
X85537885Y-51662800D02*
X85585504Y-51758038D01*
X85585504Y-51758038D02*
X85585504Y-51853276D01*
X85585504Y-51853276D02*
X85537885Y-51948514D01*
X85537885Y-51948514D02*
X85442647Y-51996133D01*
X85442647Y-51996133D02*
X85204552Y-51996133D01*
X85204552Y-51996133D02*
X85109314Y-52043752D01*
X84775980Y-52281847D02*
X84395028Y-52281847D01*
X84633123Y-52615180D02*
X84633123Y-51758038D01*
X84633123Y-51758038D02*
X84585504Y-51662800D01*
X84585504Y-51662800D02*
X84490266Y-51615180D01*
X84490266Y-51615180D02*
X84395028Y-51615180D01*
X83918837Y-51615180D02*
X84014075Y-51662800D01*
X84014075Y-51662800D02*
X84061694Y-51710419D01*
X84061694Y-51710419D02*
X84109313Y-51805657D01*
X84109313Y-51805657D02*
X84109313Y-52091371D01*
X84109313Y-52091371D02*
X84061694Y-52186609D01*
X84061694Y-52186609D02*
X84014075Y-52234228D01*
X84014075Y-52234228D02*
X83918837Y-52281847D01*
X83918837Y-52281847D02*
X83775980Y-52281847D01*
X83775980Y-52281847D02*
X83680742Y-52234228D01*
X83680742Y-52234228D02*
X83633123Y-52186609D01*
X83633123Y-52186609D02*
X83585504Y-52091371D01*
X83585504Y-52091371D02*
X83585504Y-51805657D01*
X83585504Y-51805657D02*
X83633123Y-51710419D01*
X83633123Y-51710419D02*
X83680742Y-51662800D01*
X83680742Y-51662800D02*
X83775980Y-51615180D01*
X83775980Y-51615180D02*
X83918837Y-51615180D01*
X83156932Y-51615180D02*
X83156932Y-52281847D01*
X83156932Y-52091371D02*
X83109313Y-52186609D01*
X83109313Y-52186609D02*
X83061694Y-52234228D01*
X83061694Y-52234228D02*
X82966456Y-52281847D01*
X82966456Y-52281847D02*
X82871218Y-52281847D01*
X82395027Y-52186609D02*
X82490265Y-52234228D01*
X82490265Y-52234228D02*
X82537884Y-52281847D01*
X82537884Y-52281847D02*
X82585503Y-52377085D01*
X82585503Y-52377085D02*
X82585503Y-52424704D01*
X82585503Y-52424704D02*
X82537884Y-52519942D01*
X82537884Y-52519942D02*
X82490265Y-52567561D01*
X82490265Y-52567561D02*
X82395027Y-52615180D01*
X82395027Y-52615180D02*
X82204551Y-52615180D01*
X82204551Y-52615180D02*
X82109313Y-52567561D01*
X82109313Y-52567561D02*
X82061694Y-52519942D01*
X82061694Y-52519942D02*
X82014075Y-52424704D01*
X82014075Y-52424704D02*
X82014075Y-52377085D01*
X82014075Y-52377085D02*
X82061694Y-52281847D01*
X82061694Y-52281847D02*
X82109313Y-52234228D01*
X82109313Y-52234228D02*
X82204551Y-52186609D01*
X82204551Y-52186609D02*
X82395027Y-52186609D01*
X82395027Y-52186609D02*
X82490265Y-52138990D01*
X82490265Y-52138990D02*
X82537884Y-52091371D01*
X82537884Y-52091371D02*
X82585503Y-51996133D01*
X82585503Y-51996133D02*
X82585503Y-51805657D01*
X82585503Y-51805657D02*
X82537884Y-51710419D01*
X82537884Y-51710419D02*
X82490265Y-51662800D01*
X82490265Y-51662800D02*
X82395027Y-51615180D01*
X82395027Y-51615180D02*
X82204551Y-51615180D01*
X82204551Y-51615180D02*
X82109313Y-51662800D01*
X82109313Y-51662800D02*
X82061694Y-51710419D01*
X82061694Y-51710419D02*
X82014075Y-51805657D01*
X82014075Y-51805657D02*
X82014075Y-51996133D01*
X82014075Y-51996133D02*
X82061694Y-52091371D01*
X82061694Y-52091371D02*
X82109313Y-52138990D01*
X82109313Y-52138990D02*
X82204551Y-52186609D01*
X81442646Y-52186609D02*
X81537884Y-52234228D01*
X81537884Y-52234228D02*
X81585503Y-52281847D01*
X81585503Y-52281847D02*
X81633122Y-52377085D01*
X81633122Y-52377085D02*
X81633122Y-52424704D01*
X81633122Y-52424704D02*
X81585503Y-52519942D01*
X81585503Y-52519942D02*
X81537884Y-52567561D01*
X81537884Y-52567561D02*
X81442646Y-52615180D01*
X81442646Y-52615180D02*
X81252170Y-52615180D01*
X81252170Y-52615180D02*
X81156932Y-52567561D01*
X81156932Y-52567561D02*
X81109313Y-52519942D01*
X81109313Y-52519942D02*
X81061694Y-52424704D01*
X81061694Y-52424704D02*
X81061694Y-52377085D01*
X81061694Y-52377085D02*
X81109313Y-52281847D01*
X81109313Y-52281847D02*
X81156932Y-52234228D01*
X81156932Y-52234228D02*
X81252170Y-52186609D01*
X81252170Y-52186609D02*
X81442646Y-52186609D01*
X81442646Y-52186609D02*
X81537884Y-52138990D01*
X81537884Y-52138990D02*
X81585503Y-52091371D01*
X81585503Y-52091371D02*
X81633122Y-51996133D01*
X81633122Y-51996133D02*
X81633122Y-51805657D01*
X81633122Y-51805657D02*
X81585503Y-51710419D01*
X81585503Y-51710419D02*
X81537884Y-51662800D01*
X81537884Y-51662800D02*
X81442646Y-51615180D01*
X81442646Y-51615180D02*
X81252170Y-51615180D01*
X81252170Y-51615180D02*
X81156932Y-51662800D01*
X81156932Y-51662800D02*
X81109313Y-51710419D01*
X81109313Y-51710419D02*
X81061694Y-51805657D01*
X81061694Y-51805657D02*
X81061694Y-51996133D01*
X81061694Y-51996133D02*
X81109313Y-52091371D01*
X81109313Y-52091371D02*
X81156932Y-52138990D01*
X81156932Y-52138990D02*
X81252170Y-52186609D01*
X80728360Y-52615180D02*
X80109313Y-52615180D01*
X80109313Y-52615180D02*
X80442646Y-52234228D01*
X80442646Y-52234228D02*
X80299789Y-52234228D01*
X80299789Y-52234228D02*
X80204551Y-52186609D01*
X80204551Y-52186609D02*
X80156932Y-52138990D01*
X80156932Y-52138990D02*
X80109313Y-52043752D01*
X80109313Y-52043752D02*
X80109313Y-51805657D01*
X80109313Y-51805657D02*
X80156932Y-51710419D01*
X80156932Y-51710419D02*
X80204551Y-51662800D01*
X80204551Y-51662800D02*
X80299789Y-51615180D01*
X80299789Y-51615180D02*
X80585503Y-51615180D01*
X80585503Y-51615180D02*
X80680741Y-51662800D01*
X80680741Y-51662800D02*
X80728360Y-51710419D01*
X81280095Y-65542819D02*
X81280095Y-64542819D01*
X81280095Y-65019009D02*
X81851523Y-65019009D01*
X81851523Y-65542819D02*
X81851523Y-64542819D01*
X82280095Y-64638057D02*
X82327714Y-64590438D01*
X82327714Y-64590438D02*
X82422952Y-64542819D01*
X82422952Y-64542819D02*
X82661047Y-64542819D01*
X82661047Y-64542819D02*
X82756285Y-64590438D01*
X82756285Y-64590438D02*
X82803904Y-64638057D01*
X82803904Y-64638057D02*
X82851523Y-64733295D01*
X82851523Y-64733295D02*
X82851523Y-64828533D01*
X82851523Y-64828533D02*
X82803904Y-64971390D01*
X82803904Y-64971390D02*
X82232476Y-65542819D01*
X82232476Y-65542819D02*
X82851523Y-65542819D01*
X72263095Y-51016819D02*
X72263095Y-51826342D01*
X72263095Y-51826342D02*
X72310714Y-51921580D01*
X72310714Y-51921580D02*
X72358333Y-51969200D01*
X72358333Y-51969200D02*
X72453571Y-52016819D01*
X72453571Y-52016819D02*
X72644047Y-52016819D01*
X72644047Y-52016819D02*
X72739285Y-51969200D01*
X72739285Y-51969200D02*
X72786904Y-51921580D01*
X72786904Y-51921580D02*
X72834523Y-51826342D01*
X72834523Y-51826342D02*
X72834523Y-51016819D01*
X73263095Y-51112057D02*
X73310714Y-51064438D01*
X73310714Y-51064438D02*
X73405952Y-51016819D01*
X73405952Y-51016819D02*
X73644047Y-51016819D01*
X73644047Y-51016819D02*
X73739285Y-51064438D01*
X73739285Y-51064438D02*
X73786904Y-51112057D01*
X73786904Y-51112057D02*
X73834523Y-51207295D01*
X73834523Y-51207295D02*
X73834523Y-51302533D01*
X73834523Y-51302533D02*
X73786904Y-51445390D01*
X73786904Y-51445390D02*
X73215476Y-52016819D01*
X73215476Y-52016819D02*
X73834523Y-52016819D01*
X65729733Y-46682819D02*
X65729733Y-45682819D01*
X65729733Y-45682819D02*
X65967828Y-45682819D01*
X65967828Y-45682819D02*
X66110685Y-45730438D01*
X66110685Y-45730438D02*
X66205923Y-45825676D01*
X66205923Y-45825676D02*
X66253542Y-45920914D01*
X66253542Y-45920914D02*
X66301161Y-46111390D01*
X66301161Y-46111390D02*
X66301161Y-46254247D01*
X66301161Y-46254247D02*
X66253542Y-46444723D01*
X66253542Y-46444723D02*
X66205923Y-46539961D01*
X66205923Y-46539961D02*
X66110685Y-46635200D01*
X66110685Y-46635200D02*
X65967828Y-46682819D01*
X65967828Y-46682819D02*
X65729733Y-46682819D01*
X67110685Y-46635200D02*
X67015447Y-46682819D01*
X67015447Y-46682819D02*
X66824971Y-46682819D01*
X66824971Y-46682819D02*
X66729733Y-46635200D01*
X66729733Y-46635200D02*
X66682114Y-46539961D01*
X66682114Y-46539961D02*
X66682114Y-46159009D01*
X66682114Y-46159009D02*
X66729733Y-46063771D01*
X66729733Y-46063771D02*
X66824971Y-46016152D01*
X66824971Y-46016152D02*
X67015447Y-46016152D01*
X67015447Y-46016152D02*
X67110685Y-46063771D01*
X67110685Y-46063771D02*
X67158304Y-46159009D01*
X67158304Y-46159009D02*
X67158304Y-46254247D01*
X67158304Y-46254247D02*
X66682114Y-46349485D01*
X67539257Y-46635200D02*
X67634495Y-46682819D01*
X67634495Y-46682819D02*
X67824971Y-46682819D01*
X67824971Y-46682819D02*
X67920209Y-46635200D01*
X67920209Y-46635200D02*
X67967828Y-46539961D01*
X67967828Y-46539961D02*
X67967828Y-46492342D01*
X67967828Y-46492342D02*
X67920209Y-46397104D01*
X67920209Y-46397104D02*
X67824971Y-46349485D01*
X67824971Y-46349485D02*
X67682114Y-46349485D01*
X67682114Y-46349485D02*
X67586876Y-46301866D01*
X67586876Y-46301866D02*
X67539257Y-46206628D01*
X67539257Y-46206628D02*
X67539257Y-46159009D01*
X67539257Y-46159009D02*
X67586876Y-46063771D01*
X67586876Y-46063771D02*
X67682114Y-46016152D01*
X67682114Y-46016152D02*
X67824971Y-46016152D01*
X67824971Y-46016152D02*
X67920209Y-46063771D01*
X68396400Y-46682819D02*
X68396400Y-46016152D01*
X68396400Y-45682819D02*
X68348781Y-45730438D01*
X68348781Y-45730438D02*
X68396400Y-45778057D01*
X68396400Y-45778057D02*
X68444019Y-45730438D01*
X68444019Y-45730438D02*
X68396400Y-45682819D01*
X68396400Y-45682819D02*
X68396400Y-45778057D01*
X69301161Y-46016152D02*
X69301161Y-46825676D01*
X69301161Y-46825676D02*
X69253542Y-46920914D01*
X69253542Y-46920914D02*
X69205923Y-46968533D01*
X69205923Y-46968533D02*
X69110685Y-47016152D01*
X69110685Y-47016152D02*
X68967828Y-47016152D01*
X68967828Y-47016152D02*
X68872590Y-46968533D01*
X69301161Y-46635200D02*
X69205923Y-46682819D01*
X69205923Y-46682819D02*
X69015447Y-46682819D01*
X69015447Y-46682819D02*
X68920209Y-46635200D01*
X68920209Y-46635200D02*
X68872590Y-46587580D01*
X68872590Y-46587580D02*
X68824971Y-46492342D01*
X68824971Y-46492342D02*
X68824971Y-46206628D01*
X68824971Y-46206628D02*
X68872590Y-46111390D01*
X68872590Y-46111390D02*
X68920209Y-46063771D01*
X68920209Y-46063771D02*
X69015447Y-46016152D01*
X69015447Y-46016152D02*
X69205923Y-46016152D01*
X69205923Y-46016152D02*
X69301161Y-46063771D01*
X69777352Y-46016152D02*
X69777352Y-46682819D01*
X69777352Y-46111390D02*
X69824971Y-46063771D01*
X69824971Y-46063771D02*
X69920209Y-46016152D01*
X69920209Y-46016152D02*
X70063066Y-46016152D01*
X70063066Y-46016152D02*
X70158304Y-46063771D01*
X70158304Y-46063771D02*
X70205923Y-46159009D01*
X70205923Y-46159009D02*
X70205923Y-46682819D01*
X71110685Y-46682819D02*
X71110685Y-46159009D01*
X71110685Y-46159009D02*
X71063066Y-46063771D01*
X71063066Y-46063771D02*
X70967828Y-46016152D01*
X70967828Y-46016152D02*
X70777352Y-46016152D01*
X70777352Y-46016152D02*
X70682114Y-46063771D01*
X71110685Y-46635200D02*
X71015447Y-46682819D01*
X71015447Y-46682819D02*
X70777352Y-46682819D01*
X70777352Y-46682819D02*
X70682114Y-46635200D01*
X70682114Y-46635200D02*
X70634495Y-46539961D01*
X70634495Y-46539961D02*
X70634495Y-46444723D01*
X70634495Y-46444723D02*
X70682114Y-46349485D01*
X70682114Y-46349485D02*
X70777352Y-46301866D01*
X70777352Y-46301866D02*
X71015447Y-46301866D01*
X71015447Y-46301866D02*
X71110685Y-46254247D01*
X71444019Y-46016152D02*
X71824971Y-46016152D01*
X71586876Y-45682819D02*
X71586876Y-46539961D01*
X71586876Y-46539961D02*
X71634495Y-46635200D01*
X71634495Y-46635200D02*
X71729733Y-46682819D01*
X71729733Y-46682819D02*
X71824971Y-46682819D01*
X72301162Y-46682819D02*
X72205924Y-46635200D01*
X72205924Y-46635200D02*
X72158305Y-46587580D01*
X72158305Y-46587580D02*
X72110686Y-46492342D01*
X72110686Y-46492342D02*
X72110686Y-46206628D01*
X72110686Y-46206628D02*
X72158305Y-46111390D01*
X72158305Y-46111390D02*
X72205924Y-46063771D01*
X72205924Y-46063771D02*
X72301162Y-46016152D01*
X72301162Y-46016152D02*
X72444019Y-46016152D01*
X72444019Y-46016152D02*
X72539257Y-46063771D01*
X72539257Y-46063771D02*
X72586876Y-46111390D01*
X72586876Y-46111390D02*
X72634495Y-46206628D01*
X72634495Y-46206628D02*
X72634495Y-46492342D01*
X72634495Y-46492342D02*
X72586876Y-46587580D01*
X72586876Y-46587580D02*
X72539257Y-46635200D01*
X72539257Y-46635200D02*
X72444019Y-46682819D01*
X72444019Y-46682819D02*
X72301162Y-46682819D01*
X73063067Y-46682819D02*
X73063067Y-46016152D01*
X73063067Y-46206628D02*
X73110686Y-46111390D01*
X73110686Y-46111390D02*
X73158305Y-46063771D01*
X73158305Y-46063771D02*
X73253543Y-46016152D01*
X73253543Y-46016152D02*
X73348781Y-46016152D01*
X73824972Y-46111390D02*
X73729734Y-46063771D01*
X73729734Y-46063771D02*
X73682115Y-46016152D01*
X73682115Y-46016152D02*
X73634496Y-45920914D01*
X73634496Y-45920914D02*
X73634496Y-45873295D01*
X73634496Y-45873295D02*
X73682115Y-45778057D01*
X73682115Y-45778057D02*
X73729734Y-45730438D01*
X73729734Y-45730438D02*
X73824972Y-45682819D01*
X73824972Y-45682819D02*
X74015448Y-45682819D01*
X74015448Y-45682819D02*
X74110686Y-45730438D01*
X74110686Y-45730438D02*
X74158305Y-45778057D01*
X74158305Y-45778057D02*
X74205924Y-45873295D01*
X74205924Y-45873295D02*
X74205924Y-45920914D01*
X74205924Y-45920914D02*
X74158305Y-46016152D01*
X74158305Y-46016152D02*
X74110686Y-46063771D01*
X74110686Y-46063771D02*
X74015448Y-46111390D01*
X74015448Y-46111390D02*
X73824972Y-46111390D01*
X73824972Y-46111390D02*
X73729734Y-46159009D01*
X73729734Y-46159009D02*
X73682115Y-46206628D01*
X73682115Y-46206628D02*
X73634496Y-46301866D01*
X73634496Y-46301866D02*
X73634496Y-46492342D01*
X73634496Y-46492342D02*
X73682115Y-46587580D01*
X73682115Y-46587580D02*
X73729734Y-46635200D01*
X73729734Y-46635200D02*
X73824972Y-46682819D01*
X73824972Y-46682819D02*
X74015448Y-46682819D01*
X74015448Y-46682819D02*
X74110686Y-46635200D01*
X74110686Y-46635200D02*
X74158305Y-46587580D01*
X74158305Y-46587580D02*
X74205924Y-46492342D01*
X74205924Y-46492342D02*
X74205924Y-46301866D01*
X74205924Y-46301866D02*
X74158305Y-46206628D01*
X74158305Y-46206628D02*
X74110686Y-46159009D01*
X74110686Y-46159009D02*
X74015448Y-46111390D01*
X74777353Y-46111390D02*
X74682115Y-46063771D01*
X74682115Y-46063771D02*
X74634496Y-46016152D01*
X74634496Y-46016152D02*
X74586877Y-45920914D01*
X74586877Y-45920914D02*
X74586877Y-45873295D01*
X74586877Y-45873295D02*
X74634496Y-45778057D01*
X74634496Y-45778057D02*
X74682115Y-45730438D01*
X74682115Y-45730438D02*
X74777353Y-45682819D01*
X74777353Y-45682819D02*
X74967829Y-45682819D01*
X74967829Y-45682819D02*
X75063067Y-45730438D01*
X75063067Y-45730438D02*
X75110686Y-45778057D01*
X75110686Y-45778057D02*
X75158305Y-45873295D01*
X75158305Y-45873295D02*
X75158305Y-45920914D01*
X75158305Y-45920914D02*
X75110686Y-46016152D01*
X75110686Y-46016152D02*
X75063067Y-46063771D01*
X75063067Y-46063771D02*
X74967829Y-46111390D01*
X74967829Y-46111390D02*
X74777353Y-46111390D01*
X74777353Y-46111390D02*
X74682115Y-46159009D01*
X74682115Y-46159009D02*
X74634496Y-46206628D01*
X74634496Y-46206628D02*
X74586877Y-46301866D01*
X74586877Y-46301866D02*
X74586877Y-46492342D01*
X74586877Y-46492342D02*
X74634496Y-46587580D01*
X74634496Y-46587580D02*
X74682115Y-46635200D01*
X74682115Y-46635200D02*
X74777353Y-46682819D01*
X74777353Y-46682819D02*
X74967829Y-46682819D01*
X74967829Y-46682819D02*
X75063067Y-46635200D01*
X75063067Y-46635200D02*
X75110686Y-46587580D01*
X75110686Y-46587580D02*
X75158305Y-46492342D01*
X75158305Y-46492342D02*
X75158305Y-46301866D01*
X75158305Y-46301866D02*
X75110686Y-46206628D01*
X75110686Y-46206628D02*
X75063067Y-46159009D01*
X75063067Y-46159009D02*
X74967829Y-46111390D01*
X75491639Y-45682819D02*
X76110686Y-45682819D01*
X76110686Y-45682819D02*
X75777353Y-46063771D01*
X75777353Y-46063771D02*
X75920210Y-46063771D01*
X75920210Y-46063771D02*
X76015448Y-46111390D01*
X76015448Y-46111390D02*
X76063067Y-46159009D01*
X76063067Y-46159009D02*
X76110686Y-46254247D01*
X76110686Y-46254247D02*
X76110686Y-46492342D01*
X76110686Y-46492342D02*
X76063067Y-46587580D01*
X76063067Y-46587580D02*
X76015448Y-46635200D01*
X76015448Y-46635200D02*
X75920210Y-46682819D01*
X75920210Y-46682819D02*
X75634496Y-46682819D01*
X75634496Y-46682819D02*
X75539258Y-46635200D01*
X75539258Y-46635200D02*
X75491639Y-46587580D01*
X77771666Y-43733819D02*
X77771666Y-44448104D01*
X77771666Y-44448104D02*
X77724047Y-44590961D01*
X77724047Y-44590961D02*
X77628809Y-44686200D01*
X77628809Y-44686200D02*
X77485952Y-44733819D01*
X77485952Y-44733819D02*
X77390714Y-44733819D01*
X78724047Y-43733819D02*
X78247857Y-43733819D01*
X78247857Y-43733819D02*
X78200238Y-44210009D01*
X78200238Y-44210009D02*
X78247857Y-44162390D01*
X78247857Y-44162390D02*
X78343095Y-44114771D01*
X78343095Y-44114771D02*
X78581190Y-44114771D01*
X78581190Y-44114771D02*
X78676428Y-44162390D01*
X78676428Y-44162390D02*
X78724047Y-44210009D01*
X78724047Y-44210009D02*
X78771666Y-44305247D01*
X78771666Y-44305247D02*
X78771666Y-44543342D01*
X78771666Y-44543342D02*
X78724047Y-44638580D01*
X78724047Y-44638580D02*
X78676428Y-44686200D01*
X78676428Y-44686200D02*
X78581190Y-44733819D01*
X78581190Y-44733819D02*
X78343095Y-44733819D01*
X78343095Y-44733819D02*
X78247857Y-44686200D01*
X78247857Y-44686200D02*
X78200238Y-44638580D01*
X40306666Y-62744819D02*
X40306666Y-63459104D01*
X40306666Y-63459104D02*
X40259047Y-63601961D01*
X40259047Y-63601961D02*
X40163809Y-63697200D01*
X40163809Y-63697200D02*
X40020952Y-63744819D01*
X40020952Y-63744819D02*
X39925714Y-63744819D01*
X40687619Y-62744819D02*
X41306666Y-62744819D01*
X41306666Y-62744819D02*
X40973333Y-63125771D01*
X40973333Y-63125771D02*
X41116190Y-63125771D01*
X41116190Y-63125771D02*
X41211428Y-63173390D01*
X41211428Y-63173390D02*
X41259047Y-63221009D01*
X41259047Y-63221009D02*
X41306666Y-63316247D01*
X41306666Y-63316247D02*
X41306666Y-63554342D01*
X41306666Y-63554342D02*
X41259047Y-63649580D01*
X41259047Y-63649580D02*
X41211428Y-63697200D01*
X41211428Y-63697200D02*
X41116190Y-63744819D01*
X41116190Y-63744819D02*
X40830476Y-63744819D01*
X40830476Y-63744819D02*
X40735238Y-63697200D01*
X40735238Y-63697200D02*
X40687619Y-63649580D01*
X52996180Y-61849095D02*
X52186657Y-61849095D01*
X52186657Y-61849095D02*
X52091419Y-61896714D01*
X52091419Y-61896714D02*
X52043800Y-61944333D01*
X52043800Y-61944333D02*
X51996180Y-62039571D01*
X51996180Y-62039571D02*
X51996180Y-62230047D01*
X51996180Y-62230047D02*
X52043800Y-62325285D01*
X52043800Y-62325285D02*
X52091419Y-62372904D01*
X52091419Y-62372904D02*
X52186657Y-62420523D01*
X52186657Y-62420523D02*
X52996180Y-62420523D01*
X52996180Y-63372904D02*
X52996180Y-62896714D01*
X52996180Y-62896714D02*
X52519990Y-62849095D01*
X52519990Y-62849095D02*
X52567609Y-62896714D01*
X52567609Y-62896714D02*
X52615228Y-62991952D01*
X52615228Y-62991952D02*
X52615228Y-63230047D01*
X52615228Y-63230047D02*
X52567609Y-63325285D01*
X52567609Y-63325285D02*
X52519990Y-63372904D01*
X52519990Y-63372904D02*
X52424752Y-63420523D01*
X52424752Y-63420523D02*
X52186657Y-63420523D01*
X52186657Y-63420523D02*
X52091419Y-63372904D01*
X52091419Y-63372904D02*
X52043800Y-63325285D01*
X52043800Y-63325285D02*
X51996180Y-63230047D01*
X51996180Y-63230047D02*
X51996180Y-62991952D01*
X51996180Y-62991952D02*
X52043800Y-62896714D01*
X52043800Y-62896714D02*
X52091419Y-62849095D01*
X56433819Y-71326333D02*
X57148104Y-71326333D01*
X57148104Y-71326333D02*
X57290961Y-71373952D01*
X57290961Y-71373952D02*
X57386200Y-71469190D01*
X57386200Y-71469190D02*
X57433819Y-71612047D01*
X57433819Y-71612047D02*
X57433819Y-71707285D01*
X56862390Y-70707285D02*
X56814771Y-70802523D01*
X56814771Y-70802523D02*
X56767152Y-70850142D01*
X56767152Y-70850142D02*
X56671914Y-70897761D01*
X56671914Y-70897761D02*
X56624295Y-70897761D01*
X56624295Y-70897761D02*
X56529057Y-70850142D01*
X56529057Y-70850142D02*
X56481438Y-70802523D01*
X56481438Y-70802523D02*
X56433819Y-70707285D01*
X56433819Y-70707285D02*
X56433819Y-70516809D01*
X56433819Y-70516809D02*
X56481438Y-70421571D01*
X56481438Y-70421571D02*
X56529057Y-70373952D01*
X56529057Y-70373952D02*
X56624295Y-70326333D01*
X56624295Y-70326333D02*
X56671914Y-70326333D01*
X56671914Y-70326333D02*
X56767152Y-70373952D01*
X56767152Y-70373952D02*
X56814771Y-70421571D01*
X56814771Y-70421571D02*
X56862390Y-70516809D01*
X56862390Y-70516809D02*
X56862390Y-70707285D01*
X56862390Y-70707285D02*
X56910009Y-70802523D01*
X56910009Y-70802523D02*
X56957628Y-70850142D01*
X56957628Y-70850142D02*
X57052866Y-70897761D01*
X57052866Y-70897761D02*
X57243342Y-70897761D01*
X57243342Y-70897761D02*
X57338580Y-70850142D01*
X57338580Y-70850142D02*
X57386200Y-70802523D01*
X57386200Y-70802523D02*
X57433819Y-70707285D01*
X57433819Y-70707285D02*
X57433819Y-70516809D01*
X57433819Y-70516809D02*
X57386200Y-70421571D01*
X57386200Y-70421571D02*
X57338580Y-70373952D01*
X57338580Y-70373952D02*
X57243342Y-70326333D01*
X57243342Y-70326333D02*
X57052866Y-70326333D01*
X57052866Y-70326333D02*
X56957628Y-70373952D01*
X56957628Y-70373952D02*
X56910009Y-70421571D01*
X56910009Y-70421571D02*
X56862390Y-70516809D01*
X75922261Y-38694057D02*
X75827023Y-38646438D01*
X75827023Y-38646438D02*
X75731785Y-38551200D01*
X75731785Y-38551200D02*
X75588928Y-38408342D01*
X75588928Y-38408342D02*
X75493690Y-38360723D01*
X75493690Y-38360723D02*
X75398452Y-38360723D01*
X75446071Y-38598819D02*
X75350833Y-38551200D01*
X75350833Y-38551200D02*
X75255595Y-38455961D01*
X75255595Y-38455961D02*
X75207976Y-38265485D01*
X75207976Y-38265485D02*
X75207976Y-37932152D01*
X75207976Y-37932152D02*
X75255595Y-37741676D01*
X75255595Y-37741676D02*
X75350833Y-37646438D01*
X75350833Y-37646438D02*
X75446071Y-37598819D01*
X75446071Y-37598819D02*
X75636547Y-37598819D01*
X75636547Y-37598819D02*
X75731785Y-37646438D01*
X75731785Y-37646438D02*
X75827023Y-37741676D01*
X75827023Y-37741676D02*
X75874642Y-37932152D01*
X75874642Y-37932152D02*
X75874642Y-38265485D01*
X75874642Y-38265485D02*
X75827023Y-38455961D01*
X75827023Y-38455961D02*
X75731785Y-38551200D01*
X75731785Y-38551200D02*
X75636547Y-38598819D01*
X75636547Y-38598819D02*
X75446071Y-38598819D01*
X76827023Y-38598819D02*
X76255595Y-38598819D01*
X76541309Y-38598819D02*
X76541309Y-37598819D01*
X76541309Y-37598819D02*
X76446071Y-37741676D01*
X76446071Y-37741676D02*
X76350833Y-37836914D01*
X76350833Y-37836914D02*
X76255595Y-37884533D01*
X67080666Y-19139819D02*
X67080666Y-19854104D01*
X67080666Y-19854104D02*
X67033047Y-19996961D01*
X67033047Y-19996961D02*
X66937809Y-20092200D01*
X66937809Y-20092200D02*
X66794952Y-20139819D01*
X66794952Y-20139819D02*
X66699714Y-20139819D01*
X67461619Y-19139819D02*
X68128285Y-19139819D01*
X68128285Y-19139819D02*
X67699714Y-20139819D01*
X35226666Y-53004819D02*
X35226666Y-53719104D01*
X35226666Y-53719104D02*
X35179047Y-53861961D01*
X35179047Y-53861961D02*
X35083809Y-53957200D01*
X35083809Y-53957200D02*
X34940952Y-54004819D01*
X34940952Y-54004819D02*
X34845714Y-54004819D01*
X36131428Y-53338152D02*
X36131428Y-54004819D01*
X35893333Y-52957200D02*
X35655238Y-53671485D01*
X35655238Y-53671485D02*
X36274285Y-53671485D01*
X49000580Y-63412666D02*
X49048200Y-63460285D01*
X49048200Y-63460285D02*
X49095819Y-63603142D01*
X49095819Y-63603142D02*
X49095819Y-63698380D01*
X49095819Y-63698380D02*
X49048200Y-63841237D01*
X49048200Y-63841237D02*
X48952961Y-63936475D01*
X48952961Y-63936475D02*
X48857723Y-63984094D01*
X48857723Y-63984094D02*
X48667247Y-64031713D01*
X48667247Y-64031713D02*
X48524390Y-64031713D01*
X48524390Y-64031713D02*
X48333914Y-63984094D01*
X48333914Y-63984094D02*
X48238676Y-63936475D01*
X48238676Y-63936475D02*
X48143438Y-63841237D01*
X48143438Y-63841237D02*
X48095819Y-63698380D01*
X48095819Y-63698380D02*
X48095819Y-63603142D01*
X48095819Y-63603142D02*
X48143438Y-63460285D01*
X48143438Y-63460285D02*
X48191057Y-63412666D01*
X49095819Y-62460285D02*
X49095819Y-63031713D01*
X49095819Y-62745999D02*
X48095819Y-62745999D01*
X48095819Y-62745999D02*
X48238676Y-62841237D01*
X48238676Y-62841237D02*
X48333914Y-62936475D01*
X48333914Y-62936475D02*
X48381533Y-63031713D01*
X79503666Y-19139819D02*
X79503666Y-19854104D01*
X79503666Y-19854104D02*
X79456047Y-19996961D01*
X79456047Y-19996961D02*
X79360809Y-20092200D01*
X79360809Y-20092200D02*
X79217952Y-20139819D01*
X79217952Y-20139819D02*
X79122714Y-20139819D01*
X80027476Y-20139819D02*
X80217952Y-20139819D01*
X80217952Y-20139819D02*
X80313190Y-20092200D01*
X80313190Y-20092200D02*
X80360809Y-20044580D01*
X80360809Y-20044580D02*
X80456047Y-19901723D01*
X80456047Y-19901723D02*
X80503666Y-19711247D01*
X80503666Y-19711247D02*
X80503666Y-19330295D01*
X80503666Y-19330295D02*
X80456047Y-19235057D01*
X80456047Y-19235057D02*
X80408428Y-19187438D01*
X80408428Y-19187438D02*
X80313190Y-19139819D01*
X80313190Y-19139819D02*
X80122714Y-19139819D01*
X80122714Y-19139819D02*
X80027476Y-19187438D01*
X80027476Y-19187438D02*
X79979857Y-19235057D01*
X79979857Y-19235057D02*
X79932238Y-19330295D01*
X79932238Y-19330295D02*
X79932238Y-19568390D01*
X79932238Y-19568390D02*
X79979857Y-19663628D01*
X79979857Y-19663628D02*
X80027476Y-19711247D01*
X80027476Y-19711247D02*
X80122714Y-19758866D01*
X80122714Y-19758866D02*
X80313190Y-19758866D01*
X80313190Y-19758866D02*
X80408428Y-19711247D01*
X80408428Y-19711247D02*
X80456047Y-19663628D01*
X80456047Y-19663628D02*
X80503666Y-19568390D01*
X92068180Y-52734474D02*
X91353895Y-52734474D01*
X91353895Y-52734474D02*
X91211038Y-52686855D01*
X91211038Y-52686855D02*
X91115800Y-52591617D01*
X91115800Y-52591617D02*
X91068180Y-52448760D01*
X91068180Y-52448760D02*
X91068180Y-52353522D01*
X91068180Y-53734474D02*
X91068180Y-53163046D01*
X91068180Y-53448760D02*
X92068180Y-53448760D01*
X92068180Y-53448760D02*
X91925323Y-53353522D01*
X91925323Y-53353522D02*
X91830085Y-53258284D01*
X91830085Y-53258284D02*
X91782466Y-53163046D01*
X92068180Y-54067808D02*
X92068180Y-54686855D01*
X92068180Y-54686855D02*
X91687228Y-54353522D01*
X91687228Y-54353522D02*
X91687228Y-54496379D01*
X91687228Y-54496379D02*
X91639609Y-54591617D01*
X91639609Y-54591617D02*
X91591990Y-54639236D01*
X91591990Y-54639236D02*
X91496752Y-54686855D01*
X91496752Y-54686855D02*
X91258657Y-54686855D01*
X91258657Y-54686855D02*
X91163419Y-54639236D01*
X91163419Y-54639236D02*
X91115800Y-54591617D01*
X91115800Y-54591617D02*
X91068180Y-54496379D01*
X91068180Y-54496379D02*
X91068180Y-54210665D01*
X91068180Y-54210665D02*
X91115800Y-54115427D01*
X91115800Y-54115427D02*
X91163419Y-54067808D01*
X40311380Y-70310476D02*
X39597095Y-70310476D01*
X39597095Y-70310476D02*
X39454238Y-70262857D01*
X39454238Y-70262857D02*
X39359000Y-70167619D01*
X39359000Y-70167619D02*
X39311380Y-70024762D01*
X39311380Y-70024762D02*
X39311380Y-69929524D01*
X39311380Y-71310476D02*
X39311380Y-70739048D01*
X39311380Y-71024762D02*
X40311380Y-71024762D01*
X40311380Y-71024762D02*
X40168523Y-70929524D01*
X40168523Y-70929524D02*
X40073285Y-70834286D01*
X40073285Y-70834286D02*
X40025666Y-70739048D01*
X40216142Y-71691429D02*
X40263761Y-71739048D01*
X40263761Y-71739048D02*
X40311380Y-71834286D01*
X40311380Y-71834286D02*
X40311380Y-72072381D01*
X40311380Y-72072381D02*
X40263761Y-72167619D01*
X40263761Y-72167619D02*
X40216142Y-72215238D01*
X40216142Y-72215238D02*
X40120904Y-72262857D01*
X40120904Y-72262857D02*
X40025666Y-72262857D01*
X40025666Y-72262857D02*
X39882809Y-72215238D01*
X39882809Y-72215238D02*
X39311380Y-71643810D01*
X39311380Y-71643810D02*
X39311380Y-72262857D01*
X42234666Y-19139819D02*
X42234666Y-19854104D01*
X42234666Y-19854104D02*
X42187047Y-19996961D01*
X42187047Y-19996961D02*
X42091809Y-20092200D01*
X42091809Y-20092200D02*
X41948952Y-20139819D01*
X41948952Y-20139819D02*
X41853714Y-20139819D01*
X42663238Y-19235057D02*
X42710857Y-19187438D01*
X42710857Y-19187438D02*
X42806095Y-19139819D01*
X42806095Y-19139819D02*
X43044190Y-19139819D01*
X43044190Y-19139819D02*
X43139428Y-19187438D01*
X43139428Y-19187438D02*
X43187047Y-19235057D01*
X43187047Y-19235057D02*
X43234666Y-19330295D01*
X43234666Y-19330295D02*
X43234666Y-19425533D01*
X43234666Y-19425533D02*
X43187047Y-19568390D01*
X43187047Y-19568390D02*
X42615619Y-20139819D01*
X42615619Y-20139819D02*
X43234666Y-20139819D01*
X52665333Y-70304819D02*
X52332000Y-69828628D01*
X52093905Y-70304819D02*
X52093905Y-69304819D01*
X52093905Y-69304819D02*
X52474857Y-69304819D01*
X52474857Y-69304819D02*
X52570095Y-69352438D01*
X52570095Y-69352438D02*
X52617714Y-69400057D01*
X52617714Y-69400057D02*
X52665333Y-69495295D01*
X52665333Y-69495295D02*
X52665333Y-69638152D01*
X52665333Y-69638152D02*
X52617714Y-69733390D01*
X52617714Y-69733390D02*
X52570095Y-69781009D01*
X52570095Y-69781009D02*
X52474857Y-69828628D01*
X52474857Y-69828628D02*
X52093905Y-69828628D01*
X53046286Y-69400057D02*
X53093905Y-69352438D01*
X53093905Y-69352438D02*
X53189143Y-69304819D01*
X53189143Y-69304819D02*
X53427238Y-69304819D01*
X53427238Y-69304819D02*
X53522476Y-69352438D01*
X53522476Y-69352438D02*
X53570095Y-69400057D01*
X53570095Y-69400057D02*
X53617714Y-69495295D01*
X53617714Y-69495295D02*
X53617714Y-69590533D01*
X53617714Y-69590533D02*
X53570095Y-69733390D01*
X53570095Y-69733390D02*
X52998667Y-70304819D01*
X52998667Y-70304819D02*
X53617714Y-70304819D01*
X81280095Y-28966819D02*
X81280095Y-27966819D01*
X81280095Y-28443009D02*
X81851523Y-28443009D01*
X81851523Y-28966819D02*
X81851523Y-27966819D01*
X82851523Y-28966819D02*
X82280095Y-28966819D01*
X82565809Y-28966819D02*
X82565809Y-27966819D01*
X82565809Y-27966819D02*
X82470571Y-28109676D01*
X82470571Y-28109676D02*
X82375333Y-28204914D01*
X82375333Y-28204914D02*
X82280095Y-28252533D01*
D12*
%TO.C,J6*%
X51686000Y-23951500D02*
X51686000Y-22633500D01*
X51686000Y-25578500D02*
X51686000Y-26896500D01*
X60836000Y-23951500D02*
X60836000Y-22633500D01*
X60836000Y-25578500D02*
X60836000Y-26896500D01*
D13*
X53611000Y-20515000D02*
G75*
G02*
X53411000Y-20515000I-100000J0D01*
G01*
X53411000Y-20515000D02*
G75*
G02*
X53611000Y-20515000I100000J0D01*
G01*
D14*
%TO.C,J15*%
X34230000Y-46930000D02*
X35560000Y-46930000D01*
X34230000Y-48260000D02*
X34230000Y-46930000D01*
X34230000Y-49530000D02*
X34230000Y-52130000D01*
X34230000Y-49530000D02*
X36890000Y-49530000D01*
X34230000Y-52130000D02*
X36890000Y-52130000D01*
X36890000Y-49530000D02*
X36890000Y-52130000D01*
D13*
%TO.C,U4*%
X45210000Y-65024999D02*
X45210000Y-65775001D01*
X47310000Y-64350000D02*
X47310000Y-65525001D01*
D15*
%TO.C,J11*%
X30351001Y-65887600D02*
X30351001Y-69012037D01*
X30351001Y-70687963D02*
X30351001Y-76352400D01*
X30351001Y-76352400D02*
X36447001Y-76352400D01*
X36447001Y-65887600D02*
X30351001Y-65887600D01*
X36447001Y-76352400D02*
X36447001Y-65887600D01*
D16*
X33401000Y-76987400D02*
G75*
G02*
X32639000Y-76987400I-381000J0D01*
G01*
X32639000Y-76987400D02*
G75*
G02*
X33401000Y-76987400I381000J0D01*
G01*
D14*
%TO.C,R1*%
X47505276Y-67877500D02*
X48014724Y-67877500D01*
X47505276Y-68922500D02*
X48014724Y-68922500D01*
D12*
%TO.C,J10*%
X75181000Y-76896500D02*
X75181000Y-75578500D01*
X75181000Y-78523500D02*
X75181000Y-79841500D01*
X84331000Y-76896500D02*
X84331000Y-75578500D01*
X84331000Y-78523500D02*
X84331000Y-79841500D01*
D13*
X77106000Y-73460000D02*
G75*
G02*
X76906000Y-73460000I-100000J0D01*
G01*
X76906000Y-73460000D02*
G75*
G02*
X77106000Y-73460000I100000J0D01*
G01*
D14*
%TO.C,C2*%
X52830000Y-66186267D02*
X52830000Y-65893733D01*
X53850000Y-66186267D02*
X53850000Y-65893733D01*
%TO.C,SW1*%
X25240000Y-38375000D02*
X25240000Y-39300000D01*
X25240000Y-42150000D02*
X25240000Y-43075000D01*
X27365000Y-38275000D02*
X26815000Y-38275000D01*
X27365000Y-43175000D02*
X26815000Y-43175000D01*
X28940000Y-38375000D02*
X28940000Y-43075000D01*
D12*
%TO.C,J1*%
X26840000Y-23951500D02*
X26840000Y-22633500D01*
X26840000Y-25578500D02*
X26840000Y-26896500D01*
X35990000Y-23951500D02*
X35990000Y-22633500D01*
X35990000Y-25578500D02*
X35990000Y-26896500D01*
D13*
X28765000Y-20515000D02*
G75*
G02*
X28565000Y-20515000I-100000J0D01*
G01*
X28565000Y-20515000D02*
G75*
G02*
X28765000Y-20515000I100000J0D01*
G01*
D11*
%TO.C,U3*%
X81640001Y-47563999D02*
X81640001Y-47643999D01*
X81640001Y-50654001D02*
X81640001Y-50734001D01*
X84739999Y-47563999D02*
X81640001Y-47563999D01*
X84739999Y-47563999D02*
X84739999Y-47643999D01*
X84739999Y-50654001D02*
X84739999Y-50734001D01*
X84739999Y-50734001D02*
X81640001Y-50734001D01*
D17*
X85465002Y-50279000D02*
G75*
G02*
X85215000Y-50279000I-125001J0D01*
G01*
X85215000Y-50279000D02*
G75*
G02*
X85465002Y-50279000I125001J0D01*
G01*
D11*
%TO.C,U2*%
X71480001Y-47563999D02*
X74579999Y-47563999D01*
X71480001Y-47643999D02*
X71480001Y-47563999D01*
X71480001Y-50734001D02*
X71480001Y-50654001D01*
X71480001Y-50734001D02*
X74579999Y-50734001D01*
X74579999Y-47643999D02*
X74579999Y-47563999D01*
X74579999Y-50734001D02*
X74579999Y-50654001D01*
D17*
X71005000Y-48019000D02*
G75*
G02*
X70754998Y-48019000I-125001J0D01*
G01*
X70754998Y-48019000D02*
G75*
G02*
X71005000Y-48019000I125001J0D01*
G01*
D14*
%TO.C,J5*%
X75505000Y-45279000D02*
X76835000Y-45279000D01*
X75505000Y-46609000D02*
X75505000Y-45279000D01*
X75505000Y-47879000D02*
X75505000Y-55559000D01*
X75505000Y-47879000D02*
X78105000Y-47879000D01*
X75505000Y-55559000D02*
X80705000Y-55559000D01*
X78105000Y-45279000D02*
X80705000Y-45279000D01*
X78105000Y-47879000D02*
X78105000Y-45279000D01*
X80705000Y-45279000D02*
X80705000Y-55559000D01*
%TO.C,J3*%
X39310000Y-59690000D02*
X39310000Y-54550000D01*
X41970000Y-54550000D02*
X39310000Y-54550000D01*
X41970000Y-59690000D02*
X39310000Y-59690000D01*
X41970000Y-59690000D02*
X41970000Y-54550000D01*
X41970000Y-60960000D02*
X41970000Y-62290000D01*
X41970000Y-62290000D02*
X40640000Y-62290000D01*
D13*
%TO.C,U5*%
X50290000Y-65164999D02*
X50290000Y-65915001D01*
X52390000Y-64490000D02*
X52390000Y-65665001D01*
D14*
%TO.C,J8*%
X57979000Y-68393000D02*
X73339000Y-68393000D01*
X57979000Y-70993000D02*
X57979000Y-68393000D01*
X57979000Y-73593000D02*
X57979000Y-72263000D01*
X59309000Y-73593000D02*
X57979000Y-73593000D01*
X60579000Y-70993000D02*
X57979000Y-70993000D01*
X60579000Y-73593000D02*
X60579000Y-70993000D01*
X60579000Y-73593000D02*
X73339000Y-73593000D01*
X73339000Y-73593000D02*
X73339000Y-68393000D01*
D12*
%TO.C,Q1*%
X73981500Y-42948000D02*
X78581500Y-42948000D01*
X74131500Y-40428000D02*
G75*
G02*
X76281500Y-39348001I2039238J-1379551D01*
G01*
X76281500Y-39348001D02*
G75*
G02*
X78431500Y-40428000I110762J-2459550D01*
G01*
D13*
X72192500Y-41678000D02*
G75*
G02*
X71992500Y-41678000I-100000J0D01*
G01*
X71992500Y-41678000D02*
G75*
G02*
X72192500Y-41678000I100000J0D01*
G01*
D12*
%TO.C,J7*%
X64109000Y-23951500D02*
X64109000Y-22633500D01*
X64109000Y-25578500D02*
X64109000Y-26896500D01*
X73259000Y-23951500D02*
X73259000Y-22633500D01*
X73259000Y-25578500D02*
X73259000Y-26896500D01*
D13*
X66034000Y-20515000D02*
G75*
G02*
X65834000Y-20515000I-100000J0D01*
G01*
X65834000Y-20515000D02*
G75*
G02*
X66034000Y-20515000I100000J0D01*
G01*
D14*
%TO.C,J4*%
X34230000Y-54550000D02*
X35560000Y-54550000D01*
X34230000Y-55880000D02*
X34230000Y-54550000D01*
X34230000Y-57150000D02*
X34230000Y-62290000D01*
X34230000Y-57150000D02*
X36890000Y-57150000D01*
X34230000Y-62290000D02*
X36890000Y-62290000D01*
X36890000Y-57150000D02*
X36890000Y-62290000D01*
%TO.C,C1*%
X47750000Y-66046267D02*
X47750000Y-65753733D01*
X48770000Y-66046267D02*
X48770000Y-65753733D01*
D12*
%TO.C,J9*%
X76532000Y-23951500D02*
X76532000Y-22633500D01*
X76532000Y-25578500D02*
X76532000Y-26896500D01*
X85682000Y-23951500D02*
X85682000Y-22633500D01*
X85682000Y-25578500D02*
X85682000Y-26896500D01*
D13*
X78457000Y-20515000D02*
G75*
G02*
X78257000Y-20515000I-100000J0D01*
G01*
X78257000Y-20515000D02*
G75*
G02*
X78457000Y-20515000I100000J0D01*
G01*
D15*
%TO.C,J13*%
X86794801Y-27610598D02*
X86794801Y-79477398D01*
X86794801Y-79477398D02*
X96650001Y-79477398D01*
X96650001Y-27610598D02*
X86794801Y-27610598D01*
X96650001Y-79477398D02*
X96650001Y-27610598D01*
D16*
X94654000Y-25832598D02*
G75*
G02*
X93892000Y-25832598I-381000J0D01*
G01*
X93892000Y-25832598D02*
G75*
G02*
X94654000Y-25832598I381000J0D01*
G01*
D15*
%TO.C,J12*%
X37097201Y-65887600D02*
X37097201Y-69012037D01*
X37097201Y-70687963D02*
X37097201Y-76352400D01*
X37097201Y-76352400D02*
X43193201Y-76352400D01*
X43193201Y-65887600D02*
X37097201Y-65887600D01*
X43193201Y-76352400D02*
X43193201Y-65887600D01*
D16*
X40147200Y-76987400D02*
G75*
G02*
X39385200Y-76987400I-381000J0D01*
G01*
X39385200Y-76987400D02*
G75*
G02*
X40147200Y-76987400I381000J0D01*
G01*
%TO.C,U1*%
D10*
X43180000Y-60960000D02*
X48260000Y-60960000D01*
X48260000Y-55880000D01*
X43180000Y-55880000D01*
X43180000Y-60960000D01*
X43180000Y-60960000D02*
X68580000Y-60960000D01*
X68580000Y-35560000D01*
X43180000Y-35560000D01*
X43180000Y-60960000D01*
X48260000Y-55880000D02*
X63500000Y-55880000D01*
X63500000Y-40640000D01*
X48260000Y-40640000D01*
X48260000Y-55880000D01*
X45720000Y-59690000D02*
G75*
G02*
X43180000Y-59690000I-1270000J0D01*
G01*
X43180000Y-59690000D02*
G75*
G02*
X45720000Y-59690000I1270000J0D01*
G01*
D12*
%TO.C,J2*%
X39263000Y-23951500D02*
X39263000Y-22633500D01*
X39263000Y-25578500D02*
X39263000Y-26896500D01*
X48413000Y-23951500D02*
X48413000Y-22633500D01*
X48413000Y-25578500D02*
X48413000Y-26896500D01*
D13*
X41188000Y-20515000D02*
G75*
G02*
X40988000Y-20515000I-100000J0D01*
G01*
X40988000Y-20515000D02*
G75*
G02*
X41188000Y-20515000I100000J0D01*
G01*
D14*
%TO.C,R2*%
X52585276Y-68017500D02*
X53094724Y-68017500D01*
X52585276Y-69062500D02*
X53094724Y-69062500D01*
%TD*%
M02*
