M48
; DRILL file {KiCad 9.0.0-250-g02b756189b} date 2025-03-30T18:15:48-0500
; FORMAT={-:-/ absolute / inch / decimal}
; #@! TF.CreationDate,2025-03-30T18:15:48-05:00
; #@! TF.GenerationSoftware,Kicad,Pcbnew,9.0.0-250-g02b756189b
; #@! TF.FileFunction,Plated,1,4,PTH
FMAT,2
INCH
; #@! TA.AperFunction,Plated,PTH,ViaDrill
T1C0.0100
; #@! TA.AperFunction,Plated,PTH,ComponentDrill
T2C0.0236
; #@! TA.AperFunction,Plated,PTH,ComponentDrill
T3C0.0311
; #@! TA.AperFunction,Plated,PTH,ComponentDrill
T4C0.0335
; #@! TA.AperFunction,Plated,PTH,ComponentDrill
T5C0.0394
; #@! TA.AperFunction,Plated,PTH,ComponentDrill
T6C0.0420
; #@! TA.AperFunction,Plated,PTH,ComponentDrill
T7C0.0570
%
G90
G05
T1
X1.2344Y-0.9756
X1.2401Y-1.15
X1.2556Y-0.9544
X1.2699Y-1.15
X1.975Y-2.675
T3
X2.9032Y-1.6409
X3.0032Y-1.6409
X3.1032Y-1.6409
T5
X1.4Y-1.9
X1.4Y-2.0
X1.4Y-2.2
X1.4Y-2.3
X1.4Y-2.4
X1.6Y-2.2
X1.6Y-2.3
X1.6Y-2.4
X1.75Y-1.45
X1.75Y-1.55
X1.75Y-1.65
X1.75Y-1.75
X1.75Y-1.85
X1.75Y-1.95
X1.75Y-2.05
X1.75Y-2.15
X1.75Y-2.25
X1.75Y-2.35
X1.85Y-1.45
X1.85Y-1.55
X1.85Y-1.65
X1.85Y-1.75
X1.85Y-1.85
X1.85Y-1.95
X1.85Y-2.05
X1.85Y-2.15
X1.85Y-2.25
X1.85Y-2.35
X1.95Y-1.45
X1.95Y-1.55
X1.95Y-2.25
X1.95Y-2.35
X2.05Y-1.45
X2.05Y-1.55
X2.05Y-2.25
X2.05Y-2.35
X2.15Y-1.45
X2.15Y-1.55
X2.15Y-2.25
X2.15Y-2.35
X2.25Y-1.45
X2.25Y-1.55
X2.25Y-2.25
X2.25Y-2.35
X2.335Y-2.745
X2.335Y-2.845
X2.35Y-1.45
X2.35Y-1.55
X2.35Y-2.25
X2.35Y-2.35
X2.435Y-2.745
X2.435Y-2.845
X2.45Y-1.45
X2.45Y-1.55
X2.45Y-2.25
X2.45Y-2.35
X2.535Y-2.745
X2.535Y-2.845
X2.55Y-1.45
X2.55Y-1.55
X2.55Y-1.65
X2.55Y-1.75
X2.55Y-1.85
X2.55Y-1.95
X2.55Y-2.05
X2.55Y-2.15
X2.55Y-2.25
X2.55Y-2.35
X2.635Y-2.745
X2.635Y-2.845
X2.65Y-1.45
X2.65Y-1.55
X2.65Y-1.65
X2.65Y-1.75
X2.65Y-1.85
X2.65Y-1.95
X2.65Y-2.05
X2.65Y-2.15
X2.65Y-2.25
X2.65Y-2.35
X2.735Y-2.745
X2.735Y-2.845
X2.835Y-2.745
X2.835Y-2.845
X3.025Y-1.835
X3.025Y-1.935
X3.025Y-2.035
X3.025Y-2.135
X3.125Y-1.835
X3.125Y-1.935
X3.125Y-2.035
X3.125Y-2.135
T6
X1.3Y-2.65
X1.3Y-2.75
X1.3Y-2.85
X1.3Y-2.95
X1.5656Y-2.65
X1.5656Y-2.75
X1.5656Y-2.85
X1.5656Y-2.95
T7
X3.495Y-1.1986
X3.495Y-1.3639
X3.495Y-1.5293
X3.495Y-1.6946
X3.495Y-1.86
X3.495Y-2.0254
X3.495Y-2.1907
X3.495Y-2.3561
X3.495Y-2.5214
X3.495Y-2.6868
X3.495Y-2.8521
X3.495Y-3.0175
X3.7115Y-1.1986
X3.7115Y-1.3639
X3.7115Y-1.5293
X3.7115Y-1.6946
X3.7115Y-1.86
X3.7115Y-2.0254
X3.7115Y-2.1907
X3.7115Y-2.3561
X3.7115Y-2.5214
X3.7115Y-2.6868
X3.7115Y-2.8521
X3.7115Y-3.0175
T2
G00X1.0803Y-0.975
M15
G01X1.0961Y-0.975
M16
G05
G00X1.3776Y-0.975
M15
G01X1.3933Y-0.975
M16
G05
G00X1.5694Y-0.975
M15
G01X1.5852Y-0.975
M16
G05
G00X1.8667Y-0.975
M15
G01X1.8824Y-0.975
M16
G05
G00X2.0585Y-0.975
M15
G01X2.0743Y-0.975
M16
G05
G00X2.3557Y-0.975
M15
G01X2.3715Y-0.975
M16
G05
G00X2.5476Y-0.975
M15
G01X2.5633Y-0.975
M16
G05
G00X2.8448Y-0.975
M15
G01X2.8606Y-0.975
M16
G05
G00X2.9835Y-3.0594
M15
G01X2.9993Y-3.0594
M16
G05
G00X3.0367Y-0.975
M15
G01X3.0524Y-0.975
M16
G05
G00X3.2807Y-3.0594
M15
G01X3.2965Y-3.0594
M16
G05
G00X3.3339Y-0.975
M15
G01X3.3497Y-0.975
M16
G05
T4
G00X1.0656Y-0.8541
M15
G01X1.0852Y-0.8541
M16
G05
G00X1.0656Y-1.0959
M15
G01X1.0852Y-1.0959
M16
G05
G00X1.3884Y-0.8541
M15
G01X1.4081Y-0.8541
M16
G05
G00X1.3884Y-1.0959
M15
G01X1.4081Y-1.0959
M16
G05
G00X1.5546Y-0.8541
M15
G01X1.5743Y-0.8541
M16
G05
G00X1.5546Y-1.0959
M15
G01X1.5743Y-1.0959
M16
G05
G00X1.8775Y-0.8541
M15
G01X1.8972Y-0.8541
M16
G05
G00X1.8775Y-1.0959
M15
G01X1.8972Y-1.0959
M16
G05
G00X2.0437Y-0.8541
M15
G01X2.0634Y-0.8541
M16
G05
G00X2.0437Y-1.0959
M15
G01X2.0634Y-1.0959
M16
G05
G00X2.3666Y-0.8541
M15
G01X2.3863Y-0.8541
M16
G05
G00X2.3666Y-1.0959
M15
G01X2.3863Y-1.0959
M16
G05
G00X2.5328Y-0.8541
M15
G01X2.5525Y-0.8541
M16
G05
G00X2.5328Y-1.0959
M15
G01X2.5525Y-1.0959
M16
G05
G00X2.8557Y-0.8541
M15
G01X2.8754Y-0.8541
M16
G05
G00X2.8557Y-1.0959
M15
G01X2.8754Y-1.0959
M16
G05
G00X2.9687Y-2.9386
M15
G01X2.9884Y-2.9386
M16
G05
G00X2.9687Y-3.1803
M15
G01X2.9884Y-3.1803
M16
G05
G00X3.0219Y-0.8541
M15
G01X3.0416Y-0.8541
M16
G05
G00X3.0219Y-1.0959
M15
G01X3.0416Y-1.0959
M16
G05
G00X3.2916Y-2.9386
M15
G01X3.3113Y-2.9386
M16
G05
G00X3.2916Y-3.1803
M15
G01X3.3113Y-3.1803
M16
G05
G00X3.3448Y-0.8541
M15
G01X3.3644Y-0.8541
M16
G05
G00X3.3448Y-1.0959
M15
G01X3.3644Y-1.0959
M16
G05
M30
