M48
; DRILL file {KiCad 9.0.0} date 2025-02-23T12:27:58-0600
; FORMAT={-:-/ absolute / inch / decimal}
; #@! TF.CreationDate,2025-02-23T12:27:58-06:00
; #@! TF.GenerationSoftware,Kicad,Pcbnew,9.0.0
; #@! TF.FileFunction,Plated,1,2,PTH
FMAT,2
INCH
; #@! TA.AperFunction,Plated,PTH,ViaDrill
T1C0.0118
; #@! TA.AperFunction,Plated,PTH,ComponentDrill
T2C0.0315
; #@! TA.AperFunction,Plated,PTH,ComponentDrill
T3C0.0394
; #@! TA.AperFunction,Plated,PTH,ComponentDrill
T4C0.0402
; #@! TA.AperFunction,Plated,PTH,ComponentDrill
T5C0.0420
; #@! TA.AperFunction,Plated,PTH,ComponentDrill
T6C0.0570
%
G90
G05
T1
X3.4055Y-2.9331
X3.4409Y-2.8346
X3.4449Y-3.0709
X3.4646Y-2.7559
X3.7402Y-2.8346
X5.6693Y-3.5827
T2
X5.2756Y-2.7937
X5.2756Y-2.8937
X5.2756Y-2.9937
T3
X3.6811Y-2.4
X3.6811Y-2.5
X3.6811Y-2.6
X3.7657Y-4.6152
X3.7657Y-4.7152
X3.9508Y-4.6152
X3.9508Y-4.7152
X4.1339Y-4.6152
X4.1339Y-4.7152
X4.3169Y-4.6152
X4.3169Y-4.7152
X4.5Y-4.6152
X4.5Y-4.7152
X4.6831Y-4.6152
X4.6831Y-4.7152
X5.1575Y-3.1764
X5.1575Y-3.2764
X5.1575Y-3.3764
X5.1575Y-3.4764
X5.1575Y-3.5764
X5.1575Y-3.6764
X5.1575Y-3.7764
X5.1575Y-3.8764
X5.1575Y-3.9764
X5.1575Y-4.0764
X5.2575Y-3.1764
X5.2575Y-3.2764
X5.2575Y-3.3764
X5.2575Y-3.4764
X5.2575Y-3.5764
X5.2575Y-3.6764
X5.2575Y-3.7764
X5.2575Y-3.8764
X5.2575Y-3.9764
X5.2575Y-4.0764
T4
X3.985Y-2.4161
X3.985Y-2.5161
X3.985Y-2.6161
X3.985Y-2.7161
X3.985Y-2.8161
X3.985Y-2.9161
X3.985Y-3.0161
X3.985Y-3.1161
X3.985Y-3.2161
X3.985Y-3.3161
X3.985Y-3.4161
X3.985Y-3.5161
X3.985Y-3.6161
X3.985Y-3.7161
X3.985Y-3.8161
X3.985Y-3.9161
X3.985Y-4.0161
X3.985Y-4.1161
X3.985Y-4.2161
X3.985Y-4.3161
X4.235Y-4.3071
X4.335Y-4.3071
X4.435Y-4.3071
X4.685Y-2.4161
X4.685Y-2.5161
X4.685Y-2.6161
X4.685Y-2.7161
X4.685Y-2.8161
X4.685Y-2.9161
X4.685Y-3.0161
X4.685Y-3.1161
X4.685Y-3.2161
X4.685Y-3.3161
X4.685Y-3.4161
X4.685Y-3.5161
X4.685Y-3.6161
X4.685Y-3.7161
X4.685Y-3.8161
X4.685Y-3.9161
X4.685Y-4.0161
X4.685Y-4.1161
X4.685Y-4.2161
X4.685Y-4.3161
T5
X3.2971Y-3.0403
X3.2971Y-3.1403
X3.2971Y-3.2403
X3.2971Y-3.3403
X3.3071Y-2.5772
X3.3071Y-2.6772
X3.3071Y-2.7772
X3.3071Y-2.8772
T6
X5.5532Y-2.4805
X5.5532Y-2.6459
X5.5532Y-2.8112
X5.5532Y-2.9766
X5.5532Y-3.1419
X5.5532Y-3.3073
X5.5532Y-3.4726
X5.5532Y-3.638
X5.5532Y-3.8033
X5.5532Y-3.9687
X5.5532Y-4.1341
X5.5532Y-4.2994
X5.7697Y-2.4805
X5.7697Y-2.6459
X5.7697Y-2.8112
X5.7697Y-2.9766
X5.7697Y-3.1419
X5.7697Y-3.3073
X5.7697Y-3.4726
X5.7697Y-3.638
X5.7697Y-3.8033
X5.7697Y-3.9687
X5.7697Y-4.1341
X5.7697Y-4.2994
M30
