M48
; DRILL file {KiCad 9.0.0-250-g02b756189b} date 2025-03-27T16:59:30-0500
; FORMAT={-:-/ absolute / inch / decimal}
; #@! TF.CreationDate,2025-03-27T16:59:30-05:00
; #@! TF.GenerationSoftware,Kicad,Pcbnew,9.0.0-250-g02b756189b
; #@! TF.FileFunction,Plated,1,2,PTH
FMAT,2
INCH
; #@! TA.AperFunction,Plated,PTH,ComponentDrill
T1C0.0080
; #@! TA.AperFunction,Plated,PTH,ViaDrill
T2C0.0180
; #@! TA.AperFunction,Plated,PTH,ComponentDrill
T3C0.0311
; #@! TA.AperFunction,Plated,PTH,ComponentDrill
T4C0.0394
; #@! TA.AperFunction,Plated,PTH,ComponentDrill
T5C0.0420
; #@! TA.AperFunction,Plated,PTH,ComponentDrill
T6C0.0570
%
G90
G05
T1
X2.8526Y-1.935
X2.8752Y-1.8976
X2.8752Y-1.9724
X2.8978Y-1.935
X3.2526Y-1.935
X3.2752Y-1.8976
X3.2752Y-1.9724
X3.2978Y-1.935
T2
X1.25Y-1.049
X1.3282Y-3.3866
X1.3325Y-2.7179
X1.3645Y-2.0302
X1.4454Y-1.3993
X1.4844Y-1.8275
X1.485Y-1.9048
X1.5235Y-1.3883
X1.5626Y-1.5161
X1.5626Y-1.8275
X1.6756Y-1.7905
X1.6798Y-0.9481
X1.7856Y-2.5376
X1.797Y-0.9481
X1.8Y-2.3724
X1.8003Y-2.6871
X1.8124Y-1.0615
X1.8361Y-2.4868
X1.8757Y-2.4728
X1.928Y-3.3754
X1.9533Y-2.8006
X1.9533Y-2.9174
X1.9809Y-2.5392
X1.9924Y-2.606
X2.0031Y-2.6623
X2.0297Y-2.4892
X2.067Y-3.1883
X2.0862Y-3.3872
X2.0938Y-2.8395
X2.0957Y-2.2556
X2.0981Y-2.8285
X2.1487Y-1.6718
X2.2268Y-1.6328
X2.2272Y-1.6714
X2.25Y-3.145
X2.2659Y-2.7617
X2.275Y-3.145
X2.277Y-1.5137
X2.3Y-3.145
X2.325Y-2.64
X2.344Y-0.8379
X2.355Y-2.64
X2.3831Y-0.8176
X2.3831Y-2.6838
X2.385Y-2.64
X2.415Y-2.64
X2.4221Y-2.8882
X2.445Y-2.64
X2.4517Y-1.7791
X2.4612Y-2.4335
X2.4936Y-1.9442
X2.5003Y-1.0879
X2.515Y-2.64
X2.5385Y-1.7926
X2.545Y-2.64
X2.5742Y-3.1898
X2.5784Y-3.3749
X2.62Y-2.64
X2.65Y-2.64
X2.6566Y-1.6049
X2.6566Y-2.4113
X2.6956Y-3.3867
X2.715Y-2.64
X2.745Y-2.64
X2.8519Y-1.5939
X2.891Y-1.5161
X2.8965Y-1.4737
X2.9301Y-1.555
X2.9798Y-2.2167
X3.0194Y-1.8937
X3.0194Y-1.9785
X3.0473Y-1.985
X3.0864Y-1.3993
X3.1961Y-1.9832
T3
X2.9032Y-1.6409
X3.0032Y-1.6409
X3.1032Y-1.6409
T4
X1.1Y-3.225
X1.1Y-3.325
X1.1048Y-0.9002
X1.1048Y-1.0002
X1.2Y-3.225
X1.2Y-3.325
X1.2048Y-0.9002
X1.2048Y-1.0002
X1.3Y-3.225
X1.3Y-3.325
X1.3048Y-0.9002
X1.3048Y-1.0002
X1.4Y-1.9
X1.4Y-2.0
X1.4Y-2.2
X1.4Y-2.3
X1.4Y-2.4
X1.4Y-3.225
X1.4Y-3.325
X1.4048Y-0.9002
X1.4048Y-1.0002
X1.5Y-3.225
X1.5Y-3.325
X1.5048Y-0.9002
X1.5048Y-1.0002
X1.6Y-2.2
X1.6Y-2.3
X1.6Y-2.4
X1.6Y-3.225
X1.6Y-3.325
X1.6048Y-0.9002
X1.6048Y-1.0002
X1.7Y-3.225
X1.7Y-3.325
X1.7048Y-0.9002
X1.7048Y-1.0002
X1.75Y-1.45
X1.75Y-1.55
X1.75Y-1.65
X1.75Y-1.75
X1.75Y-1.85
X1.75Y-1.95
X1.75Y-2.05
X1.75Y-2.15
X1.75Y-2.25
X1.75Y-2.35
X1.85Y-1.45
X1.85Y-1.55
X1.85Y-1.65
X1.85Y-1.75
X1.85Y-1.85
X1.85Y-1.95
X1.85Y-2.05
X1.85Y-2.15
X1.85Y-2.25
X1.85Y-2.35
X1.9Y-0.9
X1.9Y-1.0
X1.9Y-3.23
X1.9Y-3.33
X1.95Y-1.45
X1.95Y-1.55
X1.95Y-2.25
X1.95Y-2.35
X2.0Y-0.9
X2.0Y-1.0
X2.0Y-3.23
X2.0Y-3.33
X2.05Y-1.45
X2.05Y-1.55
X2.05Y-2.25
X2.05Y-2.35
X2.1Y-0.9
X2.1Y-1.0
X2.1Y-3.23
X2.1Y-3.33
X2.15Y-1.45
X2.15Y-1.55
X2.15Y-2.25
X2.15Y-2.35
X2.2Y-0.9
X2.2Y-1.0
X2.2Y-3.23
X2.2Y-3.33
X2.25Y-1.45
X2.25Y-1.55
X2.25Y-2.25
X2.25Y-2.35
X2.3Y-0.9
X2.3Y-1.0
X2.3Y-3.23
X2.3Y-3.33
X2.335Y-2.745
X2.335Y-2.845
X2.35Y-1.45
X2.35Y-1.55
X2.35Y-2.25
X2.35Y-2.35
X2.4Y-0.9
X2.4Y-1.0
X2.4Y-3.23
X2.4Y-3.33
X2.435Y-2.745
X2.435Y-2.845
X2.45Y-1.45
X2.45Y-1.55
X2.45Y-2.25
X2.45Y-2.35
X2.5Y-0.9
X2.5Y-1.0
X2.5Y-3.23
X2.5Y-3.33
X2.535Y-2.745
X2.535Y-2.845
X2.55Y-1.45
X2.55Y-1.55
X2.55Y-1.65
X2.55Y-1.75
X2.55Y-1.85
X2.55Y-1.95
X2.55Y-2.05
X2.55Y-2.15
X2.55Y-2.25
X2.55Y-2.35
X2.635Y-2.745
X2.635Y-2.845
X2.65Y-1.45
X2.65Y-1.55
X2.65Y-1.65
X2.65Y-1.75
X2.65Y-1.85
X2.65Y-1.95
X2.65Y-2.05
X2.65Y-2.15
X2.65Y-2.25
X2.65Y-2.35
X2.6998Y-0.9002
X2.6998Y-1.0002
X2.7Y-3.23
X2.7Y-3.33
X2.735Y-2.745
X2.735Y-2.845
X2.7998Y-0.9002
X2.7998Y-1.0002
X2.8Y-3.23
X2.8Y-3.33
X2.835Y-2.745
X2.835Y-2.845
X2.8998Y-0.9002
X2.8998Y-1.0002
X2.9Y-3.23
X2.9Y-3.33
X2.9998Y-0.9002
X2.9998Y-1.0002
X3.0Y-3.23
X3.0Y-3.33
X3.025Y-1.835
X3.025Y-1.935
X3.025Y-2.035
X3.025Y-2.135
X3.0998Y-0.9002
X3.0998Y-1.0002
X3.1Y-3.23
X3.1Y-3.33
X3.125Y-1.835
X3.125Y-1.935
X3.125Y-2.035
X3.125Y-2.135
X3.1998Y-0.9002
X3.1998Y-1.0002
X3.2Y-3.23
X3.2Y-3.33
X3.2998Y-0.9002
X3.2998Y-1.0002
X3.3Y-3.23
X3.3Y-3.33
T5
X1.3Y-2.65
X1.3Y-2.75
X1.3Y-2.85
X1.3Y-2.95
X1.5656Y-2.65
X1.5656Y-2.75
X1.5656Y-2.85
X1.5656Y-2.95
T6
X3.495Y-1.1986
X3.495Y-1.3639
X3.495Y-1.5293
X3.495Y-1.6946
X3.495Y-1.86
X3.495Y-2.0254
X3.495Y-2.1907
X3.495Y-2.3561
X3.495Y-2.5214
X3.495Y-2.6868
X3.495Y-2.8521
X3.495Y-3.0175
X3.7115Y-1.1986
X3.7115Y-1.3639
X3.7115Y-1.5293
X3.7115Y-1.6946
X3.7115Y-1.86
X3.7115Y-2.0254
X3.7115Y-2.1907
X3.7115Y-2.3561
X3.7115Y-2.5214
X3.7115Y-2.6868
X3.7115Y-2.8521
X3.7115Y-3.0175
M30
