%TF.GenerationSoftware,KiCad,Pcbnew,9.0.0-250-g02b756189b*%
%TF.CreationDate,2025-03-27T16:59:32-05:00*%
%TF.ProjectId,PicoPowerManagement,5069636f-506f-4776-9572-4d616e616765,rev?*%
%TF.SameCoordinates,Original*%
%TF.FileFunction,Soldermask,Top*%
%TF.FilePolarity,Negative*%
%FSLAX46Y46*%
G04 Gerber Fmt 4.6, Leading zero omitted, Abs format (unit mm)*
G04 Created by KiCad (PCBNEW 9.0.0-250-g02b756189b) date 2025-03-27 16:59:32*
%MOMM*%
%LPD*%
G01*
G04 APERTURE LIST*
G04 Aperture macros list*
%AMRoundRect*
0 Rectangle with rounded corners*
0 $1 Rounding radius*
0 $2 $3 $4 $5 $6 $7 $8 $9 X,Y pos of 4 corners*
0 Add a 4 corners polygon primitive as box body*
4,1,4,$2,$3,$4,$5,$6,$7,$8,$9,$2,$3,0*
0 Add four circle primitives for the rounded corners*
1,1,$1+$1,$2,$3*
1,1,$1+$1,$4,$5*
1,1,$1+$1,$6,$7*
1,1,$1+$1,$8,$9*
0 Add four rect primitives between the rounded corners*
20,1,$1+$1,$2,$3,$4,$5,0*
20,1,$1+$1,$4,$5,$6,$7,0*
20,1,$1+$1,$6,$7,$8,$9,0*
20,1,$1+$1,$8,$9,$2,$3,0*%
G04 Aperture macros list end*
%ADD10R,1.700000X1.700000*%
%ADD11O,1.700000X1.700000*%
%ADD12O,0.249999X0.599999*%
%ADD13C,1.574800*%
%ADD14RoundRect,0.237500X-0.250000X-0.237500X0.250000X-0.237500X0.250000X0.237500X-0.250000X0.237500X0*%
%ADD15RoundRect,0.237500X0.237500X-0.300000X0.237500X0.300000X-0.237500X0.300000X-0.237500X-0.300000X0*%
%ADD16R,1.000000X1.550000*%
%ADD17R,0.599999X0.309999*%
%ADD18R,1.649999X2.400000*%
%ADD19C,0.499999*%
%ADD20RoundRect,0.102000X-0.649000X-0.649000X0.649000X-0.649000X0.649000X0.649000X-0.649000X0.649000X0*%
%ADD21C,1.502000*%
%ADD22C,1.955800*%
G04 APERTURE END LIST*
D10*
%TO.C,J10*%
X43180000Y-81915000D03*
D11*
X43180000Y-84455000D03*
X40640000Y-81915000D03*
X40640000Y-84455000D03*
X38100000Y-81915000D03*
X38100000Y-84455000D03*
X35560000Y-81915000D03*
X35560000Y-84455000D03*
X33020000Y-81915000D03*
X33020000Y-84455000D03*
X30480000Y-81915000D03*
X30480000Y-84455000D03*
X27940000Y-81915000D03*
X27940000Y-84455000D03*
%TD*%
D10*
%TO.C,J2*%
X83820000Y-82042000D03*
D11*
X83820000Y-84582000D03*
X81280000Y-82042000D03*
X81280000Y-84582000D03*
X78740000Y-82042000D03*
X78740000Y-84582000D03*
X76200000Y-82042000D03*
X76200000Y-84582000D03*
X73660000Y-82042000D03*
X73660000Y-84582000D03*
X71120000Y-82042000D03*
X71120000Y-84582000D03*
X68580000Y-82042000D03*
X68580000Y-84582000D03*
%TD*%
D10*
%TO.C,J15*%
X35560000Y-48260000D03*
D11*
X35560000Y-50800000D03*
%TD*%
D12*
%TO.C,U4*%
X47010001Y-63900000D03*
X46510002Y-63900000D03*
X46010000Y-63900000D03*
X45510002Y-63900000D03*
X45510002Y-66900000D03*
X46010000Y-66900000D03*
X46510002Y-66900000D03*
X47010001Y-66900000D03*
%TD*%
D10*
%TO.C,J9*%
X68575000Y-25405000D03*
D11*
X68575000Y-22865000D03*
X71115000Y-25405000D03*
X71115000Y-22865000D03*
X73655000Y-25405000D03*
X73655000Y-22865000D03*
X76195000Y-25405000D03*
X76195000Y-22865000D03*
X78735000Y-25405000D03*
X78735000Y-22865000D03*
X81275000Y-25405000D03*
X81275000Y-22865000D03*
X83815000Y-25405000D03*
X83815000Y-22865000D03*
%TD*%
D13*
%TO.C,J11*%
X33020000Y-74930000D03*
X33020000Y-72390000D03*
X33020000Y-69850000D03*
X33020000Y-67310000D03*
%TD*%
D14*
%TO.C,R1*%
X46847500Y-68400000D03*
X48672500Y-68400000D03*
%TD*%
D15*
%TO.C,C2*%
X53340000Y-66902500D03*
X53340000Y-65177500D03*
%TD*%
D16*
%TO.C,SW1*%
X26240000Y-43350000D03*
X26240000Y-38100000D03*
X27940000Y-43350000D03*
X27940000Y-38100000D03*
%TD*%
D17*
%TO.C,U3*%
X84590000Y-50123999D03*
X84590000Y-49474001D03*
X84590000Y-48823999D03*
X84590000Y-48174001D03*
X81790000Y-48174001D03*
X81790000Y-48823999D03*
X81790000Y-49474001D03*
X81790000Y-50123999D03*
D18*
X83190000Y-49149000D03*
D19*
X83190000Y-50099001D03*
X83190000Y-48198999D03*
X83765000Y-49149000D03*
X82615000Y-49149000D03*
%TD*%
D17*
%TO.C,U2*%
X71630000Y-48174001D03*
X71630000Y-48823999D03*
X71630000Y-49474001D03*
X71630000Y-50123999D03*
X74430000Y-50123999D03*
X74430000Y-49474001D03*
X74430000Y-48823999D03*
X74430000Y-48174001D03*
D18*
X73030000Y-49149000D03*
D19*
X73030000Y-48198999D03*
X73030000Y-50099001D03*
X72455000Y-49149000D03*
X73605000Y-49149000D03*
%TD*%
D10*
%TO.C,J5*%
X76835000Y-46609000D03*
D11*
X79375000Y-46609000D03*
X76835000Y-49149000D03*
X79375000Y-49149000D03*
X76835000Y-51689000D03*
X79375000Y-51689000D03*
X76835000Y-54229000D03*
X79375000Y-54229000D03*
%TD*%
D10*
%TO.C,J3*%
X40640000Y-60960000D03*
D11*
X40640000Y-58420000D03*
X40640000Y-55880000D03*
%TD*%
D12*
%TO.C,U5*%
X52090001Y-64040000D03*
X51590002Y-64040000D03*
X51090000Y-64040000D03*
X50590002Y-64040000D03*
X50590002Y-67040000D03*
X51090000Y-67040000D03*
X51590002Y-67040000D03*
X52090001Y-67040000D03*
%TD*%
D10*
%TO.C,J8*%
X59309000Y-72263000D03*
D11*
X59309000Y-69723000D03*
X61849000Y-72263000D03*
X61849000Y-69723000D03*
X64389000Y-72263000D03*
X64389000Y-69723000D03*
X66929000Y-72263000D03*
X66929000Y-69723000D03*
X69469000Y-72263000D03*
X69469000Y-69723000D03*
X72009000Y-72263000D03*
X72009000Y-69723000D03*
%TD*%
D20*
%TO.C,Q1*%
X73741500Y-41678000D03*
D21*
X76281500Y-41678000D03*
X78821500Y-41678000D03*
%TD*%
D10*
%TO.C,J1*%
X28062000Y-25405000D03*
D11*
X28062000Y-22865000D03*
X30602000Y-25405000D03*
X30602000Y-22865000D03*
X33142000Y-25405000D03*
X33142000Y-22865000D03*
X35682000Y-25405000D03*
X35682000Y-22865000D03*
X38222000Y-25405000D03*
X38222000Y-22865000D03*
X40762000Y-25405000D03*
X40762000Y-22865000D03*
X43302000Y-25405000D03*
X43302000Y-22865000D03*
%TD*%
D10*
%TO.C,J4*%
X35560000Y-55880000D03*
D11*
X35560000Y-58420000D03*
X35560000Y-60960000D03*
%TD*%
D15*
%TO.C,C1*%
X48260000Y-66762500D03*
X48260000Y-65037500D03*
%TD*%
D10*
%TO.C,J7*%
X63500000Y-82042000D03*
D11*
X63500000Y-84582000D03*
X60960000Y-82042000D03*
X60960000Y-84582000D03*
X58420000Y-82042000D03*
X58420000Y-84582000D03*
X55880000Y-82042000D03*
X55880000Y-84582000D03*
X53340000Y-82042000D03*
X53340000Y-84582000D03*
X50800000Y-82042000D03*
X50800000Y-84582000D03*
X48260000Y-82042000D03*
X48260000Y-84582000D03*
%TD*%
D22*
%TO.C,J13*%
X94273000Y-30444000D03*
X94273000Y-34644000D03*
X94273000Y-38843999D03*
X94273000Y-43043998D03*
X94273000Y-47243998D03*
X94273000Y-51443997D03*
X94273000Y-55643996D03*
X94273000Y-59843995D03*
X94273000Y-64043995D03*
X94273000Y-68243994D03*
X94273000Y-72443993D03*
X94273000Y-76643992D03*
X88773001Y-30444000D03*
X88773001Y-34644000D03*
X88773001Y-38843999D03*
X88773001Y-43043998D03*
X88773001Y-47243998D03*
X88773001Y-51443997D03*
X88773001Y-55643996D03*
X88773001Y-59843995D03*
X88773001Y-64043995D03*
X88773001Y-68243994D03*
X88773001Y-72443993D03*
X88773001Y-76643992D03*
%TD*%
D13*
%TO.C,J12*%
X39766200Y-74930000D03*
X39766200Y-72390000D03*
X39766200Y-69850000D03*
X39766200Y-67310000D03*
%TD*%
D11*
%TO.C,U1*%
X46990000Y-54610000D03*
X44450000Y-57150000D03*
X46990000Y-59690000D03*
X49530000Y-57150000D03*
X49530000Y-59690000D03*
X52070000Y-57150000D03*
X52070000Y-59690000D03*
X54610000Y-57150000D03*
X54610000Y-59690000D03*
X57150000Y-57150000D03*
X57150000Y-59690000D03*
X59690000Y-57150000D03*
X59690000Y-59690000D03*
X62230000Y-57150000D03*
X62230000Y-59690000D03*
X64770000Y-57150000D03*
X64770000Y-59690000D03*
X67310000Y-57150000D03*
X67310000Y-54610000D03*
X64770000Y-54610000D03*
X67310000Y-52070000D03*
X64770000Y-52070000D03*
X67310000Y-49530000D03*
X64770000Y-49530000D03*
X67310000Y-46990000D03*
X64770000Y-46990000D03*
X67310000Y-44450000D03*
X64770000Y-44450000D03*
X67310000Y-41910000D03*
X64770000Y-41910000D03*
X67310000Y-39370000D03*
X64770000Y-39370000D03*
X64770000Y-36830000D03*
X62230000Y-39370000D03*
X62230000Y-36830000D03*
X59690000Y-39370000D03*
X59690000Y-36830000D03*
X57150000Y-39370000D03*
X57150000Y-36830000D03*
X54610000Y-39370000D03*
X54610000Y-36830000D03*
X52070000Y-39370000D03*
X52070000Y-36830000D03*
X49530000Y-39370000D03*
X49530000Y-36830000D03*
X46990000Y-36830000D03*
X44450000Y-39370000D03*
X46990000Y-41910000D03*
X44450000Y-41910000D03*
X46990000Y-44450000D03*
X44450000Y-44450000D03*
X44450000Y-46990000D03*
X46990000Y-46990000D03*
X44450000Y-49530000D03*
X46990000Y-49530000D03*
X44450000Y-52070000D03*
X46990000Y-52070000D03*
X44450000Y-54610000D03*
D10*
X44450000Y-59690000D03*
D11*
X46990000Y-57150000D03*
D10*
X67310000Y-59690000D03*
X67310000Y-36830000D03*
X44450000Y-36830000D03*
X46990000Y-39370000D03*
%TD*%
D14*
%TO.C,R2*%
X51927500Y-68540000D03*
X53752500Y-68540000D03*
%TD*%
D10*
%TO.C,J6*%
X48260000Y-25400000D03*
D11*
X48260000Y-22860000D03*
X50800000Y-25400000D03*
X50800000Y-22860000D03*
X53340000Y-25400000D03*
X53340000Y-22860000D03*
X55880000Y-25400000D03*
X55880000Y-22860000D03*
X58420000Y-25400000D03*
X58420000Y-22860000D03*
X60960000Y-25400000D03*
X60960000Y-22860000D03*
X63500000Y-25400000D03*
X63500000Y-22860000D03*
%TD*%
M02*
