%TF.GenerationSoftware,KiCad,Pcbnew,9.0.0*%
%TF.CreationDate,2025-02-23T12:28:02-06:00*%
%TF.ProjectId,PicoPowerManagement,5069636f-506f-4776-9572-4d616e616765,rev?*%
%TF.SameCoordinates,Original*%
%TF.FileFunction,Soldermask,Top*%
%TF.FilePolarity,Negative*%
%FSLAX46Y46*%
G04 Gerber Fmt 4.6, Leading zero omitted, Abs format (unit mm)*
G04 Created by KiCad (PCBNEW 9.0.0) date 2025-02-23 12:28:02*
%MOMM*%
%LPD*%
G01*
G04 APERTURE LIST*
G04 Aperture macros list*
%AMRoundRect*
0 Rectangle with rounded corners*
0 $1 Rounding radius*
0 $2 $3 $4 $5 $6 $7 $8 $9 X,Y pos of 4 corners*
0 Add a 4 corners polygon primitive as box body*
4,1,4,$2,$3,$4,$5,$6,$7,$8,$9,$2,$3,0*
0 Add four circle primitives for the rounded corners*
1,1,$1+$1,$2,$3*
1,1,$1+$1,$4,$5*
1,1,$1+$1,$6,$7*
1,1,$1+$1,$8,$9*
0 Add four rect primitives between the rounded corners*
20,1,$1+$1,$2,$3,$4,$5,0*
20,1,$1+$1,$4,$5,$6,$7,0*
20,1,$1+$1,$6,$7,$8,$9,0*
20,1,$1+$1,$8,$9,$2,$3,0*%
G04 Aperture macros list end*
%ADD10R,1.700000X1.700000*%
%ADD11O,1.700000X1.700000*%
%ADD12RoundRect,0.237500X-0.237500X0.250000X-0.237500X-0.250000X0.237500X-0.250000X0.237500X0.250000X0*%
%ADD13C,1.955800*%
%ADD14O,0.599999X0.249999*%
%ADD15C,1.800000*%
%ADD16C,1.600000*%
%ADD17RoundRect,0.250000X-0.750000X-0.750000X0.750000X-0.750000X0.750000X0.750000X-0.750000X0.750000X0*%
%ADD18O,1.800000X1.800000*%
%ADD19O,1.500000X1.500000*%
%ADD20R,3.500000X1.700000*%
%ADD21R,1.700000X3.500000*%
%ADD22RoundRect,0.237500X-0.300000X-0.237500X0.300000X-0.237500X0.300000X0.237500X-0.300000X0.237500X0*%
%ADD23R,1.500000X1.500000*%
%ADD24C,1.500000*%
%ADD25C,1.574800*%
G04 APERTURE END LIST*
D10*
%TO.C,J12*%
X133540000Y-103540000D03*
D11*
X131000000Y-103540000D03*
X133540000Y-101000000D03*
X131000000Y-101000000D03*
X133540000Y-98460000D03*
X131000000Y-98460000D03*
X133540000Y-95920000D03*
X131000000Y-95920000D03*
X133540000Y-93380000D03*
X131000000Y-93380000D03*
X133540000Y-90840000D03*
X131000000Y-90840000D03*
X133540000Y-88300000D03*
X131000000Y-88300000D03*
X133540000Y-85760000D03*
X131000000Y-85760000D03*
X133540000Y-83220000D03*
X131000000Y-83220000D03*
X133540000Y-80680000D03*
X131000000Y-80680000D03*
%TD*%
D12*
%TO.C,R2*%
X89000000Y-77587500D03*
X89000000Y-79412500D03*
%TD*%
D13*
%TO.C,J11*%
X146550599Y-63004902D03*
X146550599Y-67204902D03*
X146550599Y-71404901D03*
X146550599Y-75604900D03*
X146550599Y-79804900D03*
X146550599Y-84004899D03*
X146550599Y-88204898D03*
X146550599Y-92404897D03*
X146550599Y-96604897D03*
X146550599Y-100804896D03*
X146550599Y-105004895D03*
X146550599Y-109204894D03*
X141050600Y-63004902D03*
X141050600Y-67204902D03*
X141050600Y-71404901D03*
X141050600Y-75604900D03*
X141050600Y-79804900D03*
X141050600Y-84004899D03*
X141050600Y-88204898D03*
X141050600Y-92404897D03*
X141050600Y-96604897D03*
X141050600Y-100804896D03*
X141050600Y-105004895D03*
X141050600Y-109204894D03*
%TD*%
D12*
%TO.C,R1*%
X89000000Y-71087500D03*
X89000000Y-72912500D03*
%TD*%
D14*
%TO.C,U2*%
X93500000Y-78250001D03*
X93500000Y-77750002D03*
X93500000Y-77250000D03*
X93500000Y-76750002D03*
X90500000Y-76750002D03*
X90500000Y-77250000D03*
X90500000Y-77750002D03*
X90500000Y-78250001D03*
%TD*%
D10*
%TO.C,J10*%
X93500000Y-66040000D03*
D11*
X93500000Y-63500000D03*
X93500000Y-60960000D03*
%TD*%
D10*
%TO.C,J3*%
X100350000Y-117225000D03*
D11*
X100350000Y-119765000D03*
%TD*%
D15*
%TO.C,J13*%
X131000000Y-117075000D03*
D16*
X131000000Y-121575000D03*
D17*
X125500000Y-115425000D03*
X125500000Y-121575000D03*
X136500000Y-121575000D03*
X136500000Y-115425000D03*
%TD*%
D10*
%TO.C,J4*%
X105000000Y-117225000D03*
D11*
X105000000Y-119765000D03*
%TD*%
D10*
%TO.C,J6*%
X118950000Y-117225000D03*
D11*
X118950000Y-119765000D03*
%TD*%
D10*
%TO.C,SW1*%
X95650000Y-117225000D03*
D11*
X95650000Y-119765000D03*
%TD*%
D18*
%TO.C,J2*%
X107385000Y-61500000D03*
D19*
X107685000Y-64530000D03*
X112535000Y-64530000D03*
D18*
X112835000Y-61500000D03*
D11*
X101220000Y-61370000D03*
D20*
X100320000Y-61370000D03*
D11*
X101220000Y-63910000D03*
D20*
X100320000Y-63910000D03*
D10*
X101220000Y-66450000D03*
D20*
X100320000Y-66450000D03*
D11*
X101220000Y-68990000D03*
D20*
X100320000Y-68990000D03*
D11*
X101220000Y-71530000D03*
D20*
X100320000Y-71530000D03*
D11*
X101220000Y-74070000D03*
D20*
X100320000Y-74070000D03*
D11*
X101220000Y-76610000D03*
D20*
X100320000Y-76610000D03*
D10*
X101220000Y-79150000D03*
D20*
X100320000Y-79150000D03*
D11*
X101220000Y-81690000D03*
D20*
X100320000Y-81690000D03*
D11*
X101220000Y-84230000D03*
D20*
X100320000Y-84230000D03*
D11*
X101220000Y-86770000D03*
D20*
X100320000Y-86770000D03*
D11*
X101220000Y-89310000D03*
D20*
X100320000Y-89310000D03*
D10*
X101220000Y-91850000D03*
D20*
X100320000Y-91850000D03*
D11*
X101220000Y-94390000D03*
D20*
X100320000Y-94390000D03*
D11*
X101220000Y-96930000D03*
D20*
X100320000Y-96930000D03*
D11*
X101220000Y-99470000D03*
D20*
X100320000Y-99470000D03*
D11*
X101220000Y-102010000D03*
D20*
X100320000Y-102010000D03*
D10*
X101220000Y-104550000D03*
D20*
X100320000Y-104550000D03*
D11*
X101220000Y-107090000D03*
D20*
X100320000Y-107090000D03*
D11*
X101220000Y-109630000D03*
D20*
X100320000Y-109630000D03*
D11*
X119000000Y-109630000D03*
D20*
X119900000Y-109630000D03*
D11*
X119000000Y-107090000D03*
D20*
X119900000Y-107090000D03*
D10*
X119000000Y-104550000D03*
D20*
X119900000Y-104550000D03*
D11*
X119000000Y-102010000D03*
D20*
X119900000Y-102010000D03*
D11*
X119000000Y-99470000D03*
D20*
X119900000Y-99470000D03*
D11*
X119000000Y-96930000D03*
D20*
X119900000Y-96930000D03*
D11*
X119000000Y-94390000D03*
D20*
X119900000Y-94390000D03*
D10*
X119000000Y-91850000D03*
D20*
X119900000Y-91850000D03*
D11*
X119000000Y-89310000D03*
D20*
X119900000Y-89310000D03*
D11*
X119000000Y-86770000D03*
D20*
X119900000Y-86770000D03*
D11*
X119000000Y-84230000D03*
D20*
X119900000Y-84230000D03*
D11*
X119000000Y-81690000D03*
D20*
X119900000Y-81690000D03*
D10*
X119000000Y-79150000D03*
D20*
X119900000Y-79150000D03*
D11*
X119000000Y-76610000D03*
D20*
X119900000Y-76610000D03*
D11*
X119000000Y-74070000D03*
D20*
X119900000Y-74070000D03*
D11*
X119000000Y-71530000D03*
D20*
X119900000Y-71530000D03*
D11*
X119000000Y-68990000D03*
D20*
X119900000Y-68990000D03*
D10*
X119000000Y-66450000D03*
D20*
X119900000Y-66450000D03*
D11*
X119000000Y-63910000D03*
D20*
X119900000Y-63910000D03*
D11*
X119000000Y-61370000D03*
D20*
X119900000Y-61370000D03*
D11*
X107570000Y-109400000D03*
D21*
X107570000Y-110300000D03*
D10*
X110110000Y-109400000D03*
D21*
X110110000Y-110300000D03*
D11*
X112650000Y-109400000D03*
D21*
X112650000Y-110300000D03*
%TD*%
D10*
%TO.C,J9*%
X114300000Y-117225000D03*
D11*
X114300000Y-119765000D03*
%TD*%
D14*
%TO.C,U1*%
X93500000Y-70750001D03*
X93500000Y-70250002D03*
X93500000Y-69750000D03*
X93500000Y-69250002D03*
X90500000Y-69250002D03*
X90500000Y-69750000D03*
X90500000Y-70250002D03*
X90500000Y-70750001D03*
%TD*%
D10*
%TO.C,J5*%
X109650000Y-117225000D03*
D11*
X109650000Y-119765000D03*
%TD*%
D22*
%TO.C,C2*%
X90637500Y-79500000D03*
X92362500Y-79500000D03*
%TD*%
D23*
%TO.C,Q1*%
X134000000Y-76040000D03*
D24*
X134000000Y-73500000D03*
X134000000Y-70960000D03*
%TD*%
D22*
%TO.C,C1*%
X90637500Y-73000000D03*
X92362500Y-73000000D03*
%TD*%
D25*
%TO.C,J8*%
X83746150Y-77223400D03*
X83746150Y-79763400D03*
X83746150Y-82303400D03*
X83746150Y-84843400D03*
%TD*%
%TO.C,J7*%
X84000000Y-65460000D03*
X84000000Y-68000000D03*
X84000000Y-70540000D03*
X84000000Y-73080000D03*
%TD*%
M02*
