%TF.GenerationSoftware,KiCad,Pcbnew,9.0.0*%
%TF.CreationDate,2025-02-23T12:28:02-06:00*%
%TF.ProjectId,PicoPowerManagement,5069636f-506f-4776-9572-4d616e616765,rev?*%
%TF.SameCoordinates,Original*%
%TF.FileFunction,Copper,L1,Top*%
%TF.FilePolarity,Positive*%
%FSLAX46Y46*%
G04 Gerber Fmt 4.6, Leading zero omitted, Abs format (unit mm)*
G04 Created by KiCad (PCBNEW 9.0.0) date 2025-02-23 12:28:02*
%MOMM*%
%LPD*%
G01*
G04 APERTURE LIST*
G04 Aperture macros list*
%AMRoundRect*
0 Rectangle with rounded corners*
0 $1 Rounding radius*
0 $2 $3 $4 $5 $6 $7 $8 $9 X,Y pos of 4 corners*
0 Add a 4 corners polygon primitive as box body*
4,1,4,$2,$3,$4,$5,$6,$7,$8,$9,$2,$3,0*
0 Add four circle primitives for the rounded corners*
1,1,$1+$1,$2,$3*
1,1,$1+$1,$4,$5*
1,1,$1+$1,$6,$7*
1,1,$1+$1,$8,$9*
0 Add four rect primitives between the rounded corners*
20,1,$1+$1,$2,$3,$4,$5,0*
20,1,$1+$1,$4,$5,$6,$7,0*
20,1,$1+$1,$6,$7,$8,$9,0*
20,1,$1+$1,$8,$9,$2,$3,0*%
G04 Aperture macros list end*
%TA.AperFunction,ComponentPad*%
%ADD10R,1.700000X1.700000*%
%TD*%
%TA.AperFunction,ComponentPad*%
%ADD11O,1.700000X1.700000*%
%TD*%
%TA.AperFunction,SMDPad,CuDef*%
%ADD12RoundRect,0.237500X-0.237500X0.250000X-0.237500X-0.250000X0.237500X-0.250000X0.237500X0.250000X0*%
%TD*%
%TA.AperFunction,ComponentPad*%
%ADD13C,1.955800*%
%TD*%
%TA.AperFunction,SMDPad,CuDef*%
%ADD14O,0.599999X0.249999*%
%TD*%
%TA.AperFunction,SMDPad,CuDef*%
%ADD15RoundRect,0.250000X-0.750000X-0.750000X0.750000X-0.750000X0.750000X0.750000X-0.750000X0.750000X0*%
%TD*%
%TA.AperFunction,SMDPad,CuDef*%
%ADD16R,3.500000X1.700000*%
%TD*%
%TA.AperFunction,SMDPad,CuDef*%
%ADD17R,1.700000X3.500000*%
%TD*%
%TA.AperFunction,SMDPad,CuDef*%
%ADD18RoundRect,0.237500X-0.300000X-0.237500X0.300000X-0.237500X0.300000X0.237500X-0.300000X0.237500X0*%
%TD*%
%TA.AperFunction,ComponentPad*%
%ADD19R,1.500000X1.500000*%
%TD*%
%TA.AperFunction,ComponentPad*%
%ADD20C,1.500000*%
%TD*%
%TA.AperFunction,ComponentPad*%
%ADD21C,1.574800*%
%TD*%
%TA.AperFunction,ViaPad*%
%ADD22C,0.600000*%
%TD*%
%TA.AperFunction,Conductor*%
%ADD23C,0.200000*%
%TD*%
G04 APERTURE END LIST*
D10*
%TO.P,J12,1,Pin_1*%
%TO.N,+5V*%
X133540000Y-103540000D03*
D11*
%TO.P,J12,2,Pin_2*%
%TO.N,GND*%
X131000000Y-103540000D03*
%TO.P,J12,3,Pin_3*%
%TO.N,+5V*%
X133540000Y-101000000D03*
%TO.P,J12,4,Pin_4*%
%TO.N,GND*%
X131000000Y-101000000D03*
%TO.P,J12,5,Pin_5*%
%TO.N,+5V*%
X133540000Y-98460000D03*
%TO.P,J12,6,Pin_6*%
%TO.N,GND*%
X131000000Y-98460000D03*
%TO.P,J12,7,Pin_7*%
%TO.N,+5V*%
X133540000Y-95920000D03*
%TO.P,J12,8,Pin_8*%
%TO.N,GND*%
X131000000Y-95920000D03*
%TO.P,J12,9,Pin_9*%
%TO.N,+5V*%
X133540000Y-93380000D03*
%TO.P,J12,10,Pin_10*%
%TO.N,GND*%
X131000000Y-93380000D03*
%TO.P,J12,11,Pin_11*%
%TO.N,+5V*%
X133540000Y-90840000D03*
%TO.P,J12,12,Pin_12*%
%TO.N,GND*%
X131000000Y-90840000D03*
%TO.P,J12,13,Pin_13*%
%TO.N,+5V*%
X133540000Y-88300000D03*
%TO.P,J12,14,Pin_14*%
%TO.N,GND*%
X131000000Y-88300000D03*
%TO.P,J12,15,Pin_15*%
%TO.N,+5V*%
X133540000Y-85760000D03*
%TO.P,J12,16,Pin_16*%
%TO.N,GND*%
X131000000Y-85760000D03*
%TO.P,J12,17,Pin_17*%
%TO.N,+5V*%
X133540000Y-83220000D03*
%TO.P,J12,18,Pin_18*%
%TO.N,GND*%
X131000000Y-83220000D03*
%TO.P,J12,19,Pin_19*%
%TO.N,+5V*%
X133540000Y-80680000D03*
%TO.P,J12,20,Pin_20*%
%TO.N,GND*%
X131000000Y-80680000D03*
%TD*%
D12*
%TO.P,R2,1*%
%TO.N,+5V*%
X89000000Y-77587500D03*
%TO.P,R2,2*%
%TO.N,Net-(U2-EN)*%
X89000000Y-79412500D03*
%TD*%
D13*
%TO.P,J11,1,1*%
%TO.N,+3.3V*%
X146550599Y-63004902D03*
%TO.P,J11,2,2*%
X146550599Y-67204902D03*
%TO.P,J11,3,3*%
%TO.N,GND*%
X146550599Y-71404901D03*
%TO.P,J11,4,4*%
%TO.N,+5V*%
X146550599Y-75604900D03*
%TO.P,J11,5,5*%
%TO.N,GND*%
X146550599Y-79804900D03*
%TO.P,J11,6,6*%
%TO.N,+5V*%
X146550599Y-84004899D03*
%TO.P,J11,7,7*%
%TO.N,GND*%
X146550599Y-88204898D03*
%TO.P,J11,8,8*%
%TO.N,/PWR_ON*%
X146550599Y-92404897D03*
%TO.P,J11,9,9*%
%TO.N,/+5VDC_Standby*%
X146550599Y-96604897D03*
%TO.P,J11,10,10*%
%TO.N,+12V*%
X146550599Y-100804896D03*
%TO.P,J11,11,11*%
X146550599Y-105004895D03*
%TO.P,J11,12,12*%
%TO.N,+3.3V*%
X146550599Y-109204894D03*
%TO.P,J11,13,13*%
X141050600Y-63004902D03*
%TO.P,J11,14,14*%
%TO.N,-12V*%
X141050600Y-67204902D03*
%TO.P,J11,15,15*%
%TO.N,GND*%
X141050600Y-71404901D03*
%TO.P,J11,16,16*%
%TO.N,/PS_ON#*%
X141050600Y-75604900D03*
%TO.P,J11,17,17*%
%TO.N,GND*%
X141050600Y-79804900D03*
%TO.P,J11,18,18*%
X141050600Y-84004899D03*
%TO.P,J11,19,19*%
X141050600Y-88204898D03*
%TO.P,J11,20,20*%
%TO.N,unconnected-(J11-Pad20)*%
X141050600Y-92404897D03*
%TO.P,J11,21,21*%
%TO.N,+5V*%
X141050600Y-96604897D03*
%TO.P,J11,22,22*%
X141050600Y-100804896D03*
%TO.P,J11,23,23*%
X141050600Y-105004895D03*
%TO.P,J11,24,24*%
%TO.N,GND*%
X141050600Y-109204894D03*
%TD*%
D12*
%TO.P,R1,1*%
%TO.N,+5V*%
X89000000Y-71087500D03*
%TO.P,R1,2*%
%TO.N,Net-(U1-EN)*%
X89000000Y-72912500D03*
%TD*%
D14*
%TO.P,U2,1,GND*%
%TO.N,GND*%
X93500000Y-78250001D03*
%TO.P,U2,2,VREF_A*%
%TO.N,+3.3V*%
X93500000Y-77750002D03*
%TO.P,U2,3,A1*%
%TO.N,/3v3RPMSignal2*%
X93500000Y-77250000D03*
%TO.P,U2,4,A2*%
%TO.N,/3v3RPMSignal1*%
X93500000Y-76750002D03*
%TO.P,U2,5,B2*%
%TO.N,/RPM Signal1*%
X90500000Y-76750002D03*
%TO.P,U2,6,B1*%
%TO.N,/RPM Signal2*%
X90500000Y-77250000D03*
%TO.P,U2,7,VREF_B*%
%TO.N,+5V*%
X90500000Y-77750002D03*
%TO.P,U2,8,EN*%
%TO.N,Net-(U2-EN)*%
X90500000Y-78250001D03*
%TD*%
D10*
%TO.P,J10,1,Pin_1*%
%TO.N,/UART RX*%
X93500000Y-66040000D03*
D11*
%TO.P,J10,2,Pin_2*%
%TO.N,GND*%
X93500000Y-63500000D03*
%TO.P,J10,3,Pin_3*%
%TO.N,/UART TX*%
X93500000Y-60960000D03*
%TD*%
D10*
%TO.P,J3,1,Pin_1*%
%TO.N,/Display_On*%
X100350000Y-117225000D03*
D11*
%TO.P,J3,2,Pin_2*%
%TO.N,GND*%
X100350000Y-119765000D03*
%TD*%
D15*
%TO.P,J13,1*%
%TO.N,+12V*%
X125500000Y-115425000D03*
X125500000Y-121575000D03*
%TO.P,J13,2*%
%TO.N,GND*%
X136500000Y-121575000D03*
%TO.P,J13,3*%
%TO.N,N/C*%
X136500000Y-115425000D03*
%TD*%
D10*
%TO.P,J4,1,Pin_1*%
%TO.N,/Pi1_On*%
X105000000Y-117225000D03*
D11*
%TO.P,J4,2,Pin_2*%
%TO.N,GND*%
X105000000Y-119765000D03*
%TD*%
D10*
%TO.P,J6,1,Pin_1*%
%TO.N,/Pi4_On*%
X118950000Y-117225000D03*
D11*
%TO.P,J6,2,Pin_2*%
%TO.N,GND*%
X118950000Y-119765000D03*
%TD*%
D10*
%TO.P,SW1,1,A*%
%TO.N,Net-(J2-GPIO15)*%
X95650000Y-117225000D03*
D11*
%TO.P,SW1,2,B*%
%TO.N,GND*%
X95650000Y-119765000D03*
%TD*%
%TO.P,J2,1,GPIO0*%
%TO.N,/UART TX*%
X101220000Y-61370000D03*
D16*
X100320000Y-61370000D03*
D11*
%TO.P,J2,2,GPIO1*%
%TO.N,/UART RX*%
X101220000Y-63910000D03*
D16*
X100320000Y-63910000D03*
D10*
%TO.P,J2,3,GND*%
%TO.N,GND*%
X101220000Y-66450000D03*
D16*
X100320000Y-66450000D03*
D11*
%TO.P,J2,4,GPIO2*%
%TO.N,/3v3PWM1*%
X101220000Y-68990000D03*
D16*
X100320000Y-68990000D03*
D11*
%TO.P,J2,5,GPIO3*%
%TO.N,unconnected-(J2-GPIO3-Pad5)*%
X101220000Y-71530000D03*
D16*
X100320000Y-71530000D03*
D11*
%TO.P,J2,6,GPIO4*%
%TO.N,/3v3PWM2*%
X101220000Y-74070000D03*
D16*
X100320000Y-74070000D03*
D11*
%TO.P,J2,7,GPIO5*%
%TO.N,unconnected-(J2-GPIO5-Pad7)*%
X101220000Y-76610000D03*
D16*
X100320000Y-76610000D03*
D10*
%TO.P,J2,8,GND*%
%TO.N,unconnected-(J2-GND-Pad8)*%
X101220000Y-79150000D03*
D16*
X100320000Y-79150000D03*
D11*
%TO.P,J2,9,GPIO6*%
%TO.N,/3v3RPMSignal1*%
X101220000Y-81690000D03*
D16*
X100320000Y-81690000D03*
D11*
%TO.P,J2,10,GPIO7*%
%TO.N,unconnected-(J2-GPIO7-Pad10)*%
X101220000Y-84230000D03*
D16*
X100320000Y-84230000D03*
D11*
%TO.P,J2,11,GPIO8*%
%TO.N,/3v3RPMSignal2*%
X101220000Y-86770000D03*
D16*
X100320000Y-86770000D03*
D11*
%TO.P,J2,12,GPIO9*%
%TO.N,unconnected-(J2-GPIO9-Pad12)*%
X101220000Y-89310000D03*
D16*
X100320000Y-89310000D03*
D10*
%TO.P,J2,13,GND*%
%TO.N,unconnected-(J2-GND-Pad13)*%
X101220000Y-91850000D03*
D16*
X100320000Y-91850000D03*
D11*
%TO.P,J2,14,GPIO10*%
%TO.N,unconnected-(J2-GPIO10-Pad14)*%
X101220000Y-94390000D03*
D16*
X100320000Y-94390000D03*
D11*
%TO.P,J2,15,GPIO11*%
%TO.N,unconnected-(J2-GPIO11-Pad15)*%
X101220000Y-96930000D03*
D16*
X100320000Y-96930000D03*
D11*
%TO.P,J2,16,GPIO12*%
%TO.N,unconnected-(J2-GPIO12-Pad16)*%
X101220000Y-99470000D03*
D16*
X100320000Y-99470000D03*
D11*
%TO.P,J2,17,GPIO13*%
%TO.N,unconnected-(J2-GPIO13-Pad17)*%
X101220000Y-102010000D03*
D16*
X100320000Y-102010000D03*
D10*
%TO.P,J2,18,GND*%
%TO.N,unconnected-(J2-GND-Pad18)*%
X101220000Y-104550000D03*
D16*
X100320000Y-104550000D03*
D11*
%TO.P,J2,19,GPIO14*%
%TO.N,unconnected-(J2-GPIO14-Pad19)*%
X101220000Y-107090000D03*
D16*
X100320000Y-107090000D03*
D11*
%TO.P,J2,20,GPIO15*%
%TO.N,Net-(J2-GPIO15)*%
X101220000Y-109630000D03*
D16*
X100320000Y-109630000D03*
D11*
%TO.P,J2,21,GPIO16*%
%TO.N,/Display_On*%
X119000000Y-109630000D03*
D16*
X119900000Y-109630000D03*
D11*
%TO.P,J2,22,GPIO17*%
%TO.N,/Pi1_On*%
X119000000Y-107090000D03*
D16*
X119900000Y-107090000D03*
D10*
%TO.P,J2,23,GND*%
%TO.N,unconnected-(J2-GND-Pad23)*%
X119000000Y-104550000D03*
D16*
X119900000Y-104550000D03*
D11*
%TO.P,J2,24,GPIO18*%
%TO.N,/Pi2_On*%
X119000000Y-102010000D03*
D16*
X119900000Y-102010000D03*
D11*
%TO.P,J2,25,GPIO19*%
%TO.N,/Pi3_On*%
X119000000Y-99470000D03*
D16*
X119900000Y-99470000D03*
D11*
%TO.P,J2,26,GPIO20*%
%TO.N,/Pi4_On*%
X119000000Y-96930000D03*
D16*
X119900000Y-96930000D03*
D11*
%TO.P,J2,27,GPIO21*%
%TO.N,/PSU_ON*%
X119000000Y-94390000D03*
D16*
X119900000Y-94390000D03*
D10*
%TO.P,J2,28,GND*%
%TO.N,unconnected-(J2-GND-Pad28)*%
X119000000Y-91850000D03*
D16*
X119900000Y-91850000D03*
D11*
%TO.P,J2,29,GPIO22*%
%TO.N,unconnected-(J2-GPIO22-Pad29)*%
X119000000Y-89310000D03*
D16*
X119900000Y-89310000D03*
D11*
%TO.P,J2,30,RUN*%
%TO.N,unconnected-(J2-RUN-Pad30)*%
X119000000Y-86770000D03*
D16*
X119900000Y-86770000D03*
D11*
%TO.P,J2,31,GPIO26_ADC0*%
%TO.N,unconnected-(J2-GPIO26_ADC0-Pad31)*%
X119000000Y-84230000D03*
D16*
X119900000Y-84230000D03*
D11*
%TO.P,J2,32,GPIO27_ADC1*%
%TO.N,unconnected-(J2-GPIO27_ADC1-Pad32)*%
X119000000Y-81690000D03*
D16*
X119900000Y-81690000D03*
D10*
%TO.P,J2,33,AGND*%
%TO.N,unconnected-(J2-AGND-Pad33)*%
X119000000Y-79150000D03*
D16*
X119900000Y-79150000D03*
D11*
%TO.P,J2,34,GPIO28_ADC2*%
%TO.N,unconnected-(J2-GPIO28_ADC2-Pad34)*%
X119000000Y-76610000D03*
D16*
X119900000Y-76610000D03*
D11*
%TO.P,J2,35,ADC_VREF*%
%TO.N,unconnected-(J2-ADC_VREF-Pad35)*%
X119000000Y-74070000D03*
D16*
X119900000Y-74070000D03*
D11*
%TO.P,J2,36,3V3*%
%TO.N,unconnected-(J2-3V3-Pad36)*%
X119000000Y-71530000D03*
D16*
X119900000Y-71530000D03*
D11*
%TO.P,J2,37,3V3_EN*%
%TO.N,unconnected-(J2-3V3_EN-Pad37)*%
X119000000Y-68990000D03*
D16*
X119900000Y-68990000D03*
D10*
%TO.P,J2,38,GND*%
%TO.N,unconnected-(J2-GND-Pad38)*%
X119000000Y-66450000D03*
D16*
X119900000Y-66450000D03*
D11*
%TO.P,J2,39,VSYS*%
%TO.N,/+5VDC_Standby*%
X119000000Y-63910000D03*
D16*
X119900000Y-63910000D03*
D11*
%TO.P,J2,40,VBUS*%
%TO.N,unconnected-(J2-VBUS-Pad40)_1*%
X119000000Y-61370000D03*
D16*
%TO.N,unconnected-(J2-VBUS-Pad40)*%
X119900000Y-61370000D03*
D11*
%TO.P,J2,41,SWCLK*%
%TO.N,unconnected-(J2-SWCLK-Pad41)*%
X107570000Y-109400000D03*
D17*
X107570000Y-110300000D03*
D10*
%TO.P,J2,42,GND*%
%TO.N,unconnected-(J2-GND-Pad42)*%
X110110000Y-109400000D03*
D17*
X110110000Y-110300000D03*
D11*
%TO.P,J2,43,SWDIO*%
%TO.N,unconnected-(J2-SWDIO-Pad43)*%
X112650000Y-109400000D03*
D17*
X112650000Y-110300000D03*
%TD*%
D10*
%TO.P,J9,1,Pin_1*%
%TO.N,/Pi3_On*%
X114300000Y-117225000D03*
D11*
%TO.P,J9,2,Pin_2*%
%TO.N,GND*%
X114300000Y-119765000D03*
%TD*%
D14*
%TO.P,U1,1,GND*%
%TO.N,GND*%
X93500000Y-70750001D03*
%TO.P,U1,2,VREF_A*%
%TO.N,+3.3V*%
X93500000Y-70250002D03*
%TO.P,U1,3,A1*%
%TO.N,/3v3PWM2*%
X93500000Y-69750000D03*
%TO.P,U1,4,A2*%
%TO.N,/3v3PWM1*%
X93500000Y-69250002D03*
%TO.P,U1,5,B2*%
%TO.N,/5V PWM1*%
X90500000Y-69250002D03*
%TO.P,U1,6,B1*%
%TO.N,/5V PWM2*%
X90500000Y-69750000D03*
%TO.P,U1,7,VREF_B*%
%TO.N,+5V*%
X90500000Y-70250002D03*
%TO.P,U1,8,EN*%
%TO.N,Net-(U1-EN)*%
X90500000Y-70750001D03*
%TD*%
D10*
%TO.P,J5,1,Pin_1*%
%TO.N,/Pi2_On*%
X109650000Y-117225000D03*
D11*
%TO.P,J5,2,Pin_2*%
%TO.N,GND*%
X109650000Y-119765000D03*
%TD*%
D18*
%TO.P,C2,1*%
%TO.N,Net-(U2-EN)*%
X90637500Y-79500000D03*
%TO.P,C2,2*%
%TO.N,GND*%
X92362500Y-79500000D03*
%TD*%
D19*
%TO.P,Q1,1,E*%
%TO.N,GND*%
X134000000Y-76040000D03*
D20*
%TO.P,Q1,2,B*%
%TO.N,/PSU_ON*%
X134000000Y-73500000D03*
%TO.P,Q1,3,C*%
%TO.N,/PS_ON#*%
X134000000Y-70960000D03*
%TD*%
D18*
%TO.P,C1,1*%
%TO.N,Net-(U1-EN)*%
X90637500Y-73000000D03*
%TO.P,C1,2*%
%TO.N,GND*%
X92362500Y-73000000D03*
%TD*%
D21*
%TO.P,J8,1,1*%
%TO.N,/5V PWM2*%
X83746150Y-77223400D03*
%TO.P,J8,2,2*%
%TO.N,/RPM Signal2*%
X83746150Y-79763400D03*
%TO.P,J8,3,3*%
%TO.N,+12V*%
X83746150Y-82303400D03*
%TO.P,J8,4,4*%
%TO.N,GND*%
X83746150Y-84843400D03*
%TD*%
%TO.P,J7,1,1*%
%TO.N,/5V PWM1*%
X84000000Y-65460000D03*
%TO.P,J7,2,2*%
%TO.N,/RPM Signal1*%
X84000000Y-68000000D03*
%TO.P,J7,3,3*%
%TO.N,+12V*%
X84000000Y-70540000D03*
%TO.P,J7,4,4*%
%TO.N,GND*%
X84000000Y-73080000D03*
%TD*%
D22*
%TO.N,+5V*%
X87500000Y-78000000D03*
X144000000Y-91000000D03*
X87400000Y-72000000D03*
%TO.N,+3.3V*%
X95000000Y-72000000D03*
%TO.N,/5V PWM2*%
X88000000Y-70000000D03*
X86500000Y-74500000D03*
%TD*%
D23*
%TO.N,+5V*%
X141050600Y-105004895D02*
X135004895Y-105004895D01*
X135004895Y-105004895D02*
X133540000Y-103540000D01*
X133540000Y-93380000D02*
X133540000Y-80680000D01*
%TO.N,/PSU_ON*%
X120562000Y-94390000D02*
X119000000Y-94390000D01*
X121951000Y-93001000D02*
X120562000Y-94390000D01*
X134000000Y-73500000D02*
X121951000Y-85549000D01*
X121951000Y-85549000D02*
X121951000Y-93001000D01*
%TO.N,/PS_ON#*%
X136405700Y-70960000D02*
X141050600Y-75604900D01*
X134000000Y-70960000D02*
X136405700Y-70960000D01*
%TO.N,GND*%
X92362500Y-71887501D02*
X93500000Y-70750001D01*
X92362500Y-73000000D02*
X92362500Y-71887501D01*
X92362500Y-79387501D02*
X93500000Y-78250001D01*
X92362500Y-79500000D02*
X92362500Y-79387501D01*
%TO.N,Net-(U1-EN)*%
X90637500Y-73000000D02*
X89087500Y-73000000D01*
X89000000Y-72912500D02*
X90500000Y-71412500D01*
X90500000Y-71412500D02*
X90500000Y-70750001D01*
X89087500Y-73000000D02*
X89000000Y-72912500D01*
%TO.N,Net-(U2-EN)*%
X89087500Y-79500000D02*
X89000000Y-79412500D01*
X89337501Y-79412500D02*
X90500000Y-78250001D01*
X90637500Y-79500000D02*
X89087500Y-79500000D01*
X89000000Y-79412500D02*
X89337501Y-79412500D01*
%TO.N,+5V*%
X146550599Y-84004899D02*
X144000000Y-86555498D01*
X88587500Y-78000000D02*
X89000000Y-77587500D01*
X89000000Y-71087500D02*
X88312500Y-71087500D01*
X137825703Y-93380000D02*
X141050600Y-96604897D01*
X133540000Y-93380000D02*
X137825703Y-93380000D01*
X144000000Y-86555498D02*
X144000000Y-91000000D01*
X138315496Y-103540000D02*
X141050600Y-100804896D01*
X147828499Y-82726999D02*
X146550599Y-84004899D01*
X133540000Y-103540000D02*
X138315496Y-103540000D01*
X147828499Y-76882800D02*
X147828499Y-82726999D01*
X87500000Y-78000000D02*
X88587500Y-78000000D01*
X90500000Y-77750002D02*
X89162502Y-77750002D01*
X133540000Y-93380000D02*
X133540000Y-103540000D01*
X146550599Y-75604900D02*
X147828499Y-76882800D01*
X89162502Y-77750002D02*
X89000000Y-77587500D01*
X141050600Y-96604897D02*
X141050600Y-105004895D01*
X89837498Y-70250002D02*
X89000000Y-71087500D01*
X88312500Y-71087500D02*
X87400000Y-72000000D01*
X90500000Y-70250002D02*
X89837498Y-70250002D01*
%TO.N,/Pi3_On*%
X117975000Y-113550000D02*
X120515686Y-113550000D01*
X122750000Y-111315686D02*
X122750000Y-100750000D01*
X121470000Y-99470000D02*
X119000000Y-99470000D01*
X120515686Y-113550000D02*
X122750000Y-111315686D01*
X122750000Y-100750000D02*
X121470000Y-99470000D01*
X114300000Y-117225000D02*
X117975000Y-113550000D01*
%TO.N,/UART TX*%
X101220000Y-61370000D02*
X93910000Y-61370000D01*
X93910000Y-61370000D02*
X93500000Y-60960000D01*
%TO.N,/3v3PWM2*%
X95340000Y-69750000D02*
X99660000Y-74070000D01*
X93500000Y-69750000D02*
X95340000Y-69750000D01*
X99660000Y-74070000D02*
X101220000Y-74070000D01*
%TO.N,/Pi4_On*%
X118950000Y-117225000D02*
X123150000Y-113025000D01*
X123150000Y-113025000D02*
X123150000Y-99150000D01*
X123150000Y-99150000D02*
X120930000Y-96930000D01*
X120930000Y-96930000D02*
X119000000Y-96930000D01*
%TO.N,/UART RX*%
X101220000Y-63910000D02*
X99090000Y-63910000D01*
X99090000Y-63910000D02*
X96960000Y-66040000D01*
X96960000Y-66040000D02*
X93500000Y-66040000D01*
%TO.N,/3v3RPMSignal1*%
X94720002Y-76750002D02*
X99660000Y-81690000D01*
X93500000Y-76750002D02*
X94720002Y-76750002D01*
X99660000Y-81690000D02*
X101220000Y-81690000D01*
%TO.N,+3.3V*%
X94100000Y-72900000D02*
X94100000Y-70573960D01*
X92900000Y-77426041D02*
X92900000Y-74100000D01*
X94100000Y-72900000D02*
X95000000Y-72000000D01*
X93223961Y-77750002D02*
X92900000Y-77426041D01*
X94100000Y-70573960D02*
X93776042Y-70250002D01*
X93500000Y-77750002D02*
X93223961Y-77750002D01*
X93776042Y-70250002D02*
X93500000Y-70250002D01*
X92900000Y-74100000D02*
X94100000Y-72900000D01*
%TO.N,/3v3RPMSignal2*%
X96000000Y-79473961D02*
X96000000Y-86000000D01*
X93500000Y-77250000D02*
X93776039Y-77250000D01*
X93776039Y-77250000D02*
X96000000Y-79473961D01*
X96770000Y-86770000D02*
X101220000Y-86770000D01*
X96000000Y-86000000D02*
X96770000Y-86770000D01*
%TO.N,/+5VDC_Standby*%
X142328500Y-92382798D02*
X142328500Y-74828500D01*
X131410000Y-63910000D02*
X119000000Y-63910000D01*
X142328500Y-74828500D02*
X131410000Y-63910000D01*
X146550599Y-96604897D02*
X142328500Y-92382798D01*
%TO.N,/3v3PWM1*%
X101220000Y-68990000D02*
X93760002Y-68990000D01*
X93760002Y-68990000D02*
X93500000Y-69250002D01*
%TO.N,/Pi2_On*%
X122350000Y-111150000D02*
X122350000Y-102350000D01*
X113725000Y-113150000D02*
X120350000Y-113150000D01*
X120350000Y-113150000D02*
X122350000Y-111150000D01*
X109650000Y-117225000D02*
X113725000Y-113150000D01*
X122010000Y-102010000D02*
X119000000Y-102010000D01*
X122350000Y-102350000D02*
X122010000Y-102010000D01*
%TO.N,/Display_On*%
X100350000Y-117225000D02*
X105225000Y-112350000D01*
X116280000Y-112350000D02*
X119000000Y-109630000D01*
X105225000Y-112350000D02*
X116280000Y-112350000D01*
%TO.N,/Pi1_On*%
X120560000Y-107090000D02*
X119000000Y-107090000D01*
X119980000Y-112750000D02*
X121950000Y-110780000D01*
X109475000Y-112750000D02*
X119980000Y-112750000D01*
X121950000Y-110780000D02*
X121950000Y-108480000D01*
X105000000Y-117225000D02*
X109475000Y-112750000D01*
X121950000Y-108480000D02*
X120560000Y-107090000D01*
%TO.N,Net-(J2-GPIO15)*%
X95650000Y-117225000D02*
X95650000Y-115200000D01*
X95650000Y-115200000D02*
X101220000Y-109630000D01*
%TO.N,/5V PWM1*%
X90500000Y-69250002D02*
X87790002Y-69250002D01*
X87790002Y-69250002D02*
X84000000Y-65460000D01*
%TO.N,+12V*%
X146550599Y-105004895D02*
X146550599Y-100804896D01*
X143628500Y-107926994D02*
X146550599Y-105004895D01*
X83746150Y-82303400D02*
X82658750Y-81216000D01*
X82658750Y-71881250D02*
X84000000Y-70540000D01*
X82658750Y-81216000D02*
X82658750Y-71881250D01*
X132998006Y-107926994D02*
X143628500Y-107926994D01*
X125500000Y-121575000D02*
X125500000Y-115425000D01*
X125500000Y-115425000D02*
X132998006Y-107926994D01*
%TO.N,/RPM Signal1*%
X85162300Y-69162300D02*
X84000000Y-68000000D01*
X85162300Y-71412302D02*
X85162300Y-69162300D01*
X90500000Y-76750002D02*
X85162300Y-71412302D01*
%TO.N,/5V PWM2*%
X88000000Y-70000000D02*
X88250000Y-69750000D01*
X83746150Y-77223400D02*
X86469550Y-74500000D01*
X86469550Y-74500000D02*
X86500000Y-74500000D01*
X88250000Y-69750000D02*
X90500000Y-69750000D01*
%TO.N,/RPM Signal2*%
X86709550Y-76800000D02*
X83746150Y-79763400D01*
X89466722Y-76800000D02*
X86709550Y-76800000D01*
X89916722Y-77250000D02*
X89466722Y-76800000D01*
X90500000Y-77250000D02*
X89916722Y-77250000D01*
%TD*%
%TA.AperFunction,Conductor*%
%TO.N,GND*%
G36*
X85377626Y-72489737D02*
G01*
X85417038Y-72516275D01*
X86406507Y-73505744D01*
X86439992Y-73567067D01*
X86435008Y-73636759D01*
X86393136Y-73692692D01*
X86343019Y-73715042D01*
X86266507Y-73730262D01*
X86266498Y-73730264D01*
X86120827Y-73790602D01*
X86120814Y-73790609D01*
X85989711Y-73878210D01*
X85989707Y-73878213D01*
X85878213Y-73989707D01*
X85878210Y-73989711D01*
X85790609Y-74120814D01*
X85790602Y-74120827D01*
X85730264Y-74266498D01*
X85730261Y-74266508D01*
X85706923Y-74383837D01*
X85674538Y-74445748D01*
X85672987Y-74447326D01*
X84180992Y-75939321D01*
X84119669Y-75972806D01*
X84055001Y-75969574D01*
X84052076Y-75968624D01*
X84047734Y-75967213D01*
X84047732Y-75967212D01*
X84047730Y-75967212D01*
X83871634Y-75939321D01*
X83847510Y-75935500D01*
X83644790Y-75935500D01*
X83620666Y-75939321D01*
X83444562Y-75967213D01*
X83421567Y-75974685D01*
X83351726Y-75976680D01*
X83291894Y-75940599D01*
X83261066Y-75877898D01*
X83259250Y-75856754D01*
X83259250Y-74349801D01*
X83278935Y-74282762D01*
X83331739Y-74237007D01*
X83400897Y-74227063D01*
X83439545Y-74239316D01*
X83505807Y-74273078D01*
X83698536Y-74335700D01*
X83698535Y-74335700D01*
X83898680Y-74367400D01*
X84101320Y-74367400D01*
X84301463Y-74335700D01*
X84494192Y-74273078D01*
X84674747Y-74181081D01*
X84674751Y-74181079D01*
X84716899Y-74150454D01*
X84716900Y-74150454D01*
X84156680Y-73590234D01*
X84205885Y-73577050D01*
X84327515Y-73506826D01*
X84426826Y-73407515D01*
X84497050Y-73285885D01*
X84510234Y-73236680D01*
X85070454Y-73796900D01*
X85070454Y-73796899D01*
X85101079Y-73754751D01*
X85101081Y-73754747D01*
X85193078Y-73574192D01*
X85255700Y-73381463D01*
X85287400Y-73181320D01*
X85287400Y-72978679D01*
X85255700Y-72778536D01*
X85211426Y-72642274D01*
X85209431Y-72572433D01*
X85245511Y-72512600D01*
X85308212Y-72481772D01*
X85377626Y-72489737D01*
G37*
%TD.AperFunction*%
%TA.AperFunction,Conductor*%
G36*
X98012540Y-61990185D02*
G01*
X98058295Y-62042989D01*
X98069501Y-62094500D01*
X98069501Y-62267876D01*
X98075908Y-62327483D01*
X98126202Y-62462328D01*
X98126203Y-62462330D01*
X98203578Y-62565689D01*
X98227995Y-62631153D01*
X98213144Y-62699426D01*
X98203578Y-62714311D01*
X98126203Y-62817669D01*
X98126202Y-62817671D01*
X98075908Y-62952517D01*
X98069501Y-63012116D01*
X98069501Y-63012123D01*
X98069500Y-63012135D01*
X98069500Y-64029902D01*
X98049815Y-64096941D01*
X98033181Y-64117583D01*
X96747584Y-65403181D01*
X96686261Y-65436666D01*
X96659903Y-65439500D01*
X94974499Y-65439500D01*
X94907460Y-65419815D01*
X94861705Y-65367011D01*
X94850499Y-65315500D01*
X94850499Y-65142129D01*
X94850498Y-65142123D01*
X94850497Y-65142116D01*
X94844091Y-65082517D01*
X94817053Y-65010025D01*
X94793797Y-64947671D01*
X94793793Y-64947664D01*
X94707547Y-64832455D01*
X94707544Y-64832452D01*
X94592335Y-64746206D01*
X94592328Y-64746202D01*
X94460401Y-64696997D01*
X94404467Y-64655126D01*
X94380050Y-64589662D01*
X94394902Y-64521389D01*
X94416053Y-64493133D01*
X94529728Y-64379458D01*
X94654620Y-64207557D01*
X94751095Y-64018217D01*
X94816757Y-63816129D01*
X94816757Y-63816126D01*
X94827231Y-63750000D01*
X93933012Y-63750000D01*
X93965925Y-63692993D01*
X94000000Y-63565826D01*
X94000000Y-63434174D01*
X93965925Y-63307007D01*
X93933012Y-63250000D01*
X94827231Y-63250000D01*
X94816757Y-63183873D01*
X94816757Y-63183870D01*
X94751095Y-62981782D01*
X94654620Y-62792442D01*
X94529727Y-62620540D01*
X94529723Y-62620535D01*
X94379464Y-62470276D01*
X94379459Y-62470272D01*
X94207555Y-62345377D01*
X94198500Y-62340763D01*
X94147706Y-62292788D01*
X94130912Y-62224966D01*
X94153451Y-62158832D01*
X94183267Y-62128991D01*
X94190546Y-62123850D01*
X94207816Y-62115051D01*
X94374874Y-61993676D01*
X94375534Y-61993211D01*
X94407868Y-61982161D01*
X94439986Y-61970702D01*
X94441533Y-61970657D01*
X94441650Y-61970618D01*
X94441782Y-61970650D01*
X94447065Y-61970500D01*
X97945501Y-61970500D01*
X98012540Y-61990185D01*
G37*
%TD.AperFunction*%
%TA.AperFunction,Conductor*%
G36*
X131250000Y-103106988D02*
G01*
X131192993Y-103074075D01*
X131065826Y-103040000D01*
X130934174Y-103040000D01*
X130807007Y-103074075D01*
X130750000Y-103106988D01*
X130750000Y-101433012D01*
X130807007Y-101465925D01*
X130934174Y-101500000D01*
X131065826Y-101500000D01*
X131192993Y-101465925D01*
X131250000Y-101433012D01*
X131250000Y-103106988D01*
G37*
%TD.AperFunction*%
%TA.AperFunction,Conductor*%
G36*
X131250000Y-100566988D02*
G01*
X131192993Y-100534075D01*
X131065826Y-100500000D01*
X130934174Y-100500000D01*
X130807007Y-100534075D01*
X130750000Y-100566988D01*
X130750000Y-98893012D01*
X130807007Y-98925925D01*
X130934174Y-98960000D01*
X131065826Y-98960000D01*
X131192993Y-98925925D01*
X131250000Y-98893012D01*
X131250000Y-100566988D01*
G37*
%TD.AperFunction*%
%TA.AperFunction,Conductor*%
G36*
X131250000Y-98026988D02*
G01*
X131192993Y-97994075D01*
X131065826Y-97960000D01*
X130934174Y-97960000D01*
X130807007Y-97994075D01*
X130750000Y-98026988D01*
X130750000Y-96353012D01*
X130807007Y-96385925D01*
X130934174Y-96420000D01*
X131065826Y-96420000D01*
X131192993Y-96385925D01*
X131250000Y-96353012D01*
X131250000Y-98026988D01*
G37*
%TD.AperFunction*%
%TA.AperFunction,Conductor*%
G36*
X131250000Y-95486988D02*
G01*
X131192993Y-95454075D01*
X131065826Y-95420000D01*
X130934174Y-95420000D01*
X130807007Y-95454075D01*
X130750000Y-95486988D01*
X130750000Y-93813012D01*
X130807007Y-93845925D01*
X130934174Y-93880000D01*
X131065826Y-93880000D01*
X131192993Y-93845925D01*
X131250000Y-93813012D01*
X131250000Y-95486988D01*
G37*
%TD.AperFunction*%
%TA.AperFunction,Conductor*%
G36*
X131250000Y-92946988D02*
G01*
X131192993Y-92914075D01*
X131065826Y-92880000D01*
X130934174Y-92880000D01*
X130807007Y-92914075D01*
X130750000Y-92946988D01*
X130750000Y-91273012D01*
X130807007Y-91305925D01*
X130934174Y-91340000D01*
X131065826Y-91340000D01*
X131192993Y-91305925D01*
X131250000Y-91273012D01*
X131250000Y-92946988D01*
G37*
%TD.AperFunction*%
%TA.AperFunction,Conductor*%
G36*
X131250000Y-90406988D02*
G01*
X131192993Y-90374075D01*
X131065826Y-90340000D01*
X130934174Y-90340000D01*
X130807007Y-90374075D01*
X130750000Y-90406988D01*
X130750000Y-88733012D01*
X130807007Y-88765925D01*
X130934174Y-88800000D01*
X131065826Y-88800000D01*
X131192993Y-88765925D01*
X131250000Y-88733012D01*
X131250000Y-90406988D01*
G37*
%TD.AperFunction*%
%TA.AperFunction,Conductor*%
G36*
X131250000Y-87866988D02*
G01*
X131192993Y-87834075D01*
X131065826Y-87800000D01*
X130934174Y-87800000D01*
X130807007Y-87834075D01*
X130750000Y-87866988D01*
X130750000Y-86193012D01*
X130807007Y-86225925D01*
X130934174Y-86260000D01*
X131065826Y-86260000D01*
X131192993Y-86225925D01*
X131250000Y-86193012D01*
X131250000Y-87866988D01*
G37*
%TD.AperFunction*%
%TA.AperFunction,Conductor*%
G36*
X131250000Y-85326988D02*
G01*
X131192993Y-85294075D01*
X131065826Y-85260000D01*
X130934174Y-85260000D01*
X130807007Y-85294075D01*
X130750000Y-85326988D01*
X130750000Y-83653012D01*
X130807007Y-83685925D01*
X130934174Y-83720000D01*
X131065826Y-83720000D01*
X131192993Y-83685925D01*
X131250000Y-83653012D01*
X131250000Y-85326988D01*
G37*
%TD.AperFunction*%
%TA.AperFunction,Conductor*%
G36*
X131250000Y-82786988D02*
G01*
X131192993Y-82754075D01*
X131065826Y-82720000D01*
X130934174Y-82720000D01*
X130807007Y-82754075D01*
X130750000Y-82786988D01*
X130750000Y-81113012D01*
X130807007Y-81145925D01*
X130934174Y-81180000D01*
X131065826Y-81180000D01*
X131192993Y-81145925D01*
X131250000Y-81113012D01*
X131250000Y-82786988D01*
G37*
%TD.AperFunction*%
%TA.AperFunction,Conductor*%
G36*
X155942539Y-56020185D02*
G01*
X155988294Y-56072989D01*
X155999500Y-56124500D01*
X155999500Y-125375500D01*
X155979815Y-125442539D01*
X155927011Y-125488294D01*
X155875500Y-125499500D01*
X79124500Y-125499500D01*
X79057461Y-125479815D01*
X79011706Y-125427011D01*
X79000500Y-125375500D01*
X79000500Y-81295054D01*
X82058248Y-81295054D01*
X82099173Y-81447786D01*
X82108759Y-81464388D01*
X82108760Y-81464390D01*
X82178227Y-81584712D01*
X82178231Y-81584717D01*
X82297099Y-81703585D01*
X82297105Y-81703590D01*
X82462071Y-81868556D01*
X82495556Y-81929879D01*
X82492324Y-81994547D01*
X82489962Y-82001815D01*
X82458250Y-82202040D01*
X82458250Y-82404759D01*
X82489155Y-82599887D01*
X82489963Y-82604984D01*
X82552607Y-82797782D01*
X82611310Y-82912993D01*
X82644642Y-82978409D01*
X82763789Y-83142404D01*
X82907145Y-83285760D01*
X83060606Y-83397254D01*
X83071144Y-83404910D01*
X83176459Y-83458571D01*
X83185534Y-83463195D01*
X83236330Y-83511170D01*
X83253125Y-83578991D01*
X83230587Y-83645126D01*
X83185534Y-83684165D01*
X83071401Y-83742319D01*
X83029249Y-83772944D01*
X83029248Y-83772945D01*
X83589469Y-84333165D01*
X83540265Y-84346350D01*
X83418635Y-84416574D01*
X83319324Y-84515885D01*
X83249100Y-84637515D01*
X83235916Y-84686719D01*
X82675695Y-84126498D01*
X82675694Y-84126499D01*
X82645069Y-84168650D01*
X82553071Y-84349207D01*
X82490449Y-84541936D01*
X82458750Y-84742079D01*
X82458750Y-84944720D01*
X82490449Y-85144863D01*
X82553071Y-85337592D01*
X82645066Y-85518144D01*
X82675695Y-85560299D01*
X82675696Y-85560300D01*
X83235915Y-85000080D01*
X83249100Y-85049285D01*
X83319324Y-85170915D01*
X83418635Y-85270226D01*
X83540265Y-85340450D01*
X83589469Y-85353634D01*
X83029249Y-85913853D01*
X83029249Y-85913854D01*
X83071404Y-85944482D01*
X83251957Y-86036478D01*
X83444686Y-86099100D01*
X83444685Y-86099100D01*
X83644830Y-86130800D01*
X83847470Y-86130800D01*
X84047613Y-86099100D01*
X84240342Y-86036478D01*
X84420897Y-85944481D01*
X84420901Y-85944479D01*
X84463049Y-85913854D01*
X84463050Y-85913854D01*
X83902830Y-85353634D01*
X83952035Y-85340450D01*
X84073665Y-85270226D01*
X84172976Y-85170915D01*
X84243200Y-85049285D01*
X84256384Y-85000080D01*
X84816603Y-85560300D01*
X84816604Y-85560299D01*
X84847229Y-85518151D01*
X84847231Y-85518147D01*
X84939228Y-85337592D01*
X85001850Y-85144863D01*
X85033550Y-84944720D01*
X85033550Y-84742079D01*
X85001850Y-84541936D01*
X84939228Y-84349207D01*
X84847232Y-84168654D01*
X84816603Y-84126499D01*
X84256383Y-84686718D01*
X84243200Y-84637515D01*
X84172976Y-84515885D01*
X84073665Y-84416574D01*
X83952035Y-84346350D01*
X83902830Y-84333165D01*
X84463050Y-83772946D01*
X84463049Y-83772945D01*
X84420894Y-83742316D01*
X84306765Y-83684165D01*
X84255969Y-83636190D01*
X84239174Y-83568369D01*
X84261711Y-83502235D01*
X84306763Y-83463196D01*
X84421156Y-83404910D01*
X84521323Y-83332135D01*
X84585154Y-83285760D01*
X84585156Y-83285757D01*
X84585160Y-83285755D01*
X84728505Y-83142410D01*
X84728507Y-83142406D01*
X84728510Y-83142404D01*
X84847659Y-82978407D01*
X84857655Y-82958789D01*
X84937328Y-82802422D01*
X84985301Y-82751627D01*
X85053122Y-82734832D01*
X85119257Y-82757369D01*
X85150914Y-82789827D01*
X85208472Y-82875968D01*
X85208475Y-82875972D01*
X85333577Y-83001074D01*
X85333581Y-83001077D01*
X85480693Y-83099375D01*
X85480694Y-83099375D01*
X85480695Y-83099376D01*
X85480697Y-83099377D01*
X85573143Y-83137669D01*
X85644155Y-83167083D01*
X85817680Y-83201599D01*
X85817684Y-83201600D01*
X85817685Y-83201600D01*
X85994616Y-83201600D01*
X85994617Y-83201599D01*
X86168145Y-83167083D01*
X86331607Y-83099375D01*
X86478719Y-83001077D01*
X86603827Y-82875969D01*
X86702125Y-82728857D01*
X86769833Y-82565395D01*
X86804350Y-82391865D01*
X86804350Y-82214935D01*
X86769833Y-82041405D01*
X86734172Y-81955312D01*
X86702127Y-81877947D01*
X86702126Y-81877945D01*
X86695852Y-81868556D01*
X86603827Y-81730831D01*
X86603824Y-81730827D01*
X86478722Y-81605725D01*
X86478718Y-81605722D01*
X86331604Y-81507423D01*
X86331602Y-81507422D01*
X86168149Y-81439718D01*
X86168137Y-81439715D01*
X85994619Y-81405200D01*
X85994615Y-81405200D01*
X85817685Y-81405200D01*
X85817680Y-81405200D01*
X85644162Y-81439715D01*
X85644150Y-81439718D01*
X85480697Y-81507422D01*
X85480695Y-81507423D01*
X85333581Y-81605722D01*
X85333577Y-81605725D01*
X85208475Y-81730827D01*
X85150914Y-81816973D01*
X85097301Y-81861777D01*
X85027976Y-81870484D01*
X84964949Y-81840329D01*
X84937329Y-81804378D01*
X84847660Y-81628394D01*
X84847658Y-81628391D01*
X84847657Y-81628389D01*
X84728510Y-81464395D01*
X84585154Y-81321039D01*
X84421159Y-81201892D01*
X84421158Y-81201891D01*
X84421156Y-81201890D01*
X84307314Y-81143884D01*
X84256519Y-81095910D01*
X84239724Y-81028089D01*
X84262261Y-80961954D01*
X84307315Y-80922915D01*
X84421156Y-80864910D01*
X84521334Y-80792127D01*
X84585154Y-80745760D01*
X84585156Y-80745757D01*
X84585160Y-80745755D01*
X84728505Y-80602410D01*
X84728507Y-80602406D01*
X84728510Y-80602404D01*
X84807043Y-80494311D01*
X84847660Y-80438406D01*
X84939693Y-80257782D01*
X85002337Y-80064984D01*
X85034050Y-79864760D01*
X85034050Y-79662040D01*
X85016783Y-79553022D01*
X85002338Y-79461821D01*
X85002337Y-79461819D01*
X85002337Y-79461816D01*
X84999977Y-79454555D01*
X84997981Y-79384718D01*
X85030225Y-79328558D01*
X86487820Y-77870964D01*
X86549142Y-77837480D01*
X86618834Y-77842464D01*
X86674767Y-77884336D01*
X86699184Y-77949800D01*
X86699500Y-77958646D01*
X86699500Y-78078846D01*
X86730261Y-78233489D01*
X86730264Y-78233501D01*
X86790602Y-78379172D01*
X86790609Y-78379185D01*
X86878210Y-78510288D01*
X86878213Y-78510292D01*
X86989707Y-78621786D01*
X86989711Y-78621789D01*
X87120814Y-78709390D01*
X87120827Y-78709397D01*
X87266498Y-78769735D01*
X87266503Y-78769737D01*
X87421153Y-78800499D01*
X87421156Y-78800500D01*
X87421158Y-78800500D01*
X87578844Y-78800500D01*
X87578845Y-78800499D01*
X87733497Y-78769737D01*
X87879179Y-78709394D01*
X87909659Y-78689027D01*
X87976335Y-78668149D01*
X88043716Y-78686632D01*
X88090407Y-78738610D01*
X88101585Y-78807580D01*
X88090939Y-78844522D01*
X88089093Y-78848480D01*
X88088264Y-78850983D01*
X88034826Y-79012247D01*
X88034826Y-79012248D01*
X88034825Y-79012248D01*
X88024500Y-79113315D01*
X88024500Y-79711669D01*
X88024501Y-79711687D01*
X88034825Y-79812752D01*
X88089092Y-79976515D01*
X88089093Y-79976518D01*
X88113479Y-80016054D01*
X88179660Y-80123350D01*
X88301650Y-80245340D01*
X88448484Y-80335908D01*
X88612247Y-80390174D01*
X88713323Y-80400500D01*
X89286676Y-80400499D01*
X89286684Y-80400498D01*
X89286687Y-80400498D01*
X89342030Y-80394844D01*
X89387753Y-80390174D01*
X89551516Y-80335908D01*
X89678793Y-80257402D01*
X89746184Y-80238962D01*
X89812848Y-80259884D01*
X89831570Y-80275260D01*
X89876650Y-80320340D01*
X90023484Y-80410908D01*
X90187247Y-80465174D01*
X90288323Y-80475500D01*
X90986676Y-80475499D01*
X90986684Y-80475498D01*
X90986687Y-80475498D01*
X91042030Y-80469844D01*
X91087753Y-80465174D01*
X91251516Y-80410908D01*
X91398350Y-80320340D01*
X91412671Y-80306018D01*
X91473989Y-80272533D01*
X91543681Y-80277514D01*
X91588034Y-80306017D01*
X91601961Y-80319944D01*
X91601965Y-80319947D01*
X91748688Y-80410448D01*
X91748699Y-80410453D01*
X91912347Y-80464680D01*
X92013351Y-80474999D01*
X92612500Y-80474999D01*
X92711640Y-80474999D01*
X92711654Y-80474998D01*
X92812652Y-80464680D01*
X92976300Y-80410453D01*
X92976311Y-80410448D01*
X93123034Y-80319947D01*
X93123038Y-80319944D01*
X93244944Y-80198038D01*
X93244947Y-80198034D01*
X93335448Y-80051311D01*
X93335453Y-80051300D01*
X93389680Y-79887652D01*
X93399999Y-79786654D01*
X93400000Y-79786641D01*
X93400000Y-79750000D01*
X92612500Y-79750000D01*
X92612500Y-80474999D01*
X92013351Y-80474999D01*
X92112500Y-80474998D01*
X92112500Y-78524999D01*
X92013360Y-78525000D01*
X92013344Y-78525001D01*
X91912347Y-78535319D01*
X91748699Y-78589546D01*
X91748688Y-78589551D01*
X91601965Y-78680052D01*
X91588032Y-78693985D01*
X91526708Y-78727468D01*
X91457016Y-78722482D01*
X91429811Y-78708281D01*
X91420598Y-78701908D01*
X91398350Y-78679660D01*
X91306804Y-78623194D01*
X91304134Y-78621347D01*
X91284127Y-78596608D01*
X91262855Y-78572958D01*
X91262314Y-78569637D01*
X91260198Y-78567020D01*
X91256742Y-78535396D01*
X91251632Y-78503995D01*
X91252819Y-78499502D01*
X91252608Y-78497564D01*
X91254151Y-78494466D01*
X91260114Y-78471918D01*
X91276462Y-78432452D01*
X91300499Y-78311607D01*
X91300499Y-78188395D01*
X91276462Y-78067550D01*
X91268137Y-78047453D01*
X91260668Y-77977988D01*
X91268136Y-77952550D01*
X91276462Y-77932453D01*
X91300499Y-77811608D01*
X91300499Y-77688396D01*
X91276462Y-77567551D01*
X91268137Y-77547455D01*
X91260668Y-77477988D01*
X91268136Y-77452549D01*
X91276462Y-77432451D01*
X91300499Y-77311606D01*
X91300499Y-77188394D01*
X91276462Y-77067549D01*
X91268137Y-77047453D01*
X91260669Y-76977985D01*
X91268138Y-76952548D01*
X91276462Y-76932453D01*
X91300499Y-76811608D01*
X91300499Y-76688396D01*
X91276462Y-76567551D01*
X91229310Y-76453717D01*
X91160857Y-76351269D01*
X91160855Y-76351266D01*
X91073735Y-76264146D01*
X91006707Y-76219360D01*
X90971285Y-76195692D01*
X90968151Y-76194394D01*
X90857451Y-76148540D01*
X90857443Y-76148538D01*
X90757433Y-76128645D01*
X90695522Y-76096261D01*
X90693943Y-76094709D01*
X89721020Y-75121786D01*
X88711412Y-74112179D01*
X88677928Y-74050857D01*
X88682912Y-73981165D01*
X88724784Y-73925232D01*
X88790248Y-73900815D01*
X88799070Y-73900499D01*
X89286676Y-73900499D01*
X89286684Y-73900498D01*
X89286687Y-73900498D01*
X89342030Y-73894844D01*
X89387753Y-73890174D01*
X89551516Y-73835908D01*
X89678793Y-73757402D01*
X89746184Y-73738962D01*
X89812848Y-73759884D01*
X89831570Y-73775260D01*
X89876650Y-73820340D01*
X90023484Y-73910908D01*
X90187247Y-73965174D01*
X90288323Y-73975500D01*
X90986676Y-73975499D01*
X90986684Y-73975498D01*
X90986687Y-73975498D01*
X91042030Y-73969844D01*
X91087753Y-73965174D01*
X91251516Y-73910908D01*
X91398350Y-73820340D01*
X91412671Y-73806018D01*
X91473989Y-73772533D01*
X91543681Y-73777514D01*
X91588034Y-73806017D01*
X91601961Y-73819944D01*
X91601965Y-73819947D01*
X91748688Y-73910448D01*
X91748699Y-73910453D01*
X91912347Y-73964680D01*
X92013351Y-73974999D01*
X92175498Y-73974999D01*
X92184184Y-73977549D01*
X92193145Y-73976261D01*
X92217182Y-73987238D01*
X92242538Y-73994683D01*
X92248466Y-74001524D01*
X92256701Y-74005285D01*
X92270988Y-74027517D01*
X92288293Y-74047487D01*
X92290580Y-74058001D01*
X92294476Y-74064063D01*
X92299498Y-74098996D01*
X92299499Y-74098998D01*
X92299499Y-74179057D01*
X92299499Y-74179059D01*
X92299500Y-74189053D01*
X92299500Y-77339371D01*
X92299499Y-77339389D01*
X92299499Y-77505095D01*
X92299498Y-77505095D01*
X92304827Y-77524984D01*
X92340423Y-77657826D01*
X92358073Y-77688396D01*
X92375039Y-77717782D01*
X92419479Y-77794755D01*
X92419481Y-77794758D01*
X92538349Y-77913626D01*
X92538355Y-77913631D01*
X92671909Y-78047185D01*
X92705394Y-78108508D01*
X92705846Y-78159054D01*
X92700001Y-78188442D01*
X92700001Y-78311559D01*
X92712980Y-78376808D01*
X92706753Y-78446400D01*
X92663890Y-78501577D01*
X92620678Y-78516821D01*
X92612500Y-78525000D01*
X92612500Y-79250000D01*
X93399999Y-79250000D01*
X93399999Y-79213360D01*
X93399998Y-79213345D01*
X93389680Y-79112347D01*
X93365046Y-79038004D01*
X93362644Y-78968175D01*
X93398376Y-78908134D01*
X93460897Y-78876941D01*
X93482752Y-78875000D01*
X93736558Y-78875000D01*
X93736561Y-78874999D01*
X93857297Y-78850983D01*
X93857305Y-78850981D01*
X93971045Y-78803869D01*
X93971054Y-78803864D01*
X94073413Y-78735469D01*
X94073417Y-78735466D01*
X94155163Y-78653721D01*
X94216486Y-78620236D01*
X94286178Y-78625220D01*
X94330525Y-78653721D01*
X95363181Y-79686377D01*
X95396666Y-79747700D01*
X95399500Y-79774058D01*
X95399500Y-85913330D01*
X95399499Y-85913348D01*
X95399499Y-86079054D01*
X95399498Y-86079054D01*
X95408471Y-86112539D01*
X95440423Y-86231785D01*
X95467343Y-86278412D01*
X95519480Y-86368716D01*
X95519482Y-86368718D01*
X95638349Y-86487585D01*
X95638355Y-86487590D01*
X96285139Y-87134374D01*
X96285149Y-87134385D01*
X96289479Y-87138715D01*
X96289480Y-87138716D01*
X96401284Y-87250520D01*
X96401286Y-87250521D01*
X96401290Y-87250524D01*
X96538209Y-87329573D01*
X96538216Y-87329577D01*
X96650019Y-87359534D01*
X96690942Y-87370500D01*
X96690943Y-87370500D01*
X97945501Y-87370500D01*
X98012540Y-87390185D01*
X98058295Y-87442989D01*
X98069501Y-87494500D01*
X98069501Y-87667876D01*
X98075908Y-87727483D01*
X98126202Y-87862328D01*
X98126203Y-87862330D01*
X98203578Y-87965689D01*
X98227995Y-88031153D01*
X98213144Y-88099426D01*
X98203578Y-88114311D01*
X98126203Y-88217669D01*
X98126202Y-88217671D01*
X98075908Y-88352517D01*
X98070128Y-88406286D01*
X98069501Y-88412123D01*
X98069500Y-88412135D01*
X98069500Y-90207870D01*
X98069501Y-90207876D01*
X98075908Y-90267483D01*
X98126202Y-90402328D01*
X98126203Y-90402330D01*
X98203578Y-90505689D01*
X98227995Y-90571153D01*
X98213144Y-90639426D01*
X98203578Y-90654311D01*
X98126203Y-90757669D01*
X98126202Y-90757671D01*
X98075908Y-90892517D01*
X98070128Y-90946286D01*
X98069501Y-90952123D01*
X98069500Y-90952135D01*
X98069500Y-92747870D01*
X98069501Y-92747876D01*
X98075908Y-92807483D01*
X98126202Y-92942328D01*
X98126203Y-92942330D01*
X98203578Y-93045689D01*
X98227995Y-93111153D01*
X98213144Y-93179426D01*
X98203578Y-93194311D01*
X98126203Y-93297669D01*
X98126202Y-93297671D01*
X98075908Y-93432517D01*
X98070128Y-93486287D01*
X98069501Y-93492123D01*
X98069500Y-93492135D01*
X98069500Y-95287870D01*
X98069501Y-95287876D01*
X98075908Y-95347483D01*
X98126202Y-95482328D01*
X98126203Y-95482330D01*
X98203578Y-95585689D01*
X98227995Y-95651153D01*
X98213144Y-95719426D01*
X98203578Y-95734311D01*
X98126203Y-95837669D01*
X98126202Y-95837671D01*
X98075908Y-95972517D01*
X98070925Y-96018871D01*
X98069501Y-96032123D01*
X98069500Y-96032135D01*
X98069500Y-97827870D01*
X98069501Y-97827876D01*
X98075908Y-97887483D01*
X98126202Y-98022328D01*
X98126203Y-98022330D01*
X98203578Y-98125689D01*
X98227995Y-98191153D01*
X98213144Y-98259426D01*
X98203578Y-98274311D01*
X98126203Y-98377669D01*
X98126202Y-98377671D01*
X98075908Y-98512517D01*
X98070128Y-98566286D01*
X98069501Y-98572123D01*
X98069500Y-98572135D01*
X98069500Y-100367870D01*
X98069501Y-100367876D01*
X98075908Y-100427483D01*
X98126202Y-100562328D01*
X98126203Y-100562330D01*
X98203578Y-100665689D01*
X98227995Y-100731153D01*
X98213144Y-100799426D01*
X98203578Y-100814311D01*
X98126203Y-100917669D01*
X98126202Y-100917671D01*
X98075908Y-101052517D01*
X98070499Y-101102834D01*
X98069501Y-101112123D01*
X98069500Y-101112135D01*
X98069500Y-102907870D01*
X98069501Y-102907876D01*
X98075908Y-102967483D01*
X98126202Y-103102328D01*
X98126203Y-103102330D01*
X98203578Y-103205689D01*
X98227995Y-103271153D01*
X98213144Y-103339426D01*
X98203578Y-103354311D01*
X98126203Y-103457669D01*
X98126202Y-103457671D01*
X98075908Y-103592517D01*
X98071004Y-103638138D01*
X98069501Y-103652123D01*
X98069500Y-103652135D01*
X98069500Y-105447870D01*
X98069501Y-105447876D01*
X98075908Y-105507483D01*
X98126202Y-105642328D01*
X98126203Y-105642330D01*
X98203578Y-105745689D01*
X98227995Y-105811153D01*
X98213144Y-105879426D01*
X98203578Y-105894311D01*
X98126203Y-105997669D01*
X98126202Y-105997671D01*
X98075908Y-106132517D01*
X98069501Y-106192116D01*
X98069501Y-106192123D01*
X98069500Y-106192135D01*
X98069500Y-107987870D01*
X98069501Y-107987876D01*
X98075908Y-108047483D01*
X98126202Y-108182328D01*
X98126203Y-108182330D01*
X98203578Y-108285689D01*
X98227995Y-108351153D01*
X98213144Y-108419426D01*
X98203578Y-108434311D01*
X98126203Y-108537669D01*
X98126202Y-108537671D01*
X98075908Y-108672517D01*
X98069501Y-108732116D01*
X98069501Y-108732123D01*
X98069500Y-108732135D01*
X98069500Y-110527870D01*
X98069501Y-110527876D01*
X98075908Y-110587483D01*
X98126202Y-110722328D01*
X98126206Y-110722335D01*
X98212452Y-110837544D01*
X98212455Y-110837547D01*
X98327664Y-110923793D01*
X98327671Y-110923797D01*
X98372618Y-110940561D01*
X98462517Y-110974091D01*
X98522127Y-110980500D01*
X98720902Y-110980499D01*
X98787940Y-111000183D01*
X98833695Y-111052987D01*
X98843639Y-111122145D01*
X98814614Y-111185701D01*
X98808582Y-111192180D01*
X95281286Y-114719478D01*
X95169481Y-114831282D01*
X95169479Y-114831285D01*
X95119361Y-114918094D01*
X95119359Y-114918096D01*
X95090425Y-114968209D01*
X95090424Y-114968210D01*
X95090423Y-114968215D01*
X95049499Y-115120943D01*
X95049499Y-115120945D01*
X95049499Y-115289046D01*
X95049500Y-115289059D01*
X95049500Y-115750500D01*
X95029815Y-115817539D01*
X94977011Y-115863294D01*
X94925501Y-115874500D01*
X94752130Y-115874500D01*
X94752123Y-115874501D01*
X94692516Y-115880908D01*
X94557671Y-115931202D01*
X94557664Y-115931206D01*
X94442455Y-116017452D01*
X94442452Y-116017455D01*
X94356206Y-116132664D01*
X94356202Y-116132671D01*
X94305908Y-116267517D01*
X94299501Y-116327116D01*
X94299500Y-116327135D01*
X94299500Y-118122870D01*
X94299501Y-118122876D01*
X94305908Y-118182483D01*
X94356202Y-118317328D01*
X94356206Y-118317335D01*
X94442452Y-118432544D01*
X94442455Y-118432547D01*
X94557664Y-118518793D01*
X94557671Y-118518797D01*
X94557674Y-118518798D01*
X94689598Y-118568002D01*
X94745531Y-118609873D01*
X94769949Y-118675337D01*
X94755098Y-118743610D01*
X94733947Y-118771865D01*
X94620271Y-118885541D01*
X94495379Y-119057442D01*
X94398904Y-119246782D01*
X94333242Y-119448870D01*
X94333242Y-119448873D01*
X94322769Y-119515000D01*
X95216988Y-119515000D01*
X95184075Y-119572007D01*
X95150000Y-119699174D01*
X95150000Y-119830826D01*
X95184075Y-119957993D01*
X95216988Y-120015000D01*
X94322769Y-120015000D01*
X94333242Y-120081126D01*
X94333242Y-120081129D01*
X94398904Y-120283217D01*
X94495379Y-120472557D01*
X94620272Y-120644459D01*
X94620276Y-120644464D01*
X94770535Y-120794723D01*
X94770540Y-120794727D01*
X94942442Y-120919620D01*
X95131782Y-121016095D01*
X95333871Y-121081757D01*
X95400000Y-121092231D01*
X95400000Y-120198012D01*
X95457007Y-120230925D01*
X95584174Y-120265000D01*
X95715826Y-120265000D01*
X95842993Y-120230925D01*
X95900000Y-120198012D01*
X95900000Y-121092230D01*
X95966126Y-121081757D01*
X95966129Y-121081757D01*
X96168217Y-121016095D01*
X96357557Y-120919620D01*
X96529459Y-120794727D01*
X96529464Y-120794723D01*
X96679723Y-120644464D01*
X96679727Y-120644459D01*
X96804620Y-120472557D01*
X96901095Y-120283217D01*
X96966757Y-120081129D01*
X96966757Y-120081126D01*
X96977231Y-120015000D01*
X96083012Y-120015000D01*
X96115925Y-119957993D01*
X96150000Y-119830826D01*
X96150000Y-119699174D01*
X96115925Y-119572007D01*
X96083012Y-119515000D01*
X96977231Y-119515000D01*
X96966757Y-119448873D01*
X96966757Y-119448870D01*
X96901095Y-119246782D01*
X96804620Y-119057442D01*
X96679727Y-118885540D01*
X96679723Y-118885535D01*
X96566053Y-118771865D01*
X96532568Y-118710542D01*
X96537552Y-118640850D01*
X96579424Y-118584917D01*
X96610400Y-118568002D01*
X96742331Y-118518796D01*
X96857546Y-118432546D01*
X96943796Y-118317331D01*
X96994091Y-118182483D01*
X97000500Y-118122873D01*
X97000499Y-116327135D01*
X98999500Y-116327135D01*
X98999500Y-118122870D01*
X98999501Y-118122876D01*
X99005908Y-118182483D01*
X99056202Y-118317328D01*
X99056206Y-118317335D01*
X99142452Y-118432544D01*
X99142455Y-118432547D01*
X99257664Y-118518793D01*
X99257671Y-118518797D01*
X99257674Y-118518798D01*
X99389598Y-118568002D01*
X99445531Y-118609873D01*
X99469949Y-118675337D01*
X99455098Y-118743610D01*
X99433947Y-118771865D01*
X99320271Y-118885541D01*
X99195379Y-119057442D01*
X99098904Y-119246782D01*
X99033242Y-119448870D01*
X99033242Y-119448873D01*
X99022769Y-119515000D01*
X99916988Y-119515000D01*
X99884075Y-119572007D01*
X99850000Y-119699174D01*
X99850000Y-119830826D01*
X99884075Y-119957993D01*
X99916988Y-120015000D01*
X99022769Y-120015000D01*
X99033242Y-120081126D01*
X99033242Y-120081129D01*
X99098904Y-120283217D01*
X99195379Y-120472557D01*
X99320272Y-120644459D01*
X99320276Y-120644464D01*
X99470535Y-120794723D01*
X99470540Y-120794727D01*
X99642442Y-120919620D01*
X99831782Y-121016095D01*
X100033871Y-121081757D01*
X100100000Y-121092231D01*
X100100000Y-120198012D01*
X100157007Y-120230925D01*
X100284174Y-120265000D01*
X100415826Y-120265000D01*
X100542993Y-120230925D01*
X100600000Y-120198012D01*
X100600000Y-121092230D01*
X100666126Y-121081757D01*
X100666129Y-121081757D01*
X100868217Y-121016095D01*
X101057557Y-120919620D01*
X101229459Y-120794727D01*
X101229464Y-120794723D01*
X101379723Y-120644464D01*
X101379727Y-120644459D01*
X101504620Y-120472557D01*
X101601095Y-120283217D01*
X101666757Y-120081129D01*
X101666757Y-120081126D01*
X101677231Y-120015000D01*
X100783012Y-120015000D01*
X100815925Y-119957993D01*
X100850000Y-119830826D01*
X100850000Y-119699174D01*
X100815925Y-119572007D01*
X100783012Y-119515000D01*
X101677231Y-119515000D01*
X101666757Y-119448873D01*
X101666757Y-119448870D01*
X101601095Y-119246782D01*
X101504620Y-119057442D01*
X101379727Y-118885540D01*
X101379723Y-118885535D01*
X101266053Y-118771865D01*
X101232568Y-118710542D01*
X101237552Y-118640850D01*
X101279424Y-118584917D01*
X101310400Y-118568002D01*
X101442331Y-118518796D01*
X101557546Y-118432546D01*
X101643796Y-118317331D01*
X101694091Y-118182483D01*
X101700500Y-118122873D01*
X101700499Y-116775095D01*
X101720184Y-116708057D01*
X101736813Y-116687420D01*
X105437416Y-112986819D01*
X105498739Y-112953334D01*
X105525097Y-112950500D01*
X108125902Y-112950500D01*
X108192941Y-112970185D01*
X108238696Y-113022989D01*
X108248640Y-113092147D01*
X108219615Y-113155703D01*
X108213583Y-113162181D01*
X105537582Y-115838181D01*
X105476259Y-115871666D01*
X105449901Y-115874500D01*
X104102129Y-115874500D01*
X104102123Y-115874501D01*
X104042516Y-115880908D01*
X103907671Y-115931202D01*
X103907664Y-115931206D01*
X103792455Y-116017452D01*
X103792452Y-116017455D01*
X103706206Y-116132664D01*
X103706202Y-116132671D01*
X103655908Y-116267517D01*
X103649501Y-116327116D01*
X103649500Y-116327135D01*
X103649500Y-118122870D01*
X103649501Y-118122876D01*
X103655908Y-118182483D01*
X103706202Y-118317328D01*
X103706206Y-118317335D01*
X103792452Y-118432544D01*
X103792455Y-118432547D01*
X103907664Y-118518793D01*
X103907671Y-118518797D01*
X103907674Y-118518798D01*
X104039598Y-118568002D01*
X104095531Y-118609873D01*
X104119949Y-118675337D01*
X104105098Y-118743610D01*
X104083947Y-118771865D01*
X103970271Y-118885541D01*
X103845379Y-119057442D01*
X103748904Y-119246782D01*
X103683242Y-119448870D01*
X103683242Y-119448873D01*
X103672769Y-119515000D01*
X104566988Y-119515000D01*
X104534075Y-119572007D01*
X104500000Y-119699174D01*
X104500000Y-119830826D01*
X104534075Y-119957993D01*
X104566988Y-120015000D01*
X103672769Y-120015000D01*
X103683242Y-120081126D01*
X103683242Y-120081129D01*
X103748904Y-120283217D01*
X103845379Y-120472557D01*
X103970272Y-120644459D01*
X103970276Y-120644464D01*
X104120535Y-120794723D01*
X104120540Y-120794727D01*
X104292442Y-120919620D01*
X104481782Y-121016095D01*
X104683871Y-121081757D01*
X104750000Y-121092231D01*
X104750000Y-120198012D01*
X104807007Y-120230925D01*
X104934174Y-120265000D01*
X105065826Y-120265000D01*
X105192993Y-120230925D01*
X105250000Y-120198012D01*
X105250000Y-121092230D01*
X105316126Y-121081757D01*
X105316129Y-121081757D01*
X105518217Y-121016095D01*
X105707557Y-120919620D01*
X105879459Y-120794727D01*
X105879464Y-120794723D01*
X106029723Y-120644464D01*
X106029727Y-120644459D01*
X106154620Y-120472557D01*
X106251095Y-120283217D01*
X106316757Y-120081129D01*
X106316757Y-120081126D01*
X106327231Y-120015000D01*
X105433012Y-120015000D01*
X105465925Y-119957993D01*
X105500000Y-119830826D01*
X105500000Y-119699174D01*
X105465925Y-119572007D01*
X105433012Y-119515000D01*
X106327231Y-119515000D01*
X106316757Y-119448873D01*
X106316757Y-119448870D01*
X106251095Y-119246782D01*
X106154620Y-119057442D01*
X106029727Y-118885540D01*
X106029723Y-118885535D01*
X105916053Y-118771865D01*
X105882568Y-118710542D01*
X105887552Y-118640850D01*
X105929424Y-118584917D01*
X105960400Y-118568002D01*
X106092331Y-118518796D01*
X106207546Y-118432546D01*
X106293796Y-118317331D01*
X106344091Y-118182483D01*
X106350500Y-118122873D01*
X106350499Y-116775095D01*
X106370184Y-116708057D01*
X106386813Y-116687420D01*
X109687417Y-113386819D01*
X109748740Y-113353334D01*
X109775098Y-113350500D01*
X112375903Y-113350500D01*
X112442942Y-113370185D01*
X112488697Y-113422989D01*
X112498641Y-113492147D01*
X112469616Y-113555703D01*
X112463584Y-113562181D01*
X110187582Y-115838181D01*
X110126259Y-115871666D01*
X110099901Y-115874500D01*
X108752129Y-115874500D01*
X108752123Y-115874501D01*
X108692516Y-115880908D01*
X108557671Y-115931202D01*
X108557664Y-115931206D01*
X108442455Y-116017452D01*
X108442452Y-116017455D01*
X108356206Y-116132664D01*
X108356202Y-116132671D01*
X108305908Y-116267517D01*
X108299501Y-116327116D01*
X108299500Y-116327135D01*
X108299500Y-118122870D01*
X108299501Y-118122876D01*
X108305908Y-118182483D01*
X108356202Y-118317328D01*
X108356206Y-118317335D01*
X108442452Y-118432544D01*
X108442455Y-118432547D01*
X108557664Y-118518793D01*
X108557671Y-118518797D01*
X108557674Y-118518798D01*
X108689598Y-118568002D01*
X108745531Y-118609873D01*
X108769949Y-118675337D01*
X108755098Y-118743610D01*
X108733947Y-118771865D01*
X108620271Y-118885541D01*
X108495379Y-119057442D01*
X108398904Y-119246782D01*
X108333242Y-119448870D01*
X108333242Y-119448873D01*
X108322769Y-119515000D01*
X109216988Y-119515000D01*
X109184075Y-119572007D01*
X109150000Y-119699174D01*
X109150000Y-119830826D01*
X109184075Y-119957993D01*
X109216988Y-120015000D01*
X108322769Y-120015000D01*
X108333242Y-120081126D01*
X108333242Y-120081129D01*
X108398904Y-120283217D01*
X108495379Y-120472557D01*
X108620272Y-120644459D01*
X108620276Y-120644464D01*
X108770535Y-120794723D01*
X108770540Y-120794727D01*
X108942442Y-120919620D01*
X109131782Y-121016095D01*
X109333871Y-121081757D01*
X109400000Y-121092231D01*
X109400000Y-120198012D01*
X109457007Y-120230925D01*
X109584174Y-120265000D01*
X109715826Y-120265000D01*
X109842993Y-120230925D01*
X109900000Y-120198012D01*
X109900000Y-121092231D01*
X109966126Y-121081757D01*
X109966129Y-121081757D01*
X110168217Y-121016095D01*
X110357557Y-120919620D01*
X110529459Y-120794727D01*
X110529464Y-120794723D01*
X110679723Y-120644464D01*
X110679727Y-120644459D01*
X110804620Y-120472557D01*
X110901095Y-120283217D01*
X110966757Y-120081129D01*
X110966757Y-120081126D01*
X110977231Y-120015000D01*
X110083012Y-120015000D01*
X110115925Y-119957993D01*
X110150000Y-119830826D01*
X110150000Y-119699174D01*
X110115925Y-119572007D01*
X110083012Y-119515000D01*
X110977231Y-119515000D01*
X110966757Y-119448873D01*
X110966757Y-119448870D01*
X110901095Y-119246782D01*
X110804620Y-119057442D01*
X110679727Y-118885540D01*
X110679723Y-118885535D01*
X110566053Y-118771865D01*
X110532568Y-118710542D01*
X110537552Y-118640850D01*
X110579424Y-118584917D01*
X110610400Y-118568002D01*
X110742331Y-118518796D01*
X110857546Y-118432546D01*
X110943796Y-118317331D01*
X110994091Y-118182483D01*
X111000500Y-118122873D01*
X111000499Y-116775095D01*
X111020184Y-116708057D01*
X111036813Y-116687420D01*
X113937416Y-113786819D01*
X113998739Y-113753334D01*
X114025097Y-113750500D01*
X116625903Y-113750500D01*
X116692942Y-113770185D01*
X116738697Y-113822989D01*
X116748641Y-113892147D01*
X116719616Y-113955703D01*
X116713584Y-113962181D01*
X114837582Y-115838181D01*
X114776259Y-115871666D01*
X114749901Y-115874500D01*
X113402129Y-115874500D01*
X113402123Y-115874501D01*
X113342516Y-115880908D01*
X113207671Y-115931202D01*
X113207664Y-115931206D01*
X113092455Y-116017452D01*
X113092452Y-116017455D01*
X113006206Y-116132664D01*
X113006202Y-116132671D01*
X112955908Y-116267517D01*
X112949501Y-116327116D01*
X112949500Y-116327135D01*
X112949500Y-118122870D01*
X112949501Y-118122876D01*
X112955908Y-118182483D01*
X113006202Y-118317328D01*
X113006206Y-118317335D01*
X113092452Y-118432544D01*
X113092455Y-118432547D01*
X113207664Y-118518793D01*
X113207671Y-118518797D01*
X113207674Y-118518798D01*
X113339598Y-118568002D01*
X113395531Y-118609873D01*
X113419949Y-118675337D01*
X113405098Y-118743610D01*
X113383947Y-118771865D01*
X113270271Y-118885541D01*
X113145379Y-119057442D01*
X113048904Y-119246782D01*
X112983242Y-119448870D01*
X112983242Y-119448873D01*
X112972769Y-119515000D01*
X113866988Y-119515000D01*
X113834075Y-119572007D01*
X113800000Y-119699174D01*
X113800000Y-119830826D01*
X113834075Y-119957993D01*
X113866988Y-120015000D01*
X112972769Y-120015000D01*
X112983242Y-120081126D01*
X112983242Y-120081129D01*
X113048904Y-120283217D01*
X113145379Y-120472557D01*
X113270272Y-120644459D01*
X113270276Y-120644464D01*
X113420535Y-120794723D01*
X113420540Y-120794727D01*
X113592442Y-120919620D01*
X113781782Y-121016095D01*
X113983871Y-121081757D01*
X114050000Y-121092231D01*
X114050000Y-120198012D01*
X114107007Y-120230925D01*
X114234174Y-120265000D01*
X114365826Y-120265000D01*
X114492993Y-120230925D01*
X114550000Y-120198012D01*
X114550000Y-121092230D01*
X114616126Y-121081757D01*
X114616129Y-121081757D01*
X114818217Y-121016095D01*
X115007557Y-120919620D01*
X115179459Y-120794727D01*
X115179464Y-120794723D01*
X115329723Y-120644464D01*
X115329727Y-120644459D01*
X115454620Y-120472557D01*
X115551095Y-120283217D01*
X115616757Y-120081129D01*
X115616757Y-120081126D01*
X115627231Y-120015000D01*
X114733012Y-120015000D01*
X114765925Y-119957993D01*
X114800000Y-119830826D01*
X114800000Y-119699174D01*
X114765925Y-119572007D01*
X114733012Y-119515000D01*
X115627231Y-119515000D01*
X115616757Y-119448873D01*
X115616757Y-119448870D01*
X115551095Y-119246782D01*
X115454620Y-119057442D01*
X115329727Y-118885540D01*
X115329723Y-118885535D01*
X115216053Y-118771865D01*
X115182568Y-118710542D01*
X115187552Y-118640850D01*
X115229424Y-118584917D01*
X115260400Y-118568002D01*
X115392331Y-118518796D01*
X115507546Y-118432546D01*
X115593796Y-118317331D01*
X115644091Y-118182483D01*
X115650500Y-118122873D01*
X115650499Y-116775095D01*
X115670184Y-116708057D01*
X115686813Y-116687420D01*
X118187416Y-114186819D01*
X118248739Y-114153334D01*
X118275097Y-114150500D01*
X120429017Y-114150500D01*
X120429033Y-114150501D01*
X120436629Y-114150501D01*
X120594740Y-114150501D01*
X120594743Y-114150501D01*
X120747471Y-114109577D01*
X120797590Y-114080639D01*
X120884402Y-114030520D01*
X120996206Y-113918716D01*
X120996206Y-113918714D01*
X121006414Y-113908507D01*
X121006415Y-113908504D01*
X122337820Y-112577099D01*
X122357255Y-112566488D01*
X122373989Y-112551988D01*
X122387320Y-112550071D01*
X122399142Y-112543616D01*
X122421228Y-112545195D01*
X122443147Y-112542044D01*
X122455398Y-112547639D01*
X122468834Y-112548600D01*
X122486560Y-112561870D01*
X122506703Y-112571069D01*
X122513985Y-112582400D01*
X122524767Y-112590472D01*
X122532504Y-112611217D01*
X122544477Y-112629847D01*
X122547628Y-112651765D01*
X122549184Y-112655936D01*
X122549500Y-112664782D01*
X122549500Y-112724902D01*
X122529815Y-112791941D01*
X122513181Y-112812583D01*
X119487582Y-115838181D01*
X119426259Y-115871666D01*
X119399901Y-115874500D01*
X118052129Y-115874500D01*
X118052123Y-115874501D01*
X117992516Y-115880908D01*
X117857671Y-115931202D01*
X117857664Y-115931206D01*
X117742455Y-116017452D01*
X117742452Y-116017455D01*
X117656206Y-116132664D01*
X117656202Y-116132671D01*
X117605908Y-116267517D01*
X117599501Y-116327116D01*
X117599500Y-116327135D01*
X117599500Y-118122870D01*
X117599501Y-118122876D01*
X117605908Y-118182483D01*
X117656202Y-118317328D01*
X117656206Y-118317335D01*
X117742452Y-118432544D01*
X117742455Y-118432547D01*
X117857664Y-118518793D01*
X117857671Y-118518797D01*
X117857674Y-118518798D01*
X117989598Y-118568002D01*
X118045531Y-118609873D01*
X118069949Y-118675337D01*
X118055098Y-118743610D01*
X118033947Y-118771865D01*
X117920271Y-118885541D01*
X117795379Y-119057442D01*
X117698904Y-119246782D01*
X117633242Y-119448870D01*
X117633242Y-119448873D01*
X117622769Y-119515000D01*
X118516988Y-119515000D01*
X118484075Y-119572007D01*
X118450000Y-119699174D01*
X118450000Y-119830826D01*
X118484075Y-119957993D01*
X118516988Y-120015000D01*
X117622769Y-120015000D01*
X117633242Y-120081126D01*
X117633242Y-120081129D01*
X117698904Y-120283217D01*
X117795379Y-120472557D01*
X117920272Y-120644459D01*
X117920276Y-120644464D01*
X118070535Y-120794723D01*
X118070540Y-120794727D01*
X118242442Y-120919620D01*
X118431782Y-121016095D01*
X118633871Y-121081757D01*
X118700000Y-121092231D01*
X118700000Y-120198012D01*
X118757007Y-120230925D01*
X118884174Y-120265000D01*
X119015826Y-120265000D01*
X119142993Y-120230925D01*
X119200000Y-120198012D01*
X119200000Y-121092230D01*
X119266126Y-121081757D01*
X119266129Y-121081757D01*
X119468217Y-121016095D01*
X119657557Y-120919620D01*
X119829459Y-120794727D01*
X119829464Y-120794723D01*
X119979723Y-120644464D01*
X119979727Y-120644459D01*
X120104620Y-120472557D01*
X120201095Y-120283217D01*
X120266757Y-120081129D01*
X120266757Y-120081126D01*
X120277231Y-120015000D01*
X119383012Y-120015000D01*
X119415925Y-119957993D01*
X119450000Y-119830826D01*
X119450000Y-119699174D01*
X119415925Y-119572007D01*
X119383012Y-119515000D01*
X120277231Y-119515000D01*
X120266757Y-119448873D01*
X120266757Y-119448870D01*
X120201095Y-119246782D01*
X120104620Y-119057442D01*
X119979727Y-118885540D01*
X119979723Y-118885535D01*
X119866053Y-118771865D01*
X119832568Y-118710542D01*
X119837552Y-118640850D01*
X119879424Y-118584917D01*
X119910400Y-118568002D01*
X120042331Y-118518796D01*
X120157546Y-118432546D01*
X120243796Y-118317331D01*
X120294091Y-118182483D01*
X120300500Y-118122873D01*
X120300499Y-116775095D01*
X120320184Y-116708057D01*
X120336813Y-116687420D01*
X122399251Y-114624983D01*
X123999500Y-114624983D01*
X123999500Y-116225001D01*
X123999501Y-116225018D01*
X124010000Y-116327796D01*
X124010001Y-116327799D01*
X124057786Y-116472002D01*
X124065186Y-116494334D01*
X124157288Y-116643656D01*
X124281344Y-116767712D01*
X124430666Y-116859814D01*
X124597203Y-116914999D01*
X124699991Y-116925500D01*
X124775500Y-116925499D01*
X124842538Y-116945183D01*
X124888294Y-116997986D01*
X124899500Y-117049499D01*
X124899500Y-119950500D01*
X124879815Y-120017539D01*
X124827011Y-120063294D01*
X124775502Y-120074500D01*
X124699999Y-120074500D01*
X124699980Y-120074501D01*
X124597203Y-120085000D01*
X124597200Y-120085001D01*
X124430668Y-120140185D01*
X124430663Y-120140187D01*
X124281342Y-120232289D01*
X124157289Y-120356342D01*
X124065187Y-120505663D01*
X124065185Y-120505668D01*
X124065115Y-120505880D01*
X124010001Y-120672203D01*
X124010001Y-120672204D01*
X124010000Y-120672204D01*
X123999500Y-120774983D01*
X123999500Y-122375001D01*
X123999501Y-122375018D01*
X124010000Y-122477796D01*
X124010001Y-122477799D01*
X124045568Y-122585131D01*
X124065186Y-122644334D01*
X124157288Y-122793656D01*
X124281344Y-122917712D01*
X124430666Y-123009814D01*
X124597203Y-123064999D01*
X124699991Y-123075500D01*
X126300008Y-123075499D01*
X126402797Y-123064999D01*
X126569334Y-123009814D01*
X126718656Y-122917712D01*
X126842712Y-122793656D01*
X126934814Y-122644334D01*
X126989999Y-122477797D01*
X127000500Y-122375009D01*
X127000499Y-121471530D01*
X129949500Y-121471530D01*
X129949500Y-121678469D01*
X129989868Y-121881412D01*
X129989870Y-121881420D01*
X130069058Y-122072596D01*
X130184024Y-122244657D01*
X130330342Y-122390975D01*
X130330345Y-122390977D01*
X130502402Y-122505941D01*
X130693580Y-122585130D01*
X130896530Y-122625499D01*
X130896534Y-122625500D01*
X130896535Y-122625500D01*
X131103466Y-122625500D01*
X131103467Y-122625499D01*
X131306420Y-122585130D01*
X131497598Y-122505941D01*
X131669655Y-122390977D01*
X131685646Y-122374986D01*
X135000001Y-122374986D01*
X135010494Y-122477697D01*
X135065641Y-122644119D01*
X135065643Y-122644124D01*
X135157684Y-122793345D01*
X135281654Y-122917315D01*
X135430875Y-123009356D01*
X135430880Y-123009358D01*
X135597302Y-123064505D01*
X135597309Y-123064506D01*
X135700019Y-123074999D01*
X136249999Y-123074999D01*
X136750000Y-123074999D01*
X137299972Y-123074999D01*
X137299986Y-123074998D01*
X137402697Y-123064505D01*
X137569119Y-123009358D01*
X137569124Y-123009356D01*
X137718345Y-122917315D01*
X137842315Y-122793345D01*
X137934356Y-122644124D01*
X137934358Y-122644119D01*
X137989505Y-122477697D01*
X137989506Y-122477690D01*
X137999999Y-122374986D01*
X138000000Y-122374973D01*
X138000000Y-121825000D01*
X136750000Y-121825000D01*
X136750000Y-123074999D01*
X136249999Y-123074999D01*
X136250000Y-123074998D01*
X136250000Y-121825000D01*
X135000001Y-121825000D01*
X135000001Y-122374986D01*
X131685646Y-122374986D01*
X131815977Y-122244655D01*
X131930941Y-122072598D01*
X132010130Y-121881420D01*
X132050500Y-121678465D01*
X132050500Y-121471535D01*
X132010130Y-121268580D01*
X131930941Y-121077402D01*
X131815977Y-120905345D01*
X131815975Y-120905342D01*
X131685646Y-120775013D01*
X135000000Y-120775013D01*
X135000000Y-121325000D01*
X136250000Y-121325000D01*
X136750000Y-121325000D01*
X137999999Y-121325000D01*
X137999999Y-120775028D01*
X137999998Y-120775013D01*
X137989505Y-120672302D01*
X137934358Y-120505880D01*
X137934356Y-120505875D01*
X137842315Y-120356654D01*
X137718345Y-120232684D01*
X137569124Y-120140643D01*
X137569119Y-120140641D01*
X137402697Y-120085494D01*
X137402690Y-120085493D01*
X137299986Y-120075000D01*
X136750000Y-120075000D01*
X136750000Y-121325000D01*
X136250000Y-121325000D01*
X136250000Y-120075000D01*
X135700028Y-120075000D01*
X135700012Y-120075001D01*
X135597302Y-120085494D01*
X135430880Y-120140641D01*
X135430875Y-120140643D01*
X135281654Y-120232684D01*
X135157684Y-120356654D01*
X135065643Y-120505875D01*
X135065641Y-120505880D01*
X135010494Y-120672302D01*
X135010493Y-120672309D01*
X135000000Y-120775013D01*
X131685646Y-120775013D01*
X131669657Y-120759024D01*
X131498204Y-120644464D01*
X131497598Y-120644059D01*
X131306420Y-120564870D01*
X131306412Y-120564868D01*
X131103469Y-120524500D01*
X131103465Y-120524500D01*
X130896535Y-120524500D01*
X130896530Y-120524500D01*
X130693587Y-120564868D01*
X130693579Y-120564870D01*
X130502403Y-120644058D01*
X130330342Y-120759024D01*
X130184024Y-120905342D01*
X130069058Y-121077403D01*
X129989870Y-121268579D01*
X129989868Y-121268587D01*
X129949500Y-121471530D01*
X127000499Y-121471530D01*
X127000499Y-120774992D01*
X126989999Y-120672203D01*
X126934814Y-120505666D01*
X126842712Y-120356344D01*
X126718656Y-120232288D01*
X126569334Y-120140186D01*
X126402797Y-120085001D01*
X126402795Y-120085000D01*
X126300016Y-120074500D01*
X126300009Y-120074500D01*
X126224500Y-120074500D01*
X126157461Y-120054815D01*
X126111706Y-120002011D01*
X126100500Y-119950500D01*
X126100500Y-117049499D01*
X126119601Y-116984448D01*
X129849500Y-116984448D01*
X129849500Y-117165551D01*
X129877829Y-117344410D01*
X129933787Y-117516636D01*
X129933788Y-117516639D01*
X130016006Y-117677997D01*
X130122441Y-117824494D01*
X130122445Y-117824499D01*
X130250500Y-117952554D01*
X130250505Y-117952558D01*
X130378287Y-118045396D01*
X130397006Y-118058996D01*
X130502484Y-118112740D01*
X130558360Y-118141211D01*
X130558363Y-118141212D01*
X130644476Y-118169191D01*
X130730591Y-118197171D01*
X130813429Y-118210291D01*
X130909449Y-118225500D01*
X130909454Y-118225500D01*
X131090551Y-118225500D01*
X131177259Y-118211765D01*
X131269409Y-118197171D01*
X131441639Y-118141211D01*
X131602994Y-118058996D01*
X131749501Y-117952553D01*
X131877553Y-117824501D01*
X131983996Y-117677994D01*
X132066211Y-117516639D01*
X132122171Y-117344409D01*
X132136765Y-117252259D01*
X132150500Y-117165551D01*
X132150500Y-116984448D01*
X132134019Y-116880397D01*
X132122171Y-116805591D01*
X132083774Y-116687415D01*
X132066212Y-116633363D01*
X132066211Y-116633360D01*
X132037740Y-116577484D01*
X131983996Y-116472006D01*
X131970396Y-116453287D01*
X131877558Y-116325505D01*
X131877554Y-116325500D01*
X131749499Y-116197445D01*
X131749494Y-116197441D01*
X131602997Y-116091006D01*
X131602996Y-116091005D01*
X131602994Y-116091004D01*
X131551300Y-116064664D01*
X131441639Y-116008788D01*
X131441636Y-116008787D01*
X131269410Y-115952829D01*
X131090551Y-115924500D01*
X131090546Y-115924500D01*
X130909454Y-115924500D01*
X130909449Y-115924500D01*
X130730589Y-115952829D01*
X130558363Y-116008787D01*
X130558360Y-116008788D01*
X130397002Y-116091006D01*
X130250505Y-116197441D01*
X130250500Y-116197445D01*
X130122445Y-116325500D01*
X130122441Y-116325505D01*
X130016006Y-116472002D01*
X129933788Y-116633360D01*
X129933787Y-116633363D01*
X129877829Y-116805589D01*
X129849500Y-116984448D01*
X126119601Y-116984448D01*
X126120185Y-116982460D01*
X126172989Y-116936705D01*
X126224500Y-116925499D01*
X126300002Y-116925499D01*
X126300008Y-116925499D01*
X126402797Y-116914999D01*
X126569334Y-116859814D01*
X126718656Y-116767712D01*
X126842712Y-116643656D01*
X126934814Y-116494334D01*
X126989999Y-116327797D01*
X127000500Y-116225009D01*
X127000499Y-114825096D01*
X127020184Y-114758058D01*
X127036813Y-114737421D01*
X127149251Y-114624983D01*
X134999500Y-114624983D01*
X134999500Y-116225001D01*
X134999501Y-116225018D01*
X135010000Y-116327796D01*
X135010001Y-116327799D01*
X135057786Y-116472002D01*
X135065186Y-116494334D01*
X135157288Y-116643656D01*
X135281344Y-116767712D01*
X135430666Y-116859814D01*
X135597203Y-116914999D01*
X135699991Y-116925500D01*
X137300008Y-116925499D01*
X137402797Y-116914999D01*
X137569334Y-116859814D01*
X137718656Y-116767712D01*
X137842712Y-116643656D01*
X137934814Y-116494334D01*
X137989999Y-116327797D01*
X138000500Y-116225009D01*
X138000499Y-114624992D01*
X137989999Y-114522203D01*
X137934814Y-114355666D01*
X137842712Y-114206344D01*
X137718656Y-114082288D01*
X137569334Y-113990186D01*
X137402797Y-113935001D01*
X137402795Y-113935000D01*
X137300010Y-113924500D01*
X135699998Y-113924500D01*
X135699981Y-113924501D01*
X135597203Y-113935000D01*
X135597200Y-113935001D01*
X135430668Y-113990185D01*
X135430663Y-113990187D01*
X135281342Y-114082289D01*
X135157289Y-114206342D01*
X135065187Y-114355663D01*
X135065186Y-114355666D01*
X135010001Y-114522203D01*
X135010001Y-114522204D01*
X135010000Y-114522204D01*
X134999500Y-114624983D01*
X127149251Y-114624983D01*
X133210423Y-108563813D01*
X133271746Y-108530328D01*
X133298104Y-108527494D01*
X139546073Y-108527494D01*
X139613112Y-108547179D01*
X139658867Y-108599983D01*
X139668811Y-108669141D01*
X139664004Y-108689812D01*
X139609091Y-108858816D01*
X139572700Y-109088581D01*
X139572700Y-109321206D01*
X139609091Y-109550971D01*
X139680974Y-109772208D01*
X139786589Y-109979485D01*
X139843761Y-110058176D01*
X139843762Y-110058177D01*
X140392997Y-109508942D01*
X140409088Y-109547789D01*
X140488310Y-109666354D01*
X140589140Y-109767184D01*
X140707705Y-109846406D01*
X140746550Y-109862496D01*
X140197315Y-110411730D01*
X140276011Y-110468906D01*
X140483285Y-110574519D01*
X140704522Y-110646402D01*
X140934288Y-110682794D01*
X141166912Y-110682794D01*
X141396677Y-110646402D01*
X141617914Y-110574519D01*
X141825180Y-110468910D01*
X141825186Y-110468906D01*
X141903882Y-110411730D01*
X141903883Y-110411730D01*
X141354648Y-109862496D01*
X141393495Y-109846406D01*
X141512060Y-109767184D01*
X141612890Y-109666354D01*
X141692112Y-109547789D01*
X141708202Y-109508943D01*
X142257436Y-110058177D01*
X142257436Y-110058176D01*
X142314612Y-109979480D01*
X142314616Y-109979474D01*
X142420225Y-109772208D01*
X142492108Y-109550971D01*
X142528500Y-109321206D01*
X142528500Y-109088581D01*
X142528493Y-109088535D01*
X145072199Y-109088535D01*
X145072199Y-109321252D01*
X145108601Y-109551087D01*
X145180513Y-109772407D01*
X145286160Y-109979748D01*
X145422932Y-110168000D01*
X145422936Y-110168005D01*
X145587487Y-110332556D01*
X145587492Y-110332560D01*
X145696461Y-110411730D01*
X145775748Y-110469335D01*
X145890641Y-110527876D01*
X145983085Y-110574979D01*
X145983087Y-110574979D01*
X145983090Y-110574981D01*
X146101721Y-110613526D01*
X146204405Y-110646891D01*
X146434241Y-110683294D01*
X146434246Y-110683294D01*
X146666957Y-110683294D01*
X146896792Y-110646891D01*
X146898297Y-110646402D01*
X147118108Y-110574981D01*
X147325450Y-110469335D01*
X147513712Y-110332555D01*
X147678260Y-110168007D01*
X147815040Y-109979745D01*
X147920686Y-109772403D01*
X147992596Y-109551087D01*
X147998135Y-109516118D01*
X148028999Y-109321252D01*
X148028999Y-109088535D01*
X147992596Y-108858700D01*
X147951470Y-108732128D01*
X147920686Y-108637385D01*
X147920684Y-108637382D01*
X147920684Y-108637380D01*
X147869878Y-108537669D01*
X147815040Y-108430043D01*
X147726132Y-108307671D01*
X147678265Y-108241787D01*
X147678261Y-108241782D01*
X147513710Y-108077231D01*
X147513705Y-108077227D01*
X147325453Y-107940455D01*
X147325452Y-107940454D01*
X147325450Y-107940453D01*
X147260700Y-107907461D01*
X147118112Y-107834808D01*
X146896792Y-107762896D01*
X146666957Y-107726494D01*
X146666952Y-107726494D01*
X146434246Y-107726494D01*
X146434241Y-107726494D01*
X146204405Y-107762896D01*
X145983085Y-107834808D01*
X145775744Y-107940455D01*
X145587492Y-108077227D01*
X145587487Y-108077231D01*
X145422936Y-108241782D01*
X145422932Y-108241787D01*
X145286160Y-108430039D01*
X145180513Y-108637380D01*
X145108601Y-108858700D01*
X145072199Y-109088535D01*
X142528493Y-109088535D01*
X142492108Y-108858816D01*
X142437196Y-108689812D01*
X142435201Y-108619971D01*
X142471281Y-108560138D01*
X142533982Y-108529310D01*
X142555127Y-108527494D01*
X143541831Y-108527494D01*
X143541847Y-108527495D01*
X143549443Y-108527495D01*
X143707554Y-108527495D01*
X143707557Y-108527495D01*
X143860285Y-108486571D01*
X143936588Y-108442517D01*
X143997216Y-108407514D01*
X144109020Y-108295710D01*
X144109020Y-108295708D01*
X144119224Y-108285505D01*
X144119228Y-108285500D01*
X145964574Y-106440153D01*
X146025895Y-106406670D01*
X146090571Y-106409905D01*
X146204405Y-106446892D01*
X146434241Y-106483295D01*
X146434246Y-106483295D01*
X146666957Y-106483295D01*
X146896792Y-106446892D01*
X146917526Y-106440155D01*
X147118108Y-106374982D01*
X147325450Y-106269336D01*
X147513712Y-106132556D01*
X147678260Y-105968008D01*
X147815040Y-105779746D01*
X147920686Y-105572404D01*
X147992596Y-105351088D01*
X148028999Y-105121253D01*
X148028999Y-104888536D01*
X147992596Y-104658701D01*
X147920684Y-104437381D01*
X147846026Y-104290858D01*
X147815040Y-104230044D01*
X147750212Y-104140816D01*
X147678265Y-104041788D01*
X147678261Y-104041783D01*
X147513710Y-103877232D01*
X147513705Y-103877228D01*
X147325451Y-103740454D01*
X147218803Y-103686113D01*
X147168008Y-103638138D01*
X147151099Y-103575629D01*
X147151099Y-102234160D01*
X147170784Y-102167121D01*
X147218805Y-102123675D01*
X147233305Y-102116287D01*
X147325450Y-102069337D01*
X147513712Y-101932557D01*
X147678260Y-101768009D01*
X147815040Y-101579747D01*
X147920686Y-101372405D01*
X147992596Y-101151089D01*
X148000239Y-101102834D01*
X148028999Y-100921254D01*
X148028999Y-100688537D01*
X147992596Y-100458702D01*
X147938574Y-100292442D01*
X147920686Y-100237387D01*
X147920684Y-100237384D01*
X147920684Y-100237382D01*
X147860980Y-100120208D01*
X147815040Y-100030045D01*
X147797565Y-100005993D01*
X147678265Y-99841789D01*
X147678261Y-99841784D01*
X147513710Y-99677233D01*
X147513705Y-99677229D01*
X147325453Y-99540457D01*
X147325452Y-99540456D01*
X147325450Y-99540455D01*
X147260700Y-99507463D01*
X147118112Y-99434810D01*
X146896792Y-99362898D01*
X146666957Y-99326496D01*
X146666952Y-99326496D01*
X146434246Y-99326496D01*
X146434241Y-99326496D01*
X146204405Y-99362898D01*
X145983085Y-99434810D01*
X145775744Y-99540457D01*
X145587492Y-99677229D01*
X145587487Y-99677233D01*
X145422936Y-99841784D01*
X145422932Y-99841789D01*
X145286160Y-100030041D01*
X145180513Y-100237382D01*
X145108601Y-100458702D01*
X145072199Y-100688537D01*
X145072199Y-100921254D01*
X145108601Y-101151089D01*
X145180513Y-101372409D01*
X145286160Y-101579750D01*
X145422932Y-101768002D01*
X145422936Y-101768007D01*
X145587487Y-101932558D01*
X145587492Y-101932562D01*
X145775746Y-102069336D01*
X145882393Y-102123675D01*
X145933190Y-102171649D01*
X145950099Y-102234160D01*
X145950099Y-103575629D01*
X145930414Y-103642668D01*
X145882395Y-103686113D01*
X145775746Y-103740454D01*
X145587492Y-103877228D01*
X145587487Y-103877232D01*
X145422936Y-104041783D01*
X145422932Y-104041788D01*
X145286160Y-104230040D01*
X145180513Y-104437381D01*
X145108601Y-104658701D01*
X145072199Y-104888536D01*
X145072199Y-105121253D01*
X145108602Y-105351091D01*
X145145587Y-105464922D01*
X145147582Y-105534763D01*
X145115337Y-105590920D01*
X143416084Y-107290175D01*
X143354761Y-107323660D01*
X143328403Y-107326494D01*
X133084676Y-107326494D01*
X133084660Y-107326493D01*
X133077064Y-107326493D01*
X132918949Y-107326493D01*
X132842585Y-107346955D01*
X132766220Y-107367417D01*
X132766215Y-107367420D01*
X132629296Y-107446469D01*
X132629288Y-107446475D01*
X126187582Y-113888181D01*
X126126259Y-113921666D01*
X126099901Y-113924500D01*
X124699998Y-113924500D01*
X124699981Y-113924501D01*
X124597203Y-113935000D01*
X124597200Y-113935001D01*
X124430668Y-113990185D01*
X124430663Y-113990187D01*
X124281342Y-114082289D01*
X124157289Y-114206342D01*
X124065187Y-114355663D01*
X124065186Y-114355666D01*
X124010001Y-114522203D01*
X124010001Y-114522204D01*
X124010000Y-114522204D01*
X123999500Y-114624983D01*
X122399251Y-114624983D01*
X123518713Y-113505521D01*
X123518716Y-113505520D01*
X123630520Y-113393716D01*
X123680639Y-113306904D01*
X123709577Y-113256785D01*
X123750501Y-113104057D01*
X123750501Y-112945943D01*
X123750501Y-112938348D01*
X123750500Y-112938330D01*
X123750500Y-99070945D01*
X123750500Y-99070943D01*
X123729173Y-98991349D01*
X123709577Y-98918215D01*
X123709575Y-98918211D01*
X123659505Y-98831488D01*
X123659503Y-98831485D01*
X123656246Y-98825844D01*
X123630520Y-98781284D01*
X123518716Y-98669480D01*
X123518715Y-98669479D01*
X123514385Y-98665149D01*
X123514374Y-98665139D01*
X122186818Y-97337583D01*
X122153333Y-97276260D01*
X122150499Y-97249902D01*
X122150499Y-96032129D01*
X122150498Y-96032123D01*
X122150497Y-96032116D01*
X122144091Y-95972517D01*
X122093796Y-95837669D01*
X122016421Y-95734309D01*
X121992004Y-95668848D01*
X122006855Y-95600575D01*
X122016416Y-95585696D01*
X122093796Y-95482331D01*
X122144091Y-95347483D01*
X122150500Y-95287873D01*
X122150499Y-93702097D01*
X122159143Y-93672657D01*
X122165667Y-93642671D01*
X122169421Y-93637655D01*
X122170184Y-93635059D01*
X122186818Y-93614417D01*
X122228242Y-93572993D01*
X122431520Y-93369716D01*
X122510577Y-93232784D01*
X122551501Y-93080057D01*
X122551501Y-92921942D01*
X122551501Y-92914347D01*
X122551500Y-92914329D01*
X122551500Y-85849096D01*
X122571185Y-85782057D01*
X122587814Y-85761420D01*
X127919233Y-80430000D01*
X129672769Y-80430000D01*
X130566988Y-80430000D01*
X130534075Y-80487007D01*
X130500000Y-80614174D01*
X130500000Y-80745826D01*
X130534075Y-80872993D01*
X130566988Y-80930000D01*
X129672769Y-80930000D01*
X129683242Y-80996126D01*
X129683242Y-80996129D01*
X129748904Y-81198217D01*
X129845379Y-81387557D01*
X129970272Y-81559459D01*
X129970276Y-81559464D01*
X130120535Y-81709723D01*
X130120540Y-81709727D01*
X130292444Y-81834622D01*
X130302048Y-81839516D01*
X130352844Y-81887491D01*
X130369638Y-81955312D01*
X130347100Y-82021447D01*
X130302048Y-82060484D01*
X130292444Y-82065377D01*
X130120540Y-82190272D01*
X130120535Y-82190276D01*
X129970276Y-82340535D01*
X129970272Y-82340540D01*
X129845379Y-82512442D01*
X129748904Y-82701782D01*
X129683242Y-82903870D01*
X129683242Y-82903873D01*
X129672769Y-82970000D01*
X130566988Y-82970000D01*
X130534075Y-83027007D01*
X130500000Y-83154174D01*
X130500000Y-83285826D01*
X130534075Y-83412993D01*
X130566988Y-83470000D01*
X129672769Y-83470000D01*
X129683242Y-83536126D01*
X129683242Y-83536129D01*
X129748904Y-83738217D01*
X129845379Y-83927557D01*
X129970272Y-84099459D01*
X129970276Y-84099464D01*
X130120535Y-84249723D01*
X130120540Y-84249727D01*
X130292444Y-84374622D01*
X130302048Y-84379516D01*
X130352844Y-84427491D01*
X130369638Y-84495312D01*
X130347100Y-84561447D01*
X130302048Y-84600484D01*
X130292444Y-84605377D01*
X130120540Y-84730272D01*
X130120535Y-84730276D01*
X129970276Y-84880535D01*
X129970272Y-84880540D01*
X129845379Y-85052442D01*
X129748904Y-85241782D01*
X129683242Y-85443870D01*
X129683242Y-85443873D01*
X129672769Y-85510000D01*
X130566988Y-85510000D01*
X130534075Y-85567007D01*
X130500000Y-85694174D01*
X130500000Y-85825826D01*
X130534075Y-85952993D01*
X130566988Y-86010000D01*
X129672769Y-86010000D01*
X129683242Y-86076126D01*
X129683242Y-86076129D01*
X129748904Y-86278217D01*
X129845379Y-86467557D01*
X129970272Y-86639459D01*
X129970276Y-86639464D01*
X130120535Y-86789723D01*
X130120540Y-86789727D01*
X130292444Y-86914622D01*
X130302048Y-86919516D01*
X130352844Y-86967491D01*
X130369638Y-87035312D01*
X130347100Y-87101447D01*
X130302048Y-87140484D01*
X130292444Y-87145377D01*
X130120540Y-87270272D01*
X130120535Y-87270276D01*
X129970276Y-87420535D01*
X129970272Y-87420540D01*
X129845379Y-87592442D01*
X129748904Y-87781782D01*
X129683242Y-87983870D01*
X129683242Y-87983873D01*
X129672769Y-88050000D01*
X130566988Y-88050000D01*
X130534075Y-88107007D01*
X130500000Y-88234174D01*
X130500000Y-88365826D01*
X130534075Y-88492993D01*
X130566988Y-88550000D01*
X129672769Y-88550000D01*
X129683242Y-88616126D01*
X129683242Y-88616129D01*
X129748904Y-88818217D01*
X129845379Y-89007557D01*
X129970272Y-89179459D01*
X129970276Y-89179464D01*
X130120535Y-89329723D01*
X130120540Y-89329727D01*
X130292444Y-89454622D01*
X130302048Y-89459516D01*
X130352844Y-89507491D01*
X130369638Y-89575312D01*
X130347100Y-89641447D01*
X130302048Y-89680484D01*
X130292444Y-89685377D01*
X130120540Y-89810272D01*
X130120535Y-89810276D01*
X129970276Y-89960535D01*
X129970272Y-89960540D01*
X129845379Y-90132442D01*
X129748904Y-90321782D01*
X129683242Y-90523870D01*
X129683242Y-90523873D01*
X129672769Y-90590000D01*
X130566988Y-90590000D01*
X130534075Y-90647007D01*
X130500000Y-90774174D01*
X130500000Y-90905826D01*
X130534075Y-91032993D01*
X130566988Y-91090000D01*
X129672769Y-91090000D01*
X129683242Y-91156126D01*
X129683242Y-91156129D01*
X129748904Y-91358217D01*
X129845379Y-91547557D01*
X129970272Y-91719459D01*
X129970276Y-91719464D01*
X130120535Y-91869723D01*
X130120540Y-91869727D01*
X130292444Y-91994622D01*
X130302048Y-91999516D01*
X130352844Y-92047491D01*
X130369638Y-92115312D01*
X130347100Y-92181447D01*
X130302048Y-92220484D01*
X130292444Y-92225377D01*
X130120540Y-92350272D01*
X130120535Y-92350276D01*
X129970276Y-92500535D01*
X129970272Y-92500540D01*
X129845379Y-92672442D01*
X129748904Y-92861782D01*
X129683242Y-93063870D01*
X129683242Y-93063873D01*
X129672769Y-93130000D01*
X130566988Y-93130000D01*
X130534075Y-93187007D01*
X130500000Y-93314174D01*
X130500000Y-93445826D01*
X130534075Y-93572993D01*
X130566988Y-93630000D01*
X129672769Y-93630000D01*
X129683242Y-93696126D01*
X129683242Y-93696129D01*
X129748904Y-93898217D01*
X129845379Y-94087557D01*
X129970272Y-94259459D01*
X129970276Y-94259464D01*
X130120535Y-94409723D01*
X130120540Y-94409727D01*
X130292444Y-94534622D01*
X130302048Y-94539516D01*
X130352844Y-94587491D01*
X130369638Y-94655312D01*
X130347100Y-94721447D01*
X130302048Y-94760484D01*
X130292444Y-94765377D01*
X130120540Y-94890272D01*
X130120535Y-94890276D01*
X129970276Y-95040535D01*
X129970272Y-95040540D01*
X129845379Y-95212442D01*
X129748904Y-95401782D01*
X129683242Y-95603870D01*
X129683242Y-95603873D01*
X129672769Y-95670000D01*
X130566988Y-95670000D01*
X130534075Y-95727007D01*
X130500000Y-95854174D01*
X130500000Y-95985826D01*
X130534075Y-96112993D01*
X130566988Y-96170000D01*
X129672769Y-96170000D01*
X129683242Y-96236126D01*
X129683242Y-96236129D01*
X129748904Y-96438217D01*
X129845379Y-96627557D01*
X129970272Y-96799459D01*
X129970276Y-96799464D01*
X130120535Y-96949723D01*
X130120540Y-96949727D01*
X130292444Y-97074622D01*
X130302048Y-97079516D01*
X130352844Y-97127491D01*
X130369638Y-97195312D01*
X130347100Y-97261447D01*
X130302048Y-97300484D01*
X130292444Y-97305377D01*
X130120540Y-97430272D01*
X130120535Y-97430276D01*
X129970276Y-97580535D01*
X129970272Y-97580540D01*
X129845379Y-97752442D01*
X129748904Y-97941782D01*
X129683242Y-98143870D01*
X129683242Y-98143873D01*
X129672769Y-98210000D01*
X130566988Y-98210000D01*
X130534075Y-98267007D01*
X130500000Y-98394174D01*
X130500000Y-98525826D01*
X130534075Y-98652993D01*
X130566988Y-98710000D01*
X129672769Y-98710000D01*
X129683242Y-98776126D01*
X129683242Y-98776129D01*
X129748904Y-98978217D01*
X129845379Y-99167557D01*
X129970272Y-99339459D01*
X129970276Y-99339464D01*
X130120535Y-99489723D01*
X130120540Y-99489727D01*
X130292444Y-99614622D01*
X130302048Y-99619516D01*
X130352844Y-99667491D01*
X130369638Y-99735312D01*
X130347100Y-99801447D01*
X130302048Y-99840484D01*
X130292444Y-99845377D01*
X130120540Y-99970272D01*
X130120535Y-99970276D01*
X129970276Y-100120535D01*
X129970272Y-100120540D01*
X129845379Y-100292442D01*
X129748904Y-100481782D01*
X129683242Y-100683870D01*
X129683242Y-100683873D01*
X129672769Y-100750000D01*
X130566988Y-100750000D01*
X130534075Y-100807007D01*
X130500000Y-100934174D01*
X130500000Y-101065826D01*
X130534075Y-101192993D01*
X130566988Y-101250000D01*
X129672769Y-101250000D01*
X129683242Y-101316126D01*
X129683242Y-101316129D01*
X129748904Y-101518217D01*
X129845379Y-101707557D01*
X129970272Y-101879459D01*
X129970276Y-101879464D01*
X130120535Y-102029723D01*
X130120540Y-102029727D01*
X130292444Y-102154622D01*
X130302048Y-102159516D01*
X130352844Y-102207491D01*
X130369638Y-102275312D01*
X130347100Y-102341447D01*
X130302048Y-102380484D01*
X130292444Y-102385377D01*
X130120540Y-102510272D01*
X130120535Y-102510276D01*
X129970276Y-102660535D01*
X129970272Y-102660540D01*
X129845379Y-102832442D01*
X129748904Y-103021782D01*
X129683242Y-103223870D01*
X129683242Y-103223873D01*
X129672769Y-103290000D01*
X130566988Y-103290000D01*
X130534075Y-103347007D01*
X130500000Y-103474174D01*
X130500000Y-103605826D01*
X130534075Y-103732993D01*
X130566988Y-103790000D01*
X129672769Y-103790000D01*
X129683242Y-103856126D01*
X129683242Y-103856129D01*
X129748904Y-104058217D01*
X129845379Y-104247557D01*
X129970272Y-104419459D01*
X129970276Y-104419464D01*
X130120535Y-104569723D01*
X130120540Y-104569727D01*
X130292442Y-104694620D01*
X130481782Y-104791095D01*
X130683871Y-104856757D01*
X130750000Y-104867231D01*
X130750000Y-103973012D01*
X130807007Y-104005925D01*
X130934174Y-104040000D01*
X131065826Y-104040000D01*
X131192993Y-104005925D01*
X131250000Y-103973012D01*
X131250000Y-104867230D01*
X131316126Y-104856757D01*
X131316129Y-104856757D01*
X131518217Y-104791095D01*
X131707557Y-104694620D01*
X131879458Y-104569728D01*
X131993133Y-104456053D01*
X132054456Y-104422568D01*
X132124148Y-104427552D01*
X132180082Y-104469423D01*
X132196997Y-104500401D01*
X132246202Y-104632328D01*
X132246206Y-104632335D01*
X132332452Y-104747544D01*
X132332455Y-104747547D01*
X132447664Y-104833793D01*
X132447671Y-104833797D01*
X132582517Y-104884091D01*
X132582516Y-104884091D01*
X132589444Y-104884835D01*
X132642127Y-104890500D01*
X133989902Y-104890499D01*
X134056941Y-104910184D01*
X134077583Y-104926818D01*
X134520034Y-105369269D01*
X134520044Y-105369280D01*
X134524374Y-105373610D01*
X134524375Y-105373611D01*
X134636179Y-105485415D01*
X134636181Y-105485416D01*
X134636185Y-105485419D01*
X134674402Y-105507483D01*
X134773111Y-105564472D01*
X134884914Y-105594429D01*
X134925837Y-105605395D01*
X134925838Y-105605395D01*
X139621335Y-105605395D01*
X139688374Y-105625080D01*
X139731820Y-105673100D01*
X139786161Y-105779749D01*
X139922933Y-105968001D01*
X139922937Y-105968006D01*
X140087488Y-106132557D01*
X140087493Y-106132561D01*
X140251697Y-106251861D01*
X140275749Y-106269336D01*
X140407866Y-106336653D01*
X140483086Y-106374980D01*
X140483088Y-106374980D01*
X140483091Y-106374982D01*
X140580617Y-106406670D01*
X140704406Y-106446892D01*
X140934242Y-106483295D01*
X140934247Y-106483295D01*
X141166958Y-106483295D01*
X141396793Y-106446892D01*
X141417527Y-106440155D01*
X141618109Y-106374982D01*
X141825451Y-106269336D01*
X142013713Y-106132556D01*
X142178261Y-105968008D01*
X142315041Y-105779746D01*
X142420687Y-105572404D01*
X142492597Y-105351088D01*
X142529000Y-105121253D01*
X142529000Y-104888536D01*
X142492597Y-104658701D01*
X142420685Y-104437381D01*
X142346027Y-104290858D01*
X142315041Y-104230044D01*
X142250213Y-104140816D01*
X142178266Y-104041788D01*
X142178262Y-104041783D01*
X142013711Y-103877232D01*
X142013706Y-103877228D01*
X141825452Y-103740454D01*
X141718804Y-103686113D01*
X141668009Y-103638138D01*
X141651100Y-103575629D01*
X141651100Y-102234160D01*
X141670785Y-102167121D01*
X141718806Y-102123675D01*
X141733306Y-102116287D01*
X141825451Y-102069337D01*
X142013713Y-101932557D01*
X142178261Y-101768009D01*
X142315041Y-101579747D01*
X142420687Y-101372405D01*
X142492597Y-101151089D01*
X142500240Y-101102834D01*
X142529000Y-100921254D01*
X142529000Y-100688537D01*
X142492597Y-100458702D01*
X142438575Y-100292442D01*
X142420687Y-100237387D01*
X142420685Y-100237384D01*
X142420685Y-100237382D01*
X142360981Y-100120208D01*
X142315041Y-100030045D01*
X142297566Y-100005993D01*
X142178266Y-99841789D01*
X142178262Y-99841784D01*
X142013711Y-99677233D01*
X142013706Y-99677229D01*
X141825452Y-99540455D01*
X141718804Y-99486114D01*
X141668009Y-99438139D01*
X141651100Y-99375630D01*
X141651100Y-98034161D01*
X141670785Y-97967122D01*
X141718806Y-97923676D01*
X141789841Y-97887482D01*
X141825451Y-97869338D01*
X142013713Y-97732558D01*
X142178261Y-97568010D01*
X142315041Y-97379748D01*
X142420687Y-97172406D01*
X142492597Y-96951090D01*
X142492814Y-96949723D01*
X142529000Y-96721255D01*
X142529000Y-96488538D01*
X142492597Y-96258703D01*
X142455610Y-96144869D01*
X142420687Y-96037388D01*
X142420685Y-96037385D01*
X142420685Y-96037383D01*
X142382358Y-95962163D01*
X142315041Y-95830046D01*
X142297566Y-95805994D01*
X142178266Y-95641790D01*
X142178262Y-95641785D01*
X142013711Y-95477234D01*
X142013706Y-95477230D01*
X141825454Y-95340458D01*
X141825453Y-95340457D01*
X141825451Y-95340456D01*
X141722257Y-95287876D01*
X141618113Y-95234811D01*
X141396793Y-95162899D01*
X141166958Y-95126497D01*
X141166953Y-95126497D01*
X140934247Y-95126497D01*
X140934242Y-95126497D01*
X140704405Y-95162900D01*
X140590573Y-95199886D01*
X140520731Y-95201881D01*
X140464574Y-95169636D01*
X138313293Y-93018355D01*
X138313291Y-93018352D01*
X138194420Y-92899481D01*
X138194419Y-92899480D01*
X138107607Y-92849360D01*
X138107607Y-92849359D01*
X138107603Y-92849358D01*
X138057488Y-92820423D01*
X137904760Y-92779499D01*
X137746646Y-92779499D01*
X137739050Y-92779499D01*
X137739034Y-92779500D01*
X134825719Y-92779500D01*
X134758680Y-92759815D01*
X134715235Y-92711795D01*
X134695052Y-92672185D01*
X134695051Y-92672184D01*
X134570109Y-92500213D01*
X134419786Y-92349890D01*
X134247820Y-92224951D01*
X134247205Y-92224637D01*
X134239054Y-92220484D01*
X134188259Y-92172512D01*
X134171463Y-92104692D01*
X134193999Y-92038556D01*
X134239054Y-91999515D01*
X134247816Y-91995051D01*
X134269789Y-91979086D01*
X134419786Y-91870109D01*
X134419788Y-91870106D01*
X134419792Y-91870104D01*
X134570104Y-91719792D01*
X134570106Y-91719788D01*
X134570109Y-91719786D01*
X134695048Y-91547820D01*
X134695050Y-91547817D01*
X134695051Y-91547816D01*
X134791557Y-91358412D01*
X134857246Y-91156243D01*
X134890500Y-90946287D01*
X134890500Y-90733713D01*
X134857246Y-90523757D01*
X134791557Y-90321588D01*
X134695051Y-90132184D01*
X134695049Y-90132181D01*
X134695048Y-90132179D01*
X134570109Y-89960213D01*
X134419786Y-89809890D01*
X134247820Y-89684951D01*
X134243594Y-89682798D01*
X134239054Y-89680484D01*
X134188259Y-89632512D01*
X134171463Y-89564692D01*
X134193999Y-89498556D01*
X134239054Y-89459515D01*
X134247816Y-89455051D01*
X134301166Y-89416290D01*
X134419786Y-89330109D01*
X134419788Y-89330106D01*
X134419792Y-89330104D01*
X134570104Y-89179792D01*
X134570106Y-89179788D01*
X134570109Y-89179786D01*
X134695048Y-89007820D01*
X134695050Y-89007817D01*
X134695051Y-89007816D01*
X134791557Y-88818412D01*
X134857246Y-88616243D01*
X134890500Y-88406287D01*
X134890500Y-88193713D01*
X134857246Y-87983757D01*
X134791557Y-87781588D01*
X134695051Y-87592184D01*
X134695049Y-87592181D01*
X134695048Y-87592179D01*
X134570109Y-87420213D01*
X134419786Y-87269890D01*
X134247820Y-87144951D01*
X134247205Y-87144637D01*
X134239054Y-87140484D01*
X134188259Y-87092512D01*
X134171463Y-87024692D01*
X134193999Y-86958556D01*
X134239054Y-86919515D01*
X134247816Y-86915051D01*
X134301166Y-86876290D01*
X134419786Y-86790109D01*
X134419788Y-86790106D01*
X134419792Y-86790104D01*
X134570104Y-86639792D01*
X134570106Y-86639788D01*
X134570109Y-86639786D01*
X134695048Y-86467820D01*
X134695050Y-86467817D01*
X134695051Y-86467816D01*
X134791557Y-86278412D01*
X134857246Y-86076243D01*
X134890500Y-85866287D01*
X134890500Y-85653713D01*
X134857246Y-85443757D01*
X134791557Y-85241588D01*
X134695051Y-85052184D01*
X134695049Y-85052181D01*
X134695048Y-85052179D01*
X134570109Y-84880213D01*
X134419786Y-84729890D01*
X134247820Y-84604951D01*
X134247205Y-84604637D01*
X134239054Y-84600484D01*
X134188259Y-84552512D01*
X134171463Y-84484692D01*
X134193999Y-84418556D01*
X134239054Y-84379515D01*
X134247816Y-84375051D01*
X134280953Y-84350976D01*
X134419786Y-84250109D01*
X134419788Y-84250106D01*
X134419792Y-84250104D01*
X134570104Y-84099792D01*
X134570106Y-84099788D01*
X134570109Y-84099786D01*
X134639047Y-84004899D01*
X134695051Y-83927816D01*
X134791557Y-83738412D01*
X134857246Y-83536243D01*
X134890500Y-83326287D01*
X134890500Y-83113713D01*
X134857246Y-82903757D01*
X134791557Y-82701588D01*
X134695051Y-82512184D01*
X134695049Y-82512181D01*
X134695048Y-82512179D01*
X134570109Y-82340213D01*
X134419786Y-82189890D01*
X134247820Y-82064951D01*
X134247205Y-82064637D01*
X134239054Y-82060484D01*
X134188259Y-82012512D01*
X134171463Y-81944692D01*
X134193999Y-81878556D01*
X134239054Y-81839515D01*
X134247816Y-81835051D01*
X134301166Y-81796290D01*
X134419786Y-81710109D01*
X134419788Y-81710106D01*
X134419792Y-81710104D01*
X134570104Y-81559792D01*
X134570106Y-81559788D01*
X134570109Y-81559786D01*
X134695048Y-81387820D01*
X134695050Y-81387817D01*
X134695051Y-81387816D01*
X134791557Y-81198412D01*
X134857246Y-80996243D01*
X134890500Y-80786287D01*
X134890500Y-80573713D01*
X134857246Y-80363757D01*
X134791557Y-80161588D01*
X134695051Y-79972184D01*
X134695049Y-79972181D01*
X134695048Y-79972179D01*
X134570109Y-79800213D01*
X134419786Y-79649890D01*
X134247820Y-79524951D01*
X134058414Y-79428444D01*
X134058413Y-79428443D01*
X134058412Y-79428443D01*
X133856243Y-79362754D01*
X133856241Y-79362753D01*
X133856240Y-79362753D01*
X133694957Y-79337208D01*
X133646287Y-79329500D01*
X133433713Y-79329500D01*
X133385042Y-79337208D01*
X133223760Y-79362753D01*
X133021585Y-79428444D01*
X132832179Y-79524951D01*
X132660213Y-79649890D01*
X132509890Y-79800213D01*
X132384949Y-79972182D01*
X132380202Y-79981499D01*
X132332227Y-80032293D01*
X132264405Y-80049087D01*
X132198271Y-80026548D01*
X132159234Y-79981495D01*
X132154622Y-79972444D01*
X132029727Y-79800540D01*
X132029723Y-79800535D01*
X131879464Y-79650276D01*
X131879459Y-79650272D01*
X131707557Y-79525379D01*
X131518215Y-79428903D01*
X131316124Y-79363241D01*
X131250000Y-79352768D01*
X131250000Y-80246988D01*
X131192993Y-80214075D01*
X131065826Y-80180000D01*
X130934174Y-80180000D01*
X130807007Y-80214075D01*
X130750000Y-80246988D01*
X130750000Y-79352768D01*
X130749999Y-79352768D01*
X130683875Y-79363241D01*
X130481784Y-79428903D01*
X130292442Y-79525379D01*
X130120540Y-79650272D01*
X130120535Y-79650276D01*
X129970276Y-79800535D01*
X129970272Y-79800540D01*
X129845379Y-79972442D01*
X129748904Y-80161782D01*
X129683242Y-80363870D01*
X129683242Y-80363873D01*
X129672769Y-80430000D01*
X127919233Y-80430000D01*
X132566936Y-75782297D01*
X132628259Y-75748813D01*
X132697951Y-75753797D01*
X132742298Y-75782298D01*
X132750000Y-75790000D01*
X133684314Y-75790000D01*
X133679920Y-75794394D01*
X133627259Y-75885606D01*
X133600000Y-75987339D01*
X133600000Y-76092661D01*
X133627259Y-76194394D01*
X133679920Y-76285606D01*
X133684314Y-76290000D01*
X132750000Y-76290000D01*
X132750000Y-76837844D01*
X132756401Y-76897372D01*
X132756403Y-76897379D01*
X132806645Y-77032086D01*
X132806649Y-77032093D01*
X132892809Y-77147187D01*
X132892812Y-77147190D01*
X133007906Y-77233350D01*
X133007913Y-77233354D01*
X133142620Y-77283596D01*
X133142627Y-77283598D01*
X133202155Y-77289999D01*
X133202172Y-77290000D01*
X133750000Y-77290000D01*
X133750000Y-76355686D01*
X133754394Y-76360080D01*
X133845606Y-76412741D01*
X133947339Y-76440000D01*
X134052661Y-76440000D01*
X134154394Y-76412741D01*
X134245606Y-76360080D01*
X134250000Y-76355686D01*
X134250000Y-77290000D01*
X134797828Y-77290000D01*
X134797844Y-77289999D01*
X134857372Y-77283598D01*
X134857379Y-77283596D01*
X134992086Y-77233354D01*
X134992093Y-77233350D01*
X135107187Y-77147190D01*
X135107190Y-77147187D01*
X135193350Y-77032093D01*
X135193354Y-77032086D01*
X135243596Y-76897379D01*
X135243598Y-76897372D01*
X135249999Y-76837844D01*
X135250000Y-76837827D01*
X135250000Y-76290000D01*
X134315686Y-76290000D01*
X134320080Y-76285606D01*
X134372741Y-76194394D01*
X134400000Y-76092661D01*
X134400000Y-75987339D01*
X134372741Y-75885606D01*
X134320080Y-75794394D01*
X134315686Y-75790000D01*
X135250000Y-75790000D01*
X135250000Y-75242172D01*
X135249999Y-75242155D01*
X135243598Y-75182627D01*
X135243596Y-75182620D01*
X135193354Y-75047913D01*
X135193350Y-75047906D01*
X135107190Y-74932812D01*
X135107187Y-74932809D01*
X134992093Y-74846649D01*
X134992086Y-74846645D01*
X134857379Y-74796403D01*
X134857372Y-74796401D01*
X134797844Y-74790000D01*
X134733579Y-74790000D01*
X134666540Y-74770315D01*
X134620785Y-74717511D01*
X134610841Y-74648353D01*
X134639866Y-74584797D01*
X134660693Y-74565682D01*
X134662683Y-74564236D01*
X134814646Y-74453828D01*
X134953828Y-74314646D01*
X135069524Y-74155405D01*
X135158884Y-73980025D01*
X135219709Y-73792826D01*
X135224486Y-73762666D01*
X135250500Y-73598422D01*
X135250500Y-73401577D01*
X135219709Y-73207173D01*
X135158882Y-73019970D01*
X135088991Y-72882801D01*
X135069524Y-72844595D01*
X134953828Y-72685354D01*
X134814646Y-72546172D01*
X134733867Y-72487482D01*
X134655403Y-72430474D01*
X134478787Y-72340485D01*
X134427990Y-72292511D01*
X134411195Y-72224690D01*
X134433732Y-72158555D01*
X134478787Y-72119515D01*
X134655403Y-72029525D01*
X134655402Y-72029525D01*
X134655405Y-72029524D01*
X134814646Y-71913828D01*
X134953828Y-71774646D01*
X135069524Y-71615405D01*
X135069524Y-71615403D01*
X135072278Y-71611614D01*
X135127608Y-71568949D01*
X135172596Y-71560500D01*
X136105603Y-71560500D01*
X136172642Y-71580185D01*
X136193284Y-71596819D01*
X139615338Y-75018874D01*
X139648823Y-75080197D01*
X139645588Y-75144872D01*
X139608603Y-75258703D01*
X139572200Y-75488541D01*
X139572200Y-75721258D01*
X139608602Y-75951093D01*
X139680514Y-76172413D01*
X139786161Y-76379754D01*
X139922933Y-76568006D01*
X139922937Y-76568011D01*
X140087488Y-76732562D01*
X140087493Y-76732566D01*
X140232397Y-76837844D01*
X140275749Y-76869341D01*
X140373199Y-76918994D01*
X140483086Y-76974985D01*
X140483088Y-76974985D01*
X140483091Y-76974987D01*
X140572867Y-77004157D01*
X140704406Y-77046897D01*
X140934242Y-77083300D01*
X140934247Y-77083300D01*
X141166958Y-77083300D01*
X141396793Y-77046897D01*
X141417530Y-77040159D01*
X141565684Y-76992020D01*
X141635522Y-76990026D01*
X141695355Y-77026106D01*
X141726184Y-77088806D01*
X141728000Y-77109952D01*
X141728000Y-78300372D01*
X141708315Y-78367411D01*
X141655511Y-78413166D01*
X141586353Y-78423110D01*
X141565683Y-78418303D01*
X141396678Y-78363391D01*
X141396679Y-78363391D01*
X141166912Y-78327000D01*
X140934288Y-78327000D01*
X140704522Y-78363391D01*
X140483285Y-78435274D01*
X140276015Y-78540885D01*
X140197316Y-78598062D01*
X140746551Y-79147297D01*
X140707705Y-79163388D01*
X140589140Y-79242610D01*
X140488310Y-79343440D01*
X140409088Y-79462005D01*
X140392997Y-79500851D01*
X139843762Y-78951616D01*
X139786585Y-79030315D01*
X139680974Y-79237585D01*
X139609091Y-79458822D01*
X139572700Y-79688587D01*
X139572700Y-79921212D01*
X139609091Y-80150977D01*
X139680974Y-80372214D01*
X139786589Y-80579491D01*
X139843761Y-80658182D01*
X139843762Y-80658183D01*
X140392997Y-80108948D01*
X140409088Y-80147795D01*
X140488310Y-80266360D01*
X140589140Y-80367190D01*
X140707705Y-80446412D01*
X140746549Y-80462501D01*
X140197315Y-81011736D01*
X140276011Y-81068912D01*
X140483285Y-81174525D01*
X140704522Y-81246408D01*
X140934288Y-81282800D01*
X141166912Y-81282800D01*
X141396674Y-81246409D01*
X141565681Y-81191495D01*
X141635522Y-81189500D01*
X141695355Y-81225580D01*
X141726184Y-81288281D01*
X141728000Y-81309426D01*
X141728000Y-82500371D01*
X141708315Y-82567410D01*
X141655511Y-82613165D01*
X141586353Y-82623109D01*
X141565683Y-82618302D01*
X141396678Y-82563390D01*
X141396679Y-82563390D01*
X141166912Y-82526999D01*
X140934288Y-82526999D01*
X140704522Y-82563390D01*
X140483285Y-82635273D01*
X140276015Y-82740884D01*
X140197316Y-82798061D01*
X140746551Y-83347296D01*
X140707705Y-83363387D01*
X140589140Y-83442609D01*
X140488310Y-83543439D01*
X140409088Y-83662004D01*
X140392997Y-83700850D01*
X139843762Y-83151615D01*
X139786585Y-83230314D01*
X139680974Y-83437584D01*
X139609091Y-83658821D01*
X139572700Y-83888586D01*
X139572700Y-84121211D01*
X139609091Y-84350976D01*
X139680974Y-84572213D01*
X139786589Y-84779490D01*
X139843761Y-84858181D01*
X139843762Y-84858182D01*
X140392997Y-84308947D01*
X140409088Y-84347794D01*
X140488310Y-84466359D01*
X140589140Y-84567189D01*
X140707705Y-84646411D01*
X140746549Y-84662500D01*
X140197315Y-85211735D01*
X140276011Y-85268911D01*
X140483285Y-85374524D01*
X140704522Y-85446407D01*
X140934288Y-85482799D01*
X141166912Y-85482799D01*
X141396674Y-85446408D01*
X141565681Y-85391494D01*
X141635522Y-85389499D01*
X141695355Y-85425579D01*
X141726184Y-85488280D01*
X141728000Y-85509425D01*
X141728000Y-86700370D01*
X141708315Y-86767409D01*
X141655511Y-86813164D01*
X141586353Y-86823108D01*
X141565683Y-86818301D01*
X141396678Y-86763389D01*
X141396679Y-86763389D01*
X141166912Y-86726998D01*
X140934288Y-86726998D01*
X140704522Y-86763389D01*
X140483285Y-86835272D01*
X140276015Y-86940883D01*
X140197316Y-86998060D01*
X140746551Y-87547295D01*
X140707705Y-87563386D01*
X140589140Y-87642608D01*
X140488310Y-87743438D01*
X140409088Y-87862003D01*
X140392997Y-87900849D01*
X139843762Y-87351614D01*
X139786585Y-87430313D01*
X139680974Y-87637583D01*
X139609091Y-87858820D01*
X139572700Y-88088585D01*
X139572700Y-88321210D01*
X139609091Y-88550975D01*
X139680974Y-88772212D01*
X139786589Y-88979489D01*
X139843761Y-89058180D01*
X139843762Y-89058181D01*
X140392997Y-88508946D01*
X140409088Y-88547793D01*
X140488310Y-88666358D01*
X140589140Y-88767188D01*
X140707705Y-88846410D01*
X140746549Y-88862499D01*
X140197315Y-89411734D01*
X140276011Y-89468910D01*
X140483285Y-89574523D01*
X140704522Y-89646406D01*
X140934288Y-89682798D01*
X141166912Y-89682798D01*
X141396674Y-89646407D01*
X141565681Y-89591493D01*
X141635522Y-89589498D01*
X141695355Y-89625578D01*
X141726184Y-89688279D01*
X141728000Y-89709424D01*
X141728000Y-90899844D01*
X141708315Y-90966883D01*
X141655511Y-91012638D01*
X141586353Y-91022582D01*
X141565682Y-91017775D01*
X141396795Y-90962900D01*
X141166958Y-90926497D01*
X141166953Y-90926497D01*
X140934247Y-90926497D01*
X140934242Y-90926497D01*
X140704406Y-90962899D01*
X140483086Y-91034811D01*
X140275745Y-91140458D01*
X140087493Y-91277230D01*
X140087488Y-91277234D01*
X139922937Y-91441785D01*
X139922933Y-91441790D01*
X139786161Y-91630042D01*
X139680514Y-91837383D01*
X139608602Y-92058703D01*
X139572200Y-92288538D01*
X139572200Y-92521255D01*
X139608602Y-92751090D01*
X139680514Y-92972410D01*
X139786161Y-93179751D01*
X139922933Y-93368003D01*
X139922937Y-93368008D01*
X140087488Y-93532559D01*
X140087493Y-93532563D01*
X140221605Y-93630000D01*
X140275749Y-93669338D01*
X140407866Y-93736655D01*
X140483086Y-93774982D01*
X140483088Y-93774982D01*
X140483091Y-93774984D01*
X140601722Y-93813529D01*
X140704406Y-93846894D01*
X140934242Y-93883297D01*
X140934247Y-93883297D01*
X141166958Y-93883297D01*
X141396793Y-93846894D01*
X141399775Y-93845925D01*
X141618109Y-93774984D01*
X141825451Y-93669338D01*
X142013713Y-93532558D01*
X142178261Y-93368010D01*
X142213366Y-93319691D01*
X142268694Y-93277027D01*
X142338307Y-93271048D01*
X142400103Y-93303653D01*
X142401361Y-93304894D01*
X143806734Y-94710268D01*
X145115337Y-96018871D01*
X145148822Y-96080194D01*
X145145587Y-96144869D01*
X145108602Y-96258700D01*
X145072199Y-96488538D01*
X145072199Y-96721255D01*
X145108601Y-96951090D01*
X145180513Y-97172410D01*
X145286160Y-97379751D01*
X145422932Y-97568003D01*
X145422936Y-97568008D01*
X145587487Y-97732559D01*
X145587492Y-97732563D01*
X145697232Y-97812293D01*
X145775748Y-97869338D01*
X145907865Y-97936655D01*
X145983085Y-97974982D01*
X145983087Y-97974982D01*
X145983090Y-97974984D01*
X146101721Y-98013529D01*
X146204405Y-98046894D01*
X146434241Y-98083297D01*
X146434246Y-98083297D01*
X146666957Y-98083297D01*
X146896792Y-98046894D01*
X146935980Y-98034161D01*
X147118108Y-97974984D01*
X147325450Y-97869338D01*
X147513712Y-97732558D01*
X147678260Y-97568010D01*
X147815040Y-97379748D01*
X147920686Y-97172406D01*
X147992596Y-96951090D01*
X147992813Y-96949723D01*
X148028999Y-96721255D01*
X148028999Y-96488538D01*
X147992596Y-96258703D01*
X147955609Y-96144869D01*
X147920686Y-96037388D01*
X147920684Y-96037385D01*
X147920684Y-96037383D01*
X147882357Y-95962163D01*
X147815040Y-95830046D01*
X147797565Y-95805994D01*
X147678265Y-95641790D01*
X147678261Y-95641785D01*
X147513710Y-95477234D01*
X147513705Y-95477230D01*
X147325453Y-95340458D01*
X147325452Y-95340457D01*
X147325450Y-95340456D01*
X147222256Y-95287876D01*
X147118112Y-95234811D01*
X146896792Y-95162899D01*
X146666957Y-95126497D01*
X146666952Y-95126497D01*
X146434246Y-95126497D01*
X146434241Y-95126497D01*
X146204402Y-95162900D01*
X146090571Y-95199885D01*
X146020729Y-95201880D01*
X145964573Y-95169635D01*
X143083476Y-92288538D01*
X145072199Y-92288538D01*
X145072199Y-92521255D01*
X145108601Y-92751090D01*
X145180513Y-92972410D01*
X145286160Y-93179751D01*
X145422932Y-93368003D01*
X145422936Y-93368008D01*
X145587487Y-93532559D01*
X145587492Y-93532563D01*
X145721604Y-93630000D01*
X145775748Y-93669338D01*
X145907865Y-93736655D01*
X145983085Y-93774982D01*
X145983087Y-93774982D01*
X145983090Y-93774984D01*
X146101721Y-93813529D01*
X146204405Y-93846894D01*
X146434241Y-93883297D01*
X146434246Y-93883297D01*
X146666957Y-93883297D01*
X146896792Y-93846894D01*
X146899774Y-93845925D01*
X147118108Y-93774984D01*
X147325450Y-93669338D01*
X147513712Y-93532558D01*
X147678260Y-93368010D01*
X147815040Y-93179748D01*
X147920686Y-92972406D01*
X147992596Y-92751090D01*
X148003619Y-92681495D01*
X148028999Y-92521255D01*
X148028999Y-92288538D01*
X147992596Y-92058703D01*
X147959231Y-91956019D01*
X147920686Y-91837388D01*
X147920684Y-91837385D01*
X147920684Y-91837383D01*
X147860768Y-91719792D01*
X147815040Y-91630046D01*
X147797565Y-91605994D01*
X147678265Y-91441790D01*
X147678261Y-91441785D01*
X147513710Y-91277234D01*
X147513705Y-91277230D01*
X147325453Y-91140458D01*
X147325452Y-91140457D01*
X147325450Y-91140456D01*
X147204526Y-91078842D01*
X147118112Y-91034811D01*
X146896792Y-90962899D01*
X146666957Y-90926497D01*
X146666952Y-90926497D01*
X146434246Y-90926497D01*
X146434241Y-90926497D01*
X146204405Y-90962899D01*
X145983085Y-91034811D01*
X145775744Y-91140458D01*
X145587492Y-91277230D01*
X145587487Y-91277234D01*
X145422936Y-91441785D01*
X145422932Y-91441790D01*
X145286160Y-91630042D01*
X145180513Y-91837383D01*
X145108601Y-92058703D01*
X145072199Y-92288538D01*
X143083476Y-92288538D01*
X142965319Y-92170381D01*
X142931834Y-92109058D01*
X142929000Y-92082700D01*
X142929000Y-90921153D01*
X143199500Y-90921153D01*
X143199500Y-91078846D01*
X143230261Y-91233489D01*
X143230264Y-91233501D01*
X143290602Y-91379172D01*
X143290609Y-91379185D01*
X143378210Y-91510288D01*
X143378213Y-91510292D01*
X143489707Y-91621786D01*
X143489711Y-91621789D01*
X143620814Y-91709390D01*
X143620827Y-91709397D01*
X143766498Y-91769735D01*
X143766503Y-91769737D01*
X143921153Y-91800499D01*
X143921156Y-91800500D01*
X143921158Y-91800500D01*
X144078844Y-91800500D01*
X144078845Y-91800499D01*
X144233497Y-91769737D01*
X144379179Y-91709394D01*
X144510289Y-91621789D01*
X144621789Y-91510289D01*
X144709394Y-91379179D01*
X144769737Y-91233497D01*
X144800500Y-91078842D01*
X144800500Y-90921158D01*
X144800500Y-90921155D01*
X144800499Y-90921153D01*
X144794803Y-90892516D01*
X144769737Y-90766503D01*
X144766078Y-90757669D01*
X144709397Y-90620827D01*
X144709390Y-90620814D01*
X144621398Y-90489125D01*
X144600520Y-90422447D01*
X144600500Y-90420234D01*
X144600500Y-88088585D01*
X145072699Y-88088585D01*
X145072699Y-88321210D01*
X145109090Y-88550975D01*
X145180973Y-88772212D01*
X145286588Y-88979489D01*
X145343760Y-89058180D01*
X145343761Y-89058181D01*
X145892996Y-88508946D01*
X145909087Y-88547793D01*
X145988309Y-88666358D01*
X146089139Y-88767188D01*
X146207704Y-88846410D01*
X146246549Y-88862500D01*
X145697314Y-89411734D01*
X145776010Y-89468910D01*
X145983284Y-89574523D01*
X146204521Y-89646406D01*
X146434287Y-89682798D01*
X146666911Y-89682798D01*
X146896676Y-89646406D01*
X147117913Y-89574523D01*
X147325179Y-89468914D01*
X147325185Y-89468910D01*
X147403881Y-89411734D01*
X147403882Y-89411734D01*
X146854647Y-88862500D01*
X146893494Y-88846410D01*
X147012059Y-88767188D01*
X147112889Y-88666358D01*
X147192111Y-88547793D01*
X147208201Y-88508947D01*
X147757435Y-89058181D01*
X147757435Y-89058180D01*
X147814611Y-88979484D01*
X147814615Y-88979478D01*
X147920224Y-88772212D01*
X147992107Y-88550975D01*
X148028499Y-88321210D01*
X148028499Y-88088585D01*
X147992107Y-87858820D01*
X147920224Y-87637583D01*
X147814611Y-87430309D01*
X147757435Y-87351614D01*
X147757435Y-87351613D01*
X147208201Y-87900848D01*
X147192111Y-87862003D01*
X147112889Y-87743438D01*
X147012059Y-87642608D01*
X146893494Y-87563386D01*
X146854647Y-87547295D01*
X147403882Y-86998060D01*
X147403881Y-86998059D01*
X147325190Y-86940887D01*
X147117913Y-86835272D01*
X146896676Y-86763389D01*
X146666911Y-86726998D01*
X146434287Y-86726998D01*
X146204521Y-86763389D01*
X145983284Y-86835272D01*
X145776014Y-86940883D01*
X145697315Y-86998060D01*
X146246550Y-87547295D01*
X146207704Y-87563386D01*
X146089139Y-87642608D01*
X145988309Y-87743438D01*
X145909087Y-87862003D01*
X145892996Y-87900849D01*
X145343761Y-87351614D01*
X145286584Y-87430313D01*
X145180973Y-87637583D01*
X145109090Y-87858820D01*
X145072699Y-88088585D01*
X144600500Y-88088585D01*
X144600500Y-86855595D01*
X144620185Y-86788556D01*
X144636819Y-86767914D01*
X145292194Y-86112539D01*
X145964575Y-85440157D01*
X146025896Y-85406674D01*
X146090571Y-85409908D01*
X146138799Y-85425579D01*
X146204405Y-85446896D01*
X146434241Y-85483299D01*
X146434246Y-85483299D01*
X146666957Y-85483299D01*
X146896792Y-85446896D01*
X146962063Y-85425688D01*
X147118108Y-85374986D01*
X147325450Y-85269340D01*
X147513712Y-85132560D01*
X147678260Y-84968012D01*
X147815040Y-84779750D01*
X147920686Y-84572408D01*
X147992596Y-84351092D01*
X148008651Y-84249727D01*
X148028999Y-84121257D01*
X148028999Y-83888540D01*
X147992596Y-83658705D01*
X147966695Y-83578991D01*
X147955608Y-83544871D01*
X147953614Y-83475032D01*
X147985856Y-83418877D01*
X148309019Y-83095715D01*
X148388076Y-82958783D01*
X148429000Y-82806056D01*
X148429000Y-82647941D01*
X148429000Y-82640346D01*
X148428999Y-82640328D01*
X148428999Y-76971860D01*
X148429000Y-76971847D01*
X148429000Y-76803744D01*
X148429000Y-76803743D01*
X148388076Y-76651016D01*
X148340155Y-76568013D01*
X148309023Y-76514090D01*
X148309017Y-76514082D01*
X147985859Y-76190924D01*
X147952374Y-76129601D01*
X147955609Y-76064925D01*
X147992596Y-75951093D01*
X148018111Y-75790000D01*
X148028999Y-75721258D01*
X148028999Y-75488541D01*
X147992596Y-75258706D01*
X147955609Y-75144872D01*
X147920686Y-75037391D01*
X147920684Y-75037388D01*
X147920684Y-75037386D01*
X147854534Y-74907561D01*
X147815040Y-74830049D01*
X147771641Y-74770315D01*
X147678265Y-74641793D01*
X147678261Y-74641788D01*
X147513710Y-74477237D01*
X147513705Y-74477233D01*
X147325453Y-74340461D01*
X147325452Y-74340460D01*
X147325450Y-74340459D01*
X147260700Y-74307467D01*
X147118112Y-74234814D01*
X146896792Y-74162902D01*
X146666957Y-74126500D01*
X146666952Y-74126500D01*
X146434246Y-74126500D01*
X146434241Y-74126500D01*
X146204405Y-74162902D01*
X145983085Y-74234814D01*
X145775744Y-74340461D01*
X145587492Y-74477233D01*
X145587487Y-74477237D01*
X145422936Y-74641788D01*
X145422932Y-74641793D01*
X145286160Y-74830045D01*
X145180513Y-75037386D01*
X145108601Y-75258706D01*
X145072199Y-75488541D01*
X145072199Y-75721258D01*
X145108601Y-75951093D01*
X145180513Y-76172413D01*
X145286160Y-76379754D01*
X145422932Y-76568006D01*
X145422936Y-76568011D01*
X145587487Y-76732562D01*
X145587492Y-76732566D01*
X145732396Y-76837844D01*
X145775748Y-76869341D01*
X145873198Y-76918994D01*
X145983085Y-76974985D01*
X145983087Y-76974985D01*
X145983090Y-76974987D01*
X146072866Y-77004157D01*
X146204405Y-77046897D01*
X146434241Y-77083300D01*
X146434246Y-77083300D01*
X146666957Y-77083300D01*
X146771424Y-77066753D01*
X146896792Y-77046897D01*
X147010625Y-77009909D01*
X147025835Y-77009475D01*
X147040094Y-77004157D01*
X147060050Y-77008498D01*
X147080463Y-77007915D01*
X147094547Y-77016001D01*
X147108367Y-77019008D01*
X147136621Y-77040159D01*
X147191679Y-77095216D01*
X147225165Y-77156539D01*
X147227999Y-77182898D01*
X147227999Y-78300372D01*
X147208314Y-78367411D01*
X147155510Y-78413166D01*
X147086352Y-78423110D01*
X147065682Y-78418303D01*
X146896677Y-78363391D01*
X146896678Y-78363391D01*
X146666911Y-78327000D01*
X146434287Y-78327000D01*
X146204521Y-78363391D01*
X145983284Y-78435274D01*
X145776014Y-78540885D01*
X145697315Y-78598062D01*
X146246550Y-79147297D01*
X146207704Y-79163388D01*
X146089139Y-79242610D01*
X145988309Y-79343440D01*
X145909087Y-79462005D01*
X145892996Y-79500851D01*
X145343761Y-78951616D01*
X145286584Y-79030315D01*
X145180973Y-79237585D01*
X145109090Y-79458822D01*
X145072699Y-79688587D01*
X145072699Y-79921212D01*
X145109090Y-80150977D01*
X145180973Y-80372214D01*
X145286588Y-80579491D01*
X145343760Y-80658182D01*
X145343761Y-80658183D01*
X145892996Y-80108948D01*
X145909087Y-80147795D01*
X145988309Y-80266360D01*
X146089139Y-80367190D01*
X146207704Y-80446412D01*
X146246548Y-80462501D01*
X145697314Y-81011736D01*
X145776010Y-81068912D01*
X145983284Y-81174525D01*
X146204521Y-81246408D01*
X146434287Y-81282800D01*
X146666911Y-81282800D01*
X146896673Y-81246409D01*
X147065680Y-81191495D01*
X147135521Y-81189500D01*
X147195354Y-81225580D01*
X147226183Y-81288281D01*
X147227999Y-81309426D01*
X147227999Y-82426899D01*
X147219354Y-82456336D01*
X147212831Y-82486327D01*
X147209076Y-82491342D01*
X147208314Y-82493938D01*
X147191679Y-82514581D01*
X147136621Y-82569638D01*
X147075298Y-82603122D01*
X147010623Y-82599887D01*
X146896793Y-82562902D01*
X146666957Y-82526499D01*
X146666952Y-82526499D01*
X146434246Y-82526499D01*
X146434241Y-82526499D01*
X146204405Y-82562901D01*
X145983085Y-82634813D01*
X145775744Y-82740460D01*
X145587492Y-82877232D01*
X145587487Y-82877236D01*
X145422936Y-83041787D01*
X145422932Y-83041792D01*
X145286160Y-83230044D01*
X145180513Y-83437385D01*
X145108601Y-83658705D01*
X145072199Y-83888540D01*
X145072199Y-84121257D01*
X145108602Y-84351095D01*
X145145587Y-84464925D01*
X145147582Y-84534766D01*
X145115337Y-84590923D01*
X143634505Y-86071756D01*
X143634498Y-86071763D01*
X143631286Y-86074976D01*
X143631284Y-86074978D01*
X143519480Y-86186782D01*
X143493498Y-86231785D01*
X143487643Y-86241924D01*
X143487641Y-86241928D01*
X143440424Y-86323711D01*
X143440423Y-86323713D01*
X143399499Y-86476441D01*
X143399499Y-86476443D01*
X143399499Y-86644544D01*
X143399500Y-86644557D01*
X143399500Y-90420234D01*
X143379815Y-90487273D01*
X143378602Y-90489125D01*
X143290609Y-90620814D01*
X143290602Y-90620827D01*
X143230264Y-90766498D01*
X143230261Y-90766510D01*
X143199500Y-90921153D01*
X142929000Y-90921153D01*
X142929000Y-74917560D01*
X142929001Y-74917547D01*
X142929001Y-74749444D01*
X142924726Y-74733489D01*
X142888077Y-74596716D01*
X142819098Y-74477239D01*
X142809024Y-74459790D01*
X142809018Y-74459782D01*
X141388029Y-73038793D01*
X141354544Y-72977470D01*
X141359528Y-72907778D01*
X141401400Y-72851845D01*
X141437392Y-72833181D01*
X141617914Y-72774526D01*
X141825180Y-72668917D01*
X141825186Y-72668913D01*
X141903882Y-72611737D01*
X141903883Y-72611737D01*
X141354649Y-72062503D01*
X141393495Y-72046413D01*
X141512060Y-71967191D01*
X141612890Y-71866361D01*
X141692112Y-71747796D01*
X141708202Y-71708950D01*
X142257436Y-72258184D01*
X142257436Y-72258183D01*
X142314612Y-72179487D01*
X142314616Y-72179481D01*
X142420225Y-71972215D01*
X142492108Y-71750978D01*
X142528500Y-71521213D01*
X142528500Y-71288588D01*
X145072699Y-71288588D01*
X145072699Y-71521213D01*
X145109090Y-71750978D01*
X145180973Y-71972215D01*
X145286588Y-72179492D01*
X145343760Y-72258183D01*
X145343761Y-72258184D01*
X145892996Y-71708949D01*
X145909087Y-71747796D01*
X145988309Y-71866361D01*
X146089139Y-71967191D01*
X146207704Y-72046413D01*
X146246549Y-72062503D01*
X145697314Y-72611737D01*
X145776010Y-72668913D01*
X145983284Y-72774526D01*
X146204521Y-72846409D01*
X146434287Y-72882801D01*
X146666911Y-72882801D01*
X146896676Y-72846409D01*
X147117913Y-72774526D01*
X147325179Y-72668917D01*
X147325185Y-72668913D01*
X147403881Y-72611737D01*
X147403882Y-72611737D01*
X146854647Y-72062503D01*
X146893494Y-72046413D01*
X147012059Y-71967191D01*
X147112889Y-71866361D01*
X147192111Y-71747796D01*
X147208201Y-71708950D01*
X147757435Y-72258184D01*
X147757435Y-72258183D01*
X147814611Y-72179487D01*
X147814615Y-72179481D01*
X147920224Y-71972215D01*
X147992107Y-71750978D01*
X148028499Y-71521213D01*
X148028499Y-71288588D01*
X147992107Y-71058823D01*
X147920224Y-70837586D01*
X147814611Y-70630312D01*
X147757435Y-70551617D01*
X147757435Y-70551616D01*
X147208201Y-71100851D01*
X147192111Y-71062006D01*
X147112889Y-70943441D01*
X147012059Y-70842611D01*
X146893494Y-70763389D01*
X146854647Y-70747298D01*
X147403882Y-70198063D01*
X147403881Y-70198062D01*
X147325190Y-70140890D01*
X147117913Y-70035275D01*
X146896676Y-69963392D01*
X146666911Y-69927001D01*
X146434287Y-69927001D01*
X146204521Y-69963392D01*
X145983284Y-70035275D01*
X145776014Y-70140886D01*
X145697315Y-70198063D01*
X146246550Y-70747298D01*
X146207704Y-70763389D01*
X146089139Y-70842611D01*
X145988309Y-70943441D01*
X145909087Y-71062006D01*
X145892996Y-71100852D01*
X145343761Y-70551617D01*
X145286584Y-70630316D01*
X145180973Y-70837586D01*
X145109090Y-71058823D01*
X145072699Y-71288588D01*
X142528500Y-71288588D01*
X142492108Y-71058823D01*
X142420225Y-70837586D01*
X142314612Y-70630312D01*
X142257436Y-70551617D01*
X142257436Y-70551616D01*
X141708202Y-71100851D01*
X141692112Y-71062006D01*
X141612890Y-70943441D01*
X141512060Y-70842611D01*
X141393495Y-70763389D01*
X141354648Y-70747298D01*
X141903883Y-70198063D01*
X141903882Y-70198062D01*
X141825191Y-70140890D01*
X141617914Y-70035275D01*
X141396677Y-69963392D01*
X141166912Y-69927001D01*
X140934288Y-69927001D01*
X140704522Y-69963392D01*
X140483285Y-70035275D01*
X140276015Y-70140886D01*
X140197316Y-70198063D01*
X140746551Y-70747298D01*
X140707705Y-70763389D01*
X140589140Y-70842611D01*
X140488310Y-70943441D01*
X140409088Y-71062006D01*
X140392997Y-71100852D01*
X139843762Y-70551617D01*
X139786585Y-70630316D01*
X139680974Y-70837587D01*
X139622319Y-71018108D01*
X139582881Y-71075784D01*
X139518523Y-71102982D01*
X139449676Y-71091067D01*
X139416707Y-71067471D01*
X138682239Y-70333003D01*
X135520593Y-67171358D01*
X135437778Y-67088543D01*
X139572200Y-67088543D01*
X139572200Y-67321260D01*
X139608602Y-67551095D01*
X139680514Y-67772415D01*
X139786161Y-67979756D01*
X139922933Y-68168008D01*
X139922937Y-68168013D01*
X140087488Y-68332564D01*
X140087493Y-68332568D01*
X140222180Y-68430423D01*
X140275749Y-68469343D01*
X140407866Y-68536660D01*
X140483086Y-68574987D01*
X140483088Y-68574987D01*
X140483091Y-68574989D01*
X140600640Y-68613183D01*
X140704406Y-68646899D01*
X140934242Y-68683302D01*
X140934247Y-68683302D01*
X141166958Y-68683302D01*
X141396793Y-68646899D01*
X141618109Y-68574989D01*
X141825451Y-68469343D01*
X142013713Y-68332563D01*
X142178261Y-68168015D01*
X142315041Y-67979753D01*
X142420687Y-67772411D01*
X142492597Y-67551095D01*
X142515343Y-67407483D01*
X142529000Y-67321260D01*
X142529000Y-67088543D01*
X145072199Y-67088543D01*
X145072199Y-67321260D01*
X145108601Y-67551095D01*
X145180513Y-67772415D01*
X145286160Y-67979756D01*
X145422932Y-68168008D01*
X145422936Y-68168013D01*
X145587487Y-68332564D01*
X145587492Y-68332568D01*
X145722179Y-68430423D01*
X145775748Y-68469343D01*
X145907865Y-68536660D01*
X145983085Y-68574987D01*
X145983087Y-68574987D01*
X145983090Y-68574989D01*
X146100639Y-68613183D01*
X146204405Y-68646899D01*
X146434241Y-68683302D01*
X146434246Y-68683302D01*
X146666957Y-68683302D01*
X146896792Y-68646899D01*
X147118108Y-68574989D01*
X147325450Y-68469343D01*
X147513712Y-68332563D01*
X147678260Y-68168015D01*
X147815040Y-67979753D01*
X147920686Y-67772411D01*
X147992596Y-67551095D01*
X148015342Y-67407483D01*
X148028999Y-67321260D01*
X148028999Y-67088543D01*
X147992596Y-66858708D01*
X147955264Y-66743813D01*
X147920686Y-66637393D01*
X147920684Y-66637390D01*
X147920684Y-66637388D01*
X147861135Y-66520518D01*
X147815040Y-66430051D01*
X147780752Y-66382857D01*
X147678265Y-66241795D01*
X147678261Y-66241790D01*
X147513710Y-66077239D01*
X147513705Y-66077235D01*
X147325453Y-65940463D01*
X147325452Y-65940462D01*
X147325450Y-65940461D01*
X147235918Y-65894842D01*
X147118112Y-65834816D01*
X146896792Y-65762904D01*
X146666957Y-65726502D01*
X146666952Y-65726502D01*
X146434246Y-65726502D01*
X146434241Y-65726502D01*
X146204405Y-65762904D01*
X145983085Y-65834816D01*
X145775744Y-65940463D01*
X145587492Y-66077235D01*
X145587487Y-66077239D01*
X145422936Y-66241790D01*
X145422932Y-66241795D01*
X145286160Y-66430047D01*
X145180513Y-66637388D01*
X145108601Y-66858708D01*
X145072199Y-67088543D01*
X142529000Y-67088543D01*
X142492597Y-66858708D01*
X142455265Y-66743813D01*
X142420687Y-66637393D01*
X142420685Y-66637390D01*
X142420685Y-66637388D01*
X142361136Y-66520518D01*
X142315041Y-66430051D01*
X142280753Y-66382857D01*
X142178266Y-66241795D01*
X142178262Y-66241790D01*
X142013711Y-66077239D01*
X142013706Y-66077235D01*
X141825454Y-65940463D01*
X141825453Y-65940462D01*
X141825451Y-65940461D01*
X141735919Y-65894842D01*
X141618113Y-65834816D01*
X141396793Y-65762904D01*
X141166958Y-65726502D01*
X141166953Y-65726502D01*
X140934247Y-65726502D01*
X140934242Y-65726502D01*
X140704406Y-65762904D01*
X140483086Y-65834816D01*
X140275745Y-65940463D01*
X140087493Y-66077235D01*
X140087488Y-66077239D01*
X139922937Y-66241790D01*
X139922933Y-66241795D01*
X139786161Y-66430047D01*
X139680514Y-66637388D01*
X139608602Y-66858708D01*
X139572200Y-67088543D01*
X135437778Y-67088543D01*
X131897590Y-63548355D01*
X131897588Y-63548352D01*
X131778717Y-63429481D01*
X131778709Y-63429475D01*
X131677627Y-63371116D01*
X131677625Y-63371115D01*
X131641790Y-63350425D01*
X131641789Y-63350424D01*
X131629263Y-63347067D01*
X131489057Y-63309499D01*
X131330943Y-63309499D01*
X131323347Y-63309499D01*
X131323331Y-63309500D01*
X122274499Y-63309500D01*
X122207460Y-63289815D01*
X122161705Y-63237011D01*
X122150499Y-63185500D01*
X122150499Y-63012129D01*
X122150498Y-63012123D01*
X122144091Y-62952517D01*
X122141918Y-62946693D01*
X122134578Y-62927009D01*
X122120231Y-62888543D01*
X139572200Y-62888543D01*
X139572200Y-63121260D01*
X139608602Y-63351095D01*
X139680514Y-63572415D01*
X139786161Y-63779756D01*
X139922933Y-63968008D01*
X139922937Y-63968013D01*
X140087488Y-64132564D01*
X140087493Y-64132568D01*
X140231471Y-64237173D01*
X140275749Y-64269343D01*
X140407866Y-64336660D01*
X140483086Y-64374987D01*
X140483088Y-64374987D01*
X140483091Y-64374989D01*
X140601722Y-64413534D01*
X140704406Y-64446899D01*
X140934242Y-64483302D01*
X140934247Y-64483302D01*
X141166958Y-64483302D01*
X141396793Y-64446899D01*
X141618109Y-64374989D01*
X141825451Y-64269343D01*
X142013713Y-64132563D01*
X142178261Y-63968015D01*
X142315041Y-63779753D01*
X142420687Y-63572411D01*
X142492597Y-63351095D01*
X142518825Y-63185500D01*
X142529000Y-63121260D01*
X142529000Y-62888543D01*
X145072199Y-62888543D01*
X145072199Y-63121260D01*
X145108601Y-63351095D01*
X145180513Y-63572415D01*
X145286160Y-63779756D01*
X145422932Y-63968008D01*
X145422936Y-63968013D01*
X145587487Y-64132564D01*
X145587492Y-64132568D01*
X145731470Y-64237173D01*
X145775748Y-64269343D01*
X145907865Y-64336660D01*
X145983085Y-64374987D01*
X145983087Y-64374987D01*
X145983090Y-64374989D01*
X146101721Y-64413534D01*
X146204405Y-64446899D01*
X146434241Y-64483302D01*
X146434246Y-64483302D01*
X146666957Y-64483302D01*
X146896792Y-64446899D01*
X147118108Y-64374989D01*
X147325450Y-64269343D01*
X147513712Y-64132563D01*
X147678260Y-63968015D01*
X147815040Y-63779753D01*
X147920686Y-63572411D01*
X147992596Y-63351095D01*
X148018824Y-63185500D01*
X148028999Y-63121260D01*
X148028999Y-62888543D01*
X147992596Y-62658708D01*
X147928789Y-62462331D01*
X147920686Y-62437393D01*
X147920684Y-62437390D01*
X147920684Y-62437388D01*
X147873802Y-62345378D01*
X147815040Y-62230051D01*
X147797565Y-62205999D01*
X147678265Y-62041795D01*
X147678261Y-62041790D01*
X147513710Y-61877239D01*
X147513705Y-61877235D01*
X147325453Y-61740463D01*
X147325452Y-61740462D01*
X147325450Y-61740461D01*
X147260700Y-61707469D01*
X147118112Y-61634816D01*
X146896792Y-61562904D01*
X146666957Y-61526502D01*
X146666952Y-61526502D01*
X146434246Y-61526502D01*
X146434241Y-61526502D01*
X146204405Y-61562904D01*
X145983085Y-61634816D01*
X145775744Y-61740463D01*
X145587492Y-61877235D01*
X145587487Y-61877239D01*
X145422936Y-62041790D01*
X145422932Y-62041795D01*
X145286160Y-62230047D01*
X145180513Y-62437388D01*
X145108601Y-62658708D01*
X145072199Y-62888543D01*
X142529000Y-62888543D01*
X142492597Y-62658708D01*
X142428790Y-62462331D01*
X142420687Y-62437393D01*
X142420685Y-62437390D01*
X142420685Y-62437388D01*
X142373803Y-62345378D01*
X142315041Y-62230051D01*
X142297566Y-62205999D01*
X142178266Y-62041795D01*
X142178262Y-62041790D01*
X142013711Y-61877239D01*
X142013706Y-61877235D01*
X141825454Y-61740463D01*
X141825453Y-61740462D01*
X141825451Y-61740461D01*
X141760701Y-61707469D01*
X141618113Y-61634816D01*
X141396793Y-61562904D01*
X141166958Y-61526502D01*
X141166953Y-61526502D01*
X140934247Y-61526502D01*
X140934242Y-61526502D01*
X140704406Y-61562904D01*
X140483086Y-61634816D01*
X140275745Y-61740463D01*
X140087493Y-61877235D01*
X140087488Y-61877239D01*
X139922937Y-62041790D01*
X139922933Y-62041795D01*
X139786161Y-62230047D01*
X139680514Y-62437388D01*
X139608602Y-62658708D01*
X139572200Y-62888543D01*
X122120231Y-62888543D01*
X122093797Y-62817671D01*
X122093795Y-62817668D01*
X122074911Y-62792442D01*
X122016421Y-62714309D01*
X121992004Y-62648848D01*
X122006855Y-62580575D01*
X122016416Y-62565696D01*
X122093796Y-62462331D01*
X122144091Y-62327483D01*
X122150500Y-62267873D01*
X122150499Y-60472128D01*
X122144091Y-60412517D01*
X122093796Y-60277669D01*
X122093795Y-60277668D01*
X122093793Y-60277664D01*
X122007547Y-60162455D01*
X122007544Y-60162452D01*
X121892335Y-60076206D01*
X121892328Y-60076202D01*
X121757482Y-60025908D01*
X121757483Y-60025908D01*
X121697883Y-60019501D01*
X121697881Y-60019500D01*
X121697873Y-60019500D01*
X119106291Y-60019500D01*
X119106287Y-60019500D01*
X118893713Y-60019500D01*
X118893708Y-60019500D01*
X118102129Y-60019500D01*
X118102123Y-60019501D01*
X118042516Y-60025908D01*
X117907671Y-60076202D01*
X117907664Y-60076206D01*
X117792455Y-60162452D01*
X117792452Y-60162455D01*
X117706206Y-60277664D01*
X117706202Y-60277671D01*
X117655908Y-60412517D01*
X117652783Y-60441588D01*
X117649501Y-60472123D01*
X117649500Y-60472135D01*
X117649500Y-62267870D01*
X117649501Y-62267876D01*
X117655908Y-62327483D01*
X117706202Y-62462328D01*
X117706203Y-62462330D01*
X117783578Y-62565689D01*
X117807995Y-62631153D01*
X117793144Y-62699426D01*
X117783578Y-62714311D01*
X117706203Y-62817669D01*
X117706202Y-62817671D01*
X117655908Y-62952517D01*
X117649501Y-63012116D01*
X117649501Y-63012123D01*
X117649500Y-63012135D01*
X117649500Y-64807870D01*
X117649501Y-64807876D01*
X117655908Y-64867483D01*
X117706202Y-65002328D01*
X117706203Y-65002330D01*
X117783578Y-65105689D01*
X117807995Y-65171153D01*
X117793144Y-65239426D01*
X117783578Y-65254311D01*
X117706203Y-65357669D01*
X117706202Y-65357671D01*
X117655908Y-65492517D01*
X117649501Y-65552116D01*
X117649501Y-65552123D01*
X117649500Y-65552135D01*
X117649500Y-67347870D01*
X117649501Y-67347876D01*
X117655908Y-67407483D01*
X117706202Y-67542328D01*
X117706203Y-67542330D01*
X117783578Y-67645689D01*
X117807995Y-67711153D01*
X117793144Y-67779426D01*
X117783578Y-67794311D01*
X117706203Y-67897669D01*
X117706202Y-67897671D01*
X117655908Y-68032517D01*
X117649501Y-68092116D01*
X117649501Y-68092123D01*
X117649500Y-68092135D01*
X117649500Y-69887870D01*
X117649501Y-69887876D01*
X117655908Y-69947483D01*
X117706202Y-70082328D01*
X117706203Y-70082330D01*
X117783578Y-70185689D01*
X117807995Y-70251153D01*
X117793144Y-70319426D01*
X117783578Y-70334311D01*
X117706203Y-70437669D01*
X117706202Y-70437671D01*
X117655908Y-70572517D01*
X117649893Y-70628469D01*
X117649501Y-70632123D01*
X117649500Y-70632135D01*
X117649500Y-72427870D01*
X117649501Y-72427876D01*
X117655908Y-72487483D01*
X117706202Y-72622328D01*
X117706203Y-72622330D01*
X117745154Y-72674362D01*
X117774321Y-72713324D01*
X117783578Y-72725689D01*
X117807995Y-72791153D01*
X117793144Y-72859426D01*
X117783578Y-72874309D01*
X117777222Y-72882801D01*
X117706203Y-72977669D01*
X117706202Y-72977671D01*
X117655908Y-73112517D01*
X117651855Y-73150223D01*
X117649501Y-73172123D01*
X117649500Y-73172135D01*
X117649500Y-74967870D01*
X117649501Y-74967876D01*
X117655908Y-75027483D01*
X117706202Y-75162328D01*
X117706203Y-75162330D01*
X117783578Y-75265689D01*
X117807995Y-75331153D01*
X117793144Y-75399426D01*
X117783578Y-75414311D01*
X117706203Y-75517669D01*
X117706202Y-75517671D01*
X117655908Y-75652517D01*
X117649501Y-75712116D01*
X117649501Y-75712123D01*
X117649500Y-75712135D01*
X117649500Y-77507870D01*
X117649501Y-77507876D01*
X117655908Y-77567483D01*
X117706202Y-77702328D01*
X117706203Y-77702330D01*
X117783578Y-77805689D01*
X117807995Y-77871153D01*
X117793144Y-77939426D01*
X117783578Y-77954311D01*
X117706203Y-78057669D01*
X117706202Y-78057671D01*
X117655908Y-78192517D01*
X117649501Y-78252116D01*
X117649501Y-78252123D01*
X117649500Y-78252135D01*
X117649500Y-80047870D01*
X117649501Y-80047876D01*
X117655908Y-80107483D01*
X117706202Y-80242328D01*
X117706203Y-80242330D01*
X117783578Y-80345689D01*
X117807995Y-80411153D01*
X117793144Y-80479426D01*
X117783578Y-80494311D01*
X117706203Y-80597669D01*
X117706202Y-80597671D01*
X117655908Y-80732517D01*
X117650128Y-80786286D01*
X117649501Y-80792123D01*
X117649500Y-80792135D01*
X117649500Y-82587870D01*
X117649501Y-82587876D01*
X117655908Y-82647483D01*
X117706202Y-82782328D01*
X117706203Y-82782330D01*
X117734329Y-82819901D01*
X117777251Y-82877238D01*
X117783578Y-82885689D01*
X117807995Y-82951153D01*
X117793144Y-83019426D01*
X117783578Y-83034311D01*
X117706203Y-83137669D01*
X117706202Y-83137671D01*
X117655908Y-83272517D01*
X117652006Y-83308818D01*
X117649501Y-83332123D01*
X117649500Y-83332135D01*
X117649500Y-85127870D01*
X117649501Y-85127876D01*
X117655908Y-85187483D01*
X117706202Y-85322328D01*
X117706203Y-85322330D01*
X117754014Y-85386197D01*
X117783495Y-85425579D01*
X117783578Y-85425689D01*
X117807995Y-85491153D01*
X117793144Y-85559426D01*
X117783578Y-85574311D01*
X117706203Y-85677669D01*
X117706202Y-85677671D01*
X117655908Y-85812517D01*
X117651976Y-85849096D01*
X117649501Y-85872123D01*
X117649500Y-85872135D01*
X117649500Y-87667870D01*
X117649501Y-87667876D01*
X117655908Y-87727483D01*
X117706202Y-87862328D01*
X117706203Y-87862330D01*
X117783578Y-87965689D01*
X117807995Y-88031153D01*
X117793144Y-88099426D01*
X117783578Y-88114311D01*
X117706203Y-88217669D01*
X117706202Y-88217671D01*
X117655908Y-88352517D01*
X117650128Y-88406286D01*
X117649501Y-88412123D01*
X117649500Y-88412135D01*
X117649500Y-90207870D01*
X117649501Y-90207876D01*
X117655908Y-90267483D01*
X117706202Y-90402328D01*
X117706203Y-90402330D01*
X117783578Y-90505689D01*
X117807995Y-90571153D01*
X117793144Y-90639426D01*
X117783578Y-90654311D01*
X117706203Y-90757669D01*
X117706202Y-90757671D01*
X117655908Y-90892517D01*
X117650128Y-90946286D01*
X117649501Y-90952123D01*
X117649500Y-90952135D01*
X117649500Y-92747870D01*
X117649501Y-92747876D01*
X117655908Y-92807483D01*
X117706202Y-92942328D01*
X117706203Y-92942330D01*
X117783578Y-93045689D01*
X117807995Y-93111153D01*
X117793144Y-93179426D01*
X117783578Y-93194311D01*
X117706203Y-93297669D01*
X117706202Y-93297671D01*
X117655908Y-93432517D01*
X117650128Y-93486287D01*
X117649501Y-93492123D01*
X117649500Y-93492135D01*
X117649500Y-95287870D01*
X117649501Y-95287876D01*
X117655908Y-95347483D01*
X117706202Y-95482328D01*
X117706203Y-95482330D01*
X117783578Y-95585689D01*
X117807995Y-95651153D01*
X117793144Y-95719426D01*
X117783578Y-95734311D01*
X117706203Y-95837669D01*
X117706202Y-95837671D01*
X117655908Y-95972517D01*
X117650925Y-96018871D01*
X117649501Y-96032123D01*
X117649500Y-96032135D01*
X117649500Y-97827870D01*
X117649501Y-97827876D01*
X117655908Y-97887483D01*
X117706202Y-98022328D01*
X117706203Y-98022330D01*
X117783578Y-98125689D01*
X117807995Y-98191153D01*
X117793144Y-98259426D01*
X117783578Y-98274311D01*
X117706203Y-98377669D01*
X117706202Y-98377671D01*
X117655908Y-98512517D01*
X117650128Y-98566286D01*
X117649501Y-98572123D01*
X117649500Y-98572135D01*
X117649500Y-100367870D01*
X117649501Y-100367876D01*
X117655908Y-100427483D01*
X117706202Y-100562328D01*
X117706203Y-100562330D01*
X117783578Y-100665689D01*
X117807995Y-100731153D01*
X117793144Y-100799426D01*
X117783578Y-100814311D01*
X117706203Y-100917669D01*
X117706202Y-100917671D01*
X117655908Y-101052517D01*
X117650499Y-101102834D01*
X117649501Y-101112123D01*
X117649500Y-101112135D01*
X117649500Y-102907870D01*
X117649501Y-102907876D01*
X117655908Y-102967483D01*
X117706202Y-103102328D01*
X117706203Y-103102330D01*
X117783578Y-103205689D01*
X117807995Y-103271153D01*
X117793144Y-103339426D01*
X117783578Y-103354311D01*
X117706203Y-103457669D01*
X117706202Y-103457671D01*
X117655908Y-103592517D01*
X117651004Y-103638138D01*
X117649501Y-103652123D01*
X117649500Y-103652135D01*
X117649500Y-105447870D01*
X117649501Y-105447876D01*
X117655908Y-105507483D01*
X117706202Y-105642328D01*
X117706203Y-105642330D01*
X117783578Y-105745689D01*
X117807995Y-105811153D01*
X117793144Y-105879426D01*
X117783578Y-105894311D01*
X117706203Y-105997669D01*
X117706202Y-105997671D01*
X117655908Y-106132517D01*
X117649501Y-106192116D01*
X117649501Y-106192123D01*
X117649500Y-106192135D01*
X117649500Y-107987870D01*
X117649501Y-107987876D01*
X117655908Y-108047483D01*
X117706202Y-108182328D01*
X117706203Y-108182330D01*
X117783578Y-108285689D01*
X117807995Y-108351153D01*
X117793144Y-108419426D01*
X117783578Y-108434311D01*
X117706203Y-108537669D01*
X117706202Y-108537671D01*
X117655908Y-108672517D01*
X117649501Y-108732116D01*
X117649501Y-108732123D01*
X117649500Y-108732135D01*
X117649500Y-110079902D01*
X117629815Y-110146941D01*
X117613181Y-110167583D01*
X116067584Y-111713181D01*
X116006261Y-111746666D01*
X115979903Y-111749500D01*
X114124500Y-111749500D01*
X114057461Y-111729815D01*
X114011706Y-111677011D01*
X114000500Y-111625500D01*
X114000499Y-109513899D01*
X114000499Y-109506291D01*
X114000500Y-109506287D01*
X114000500Y-109293713D01*
X114000499Y-109293708D01*
X114000499Y-108502128D01*
X113994091Y-108442517D01*
X113991030Y-108434311D01*
X113943797Y-108307671D01*
X113943793Y-108307664D01*
X113857547Y-108192455D01*
X113857544Y-108192452D01*
X113742335Y-108106206D01*
X113742328Y-108106202D01*
X113607482Y-108055908D01*
X113607483Y-108055908D01*
X113547883Y-108049501D01*
X113547881Y-108049500D01*
X113547873Y-108049500D01*
X112756289Y-108049500D01*
X112756287Y-108049500D01*
X112543713Y-108049500D01*
X112543709Y-108049500D01*
X111752129Y-108049500D01*
X111752123Y-108049501D01*
X111692516Y-108055908D01*
X111557671Y-108106202D01*
X111557669Y-108106203D01*
X111454311Y-108183578D01*
X111388847Y-108207995D01*
X111320574Y-108193144D01*
X111305689Y-108183578D01*
X111202330Y-108106203D01*
X111202328Y-108106202D01*
X111067482Y-108055908D01*
X111067483Y-108055908D01*
X111007883Y-108049501D01*
X111007881Y-108049500D01*
X111007873Y-108049500D01*
X111007864Y-108049500D01*
X109212129Y-108049500D01*
X109212123Y-108049501D01*
X109152516Y-108055908D01*
X109017671Y-108106202D01*
X109017669Y-108106203D01*
X108914311Y-108183578D01*
X108848847Y-108207995D01*
X108780574Y-108193144D01*
X108765689Y-108183578D01*
X108662330Y-108106203D01*
X108662328Y-108106202D01*
X108527482Y-108055908D01*
X108527483Y-108055908D01*
X108467883Y-108049501D01*
X108467881Y-108049500D01*
X108467873Y-108049500D01*
X107676289Y-108049500D01*
X107676287Y-108049500D01*
X107463713Y-108049500D01*
X107463709Y-108049500D01*
X106672129Y-108049500D01*
X106672123Y-108049501D01*
X106612516Y-108055908D01*
X106477671Y-108106202D01*
X106477664Y-108106206D01*
X106362455Y-108192452D01*
X106362452Y-108192455D01*
X106276206Y-108307664D01*
X106276202Y-108307671D01*
X106225908Y-108442517D01*
X106219501Y-108502116D01*
X106219500Y-108502127D01*
X106219500Y-110079902D01*
X106219501Y-111625500D01*
X106199816Y-111692539D01*
X106147012Y-111738294D01*
X106095501Y-111749500D01*
X105145943Y-111749500D01*
X104993214Y-111790423D01*
X104983201Y-111796205D01*
X104983199Y-111796206D01*
X104856287Y-111869477D01*
X104856282Y-111869481D01*
X104744478Y-111981286D01*
X100887582Y-115838181D01*
X100826259Y-115871666D01*
X100799901Y-115874500D01*
X99452129Y-115874500D01*
X99452123Y-115874501D01*
X99392516Y-115880908D01*
X99257671Y-115931202D01*
X99257664Y-115931206D01*
X99142455Y-116017452D01*
X99142452Y-116017455D01*
X99056206Y-116132664D01*
X99056202Y-116132671D01*
X99005908Y-116267517D01*
X98999501Y-116327116D01*
X98999500Y-116327135D01*
X97000499Y-116327135D01*
X97000499Y-116327128D01*
X96994091Y-116267517D01*
X96978239Y-116225016D01*
X96943797Y-116132671D01*
X96943793Y-116132664D01*
X96857547Y-116017455D01*
X96857544Y-116017452D01*
X96742335Y-115931206D01*
X96742328Y-115931202D01*
X96607482Y-115880908D01*
X96607483Y-115880908D01*
X96547883Y-115874501D01*
X96547881Y-115874500D01*
X96547873Y-115874500D01*
X96547865Y-115874500D01*
X96374500Y-115874500D01*
X96307461Y-115854815D01*
X96261706Y-115802011D01*
X96250500Y-115750500D01*
X96250500Y-115500097D01*
X96270185Y-115433058D01*
X96286819Y-115412416D01*
X100682417Y-111016818D01*
X100743740Y-110983333D01*
X100770098Y-110980499D01*
X101113708Y-110980499D01*
X101113713Y-110980500D01*
X101326287Y-110980500D01*
X101326291Y-110980499D01*
X102117872Y-110980499D01*
X102177483Y-110974091D01*
X102312331Y-110923796D01*
X102427546Y-110837546D01*
X102513796Y-110722331D01*
X102564091Y-110587483D01*
X102570500Y-110527873D01*
X102570500Y-109674900D01*
X102570500Y-109523713D01*
X102570500Y-109516118D01*
X102570499Y-109516100D01*
X102570499Y-108732129D01*
X102570498Y-108732123D01*
X102570497Y-108732116D01*
X102564091Y-108672517D01*
X102552934Y-108642604D01*
X102513797Y-108537671D01*
X102513795Y-108537668D01*
X102436421Y-108434309D01*
X102412004Y-108368848D01*
X102426855Y-108300575D01*
X102436416Y-108285696D01*
X102513796Y-108182331D01*
X102564091Y-108047483D01*
X102570500Y-107987873D01*
X102570500Y-107169057D01*
X102570500Y-106983713D01*
X102570500Y-106976118D01*
X102570499Y-106976100D01*
X102570499Y-106192129D01*
X102570498Y-106192123D01*
X102570497Y-106192116D01*
X102564091Y-106132517D01*
X102513796Y-105997669D01*
X102436421Y-105894309D01*
X102412004Y-105828848D01*
X102426855Y-105760575D01*
X102436416Y-105745696D01*
X102513796Y-105642331D01*
X102564091Y-105507483D01*
X102570500Y-105447873D01*
X102570499Y-103652128D01*
X102564091Y-103592517D01*
X102557792Y-103575629D01*
X102513797Y-103457671D01*
X102513795Y-103457668D01*
X102436421Y-103354309D01*
X102412004Y-103288848D01*
X102426855Y-103220575D01*
X102436416Y-103205696D01*
X102513796Y-103102331D01*
X102564091Y-102967483D01*
X102570500Y-102907873D01*
X102570500Y-102029296D01*
X102570500Y-101903713D01*
X102570500Y-101896118D01*
X102570499Y-101896100D01*
X102570499Y-101112129D01*
X102570498Y-101112123D01*
X102570497Y-101112116D01*
X102564091Y-101052517D01*
X102515131Y-100921249D01*
X102513797Y-100917671D01*
X102513795Y-100917668D01*
X102436421Y-100814309D01*
X102412004Y-100748848D01*
X102426855Y-100680575D01*
X102436416Y-100665696D01*
X102513796Y-100562331D01*
X102564091Y-100427483D01*
X102570500Y-100367873D01*
X102570500Y-99490104D01*
X102570500Y-99363713D01*
X102570500Y-99356118D01*
X102570499Y-99356100D01*
X102570499Y-98572129D01*
X102570498Y-98572123D01*
X102570497Y-98572116D01*
X102564091Y-98512517D01*
X102513796Y-98377669D01*
X102436421Y-98274309D01*
X102412004Y-98208848D01*
X102426855Y-98140575D01*
X102436416Y-98125696D01*
X102513796Y-98022331D01*
X102564091Y-97887483D01*
X102570500Y-97827873D01*
X102570500Y-96950104D01*
X102570500Y-96823713D01*
X102570500Y-96816118D01*
X102570499Y-96816100D01*
X102570499Y-96032129D01*
X102570498Y-96032123D01*
X102570497Y-96032116D01*
X102564091Y-95972517D01*
X102513796Y-95837669D01*
X102436421Y-95734309D01*
X102412004Y-95668848D01*
X102426855Y-95600575D01*
X102436416Y-95585696D01*
X102513796Y-95482331D01*
X102564091Y-95347483D01*
X102570500Y-95287873D01*
X102570500Y-94410104D01*
X102570500Y-94283713D01*
X102570500Y-94276118D01*
X102570499Y-94276100D01*
X102570499Y-93492129D01*
X102570498Y-93492123D01*
X102570497Y-93492116D01*
X102564091Y-93432517D01*
X102540666Y-93369712D01*
X102513797Y-93297671D01*
X102513795Y-93297668D01*
X102498343Y-93277027D01*
X102436421Y-93194309D01*
X102412004Y-93128848D01*
X102426855Y-93060575D01*
X102436416Y-93045696D01*
X102513796Y-92942331D01*
X102564091Y-92807483D01*
X102570500Y-92747873D01*
X102570499Y-90952128D01*
X102564091Y-90892517D01*
X102517093Y-90766510D01*
X102513797Y-90757671D01*
X102513795Y-90757668D01*
X102436421Y-90654309D01*
X102412004Y-90588848D01*
X102426855Y-90520575D01*
X102436416Y-90505696D01*
X102513796Y-90402331D01*
X102564091Y-90267483D01*
X102570500Y-90207873D01*
X102570500Y-89330104D01*
X102570500Y-89203713D01*
X102570500Y-89196118D01*
X102570499Y-89196100D01*
X102570499Y-88412129D01*
X102570498Y-88412123D01*
X102570497Y-88412116D01*
X102564091Y-88352517D01*
X102552414Y-88321210D01*
X102513797Y-88217671D01*
X102513795Y-88217668D01*
X102504236Y-88204899D01*
X102436421Y-88114309D01*
X102412004Y-88048848D01*
X102426855Y-87980575D01*
X102436416Y-87965696D01*
X102513796Y-87862331D01*
X102564091Y-87727483D01*
X102570500Y-87667873D01*
X102570500Y-86787283D01*
X102570500Y-86663713D01*
X102570500Y-86656118D01*
X102570499Y-86656100D01*
X102570499Y-85872129D01*
X102570498Y-85872123D01*
X102570497Y-85872116D01*
X102564091Y-85812517D01*
X102552730Y-85782057D01*
X102513797Y-85677671D01*
X102513795Y-85677668D01*
X102436421Y-85574309D01*
X102412004Y-85508848D01*
X102426855Y-85440575D01*
X102436416Y-85425696D01*
X102513796Y-85322331D01*
X102564091Y-85187483D01*
X102570500Y-85127873D01*
X102570500Y-84236683D01*
X102570500Y-84123713D01*
X102570500Y-84116118D01*
X102570499Y-84116100D01*
X102570499Y-83332129D01*
X102570498Y-83332123D01*
X102570497Y-83332116D01*
X102564091Y-83272517D01*
X102548350Y-83230314D01*
X102513797Y-83137671D01*
X102513795Y-83137668D01*
X102436421Y-83034309D01*
X102412004Y-82968848D01*
X102426855Y-82900575D01*
X102436416Y-82885696D01*
X102513796Y-82782331D01*
X102564091Y-82647483D01*
X102570500Y-82587873D01*
X102570500Y-81696520D01*
X102570500Y-81583713D01*
X102570500Y-81576118D01*
X102570499Y-81576100D01*
X102570499Y-80792129D01*
X102570498Y-80792123D01*
X102570497Y-80792116D01*
X102564091Y-80732517D01*
X102536366Y-80658183D01*
X102513797Y-80597671D01*
X102513795Y-80597668D01*
X102500188Y-80579491D01*
X102436421Y-80494309D01*
X102412004Y-80428848D01*
X102426855Y-80360575D01*
X102436416Y-80345696D01*
X102513796Y-80242331D01*
X102564091Y-80107483D01*
X102570500Y-80047873D01*
X102570499Y-78252128D01*
X102564091Y-78192517D01*
X102562553Y-78188394D01*
X102513797Y-78057671D01*
X102513795Y-78057668D01*
X102506151Y-78047457D01*
X102436421Y-77954309D01*
X102412004Y-77888848D01*
X102426855Y-77820575D01*
X102436416Y-77805696D01*
X102513796Y-77702331D01*
X102564091Y-77567483D01*
X102570500Y-77507873D01*
X102570500Y-76624501D01*
X102570500Y-76503713D01*
X102570500Y-76496118D01*
X102570499Y-76496100D01*
X102570499Y-75712129D01*
X102570498Y-75712123D01*
X102570497Y-75712116D01*
X102564091Y-75652517D01*
X102559422Y-75640000D01*
X102513797Y-75517671D01*
X102513795Y-75517668D01*
X102491995Y-75488547D01*
X102436421Y-75414309D01*
X102412004Y-75348848D01*
X102426855Y-75280575D01*
X102436416Y-75265696D01*
X102513796Y-75162331D01*
X102564091Y-75027483D01*
X102570500Y-74967873D01*
X102570500Y-74074035D01*
X102570500Y-73963713D01*
X102570500Y-73956118D01*
X102570499Y-73956100D01*
X102570499Y-73172129D01*
X102570498Y-73172123D01*
X102570497Y-73172116D01*
X102564091Y-73112517D01*
X102529573Y-73019970D01*
X102513797Y-72977671D01*
X102513795Y-72977668D01*
X102436421Y-72874309D01*
X102412004Y-72808848D01*
X102426855Y-72740575D01*
X102436416Y-72725696D01*
X102513796Y-72622331D01*
X102564091Y-72487483D01*
X102570500Y-72427873D01*
X102570500Y-71534035D01*
X102570500Y-71423713D01*
X102570500Y-71416120D01*
X102570499Y-71416098D01*
X102570499Y-70632129D01*
X102570498Y-70632123D01*
X102570497Y-70632116D01*
X102564091Y-70572517D01*
X102562289Y-70567686D01*
X102513797Y-70437671D01*
X102513795Y-70437668D01*
X102509891Y-70432453D01*
X102436421Y-70334309D01*
X102412004Y-70268848D01*
X102426855Y-70200575D01*
X102436416Y-70185696D01*
X102513796Y-70082331D01*
X102564091Y-69947483D01*
X102570500Y-69887873D01*
X102570500Y-68994168D01*
X102570500Y-68883713D01*
X102570500Y-68876118D01*
X102570499Y-68876100D01*
X102570499Y-68092129D01*
X102570498Y-68092123D01*
X102570497Y-68092116D01*
X102564091Y-68032517D01*
X102544412Y-67979756D01*
X102513797Y-67897671D01*
X102513795Y-67897668D01*
X102436109Y-67793893D01*
X102411692Y-67728430D01*
X102426543Y-67660157D01*
X102436110Y-67645271D01*
X102513352Y-67542089D01*
X102513354Y-67542086D01*
X102563596Y-67407379D01*
X102563598Y-67407372D01*
X102569999Y-67347844D01*
X102570000Y-67347827D01*
X102570000Y-66700000D01*
X101664560Y-66700000D01*
X101695245Y-66646853D01*
X101730000Y-66517143D01*
X101730000Y-66382857D01*
X101695245Y-66253147D01*
X101664560Y-66200000D01*
X102570000Y-66200000D01*
X102570000Y-65552172D01*
X102569999Y-65552155D01*
X102563598Y-65492627D01*
X102563596Y-65492620D01*
X102513354Y-65357913D01*
X102513352Y-65357910D01*
X102436110Y-65254729D01*
X102411692Y-65189265D01*
X102426543Y-65120992D01*
X102436105Y-65106111D01*
X102513796Y-65002331D01*
X102564091Y-64867483D01*
X102570500Y-64807873D01*
X102570500Y-64431577D01*
X106434500Y-64431577D01*
X106434500Y-64628422D01*
X106465290Y-64822826D01*
X106526117Y-65010029D01*
X106601726Y-65158419D01*
X106615476Y-65185405D01*
X106731172Y-65344646D01*
X106870354Y-65483828D01*
X107029595Y-65599524D01*
X107112455Y-65641743D01*
X107204970Y-65688882D01*
X107204972Y-65688882D01*
X107204975Y-65688884D01*
X107305317Y-65721487D01*
X107392173Y-65749709D01*
X107586578Y-65780500D01*
X107586583Y-65780500D01*
X107783422Y-65780500D01*
X107977826Y-65749709D01*
X108049249Y-65726502D01*
X108165025Y-65688884D01*
X108340405Y-65599524D01*
X108499646Y-65483828D01*
X108638828Y-65344646D01*
X108754524Y-65185405D01*
X108843884Y-65010025D01*
X108904709Y-64822826D01*
X108907077Y-64807873D01*
X108935500Y-64628422D01*
X108935500Y-64431577D01*
X111284500Y-64431577D01*
X111284500Y-64628422D01*
X111315290Y-64822826D01*
X111376117Y-65010029D01*
X111451726Y-65158419D01*
X111465476Y-65185405D01*
X111581172Y-65344646D01*
X111720354Y-65483828D01*
X111879595Y-65599524D01*
X111962455Y-65641743D01*
X112054970Y-65688882D01*
X112054972Y-65688882D01*
X112054975Y-65688884D01*
X112155317Y-65721487D01*
X112242173Y-65749709D01*
X112436578Y-65780500D01*
X112436583Y-65780500D01*
X112633422Y-65780500D01*
X112827826Y-65749709D01*
X112899249Y-65726502D01*
X113015025Y-65688884D01*
X113190405Y-65599524D01*
X113349646Y-65483828D01*
X113488828Y-65344646D01*
X113604524Y-65185405D01*
X113693884Y-65010025D01*
X113754709Y-64822826D01*
X113757077Y-64807873D01*
X113785500Y-64628422D01*
X113785500Y-64431577D01*
X113754709Y-64237173D01*
X113693882Y-64049970D01*
X113604523Y-63874594D01*
X113488828Y-63715354D01*
X113349646Y-63576172D01*
X113190405Y-63460476D01*
X113015029Y-63371117D01*
X112827826Y-63310290D01*
X112633422Y-63279500D01*
X112633417Y-63279500D01*
X112436583Y-63279500D01*
X112436578Y-63279500D01*
X112242173Y-63310290D01*
X112054970Y-63371117D01*
X111879594Y-63460476D01*
X111788741Y-63526485D01*
X111720354Y-63576172D01*
X111720352Y-63576174D01*
X111720351Y-63576174D01*
X111581174Y-63715351D01*
X111581174Y-63715352D01*
X111581172Y-63715354D01*
X111556000Y-63750000D01*
X111465476Y-63874594D01*
X111376117Y-64049970D01*
X111315290Y-64237173D01*
X111284500Y-64431577D01*
X108935500Y-64431577D01*
X108904709Y-64237173D01*
X108843882Y-64049970D01*
X108754523Y-63874594D01*
X108638828Y-63715354D01*
X108499646Y-63576172D01*
X108340405Y-63460476D01*
X108165029Y-63371117D01*
X107977826Y-63310290D01*
X107783422Y-63279500D01*
X107783417Y-63279500D01*
X107586583Y-63279500D01*
X107586578Y-63279500D01*
X107392173Y-63310290D01*
X107204970Y-63371117D01*
X107029594Y-63460476D01*
X106938741Y-63526485D01*
X106870354Y-63576172D01*
X106870352Y-63576174D01*
X106870351Y-63576174D01*
X106731174Y-63715351D01*
X106731174Y-63715352D01*
X106731172Y-63715354D01*
X106706000Y-63750000D01*
X106615476Y-63874594D01*
X106526117Y-64049970D01*
X106465290Y-64237173D01*
X106434500Y-64431577D01*
X102570500Y-64431577D01*
X102570500Y-63938822D01*
X102570500Y-63803713D01*
X102570500Y-63796118D01*
X102570499Y-63796100D01*
X102570499Y-63012129D01*
X102570498Y-63012123D01*
X102570497Y-63012116D01*
X102564091Y-62952517D01*
X102564090Y-62952515D01*
X102513797Y-62817671D01*
X102513795Y-62817668D01*
X102494911Y-62792442D01*
X102436421Y-62714309D01*
X102412004Y-62648848D01*
X102426855Y-62580575D01*
X102436416Y-62565696D01*
X102513796Y-62462331D01*
X102564091Y-62327483D01*
X102570500Y-62267873D01*
X102570500Y-61389778D01*
X105984500Y-61389778D01*
X105984500Y-61610221D01*
X106018985Y-61827952D01*
X106087103Y-62037603D01*
X106087104Y-62037606D01*
X106133668Y-62128991D01*
X106175738Y-62211557D01*
X106187187Y-62234025D01*
X106316752Y-62412358D01*
X106316756Y-62412363D01*
X106472636Y-62568243D01*
X106472641Y-62568247D01*
X106597153Y-62658709D01*
X106650978Y-62697815D01*
X106779375Y-62763237D01*
X106847393Y-62797895D01*
X106847396Y-62797896D01*
X106908250Y-62817668D01*
X107057049Y-62866015D01*
X107274778Y-62900500D01*
X107274779Y-62900500D01*
X107495221Y-62900500D01*
X107495222Y-62900500D01*
X107712951Y-62866015D01*
X107922606Y-62797895D01*
X108119022Y-62697815D01*
X108297365Y-62568242D01*
X108453242Y-62412365D01*
X108582815Y-62234022D01*
X108682895Y-62037606D01*
X108751015Y-61827951D01*
X108785500Y-61610222D01*
X108785500Y-61389778D01*
X111434500Y-61389778D01*
X111434500Y-61610221D01*
X111468985Y-61827952D01*
X111537103Y-62037603D01*
X111537104Y-62037606D01*
X111583668Y-62128991D01*
X111625738Y-62211557D01*
X111637187Y-62234025D01*
X111766752Y-62412358D01*
X111766756Y-62412363D01*
X111922636Y-62568243D01*
X111922641Y-62568247D01*
X112047153Y-62658709D01*
X112100978Y-62697815D01*
X112229375Y-62763237D01*
X112297393Y-62797895D01*
X112297396Y-62797896D01*
X112358250Y-62817668D01*
X112507049Y-62866015D01*
X112724778Y-62900500D01*
X112724779Y-62900500D01*
X112945221Y-62900500D01*
X112945222Y-62900500D01*
X113162951Y-62866015D01*
X113372606Y-62797895D01*
X113569022Y-62697815D01*
X113747365Y-62568242D01*
X113903242Y-62412365D01*
X114032815Y-62234022D01*
X114132895Y-62037606D01*
X114201015Y-61827951D01*
X114235500Y-61610222D01*
X114235500Y-61389778D01*
X114201015Y-61172049D01*
X114132895Y-60962394D01*
X114132895Y-60962393D01*
X114098237Y-60894375D01*
X114032815Y-60765978D01*
X113959378Y-60664900D01*
X113903247Y-60587641D01*
X113903243Y-60587636D01*
X113747363Y-60431756D01*
X113747358Y-60431752D01*
X113569025Y-60302187D01*
X113569024Y-60302186D01*
X113569022Y-60302185D01*
X113470881Y-60252179D01*
X113372606Y-60202104D01*
X113372603Y-60202103D01*
X113162952Y-60133985D01*
X113054086Y-60116742D01*
X112945222Y-60099500D01*
X112724778Y-60099500D01*
X112652201Y-60110995D01*
X112507047Y-60133985D01*
X112297396Y-60202103D01*
X112297393Y-60202104D01*
X112100974Y-60302187D01*
X111922641Y-60431752D01*
X111922636Y-60431756D01*
X111766756Y-60587636D01*
X111766752Y-60587641D01*
X111637187Y-60765974D01*
X111537104Y-60962393D01*
X111537103Y-60962396D01*
X111468985Y-61172047D01*
X111434500Y-61389778D01*
X108785500Y-61389778D01*
X108751015Y-61172049D01*
X108682895Y-60962394D01*
X108682895Y-60962393D01*
X108648237Y-60894375D01*
X108582815Y-60765978D01*
X108509378Y-60664900D01*
X108453247Y-60587641D01*
X108453243Y-60587636D01*
X108297363Y-60431756D01*
X108297358Y-60431752D01*
X108119025Y-60302187D01*
X108119024Y-60302186D01*
X108119022Y-60302185D01*
X108020881Y-60252179D01*
X107922606Y-60202104D01*
X107922603Y-60202103D01*
X107712952Y-60133985D01*
X107604086Y-60116742D01*
X107495222Y-60099500D01*
X107274778Y-60099500D01*
X107202201Y-60110995D01*
X107057047Y-60133985D01*
X106847396Y-60202103D01*
X106847393Y-60202104D01*
X106650974Y-60302187D01*
X106472641Y-60431752D01*
X106472636Y-60431756D01*
X106316756Y-60587636D01*
X106316752Y-60587641D01*
X106187187Y-60765974D01*
X106087104Y-60962393D01*
X106087103Y-60962396D01*
X106018985Y-61172047D01*
X105984500Y-61389778D01*
X102570500Y-61389778D01*
X102570500Y-61263713D01*
X102570499Y-61263709D01*
X102570499Y-60472128D01*
X102564091Y-60412517D01*
X102513796Y-60277669D01*
X102513795Y-60277668D01*
X102513793Y-60277664D01*
X102427547Y-60162455D01*
X102427544Y-60162452D01*
X102312335Y-60076206D01*
X102312328Y-60076202D01*
X102177482Y-60025908D01*
X102177483Y-60025908D01*
X102117883Y-60019501D01*
X102117881Y-60019500D01*
X102117873Y-60019500D01*
X101326288Y-60019500D01*
X101326287Y-60019500D01*
X101113713Y-60019500D01*
X101113711Y-60019500D01*
X98522129Y-60019500D01*
X98522123Y-60019501D01*
X98462516Y-60025908D01*
X98327671Y-60076202D01*
X98327664Y-60076206D01*
X98212455Y-60162452D01*
X98212452Y-60162455D01*
X98126206Y-60277664D01*
X98126202Y-60277671D01*
X98075908Y-60412517D01*
X98072783Y-60441588D01*
X98069501Y-60472123D01*
X98069500Y-60472135D01*
X98069500Y-60645500D01*
X98049815Y-60712539D01*
X97997011Y-60758294D01*
X97945500Y-60769500D01*
X94943068Y-60769500D01*
X94876029Y-60749815D01*
X94830274Y-60697011D01*
X94820595Y-60664900D01*
X94817246Y-60643758D01*
X94817246Y-60643757D01*
X94751557Y-60441588D01*
X94655051Y-60252184D01*
X94655049Y-60252181D01*
X94655048Y-60252179D01*
X94530109Y-60080213D01*
X94379786Y-59929890D01*
X94207820Y-59804951D01*
X94018414Y-59708444D01*
X94018413Y-59708443D01*
X94018412Y-59708443D01*
X93816243Y-59642754D01*
X93816241Y-59642753D01*
X93816240Y-59642753D01*
X93654957Y-59617208D01*
X93606287Y-59609500D01*
X93393713Y-59609500D01*
X93345042Y-59617208D01*
X93183760Y-59642753D01*
X92981585Y-59708444D01*
X92792179Y-59804951D01*
X92620213Y-59929890D01*
X92469890Y-60080213D01*
X92344951Y-60252179D01*
X92248444Y-60441585D01*
X92182753Y-60643760D01*
X92149500Y-60853713D01*
X92149500Y-61066286D01*
X92180768Y-61263709D01*
X92182754Y-61276243D01*
X92218061Y-61384907D01*
X92248444Y-61478414D01*
X92344951Y-61667820D01*
X92469890Y-61839786D01*
X92620213Y-61990109D01*
X92792179Y-62115048D01*
X92792181Y-62115049D01*
X92792184Y-62115051D01*
X92801493Y-62119794D01*
X92852290Y-62167766D01*
X92869087Y-62235587D01*
X92846552Y-62301722D01*
X92801502Y-62340762D01*
X92792443Y-62345378D01*
X92620540Y-62470272D01*
X92620535Y-62470276D01*
X92470276Y-62620535D01*
X92470272Y-62620540D01*
X92345379Y-62792442D01*
X92248904Y-62981782D01*
X92183242Y-63183870D01*
X92183242Y-63183873D01*
X92172769Y-63250000D01*
X93066988Y-63250000D01*
X93034075Y-63307007D01*
X93000000Y-63434174D01*
X93000000Y-63565826D01*
X93034075Y-63692993D01*
X93066988Y-63750000D01*
X92172769Y-63750000D01*
X92183242Y-63816126D01*
X92183242Y-63816129D01*
X92248904Y-64018217D01*
X92345379Y-64207557D01*
X92470272Y-64379459D01*
X92470276Y-64379464D01*
X92583946Y-64493134D01*
X92617431Y-64554457D01*
X92612447Y-64624149D01*
X92570575Y-64680082D01*
X92539598Y-64696997D01*
X92407671Y-64746202D01*
X92407664Y-64746206D01*
X92292455Y-64832452D01*
X92292452Y-64832455D01*
X92206206Y-64947664D01*
X92206202Y-64947671D01*
X92155908Y-65082517D01*
X92151817Y-65120575D01*
X92149501Y-65142123D01*
X92149500Y-65142135D01*
X92149500Y-66937870D01*
X92149501Y-66937876D01*
X92155908Y-66997483D01*
X92206202Y-67132328D01*
X92206206Y-67132335D01*
X92292452Y-67247544D01*
X92292455Y-67247547D01*
X92407664Y-67333793D01*
X92407671Y-67333797D01*
X92542517Y-67384091D01*
X92542516Y-67384091D01*
X92549444Y-67384835D01*
X92602127Y-67390500D01*
X94397872Y-67390499D01*
X94457483Y-67384091D01*
X94592331Y-67333796D01*
X94707546Y-67247546D01*
X94793796Y-67132331D01*
X94844091Y-66997483D01*
X94850500Y-66937873D01*
X94850500Y-66764500D01*
X94870185Y-66697461D01*
X94922989Y-66651706D01*
X94974500Y-66640500D01*
X96873331Y-66640500D01*
X96873347Y-66640501D01*
X96880943Y-66640501D01*
X97039054Y-66640501D01*
X97039057Y-66640501D01*
X97191785Y-66599577D01*
X97254831Y-66563177D01*
X97328716Y-66520520D01*
X97440520Y-66408716D01*
X97440520Y-66408714D01*
X97450724Y-66398511D01*
X97450728Y-66398506D01*
X97858319Y-65990915D01*
X97919642Y-65957430D01*
X97989334Y-65962414D01*
X98045267Y-66004286D01*
X98069684Y-66069750D01*
X98070000Y-66078596D01*
X98070000Y-66200000D01*
X100775440Y-66200000D01*
X100744755Y-66253147D01*
X100710000Y-66382857D01*
X100710000Y-66517143D01*
X100744755Y-66646853D01*
X100775440Y-66700000D01*
X98070000Y-66700000D01*
X98070000Y-67347844D01*
X98076401Y-67407372D01*
X98076403Y-67407379D01*
X98126645Y-67542086D01*
X98126646Y-67542088D01*
X98203890Y-67645272D01*
X98228307Y-67710736D01*
X98213456Y-67779009D01*
X98203890Y-67793894D01*
X98126204Y-67897669D01*
X98126202Y-67897671D01*
X98075908Y-68032517D01*
X98069501Y-68092116D01*
X98069501Y-68092123D01*
X98069500Y-68092135D01*
X98069500Y-68265500D01*
X98049815Y-68332539D01*
X97997011Y-68378294D01*
X97945500Y-68389500D01*
X93680942Y-68389500D01*
X93644918Y-68399152D01*
X93644919Y-68399153D01*
X93528216Y-68430423D01*
X93528211Y-68430426D01*
X93391292Y-68509475D01*
X93391288Y-68509478D01*
X93306056Y-68594710D01*
X93244732Y-68628194D01*
X93242566Y-68628645D01*
X93142556Y-68648538D01*
X93142548Y-68648540D01*
X93028716Y-68695691D01*
X92926264Y-68764146D01*
X92839144Y-68851266D01*
X92770689Y-68953718D01*
X92723540Y-69067546D01*
X92723536Y-69067558D01*
X92699501Y-69188391D01*
X92699501Y-69311612D01*
X92723536Y-69432444D01*
X92723539Y-69432456D01*
X92731862Y-69452549D01*
X92739331Y-69522019D01*
X92731862Y-69547453D01*
X92723539Y-69567545D01*
X92723536Y-69567557D01*
X92699501Y-69688389D01*
X92699501Y-69811610D01*
X92722454Y-69927001D01*
X92723538Y-69932451D01*
X92731221Y-69951000D01*
X92731864Y-69952552D01*
X92739330Y-70022022D01*
X92731863Y-70047450D01*
X92723539Y-70067550D01*
X92723538Y-70067552D01*
X92723536Y-70067559D01*
X92699501Y-70188391D01*
X92699501Y-70311612D01*
X92723536Y-70432445D01*
X92723538Y-70432453D01*
X92731443Y-70451536D01*
X92732133Y-70453202D01*
X92739601Y-70522672D01*
X92732133Y-70548104D01*
X92724022Y-70567686D01*
X92724017Y-70567702D01*
X92700001Y-70688439D01*
X92700001Y-70811562D01*
X92724017Y-70932298D01*
X92724019Y-70932306D01*
X92771131Y-71046046D01*
X92771136Y-71046055D01*
X92839531Y-71148414D01*
X92839534Y-71148418D01*
X92926582Y-71235466D01*
X92926586Y-71235469D01*
X93028945Y-71303864D01*
X93028954Y-71303869D01*
X93142694Y-71350981D01*
X93142702Y-71350983D01*
X93263438Y-71374999D01*
X93263442Y-71375000D01*
X93375500Y-71375000D01*
X93442539Y-71394685D01*
X93488294Y-71447489D01*
X93499500Y-71499000D01*
X93499500Y-72277422D01*
X93479815Y-72344461D01*
X93427011Y-72390216D01*
X93357853Y-72400160D01*
X93294297Y-72371135D01*
X93269962Y-72342520D01*
X93244945Y-72301962D01*
X93123038Y-72180055D01*
X93123034Y-72180052D01*
X92976311Y-72089551D01*
X92976300Y-72089546D01*
X92812652Y-72035319D01*
X92711654Y-72025000D01*
X92612500Y-72025000D01*
X92612500Y-72876000D01*
X92592815Y-72943039D01*
X92540011Y-72988794D01*
X92488500Y-73000000D01*
X92236500Y-73000000D01*
X92169461Y-72980315D01*
X92123706Y-72927511D01*
X92112500Y-72876000D01*
X92112500Y-72024999D01*
X92013360Y-72025000D01*
X92013344Y-72025001D01*
X91912347Y-72035319D01*
X91748699Y-72089546D01*
X91748688Y-72089551D01*
X91601965Y-72180052D01*
X91588032Y-72193985D01*
X91526708Y-72227468D01*
X91457016Y-72222482D01*
X91412672Y-72193982D01*
X91398351Y-72179661D01*
X91398350Y-72179660D01*
X91300840Y-72119515D01*
X91251518Y-72089093D01*
X91251513Y-72089091D01*
X91223052Y-72079660D01*
X91087753Y-72034826D01*
X91087750Y-72034825D01*
X91019953Y-72027899D01*
X90955261Y-72001502D01*
X90915110Y-71944321D01*
X90912247Y-71874510D01*
X90944874Y-71816861D01*
X90980520Y-71781216D01*
X91059577Y-71644284D01*
X91094879Y-71512534D01*
X91100500Y-71491558D01*
X91100500Y-71333443D01*
X91100500Y-71260453D01*
X91120185Y-71193414D01*
X91136815Y-71172775D01*
X91160857Y-71148734D01*
X91229310Y-71046286D01*
X91276462Y-70932452D01*
X91300499Y-70811607D01*
X91300499Y-70688395D01*
X91276462Y-70567550D01*
X91268137Y-70547453D01*
X91260668Y-70477988D01*
X91268136Y-70452550D01*
X91276462Y-70432453D01*
X91300499Y-70311608D01*
X91300499Y-70188396D01*
X91276462Y-70067551D01*
X91268137Y-70047455D01*
X91260668Y-69977988D01*
X91268136Y-69952549D01*
X91276462Y-69932451D01*
X91300499Y-69811606D01*
X91300499Y-69688394D01*
X91276462Y-69567549D01*
X91268137Y-69547453D01*
X91260669Y-69477985D01*
X91268138Y-69452548D01*
X91276462Y-69432453D01*
X91300499Y-69311608D01*
X91300499Y-69188396D01*
X91276462Y-69067551D01*
X91229310Y-68953717D01*
X91160857Y-68851269D01*
X91160855Y-68851266D01*
X91073735Y-68764146D01*
X91022509Y-68729918D01*
X90971285Y-68695692D01*
X90857451Y-68648540D01*
X90857443Y-68648538D01*
X90736610Y-68624503D01*
X90736606Y-68624503D01*
X90263394Y-68624503D01*
X90150799Y-68646899D01*
X90149688Y-68647120D01*
X90125498Y-68649502D01*
X88090099Y-68649502D01*
X88023060Y-68629817D01*
X88002418Y-68613183D01*
X85284077Y-65894842D01*
X85250592Y-65833519D01*
X85253830Y-65768835D01*
X85256187Y-65761584D01*
X85287900Y-65561360D01*
X85287900Y-65358640D01*
X85256187Y-65158416D01*
X85193543Y-64965618D01*
X85101510Y-64784994D01*
X85073326Y-64746202D01*
X84982360Y-64620995D01*
X84839004Y-64477639D01*
X84675009Y-64358492D01*
X84675008Y-64358491D01*
X84675006Y-64358490D01*
X84494382Y-64266457D01*
X84301584Y-64203813D01*
X84301582Y-64203812D01*
X84301580Y-64203812D01*
X84161782Y-64181670D01*
X84101360Y-64172100D01*
X83898640Y-64172100D01*
X83852224Y-64179451D01*
X83698419Y-64203812D01*
X83505615Y-64266458D01*
X83324990Y-64358492D01*
X83160995Y-64477639D01*
X83017639Y-64620995D01*
X82898492Y-64784990D01*
X82806458Y-64965615D01*
X82743812Y-65158419D01*
X82736625Y-65203796D01*
X82712100Y-65358640D01*
X82712100Y-65561360D01*
X82743813Y-65761584D01*
X82806457Y-65954382D01*
X82865240Y-66069750D01*
X82898492Y-66135009D01*
X83017639Y-66299004D01*
X83160995Y-66442360D01*
X83314456Y-66553854D01*
X83324994Y-66561510D01*
X83410194Y-66604921D01*
X83438834Y-66619515D01*
X83489630Y-66667490D01*
X83506425Y-66735311D01*
X83483887Y-66801446D01*
X83438834Y-66840485D01*
X83324990Y-66898492D01*
X83160995Y-67017639D01*
X83017639Y-67160995D01*
X82898492Y-67324990D01*
X82806458Y-67505615D01*
X82743812Y-67698419D01*
X82712100Y-67898640D01*
X82712100Y-68101359D01*
X82738097Y-68265500D01*
X82743813Y-68301584D01*
X82806457Y-68494382D01*
X82884281Y-68647120D01*
X82898492Y-68675009D01*
X83017639Y-68839004D01*
X83160995Y-68982360D01*
X83299851Y-69083243D01*
X83324994Y-69101510D01*
X83410194Y-69144921D01*
X83438834Y-69159515D01*
X83489630Y-69207490D01*
X83506425Y-69275311D01*
X83483887Y-69341446D01*
X83438834Y-69380485D01*
X83324990Y-69438492D01*
X83160995Y-69557639D01*
X83017639Y-69700995D01*
X82898492Y-69864990D01*
X82806458Y-70045615D01*
X82743812Y-70238419D01*
X82720308Y-70386819D01*
X82712100Y-70438640D01*
X82712100Y-70641360D01*
X82716189Y-70667174D01*
X82743812Y-70841580D01*
X82746174Y-70848851D01*
X82748164Y-70918693D01*
X82715921Y-70974842D01*
X82290036Y-71400728D01*
X82178231Y-71512532D01*
X82178225Y-71512540D01*
X82142801Y-71573898D01*
X82142801Y-71573900D01*
X82099173Y-71649464D01*
X82099173Y-71649465D01*
X82058249Y-71802193D01*
X82058249Y-71960307D01*
X82058249Y-71960309D01*
X82058250Y-71970303D01*
X82058250Y-81129330D01*
X82058249Y-81129348D01*
X82058249Y-81295054D01*
X82058248Y-81295054D01*
X79000500Y-81295054D01*
X79000500Y-56124500D01*
X79020185Y-56057461D01*
X79072989Y-56011706D01*
X79124500Y-56000500D01*
X155875500Y-56000500D01*
X155942539Y-56020185D01*
G37*
%TD.AperFunction*%
%TD*%
M02*
