%TF.GenerationSoftware,KiCad,Pcbnew,9.0.0-250-g02b756189b*%
%TF.CreationDate,2025-03-27T16:59:32-05:00*%
%TF.ProjectId,PicoPowerManagement,5069636f-506f-4776-9572-4d616e616765,rev?*%
%TF.SameCoordinates,Original*%
%TF.FileFunction,Paste,Top*%
%TF.FilePolarity,Positive*%
%FSLAX46Y46*%
G04 Gerber Fmt 4.6, Leading zero omitted, Abs format (unit mm)*
G04 Created by KiCad (PCBNEW 9.0.0-250-g02b756189b) date 2025-03-27 16:59:32*
%MOMM*%
%LPD*%
G01*
G04 APERTURE LIST*
G04 Aperture macros list*
%AMRoundRect*
0 Rectangle with rounded corners*
0 $1 Rounding radius*
0 $2 $3 $4 $5 $6 $7 $8 $9 X,Y pos of 4 corners*
0 Add a 4 corners polygon primitive as box body*
4,1,4,$2,$3,$4,$5,$6,$7,$8,$9,$2,$3,0*
0 Add four circle primitives for the rounded corners*
1,1,$1+$1,$2,$3*
1,1,$1+$1,$4,$5*
1,1,$1+$1,$6,$7*
1,1,$1+$1,$8,$9*
0 Add four rect primitives between the rounded corners*
20,1,$1+$1,$2,$3,$4,$5,0*
20,1,$1+$1,$4,$5,$6,$7,0*
20,1,$1+$1,$6,$7,$8,$9,0*
20,1,$1+$1,$8,$9,$2,$3,0*%
G04 Aperture macros list end*
%ADD10C,0.000000*%
%ADD11O,0.249999X0.599999*%
%ADD12RoundRect,0.237500X-0.250000X-0.237500X0.250000X-0.237500X0.250000X0.237500X-0.250000X0.237500X0*%
%ADD13RoundRect,0.237500X0.237500X-0.300000X0.237500X0.300000X-0.237500X0.300000X-0.237500X-0.300000X0*%
%ADD14R,1.000000X1.550000*%
%ADD15R,0.599999X0.309999*%
G04 APERTURE END LIST*
D10*
%TO.C,U3*%
G36*
X83925000Y-49299000D02*
G01*
X83925000Y-50269000D01*
X83875000Y-50319000D01*
X82505000Y-50319000D01*
X82455000Y-50269000D01*
X82455000Y-49299000D01*
X82505000Y-49249000D01*
X83875000Y-49249000D01*
X83925000Y-49299000D01*
G37*
G36*
X83925000Y-48029000D02*
G01*
X83925000Y-48999000D01*
X83875000Y-49049000D01*
X82505000Y-49049000D01*
X82455000Y-48999000D01*
X82455000Y-48029000D01*
X82505000Y-47979000D01*
X83875000Y-47979000D01*
X83925000Y-48029000D01*
G37*
%TO.C,U2*%
G36*
X73765000Y-49299000D02*
G01*
X73765000Y-50269000D01*
X73715000Y-50319000D01*
X72345000Y-50319000D01*
X72295000Y-50269000D01*
X72295000Y-49299000D01*
X72345000Y-49249000D01*
X73715000Y-49249000D01*
X73765000Y-49299000D01*
G37*
G36*
X73765000Y-48029000D02*
G01*
X73765000Y-48999000D01*
X73715000Y-49049000D01*
X72345000Y-49049000D01*
X72295000Y-48999000D01*
X72295000Y-48029000D01*
X72345000Y-47979000D01*
X73715000Y-47979000D01*
X73765000Y-48029000D01*
G37*
%TD*%
D11*
%TO.C,U4*%
X47010001Y-63900000D03*
X46510002Y-63900000D03*
X46010000Y-63900000D03*
X45510002Y-63900000D03*
X45510002Y-66900000D03*
X46010000Y-66900000D03*
X46510002Y-66900000D03*
X47010001Y-66900000D03*
%TD*%
D12*
%TO.C,R1*%
X46847500Y-68400000D03*
X48672500Y-68400000D03*
%TD*%
D13*
%TO.C,C2*%
X53340000Y-66902500D03*
X53340000Y-65177500D03*
%TD*%
D14*
%TO.C,SW1*%
X26240000Y-43350000D03*
X26240000Y-38100000D03*
X27940000Y-43350000D03*
X27940000Y-38100000D03*
%TD*%
D15*
%TO.C,U3*%
X84590000Y-50123999D03*
X84590000Y-49474001D03*
X84590000Y-48823999D03*
X84590000Y-48174001D03*
X81790000Y-48174001D03*
X81790000Y-48823999D03*
X81790000Y-49474001D03*
X81790000Y-50123999D03*
%TD*%
%TO.C,U2*%
X71630000Y-48174001D03*
X71630000Y-48823999D03*
X71630000Y-49474001D03*
X71630000Y-50123999D03*
X74430000Y-50123999D03*
X74430000Y-49474001D03*
X74430000Y-48823999D03*
X74430000Y-48174001D03*
%TD*%
D11*
%TO.C,U5*%
X52090001Y-64040000D03*
X51590002Y-64040000D03*
X51090000Y-64040000D03*
X50590002Y-64040000D03*
X50590002Y-67040000D03*
X51090000Y-67040000D03*
X51590002Y-67040000D03*
X52090001Y-67040000D03*
%TD*%
D13*
%TO.C,C1*%
X48260000Y-66762500D03*
X48260000Y-65037500D03*
%TD*%
D12*
%TO.C,R2*%
X51927500Y-68540000D03*
X53752500Y-68540000D03*
%TD*%
M02*
