%TF.GenerationSoftware,KiCad,Pcbnew,9.0.0*%
%TF.CreationDate,2025-02-23T12:28:02-06:00*%
%TF.ProjectId,PicoPowerManagement,5069636f-506f-4776-9572-4d616e616765,rev?*%
%TF.SameCoordinates,Original*%
%TF.FileFunction,Legend,Top*%
%TF.FilePolarity,Positive*%
%FSLAX46Y46*%
G04 Gerber Fmt 4.6, Leading zero omitted, Abs format (unit mm)*
G04 Created by KiCad (PCBNEW 9.0.0) date 2025-02-23 12:28:02*
%MOMM*%
%LPD*%
G01*
G04 APERTURE LIST*
%ADD10C,0.150000*%
%ADD11C,0.120000*%
%ADD12C,0.152400*%
%ADD13C,0.508000*%
%ADD14C,0.200000*%
G04 APERTURE END LIST*
D10*
X131460476Y-105324819D02*
X131460476Y-106039104D01*
X131460476Y-106039104D02*
X131412857Y-106181961D01*
X131412857Y-106181961D02*
X131317619Y-106277200D01*
X131317619Y-106277200D02*
X131174762Y-106324819D01*
X131174762Y-106324819D02*
X131079524Y-106324819D01*
X132460476Y-106324819D02*
X131889048Y-106324819D01*
X132174762Y-106324819D02*
X132174762Y-105324819D01*
X132174762Y-105324819D02*
X132079524Y-105467676D01*
X132079524Y-105467676D02*
X131984286Y-105562914D01*
X131984286Y-105562914D02*
X131889048Y-105610533D01*
X132841429Y-105420057D02*
X132889048Y-105372438D01*
X132889048Y-105372438D02*
X132984286Y-105324819D01*
X132984286Y-105324819D02*
X133222381Y-105324819D01*
X133222381Y-105324819D02*
X133317619Y-105372438D01*
X133317619Y-105372438D02*
X133365238Y-105420057D01*
X133365238Y-105420057D02*
X133412857Y-105515295D01*
X133412857Y-105515295D02*
X133412857Y-105610533D01*
X133412857Y-105610533D02*
X133365238Y-105753390D01*
X133365238Y-105753390D02*
X132793810Y-106324819D01*
X132793810Y-106324819D02*
X133412857Y-106324819D01*
X90884819Y-78666666D02*
X90408628Y-78999999D01*
X90884819Y-79238094D02*
X89884819Y-79238094D01*
X89884819Y-79238094D02*
X89884819Y-78857142D01*
X89884819Y-78857142D02*
X89932438Y-78761904D01*
X89932438Y-78761904D02*
X89980057Y-78714285D01*
X89980057Y-78714285D02*
X90075295Y-78666666D01*
X90075295Y-78666666D02*
X90218152Y-78666666D01*
X90218152Y-78666666D02*
X90313390Y-78714285D01*
X90313390Y-78714285D02*
X90361009Y-78761904D01*
X90361009Y-78761904D02*
X90408628Y-78857142D01*
X90408628Y-78857142D02*
X90408628Y-79238094D01*
X89980057Y-78285713D02*
X89932438Y-78238094D01*
X89932438Y-78238094D02*
X89884819Y-78142856D01*
X89884819Y-78142856D02*
X89884819Y-77904761D01*
X89884819Y-77904761D02*
X89932438Y-77809523D01*
X89932438Y-77809523D02*
X89980057Y-77761904D01*
X89980057Y-77761904D02*
X90075295Y-77714285D01*
X90075295Y-77714285D02*
X90170533Y-77714285D01*
X90170533Y-77714285D02*
X90313390Y-77761904D01*
X90313390Y-77761904D02*
X90884819Y-78333332D01*
X90884819Y-78333332D02*
X90884819Y-77714285D01*
X144345779Y-85295376D02*
X143631494Y-85295376D01*
X143631494Y-85295376D02*
X143488637Y-85247757D01*
X143488637Y-85247757D02*
X143393399Y-85152519D01*
X143393399Y-85152519D02*
X143345779Y-85009662D01*
X143345779Y-85009662D02*
X143345779Y-84914424D01*
X143345779Y-86295376D02*
X143345779Y-85723948D01*
X143345779Y-86009662D02*
X144345779Y-86009662D01*
X144345779Y-86009662D02*
X144202922Y-85914424D01*
X144202922Y-85914424D02*
X144107684Y-85819186D01*
X144107684Y-85819186D02*
X144060065Y-85723948D01*
X143345779Y-87247757D02*
X143345779Y-86676329D01*
X143345779Y-86962043D02*
X144345779Y-86962043D01*
X144345779Y-86962043D02*
X144202922Y-86866805D01*
X144202922Y-86866805D02*
X144107684Y-86771567D01*
X144107684Y-86771567D02*
X144060065Y-86676329D01*
X90884819Y-72166666D02*
X90408628Y-72499999D01*
X90884819Y-72738094D02*
X89884819Y-72738094D01*
X89884819Y-72738094D02*
X89884819Y-72357142D01*
X89884819Y-72357142D02*
X89932438Y-72261904D01*
X89932438Y-72261904D02*
X89980057Y-72214285D01*
X89980057Y-72214285D02*
X90075295Y-72166666D01*
X90075295Y-72166666D02*
X90218152Y-72166666D01*
X90218152Y-72166666D02*
X90313390Y-72214285D01*
X90313390Y-72214285D02*
X90361009Y-72261904D01*
X90361009Y-72261904D02*
X90408628Y-72357142D01*
X90408628Y-72357142D02*
X90408628Y-72738094D01*
X90884819Y-71214285D02*
X90884819Y-71785713D01*
X90884819Y-71499999D02*
X89884819Y-71499999D01*
X89884819Y-71499999D02*
X90027676Y-71595237D01*
X90027676Y-71595237D02*
X90122914Y-71690475D01*
X90122914Y-71690475D02*
X90170533Y-71785713D01*
X92761904Y-78045180D02*
X92761904Y-77235657D01*
X92761904Y-77235657D02*
X92714285Y-77140419D01*
X92714285Y-77140419D02*
X92666666Y-77092800D01*
X92666666Y-77092800D02*
X92571428Y-77045180D01*
X92571428Y-77045180D02*
X92380952Y-77045180D01*
X92380952Y-77045180D02*
X92285714Y-77092800D01*
X92285714Y-77092800D02*
X92238095Y-77140419D01*
X92238095Y-77140419D02*
X92190476Y-77235657D01*
X92190476Y-77235657D02*
X92190476Y-78045180D01*
X91761904Y-77949942D02*
X91714285Y-77997561D01*
X91714285Y-77997561D02*
X91619047Y-78045180D01*
X91619047Y-78045180D02*
X91380952Y-78045180D01*
X91380952Y-78045180D02*
X91285714Y-77997561D01*
X91285714Y-77997561D02*
X91238095Y-77949942D01*
X91238095Y-77949942D02*
X91190476Y-77854704D01*
X91190476Y-77854704D02*
X91190476Y-77759466D01*
X91190476Y-77759466D02*
X91238095Y-77616609D01*
X91238095Y-77616609D02*
X91809523Y-77045180D01*
X91809523Y-77045180D02*
X91190476Y-77045180D01*
X97941485Y-79254980D02*
X97941485Y-80254980D01*
X97941485Y-80254980D02*
X97703390Y-80254980D01*
X97703390Y-80254980D02*
X97560533Y-80207361D01*
X97560533Y-80207361D02*
X97465295Y-80112123D01*
X97465295Y-80112123D02*
X97417676Y-80016885D01*
X97417676Y-80016885D02*
X97370057Y-79826409D01*
X97370057Y-79826409D02*
X97370057Y-79683552D01*
X97370057Y-79683552D02*
X97417676Y-79493076D01*
X97417676Y-79493076D02*
X97465295Y-79397838D01*
X97465295Y-79397838D02*
X97560533Y-79302600D01*
X97560533Y-79302600D02*
X97703390Y-79254980D01*
X97703390Y-79254980D02*
X97941485Y-79254980D01*
X96560533Y-79302600D02*
X96655771Y-79254980D01*
X96655771Y-79254980D02*
X96846247Y-79254980D01*
X96846247Y-79254980D02*
X96941485Y-79302600D01*
X96941485Y-79302600D02*
X96989104Y-79397838D01*
X96989104Y-79397838D02*
X96989104Y-79778790D01*
X96989104Y-79778790D02*
X96941485Y-79874028D01*
X96941485Y-79874028D02*
X96846247Y-79921647D01*
X96846247Y-79921647D02*
X96655771Y-79921647D01*
X96655771Y-79921647D02*
X96560533Y-79874028D01*
X96560533Y-79874028D02*
X96512914Y-79778790D01*
X96512914Y-79778790D02*
X96512914Y-79683552D01*
X96512914Y-79683552D02*
X96989104Y-79588314D01*
X96131961Y-79302600D02*
X96036723Y-79254980D01*
X96036723Y-79254980D02*
X95846247Y-79254980D01*
X95846247Y-79254980D02*
X95751009Y-79302600D01*
X95751009Y-79302600D02*
X95703390Y-79397838D01*
X95703390Y-79397838D02*
X95703390Y-79445457D01*
X95703390Y-79445457D02*
X95751009Y-79540695D01*
X95751009Y-79540695D02*
X95846247Y-79588314D01*
X95846247Y-79588314D02*
X95989104Y-79588314D01*
X95989104Y-79588314D02*
X96084342Y-79635933D01*
X96084342Y-79635933D02*
X96131961Y-79731171D01*
X96131961Y-79731171D02*
X96131961Y-79778790D01*
X96131961Y-79778790D02*
X96084342Y-79874028D01*
X96084342Y-79874028D02*
X95989104Y-79921647D01*
X95989104Y-79921647D02*
X95846247Y-79921647D01*
X95846247Y-79921647D02*
X95751009Y-79874028D01*
X95274818Y-79254980D02*
X95274818Y-79921647D01*
X95274818Y-80254980D02*
X95322437Y-80207361D01*
X95322437Y-80207361D02*
X95274818Y-80159742D01*
X95274818Y-80159742D02*
X95227199Y-80207361D01*
X95227199Y-80207361D02*
X95274818Y-80254980D01*
X95274818Y-80254980D02*
X95274818Y-80159742D01*
X94370057Y-79921647D02*
X94370057Y-79112123D01*
X94370057Y-79112123D02*
X94417676Y-79016885D01*
X94417676Y-79016885D02*
X94465295Y-78969266D01*
X94465295Y-78969266D02*
X94560533Y-78921647D01*
X94560533Y-78921647D02*
X94703390Y-78921647D01*
X94703390Y-78921647D02*
X94798628Y-78969266D01*
X94370057Y-79302600D02*
X94465295Y-79254980D01*
X94465295Y-79254980D02*
X94655771Y-79254980D01*
X94655771Y-79254980D02*
X94751009Y-79302600D01*
X94751009Y-79302600D02*
X94798628Y-79350219D01*
X94798628Y-79350219D02*
X94846247Y-79445457D01*
X94846247Y-79445457D02*
X94846247Y-79731171D01*
X94846247Y-79731171D02*
X94798628Y-79826409D01*
X94798628Y-79826409D02*
X94751009Y-79874028D01*
X94751009Y-79874028D02*
X94655771Y-79921647D01*
X94655771Y-79921647D02*
X94465295Y-79921647D01*
X94465295Y-79921647D02*
X94370057Y-79874028D01*
X93893866Y-79921647D02*
X93893866Y-79254980D01*
X93893866Y-79826409D02*
X93846247Y-79874028D01*
X93846247Y-79874028D02*
X93751009Y-79921647D01*
X93751009Y-79921647D02*
X93608152Y-79921647D01*
X93608152Y-79921647D02*
X93512914Y-79874028D01*
X93512914Y-79874028D02*
X93465295Y-79778790D01*
X93465295Y-79778790D02*
X93465295Y-79254980D01*
X92560533Y-79254980D02*
X92560533Y-79778790D01*
X92560533Y-79778790D02*
X92608152Y-79874028D01*
X92608152Y-79874028D02*
X92703390Y-79921647D01*
X92703390Y-79921647D02*
X92893866Y-79921647D01*
X92893866Y-79921647D02*
X92989104Y-79874028D01*
X92560533Y-79302600D02*
X92655771Y-79254980D01*
X92655771Y-79254980D02*
X92893866Y-79254980D01*
X92893866Y-79254980D02*
X92989104Y-79302600D01*
X92989104Y-79302600D02*
X93036723Y-79397838D01*
X93036723Y-79397838D02*
X93036723Y-79493076D01*
X93036723Y-79493076D02*
X92989104Y-79588314D01*
X92989104Y-79588314D02*
X92893866Y-79635933D01*
X92893866Y-79635933D02*
X92655771Y-79635933D01*
X92655771Y-79635933D02*
X92560533Y-79683552D01*
X92227199Y-79921647D02*
X91846247Y-79921647D01*
X92084342Y-80254980D02*
X92084342Y-79397838D01*
X92084342Y-79397838D02*
X92036723Y-79302600D01*
X92036723Y-79302600D02*
X91941485Y-79254980D01*
X91941485Y-79254980D02*
X91846247Y-79254980D01*
X91370056Y-79254980D02*
X91465294Y-79302600D01*
X91465294Y-79302600D02*
X91512913Y-79350219D01*
X91512913Y-79350219D02*
X91560532Y-79445457D01*
X91560532Y-79445457D02*
X91560532Y-79731171D01*
X91560532Y-79731171D02*
X91512913Y-79826409D01*
X91512913Y-79826409D02*
X91465294Y-79874028D01*
X91465294Y-79874028D02*
X91370056Y-79921647D01*
X91370056Y-79921647D02*
X91227199Y-79921647D01*
X91227199Y-79921647D02*
X91131961Y-79874028D01*
X91131961Y-79874028D02*
X91084342Y-79826409D01*
X91084342Y-79826409D02*
X91036723Y-79731171D01*
X91036723Y-79731171D02*
X91036723Y-79445457D01*
X91036723Y-79445457D02*
X91084342Y-79350219D01*
X91084342Y-79350219D02*
X91131961Y-79302600D01*
X91131961Y-79302600D02*
X91227199Y-79254980D01*
X91227199Y-79254980D02*
X91370056Y-79254980D01*
X90608151Y-79254980D02*
X90608151Y-79921647D01*
X90608151Y-79731171D02*
X90560532Y-79826409D01*
X90560532Y-79826409D02*
X90512913Y-79874028D01*
X90512913Y-79874028D02*
X90417675Y-79921647D01*
X90417675Y-79921647D02*
X90322437Y-79921647D01*
X89941484Y-79254980D02*
X89751008Y-79254980D01*
X89751008Y-79254980D02*
X89655770Y-79302600D01*
X89655770Y-79302600D02*
X89608151Y-79350219D01*
X89608151Y-79350219D02*
X89512913Y-79493076D01*
X89512913Y-79493076D02*
X89465294Y-79683552D01*
X89465294Y-79683552D02*
X89465294Y-80064504D01*
X89465294Y-80064504D02*
X89512913Y-80159742D01*
X89512913Y-80159742D02*
X89560532Y-80207361D01*
X89560532Y-80207361D02*
X89655770Y-80254980D01*
X89655770Y-80254980D02*
X89846246Y-80254980D01*
X89846246Y-80254980D02*
X89941484Y-80207361D01*
X89941484Y-80207361D02*
X89989103Y-80159742D01*
X89989103Y-80159742D02*
X90036722Y-80064504D01*
X90036722Y-80064504D02*
X90036722Y-79826409D01*
X90036722Y-79826409D02*
X89989103Y-79731171D01*
X89989103Y-79731171D02*
X89941484Y-79683552D01*
X89941484Y-79683552D02*
X89846246Y-79635933D01*
X89846246Y-79635933D02*
X89655770Y-79635933D01*
X89655770Y-79635933D02*
X89560532Y-79683552D01*
X89560532Y-79683552D02*
X89512913Y-79731171D01*
X89512913Y-79731171D02*
X89465294Y-79826409D01*
X92690476Y-67824819D02*
X92690476Y-68539104D01*
X92690476Y-68539104D02*
X92642857Y-68681961D01*
X92642857Y-68681961D02*
X92547619Y-68777200D01*
X92547619Y-68777200D02*
X92404762Y-68824819D01*
X92404762Y-68824819D02*
X92309524Y-68824819D01*
X93690476Y-68824819D02*
X93119048Y-68824819D01*
X93404762Y-68824819D02*
X93404762Y-67824819D01*
X93404762Y-67824819D02*
X93309524Y-67967676D01*
X93309524Y-67967676D02*
X93214286Y-68062914D01*
X93214286Y-68062914D02*
X93119048Y-68110533D01*
X94309524Y-67824819D02*
X94404762Y-67824819D01*
X94404762Y-67824819D02*
X94500000Y-67872438D01*
X94500000Y-67872438D02*
X94547619Y-67920057D01*
X94547619Y-67920057D02*
X94595238Y-68015295D01*
X94595238Y-68015295D02*
X94642857Y-68205771D01*
X94642857Y-68205771D02*
X94642857Y-68443866D01*
X94642857Y-68443866D02*
X94595238Y-68634342D01*
X94595238Y-68634342D02*
X94547619Y-68729580D01*
X94547619Y-68729580D02*
X94500000Y-68777200D01*
X94500000Y-68777200D02*
X94404762Y-68824819D01*
X94404762Y-68824819D02*
X94309524Y-68824819D01*
X94309524Y-68824819D02*
X94214286Y-68777200D01*
X94214286Y-68777200D02*
X94166667Y-68729580D01*
X94166667Y-68729580D02*
X94119048Y-68634342D01*
X94119048Y-68634342D02*
X94071429Y-68443866D01*
X94071429Y-68443866D02*
X94071429Y-68205771D01*
X94071429Y-68205771D02*
X94119048Y-68015295D01*
X94119048Y-68015295D02*
X94166667Y-67920057D01*
X94166667Y-67920057D02*
X94214286Y-67872438D01*
X94214286Y-67872438D02*
X94309524Y-67824819D01*
X100016666Y-114349819D02*
X100016666Y-115064104D01*
X100016666Y-115064104D02*
X99969047Y-115206961D01*
X99969047Y-115206961D02*
X99873809Y-115302200D01*
X99873809Y-115302200D02*
X99730952Y-115349819D01*
X99730952Y-115349819D02*
X99635714Y-115349819D01*
X100397619Y-114349819D02*
X101016666Y-114349819D01*
X101016666Y-114349819D02*
X100683333Y-114730771D01*
X100683333Y-114730771D02*
X100826190Y-114730771D01*
X100826190Y-114730771D02*
X100921428Y-114778390D01*
X100921428Y-114778390D02*
X100969047Y-114826009D01*
X100969047Y-114826009D02*
X101016666Y-114921247D01*
X101016666Y-114921247D02*
X101016666Y-115159342D01*
X101016666Y-115159342D02*
X100969047Y-115254580D01*
X100969047Y-115254580D02*
X100921428Y-115302200D01*
X100921428Y-115302200D02*
X100826190Y-115349819D01*
X100826190Y-115349819D02*
X100540476Y-115349819D01*
X100540476Y-115349819D02*
X100445238Y-115302200D01*
X100445238Y-115302200D02*
X100397619Y-115254580D01*
X127020476Y-111229819D02*
X127020476Y-111944104D01*
X127020476Y-111944104D02*
X126972857Y-112086961D01*
X126972857Y-112086961D02*
X126877619Y-112182200D01*
X126877619Y-112182200D02*
X126734762Y-112229819D01*
X126734762Y-112229819D02*
X126639524Y-112229819D01*
X128020476Y-112229819D02*
X127449048Y-112229819D01*
X127734762Y-112229819D02*
X127734762Y-111229819D01*
X127734762Y-111229819D02*
X127639524Y-111372676D01*
X127639524Y-111372676D02*
X127544286Y-111467914D01*
X127544286Y-111467914D02*
X127449048Y-111515533D01*
X128353810Y-111229819D02*
X128972857Y-111229819D01*
X128972857Y-111229819D02*
X128639524Y-111610771D01*
X128639524Y-111610771D02*
X128782381Y-111610771D01*
X128782381Y-111610771D02*
X128877619Y-111658390D01*
X128877619Y-111658390D02*
X128925238Y-111706009D01*
X128925238Y-111706009D02*
X128972857Y-111801247D01*
X128972857Y-111801247D02*
X128972857Y-112039342D01*
X128972857Y-112039342D02*
X128925238Y-112134580D01*
X128925238Y-112134580D02*
X128877619Y-112182200D01*
X128877619Y-112182200D02*
X128782381Y-112229819D01*
X128782381Y-112229819D02*
X128496667Y-112229819D01*
X128496667Y-112229819D02*
X128401429Y-112182200D01*
X128401429Y-112182200D02*
X128353810Y-112134580D01*
X104666666Y-114349819D02*
X104666666Y-115064104D01*
X104666666Y-115064104D02*
X104619047Y-115206961D01*
X104619047Y-115206961D02*
X104523809Y-115302200D01*
X104523809Y-115302200D02*
X104380952Y-115349819D01*
X104380952Y-115349819D02*
X104285714Y-115349819D01*
X105571428Y-114683152D02*
X105571428Y-115349819D01*
X105333333Y-114302200D02*
X105095238Y-115016485D01*
X105095238Y-115016485D02*
X105714285Y-115016485D01*
X118616666Y-114349819D02*
X118616666Y-115064104D01*
X118616666Y-115064104D02*
X118569047Y-115206961D01*
X118569047Y-115206961D02*
X118473809Y-115302200D01*
X118473809Y-115302200D02*
X118330952Y-115349819D01*
X118330952Y-115349819D02*
X118235714Y-115349819D01*
X119521428Y-114349819D02*
X119330952Y-114349819D01*
X119330952Y-114349819D02*
X119235714Y-114397438D01*
X119235714Y-114397438D02*
X119188095Y-114445057D01*
X119188095Y-114445057D02*
X119092857Y-114587914D01*
X119092857Y-114587914D02*
X119045238Y-114778390D01*
X119045238Y-114778390D02*
X119045238Y-115159342D01*
X119045238Y-115159342D02*
X119092857Y-115254580D01*
X119092857Y-115254580D02*
X119140476Y-115302200D01*
X119140476Y-115302200D02*
X119235714Y-115349819D01*
X119235714Y-115349819D02*
X119426190Y-115349819D01*
X119426190Y-115349819D02*
X119521428Y-115302200D01*
X119521428Y-115302200D02*
X119569047Y-115254580D01*
X119569047Y-115254580D02*
X119616666Y-115159342D01*
X119616666Y-115159342D02*
X119616666Y-114921247D01*
X119616666Y-114921247D02*
X119569047Y-114826009D01*
X119569047Y-114826009D02*
X119521428Y-114778390D01*
X119521428Y-114778390D02*
X119426190Y-114730771D01*
X119426190Y-114730771D02*
X119235714Y-114730771D01*
X119235714Y-114730771D02*
X119140476Y-114778390D01*
X119140476Y-114778390D02*
X119092857Y-114826009D01*
X119092857Y-114826009D02*
X119045238Y-114921247D01*
X94316667Y-115302200D02*
X94459524Y-115349819D01*
X94459524Y-115349819D02*
X94697619Y-115349819D01*
X94697619Y-115349819D02*
X94792857Y-115302200D01*
X94792857Y-115302200D02*
X94840476Y-115254580D01*
X94840476Y-115254580D02*
X94888095Y-115159342D01*
X94888095Y-115159342D02*
X94888095Y-115064104D01*
X94888095Y-115064104D02*
X94840476Y-114968866D01*
X94840476Y-114968866D02*
X94792857Y-114921247D01*
X94792857Y-114921247D02*
X94697619Y-114873628D01*
X94697619Y-114873628D02*
X94507143Y-114826009D01*
X94507143Y-114826009D02*
X94411905Y-114778390D01*
X94411905Y-114778390D02*
X94364286Y-114730771D01*
X94364286Y-114730771D02*
X94316667Y-114635533D01*
X94316667Y-114635533D02*
X94316667Y-114540295D01*
X94316667Y-114540295D02*
X94364286Y-114445057D01*
X94364286Y-114445057D02*
X94411905Y-114397438D01*
X94411905Y-114397438D02*
X94507143Y-114349819D01*
X94507143Y-114349819D02*
X94745238Y-114349819D01*
X94745238Y-114349819D02*
X94888095Y-114397438D01*
X95221429Y-114349819D02*
X95459524Y-115349819D01*
X95459524Y-115349819D02*
X95650000Y-114635533D01*
X95650000Y-114635533D02*
X95840476Y-115349819D01*
X95840476Y-115349819D02*
X96078572Y-114349819D01*
X96983333Y-115349819D02*
X96411905Y-115349819D01*
X96697619Y-115349819D02*
X96697619Y-114349819D01*
X96697619Y-114349819D02*
X96602381Y-114492676D01*
X96602381Y-114492676D02*
X96507143Y-114587914D01*
X96507143Y-114587914D02*
X96411905Y-114635533D01*
X109776666Y-84954819D02*
X109776666Y-85669104D01*
X109776666Y-85669104D02*
X109729047Y-85811961D01*
X109729047Y-85811961D02*
X109633809Y-85907200D01*
X109633809Y-85907200D02*
X109490952Y-85954819D01*
X109490952Y-85954819D02*
X109395714Y-85954819D01*
X110205238Y-85050057D02*
X110252857Y-85002438D01*
X110252857Y-85002438D02*
X110348095Y-84954819D01*
X110348095Y-84954819D02*
X110586190Y-84954819D01*
X110586190Y-84954819D02*
X110681428Y-85002438D01*
X110681428Y-85002438D02*
X110729047Y-85050057D01*
X110729047Y-85050057D02*
X110776666Y-85145295D01*
X110776666Y-85145295D02*
X110776666Y-85240533D01*
X110776666Y-85240533D02*
X110729047Y-85383390D01*
X110729047Y-85383390D02*
X110157619Y-85954819D01*
X110157619Y-85954819D02*
X110776666Y-85954819D01*
X96623372Y-71651494D02*
X96542560Y-71678431D01*
X96542560Y-71678431D02*
X96461748Y-71759243D01*
X96461748Y-71759243D02*
X96407873Y-71866993D01*
X96407873Y-71866993D02*
X96407873Y-71974742D01*
X96407873Y-71974742D02*
X96434810Y-72055555D01*
X96434810Y-72055555D02*
X96515623Y-72190242D01*
X96515623Y-72190242D02*
X96596435Y-72271054D01*
X96596435Y-72271054D02*
X96731122Y-72351866D01*
X96731122Y-72351866D02*
X96811934Y-72378803D01*
X96811934Y-72378803D02*
X96919684Y-72378803D01*
X96919684Y-72378803D02*
X97027433Y-72324929D01*
X97027433Y-72324929D02*
X97081308Y-72271054D01*
X97081308Y-72271054D02*
X97135183Y-72163304D01*
X97135183Y-72163304D02*
X97135183Y-72109429D01*
X97135183Y-72109429D02*
X96946621Y-71920868D01*
X96946621Y-71920868D02*
X96838871Y-72028617D01*
X97431494Y-71920868D02*
X96865809Y-71355182D01*
X96865809Y-71355182D02*
X97081308Y-71139683D01*
X97081308Y-71139683D02*
X97162120Y-71112746D01*
X97162120Y-71112746D02*
X97215995Y-71112746D01*
X97215995Y-71112746D02*
X97296807Y-71139683D01*
X97296807Y-71139683D02*
X97377619Y-71220495D01*
X97377619Y-71220495D02*
X97404557Y-71301307D01*
X97404557Y-71301307D02*
X97404557Y-71355182D01*
X97404557Y-71355182D02*
X97377619Y-71435994D01*
X97377619Y-71435994D02*
X97162120Y-71651494D01*
X97377619Y-70843372D02*
X97727806Y-70493185D01*
X97727806Y-70493185D02*
X97754743Y-70897246D01*
X97754743Y-70897246D02*
X97835555Y-70816434D01*
X97835555Y-70816434D02*
X97916367Y-70789497D01*
X97916367Y-70789497D02*
X97970242Y-70789497D01*
X97970242Y-70789497D02*
X98051054Y-70816434D01*
X98051054Y-70816434D02*
X98185741Y-70951121D01*
X98185741Y-70951121D02*
X98212679Y-71031933D01*
X98212679Y-71031933D02*
X98212679Y-71085808D01*
X98212679Y-71085808D02*
X98185741Y-71166620D01*
X98185741Y-71166620D02*
X98024117Y-71328245D01*
X98024117Y-71328245D02*
X97943305Y-71355182D01*
X97943305Y-71355182D02*
X97889430Y-71355182D01*
X122261873Y-80241240D02*
X122531247Y-79971866D01*
X122369623Y-80456739D02*
X121992499Y-79702492D01*
X121992499Y-79702492D02*
X122746746Y-80079615D01*
X122692871Y-79055994D02*
X122612059Y-79082932D01*
X122612059Y-79082932D02*
X122531247Y-79163744D01*
X122531247Y-79163744D02*
X122477372Y-79271494D01*
X122477372Y-79271494D02*
X122477372Y-79379243D01*
X122477372Y-79379243D02*
X122504310Y-79460055D01*
X122504310Y-79460055D02*
X122585122Y-79594742D01*
X122585122Y-79594742D02*
X122665934Y-79675555D01*
X122665934Y-79675555D02*
X122800621Y-79756367D01*
X122800621Y-79756367D02*
X122881433Y-79783304D01*
X122881433Y-79783304D02*
X122989183Y-79783304D01*
X122989183Y-79783304D02*
X123096932Y-79729429D01*
X123096932Y-79729429D02*
X123150807Y-79675555D01*
X123150807Y-79675555D02*
X123204682Y-79567805D01*
X123204682Y-79567805D02*
X123204682Y-79513930D01*
X123204682Y-79513930D02*
X123016120Y-79325368D01*
X123016120Y-79325368D02*
X122908371Y-79433118D01*
X123500993Y-79325368D02*
X122935308Y-78759683D01*
X122935308Y-78759683D02*
X123824242Y-79002120D01*
X123824242Y-79002120D02*
X123258557Y-78436434D01*
X124093616Y-78732746D02*
X123527931Y-78167060D01*
X123527931Y-78167060D02*
X123662618Y-78032373D01*
X123662618Y-78032373D02*
X123770367Y-77978498D01*
X123770367Y-77978498D02*
X123878117Y-77978498D01*
X123878117Y-77978498D02*
X123958929Y-78005436D01*
X123958929Y-78005436D02*
X124093616Y-78086248D01*
X124093616Y-78086248D02*
X124174428Y-78167060D01*
X124174428Y-78167060D02*
X124255241Y-78301747D01*
X124255241Y-78301747D02*
X124282178Y-78382560D01*
X124282178Y-78382560D02*
X124282178Y-78490309D01*
X124282178Y-78490309D02*
X124228303Y-78598059D01*
X124228303Y-78598059D02*
X124093616Y-78732746D01*
X96523372Y-64021494D02*
X96442560Y-64048431D01*
X96442560Y-64048431D02*
X96361748Y-64129243D01*
X96361748Y-64129243D02*
X96307873Y-64236993D01*
X96307873Y-64236993D02*
X96307873Y-64344742D01*
X96307873Y-64344742D02*
X96334810Y-64425555D01*
X96334810Y-64425555D02*
X96415623Y-64560242D01*
X96415623Y-64560242D02*
X96496435Y-64641054D01*
X96496435Y-64641054D02*
X96631122Y-64721866D01*
X96631122Y-64721866D02*
X96711934Y-64748803D01*
X96711934Y-64748803D02*
X96819684Y-64748803D01*
X96819684Y-64748803D02*
X96927433Y-64694929D01*
X96927433Y-64694929D02*
X96981308Y-64641054D01*
X96981308Y-64641054D02*
X97035183Y-64533304D01*
X97035183Y-64533304D02*
X97035183Y-64479429D01*
X97035183Y-64479429D02*
X96846621Y-64290868D01*
X96846621Y-64290868D02*
X96738871Y-64398617D01*
X97331494Y-64290868D02*
X96765809Y-63725182D01*
X96765809Y-63725182D02*
X96981308Y-63509683D01*
X96981308Y-63509683D02*
X97062120Y-63482746D01*
X97062120Y-63482746D02*
X97115995Y-63482746D01*
X97115995Y-63482746D02*
X97196807Y-63509683D01*
X97196807Y-63509683D02*
X97277619Y-63590495D01*
X97277619Y-63590495D02*
X97304557Y-63671307D01*
X97304557Y-63671307D02*
X97304557Y-63725182D01*
X97304557Y-63725182D02*
X97277619Y-63805994D01*
X97277619Y-63805994D02*
X97062120Y-64021494D01*
X98193491Y-63428871D02*
X97870242Y-63752120D01*
X98031867Y-63590495D02*
X97466181Y-63024810D01*
X97466181Y-63024810D02*
X97493119Y-63159497D01*
X97493119Y-63159497D02*
X97493119Y-63267246D01*
X97493119Y-63267246D02*
X97466181Y-63348059D01*
X122207998Y-102400868D02*
X122127185Y-102427805D01*
X122127185Y-102427805D02*
X122046373Y-102508618D01*
X122046373Y-102508618D02*
X121992498Y-102616367D01*
X121992498Y-102616367D02*
X121992498Y-102724117D01*
X121992498Y-102724117D02*
X122019436Y-102804929D01*
X122019436Y-102804929D02*
X122100248Y-102939616D01*
X122100248Y-102939616D02*
X122181060Y-103020428D01*
X122181060Y-103020428D02*
X122315747Y-103101241D01*
X122315747Y-103101241D02*
X122396560Y-103128178D01*
X122396560Y-103128178D02*
X122504309Y-103128178D01*
X122504309Y-103128178D02*
X122612059Y-103074303D01*
X122612059Y-103074303D02*
X122665934Y-103020428D01*
X122665934Y-103020428D02*
X122719808Y-102912679D01*
X122719808Y-102912679D02*
X122719808Y-102858804D01*
X122719808Y-102858804D02*
X122531247Y-102670242D01*
X122531247Y-102670242D02*
X122423497Y-102777992D01*
X123016120Y-102670242D02*
X122450434Y-102104557D01*
X122450434Y-102104557D02*
X122665934Y-101889057D01*
X122665934Y-101889057D02*
X122746746Y-101862120D01*
X122746746Y-101862120D02*
X122800621Y-101862120D01*
X122800621Y-101862120D02*
X122881433Y-101889057D01*
X122881433Y-101889057D02*
X122962245Y-101969870D01*
X122962245Y-101969870D02*
X122989182Y-102050682D01*
X122989182Y-102050682D02*
X122989182Y-102104557D01*
X122989182Y-102104557D02*
X122962245Y-102185369D01*
X122962245Y-102185369D02*
X122746746Y-102400868D01*
X123878117Y-101808245D02*
X123554868Y-102131494D01*
X123716492Y-101969870D02*
X123150807Y-101404184D01*
X123150807Y-101404184D02*
X123177744Y-101538871D01*
X123177744Y-101538871D02*
X123177744Y-101646621D01*
X123177744Y-101646621D02*
X123150807Y-101727433D01*
X123878117Y-101161747D02*
X123797305Y-101188685D01*
X123797305Y-101188685D02*
X123743430Y-101188685D01*
X123743430Y-101188685D02*
X123662618Y-101161747D01*
X123662618Y-101161747D02*
X123635680Y-101134810D01*
X123635680Y-101134810D02*
X123608743Y-101053998D01*
X123608743Y-101053998D02*
X123608743Y-101000123D01*
X123608743Y-101000123D02*
X123635680Y-100919311D01*
X123635680Y-100919311D02*
X123743430Y-100811561D01*
X123743430Y-100811561D02*
X123824242Y-100784624D01*
X123824242Y-100784624D02*
X123878117Y-100784624D01*
X123878117Y-100784624D02*
X123958929Y-100811561D01*
X123958929Y-100811561D02*
X123985866Y-100838499D01*
X123985866Y-100838499D02*
X124012804Y-100919311D01*
X124012804Y-100919311D02*
X124012804Y-100973186D01*
X124012804Y-100973186D02*
X123985866Y-101053998D01*
X123985866Y-101053998D02*
X123878117Y-101161747D01*
X123878117Y-101161747D02*
X123851179Y-101242560D01*
X123851179Y-101242560D02*
X123851179Y-101296434D01*
X123851179Y-101296434D02*
X123878117Y-101377247D01*
X123878117Y-101377247D02*
X123985866Y-101484996D01*
X123985866Y-101484996D02*
X124066679Y-101511934D01*
X124066679Y-101511934D02*
X124120553Y-101511934D01*
X124120553Y-101511934D02*
X124201366Y-101484996D01*
X124201366Y-101484996D02*
X124309115Y-101377247D01*
X124309115Y-101377247D02*
X124336053Y-101296434D01*
X124336053Y-101296434D02*
X124336053Y-101242560D01*
X124336053Y-101242560D02*
X124309115Y-101161747D01*
X124309115Y-101161747D02*
X124201366Y-101053998D01*
X124201366Y-101053998D02*
X124120553Y-101027060D01*
X124120553Y-101027060D02*
X124066679Y-101027060D01*
X124066679Y-101027060D02*
X123985866Y-101053998D01*
X122000123Y-71990868D02*
X122350309Y-71640682D01*
X122350309Y-71640682D02*
X122377247Y-72044743D01*
X122377247Y-72044743D02*
X122458059Y-71963931D01*
X122458059Y-71963931D02*
X122538871Y-71936993D01*
X122538871Y-71936993D02*
X122592746Y-71936993D01*
X122592746Y-71936993D02*
X122673558Y-71963931D01*
X122673558Y-71963931D02*
X122808245Y-72098618D01*
X122808245Y-72098618D02*
X122835182Y-72179430D01*
X122835182Y-72179430D02*
X122835182Y-72233305D01*
X122835182Y-72233305D02*
X122808245Y-72314117D01*
X122808245Y-72314117D02*
X122646621Y-72475741D01*
X122646621Y-72475741D02*
X122565808Y-72502679D01*
X122565808Y-72502679D02*
X122511934Y-72502679D01*
X122511934Y-71479057D02*
X123266181Y-71856181D01*
X123266181Y-71856181D02*
X122889057Y-71101934D01*
X123023744Y-70967247D02*
X123373930Y-70617061D01*
X123373930Y-70617061D02*
X123400868Y-71021122D01*
X123400868Y-71021122D02*
X123481680Y-70940309D01*
X123481680Y-70940309D02*
X123562492Y-70913372D01*
X123562492Y-70913372D02*
X123616367Y-70913372D01*
X123616367Y-70913372D02*
X123697179Y-70940309D01*
X123697179Y-70940309D02*
X123831866Y-71074996D01*
X123831866Y-71074996D02*
X123858804Y-71155809D01*
X123858804Y-71155809D02*
X123858804Y-71209683D01*
X123858804Y-71209683D02*
X123831866Y-71290496D01*
X123831866Y-71290496D02*
X123670242Y-71452120D01*
X123670242Y-71452120D02*
X123589430Y-71479057D01*
X123589430Y-71479057D02*
X123535555Y-71479057D01*
X122032407Y-69458584D02*
X122382593Y-69108398D01*
X122382593Y-69108398D02*
X122409531Y-69512459D01*
X122409531Y-69512459D02*
X122490343Y-69431646D01*
X122490343Y-69431646D02*
X122571155Y-69404709D01*
X122571155Y-69404709D02*
X122625030Y-69404709D01*
X122625030Y-69404709D02*
X122705842Y-69431646D01*
X122705842Y-69431646D02*
X122840529Y-69566333D01*
X122840529Y-69566333D02*
X122867467Y-69647146D01*
X122867467Y-69647146D02*
X122867467Y-69701020D01*
X122867467Y-69701020D02*
X122840529Y-69781833D01*
X122840529Y-69781833D02*
X122678905Y-69943457D01*
X122678905Y-69943457D02*
X122598093Y-69970394D01*
X122598093Y-69970394D02*
X122544218Y-69970394D01*
X122544218Y-68946773D02*
X123298465Y-69323897D01*
X123298465Y-69323897D02*
X122921342Y-68569649D01*
X123056028Y-68434963D02*
X123406215Y-68084776D01*
X123406215Y-68084776D02*
X123433152Y-68488837D01*
X123433152Y-68488837D02*
X123513964Y-68408025D01*
X123513964Y-68408025D02*
X123594776Y-68381088D01*
X123594776Y-68381088D02*
X123648651Y-68381088D01*
X123648651Y-68381088D02*
X123729464Y-68408025D01*
X123729464Y-68408025D02*
X123864151Y-68542712D01*
X123864151Y-68542712D02*
X123891088Y-68623524D01*
X123891088Y-68623524D02*
X123891088Y-68677399D01*
X123891088Y-68677399D02*
X123864151Y-68758211D01*
X123864151Y-68758211D02*
X123702526Y-68919836D01*
X123702526Y-68919836D02*
X123621714Y-68946773D01*
X123621714Y-68946773D02*
X123567839Y-68946773D01*
X124133525Y-68596587D02*
X124564523Y-68165588D01*
X124349024Y-67680715D02*
X124537586Y-67492153D01*
X124914709Y-67707652D02*
X124645335Y-67977026D01*
X124645335Y-67977026D02*
X124079650Y-67411341D01*
X124079650Y-67411341D02*
X124349024Y-67141967D01*
X125157146Y-67465215D02*
X124591461Y-66899530D01*
X124591461Y-66899530D02*
X125480395Y-67141967D01*
X125480395Y-67141967D02*
X124914710Y-66576281D01*
X96623372Y-89431494D02*
X96542560Y-89458431D01*
X96542560Y-89458431D02*
X96461748Y-89539243D01*
X96461748Y-89539243D02*
X96407873Y-89646993D01*
X96407873Y-89646993D02*
X96407873Y-89754742D01*
X96407873Y-89754742D02*
X96434810Y-89835555D01*
X96434810Y-89835555D02*
X96515623Y-89970242D01*
X96515623Y-89970242D02*
X96596435Y-90051054D01*
X96596435Y-90051054D02*
X96731122Y-90131866D01*
X96731122Y-90131866D02*
X96811934Y-90158803D01*
X96811934Y-90158803D02*
X96919684Y-90158803D01*
X96919684Y-90158803D02*
X97027433Y-90104929D01*
X97027433Y-90104929D02*
X97081308Y-90051054D01*
X97081308Y-90051054D02*
X97135183Y-89943304D01*
X97135183Y-89943304D02*
X97135183Y-89889429D01*
X97135183Y-89889429D02*
X96946621Y-89700868D01*
X96946621Y-89700868D02*
X96838871Y-89808617D01*
X97431494Y-89700868D02*
X96865809Y-89135182D01*
X96865809Y-89135182D02*
X97081308Y-88919683D01*
X97081308Y-88919683D02*
X97162120Y-88892746D01*
X97162120Y-88892746D02*
X97215995Y-88892746D01*
X97215995Y-88892746D02*
X97296807Y-88919683D01*
X97296807Y-88919683D02*
X97377619Y-89000495D01*
X97377619Y-89000495D02*
X97404557Y-89081307D01*
X97404557Y-89081307D02*
X97404557Y-89135182D01*
X97404557Y-89135182D02*
X97377619Y-89215994D01*
X97377619Y-89215994D02*
X97162120Y-89431494D01*
X98024117Y-89108245D02*
X98131867Y-89000495D01*
X98131867Y-89000495D02*
X98158804Y-88919683D01*
X98158804Y-88919683D02*
X98158804Y-88865808D01*
X98158804Y-88865808D02*
X98131867Y-88731121D01*
X98131867Y-88731121D02*
X98051054Y-88596434D01*
X98051054Y-88596434D02*
X97835555Y-88380935D01*
X97835555Y-88380935D02*
X97754743Y-88353998D01*
X97754743Y-88353998D02*
X97700868Y-88353998D01*
X97700868Y-88353998D02*
X97620056Y-88380935D01*
X97620056Y-88380935D02*
X97512306Y-88488685D01*
X97512306Y-88488685D02*
X97485369Y-88569497D01*
X97485369Y-88569497D02*
X97485369Y-88623372D01*
X97485369Y-88623372D02*
X97512306Y-88704184D01*
X97512306Y-88704184D02*
X97646993Y-88838871D01*
X97646993Y-88838871D02*
X97727806Y-88865808D01*
X97727806Y-88865808D02*
X97781680Y-88865808D01*
X97781680Y-88865808D02*
X97862493Y-88838871D01*
X97862493Y-88838871D02*
X97970242Y-88731121D01*
X97970242Y-88731121D02*
X97997180Y-88650309D01*
X97997180Y-88650309D02*
X97997180Y-88596434D01*
X97997180Y-88596434D02*
X97970242Y-88515622D01*
X96596435Y-79298431D02*
X96515623Y-79325368D01*
X96515623Y-79325368D02*
X96434811Y-79406180D01*
X96434811Y-79406180D02*
X96380936Y-79513930D01*
X96380936Y-79513930D02*
X96380936Y-79621680D01*
X96380936Y-79621680D02*
X96407873Y-79702492D01*
X96407873Y-79702492D02*
X96488685Y-79837179D01*
X96488685Y-79837179D02*
X96569498Y-79917991D01*
X96569498Y-79917991D02*
X96704185Y-79998803D01*
X96704185Y-79998803D02*
X96784997Y-80025741D01*
X96784997Y-80025741D02*
X96892746Y-80025741D01*
X96892746Y-80025741D02*
X97000496Y-79971866D01*
X97000496Y-79971866D02*
X97054371Y-79917991D01*
X97054371Y-79917991D02*
X97108246Y-79810241D01*
X97108246Y-79810241D02*
X97108246Y-79756367D01*
X97108246Y-79756367D02*
X96919684Y-79567805D01*
X96919684Y-79567805D02*
X96811934Y-79675554D01*
X97404557Y-79567805D02*
X96838872Y-79002119D01*
X96838872Y-79002119D02*
X97727806Y-79244556D01*
X97727806Y-79244556D02*
X97162120Y-78678871D01*
X97997180Y-78975182D02*
X97431494Y-78409497D01*
X97431494Y-78409497D02*
X97566181Y-78274810D01*
X97566181Y-78274810D02*
X97673931Y-78220935D01*
X97673931Y-78220935D02*
X97781680Y-78220935D01*
X97781680Y-78220935D02*
X97862493Y-78247872D01*
X97862493Y-78247872D02*
X97997180Y-78328685D01*
X97997180Y-78328685D02*
X98077992Y-78409497D01*
X98077992Y-78409497D02*
X98158804Y-78544184D01*
X98158804Y-78544184D02*
X98185741Y-78624996D01*
X98185741Y-78624996D02*
X98185741Y-78732746D01*
X98185741Y-78732746D02*
X98131867Y-78840495D01*
X98131867Y-78840495D02*
X97997180Y-78975182D01*
X122207998Y-97320868D02*
X122127185Y-97347805D01*
X122127185Y-97347805D02*
X122046373Y-97428618D01*
X122046373Y-97428618D02*
X121992498Y-97536367D01*
X121992498Y-97536367D02*
X121992498Y-97644117D01*
X121992498Y-97644117D02*
X122019436Y-97724929D01*
X122019436Y-97724929D02*
X122100248Y-97859616D01*
X122100248Y-97859616D02*
X122181060Y-97940428D01*
X122181060Y-97940428D02*
X122315747Y-98021241D01*
X122315747Y-98021241D02*
X122396560Y-98048178D01*
X122396560Y-98048178D02*
X122504309Y-98048178D01*
X122504309Y-98048178D02*
X122612059Y-97994303D01*
X122612059Y-97994303D02*
X122665934Y-97940428D01*
X122665934Y-97940428D02*
X122719808Y-97832679D01*
X122719808Y-97832679D02*
X122719808Y-97778804D01*
X122719808Y-97778804D02*
X122531247Y-97590242D01*
X122531247Y-97590242D02*
X122423497Y-97697992D01*
X123016120Y-97590242D02*
X122450434Y-97024557D01*
X122450434Y-97024557D02*
X122665934Y-96809057D01*
X122665934Y-96809057D02*
X122746746Y-96782120D01*
X122746746Y-96782120D02*
X122800621Y-96782120D01*
X122800621Y-96782120D02*
X122881433Y-96809057D01*
X122881433Y-96809057D02*
X122962245Y-96889870D01*
X122962245Y-96889870D02*
X122989182Y-96970682D01*
X122989182Y-96970682D02*
X122989182Y-97024557D01*
X122989182Y-97024557D02*
X122962245Y-97105369D01*
X122962245Y-97105369D02*
X122746746Y-97320868D01*
X123043057Y-96539683D02*
X123043057Y-96485809D01*
X123043057Y-96485809D02*
X123069995Y-96404996D01*
X123069995Y-96404996D02*
X123204682Y-96270309D01*
X123204682Y-96270309D02*
X123285494Y-96243372D01*
X123285494Y-96243372D02*
X123339369Y-96243372D01*
X123339369Y-96243372D02*
X123420181Y-96270309D01*
X123420181Y-96270309D02*
X123474056Y-96324184D01*
X123474056Y-96324184D02*
X123527930Y-96431934D01*
X123527930Y-96431934D02*
X123527930Y-97078431D01*
X123527930Y-97078431D02*
X123878117Y-96728245D01*
X123662618Y-95812373D02*
X123716492Y-95758499D01*
X123716492Y-95758499D02*
X123797305Y-95731561D01*
X123797305Y-95731561D02*
X123851179Y-95731561D01*
X123851179Y-95731561D02*
X123931992Y-95758499D01*
X123931992Y-95758499D02*
X124066679Y-95839311D01*
X124066679Y-95839311D02*
X124201366Y-95973998D01*
X124201366Y-95973998D02*
X124282178Y-96108685D01*
X124282178Y-96108685D02*
X124309115Y-96189497D01*
X124309115Y-96189497D02*
X124309115Y-96243372D01*
X124309115Y-96243372D02*
X124282178Y-96324184D01*
X124282178Y-96324184D02*
X124228303Y-96378059D01*
X124228303Y-96378059D02*
X124147491Y-96404996D01*
X124147491Y-96404996D02*
X124093616Y-96404996D01*
X124093616Y-96404996D02*
X124012804Y-96378059D01*
X124012804Y-96378059D02*
X123878117Y-96297247D01*
X123878117Y-96297247D02*
X123743430Y-96162560D01*
X123743430Y-96162560D02*
X123662618Y-96027873D01*
X123662618Y-96027873D02*
X123635680Y-95947060D01*
X123635680Y-95947060D02*
X123635680Y-95893186D01*
X123635680Y-95893186D02*
X123662618Y-95812373D01*
X96623372Y-74191494D02*
X96542560Y-74218431D01*
X96542560Y-74218431D02*
X96461748Y-74299243D01*
X96461748Y-74299243D02*
X96407873Y-74406993D01*
X96407873Y-74406993D02*
X96407873Y-74514742D01*
X96407873Y-74514742D02*
X96434810Y-74595555D01*
X96434810Y-74595555D02*
X96515623Y-74730242D01*
X96515623Y-74730242D02*
X96596435Y-74811054D01*
X96596435Y-74811054D02*
X96731122Y-74891866D01*
X96731122Y-74891866D02*
X96811934Y-74918803D01*
X96811934Y-74918803D02*
X96919684Y-74918803D01*
X96919684Y-74918803D02*
X97027433Y-74864929D01*
X97027433Y-74864929D02*
X97081308Y-74811054D01*
X97081308Y-74811054D02*
X97135183Y-74703304D01*
X97135183Y-74703304D02*
X97135183Y-74649429D01*
X97135183Y-74649429D02*
X96946621Y-74460868D01*
X96946621Y-74460868D02*
X96838871Y-74568617D01*
X97431494Y-74460868D02*
X96865809Y-73895182D01*
X96865809Y-73895182D02*
X97081308Y-73679683D01*
X97081308Y-73679683D02*
X97162120Y-73652746D01*
X97162120Y-73652746D02*
X97215995Y-73652746D01*
X97215995Y-73652746D02*
X97296807Y-73679683D01*
X97296807Y-73679683D02*
X97377619Y-73760495D01*
X97377619Y-73760495D02*
X97404557Y-73841307D01*
X97404557Y-73841307D02*
X97404557Y-73895182D01*
X97404557Y-73895182D02*
X97377619Y-73975994D01*
X97377619Y-73975994D02*
X97162120Y-74191494D01*
X97862493Y-73275622D02*
X98239616Y-73652746D01*
X97512306Y-73194810D02*
X97781680Y-73733558D01*
X97781680Y-73733558D02*
X98131867Y-73383372D01*
X122207998Y-107480868D02*
X122127185Y-107507805D01*
X122127185Y-107507805D02*
X122046373Y-107588618D01*
X122046373Y-107588618D02*
X121992498Y-107696367D01*
X121992498Y-107696367D02*
X121992498Y-107804117D01*
X121992498Y-107804117D02*
X122019436Y-107884929D01*
X122019436Y-107884929D02*
X122100248Y-108019616D01*
X122100248Y-108019616D02*
X122181060Y-108100428D01*
X122181060Y-108100428D02*
X122315747Y-108181241D01*
X122315747Y-108181241D02*
X122396560Y-108208178D01*
X122396560Y-108208178D02*
X122504309Y-108208178D01*
X122504309Y-108208178D02*
X122612059Y-108154303D01*
X122612059Y-108154303D02*
X122665934Y-108100428D01*
X122665934Y-108100428D02*
X122719808Y-107992679D01*
X122719808Y-107992679D02*
X122719808Y-107938804D01*
X122719808Y-107938804D02*
X122531247Y-107750242D01*
X122531247Y-107750242D02*
X122423497Y-107857992D01*
X123016120Y-107750242D02*
X122450434Y-107184557D01*
X122450434Y-107184557D02*
X122665934Y-106969057D01*
X122665934Y-106969057D02*
X122746746Y-106942120D01*
X122746746Y-106942120D02*
X122800621Y-106942120D01*
X122800621Y-106942120D02*
X122881433Y-106969057D01*
X122881433Y-106969057D02*
X122962245Y-107049870D01*
X122962245Y-107049870D02*
X122989182Y-107130682D01*
X122989182Y-107130682D02*
X122989182Y-107184557D01*
X122989182Y-107184557D02*
X122962245Y-107265369D01*
X122962245Y-107265369D02*
X122746746Y-107480868D01*
X123878117Y-106888245D02*
X123554868Y-107211494D01*
X123716492Y-107049870D02*
X123150807Y-106484184D01*
X123150807Y-106484184D02*
X123177744Y-106618871D01*
X123177744Y-106618871D02*
X123177744Y-106726621D01*
X123177744Y-106726621D02*
X123150807Y-106807433D01*
X123500993Y-106133998D02*
X123878117Y-105756874D01*
X123878117Y-105756874D02*
X124201366Y-106564996D01*
X96596435Y-66598431D02*
X96515623Y-66625368D01*
X96515623Y-66625368D02*
X96434811Y-66706180D01*
X96434811Y-66706180D02*
X96380936Y-66813930D01*
X96380936Y-66813930D02*
X96380936Y-66921680D01*
X96380936Y-66921680D02*
X96407873Y-67002492D01*
X96407873Y-67002492D02*
X96488685Y-67137179D01*
X96488685Y-67137179D02*
X96569498Y-67217991D01*
X96569498Y-67217991D02*
X96704185Y-67298803D01*
X96704185Y-67298803D02*
X96784997Y-67325741D01*
X96784997Y-67325741D02*
X96892746Y-67325741D01*
X96892746Y-67325741D02*
X97000496Y-67271866D01*
X97000496Y-67271866D02*
X97054371Y-67217991D01*
X97054371Y-67217991D02*
X97108246Y-67110241D01*
X97108246Y-67110241D02*
X97108246Y-67056367D01*
X97108246Y-67056367D02*
X96919684Y-66867805D01*
X96919684Y-66867805D02*
X96811934Y-66975554D01*
X97404557Y-66867805D02*
X96838872Y-66302119D01*
X96838872Y-66302119D02*
X97727806Y-66544556D01*
X97727806Y-66544556D02*
X97162120Y-65978871D01*
X97997180Y-66275182D02*
X97431494Y-65709497D01*
X97431494Y-65709497D02*
X97566181Y-65574810D01*
X97566181Y-65574810D02*
X97673931Y-65520935D01*
X97673931Y-65520935D02*
X97781680Y-65520935D01*
X97781680Y-65520935D02*
X97862493Y-65547872D01*
X97862493Y-65547872D02*
X97997180Y-65628685D01*
X97997180Y-65628685D02*
X98077992Y-65709497D01*
X98077992Y-65709497D02*
X98158804Y-65844184D01*
X98158804Y-65844184D02*
X98185741Y-65924996D01*
X98185741Y-65924996D02*
X98185741Y-66032746D01*
X98185741Y-66032746D02*
X98131867Y-66140495D01*
X98131867Y-66140495D02*
X97997180Y-66275182D01*
X96099998Y-110020868D02*
X96019185Y-110047805D01*
X96019185Y-110047805D02*
X95938373Y-110128618D01*
X95938373Y-110128618D02*
X95884498Y-110236367D01*
X95884498Y-110236367D02*
X95884498Y-110344117D01*
X95884498Y-110344117D02*
X95911436Y-110424929D01*
X95911436Y-110424929D02*
X95992248Y-110559616D01*
X95992248Y-110559616D02*
X96073060Y-110640428D01*
X96073060Y-110640428D02*
X96207747Y-110721241D01*
X96207747Y-110721241D02*
X96288560Y-110748178D01*
X96288560Y-110748178D02*
X96396309Y-110748178D01*
X96396309Y-110748178D02*
X96504059Y-110694303D01*
X96504059Y-110694303D02*
X96557934Y-110640428D01*
X96557934Y-110640428D02*
X96611808Y-110532679D01*
X96611808Y-110532679D02*
X96611808Y-110478804D01*
X96611808Y-110478804D02*
X96423247Y-110290242D01*
X96423247Y-110290242D02*
X96315497Y-110397992D01*
X96908120Y-110290242D02*
X96342434Y-109724557D01*
X96342434Y-109724557D02*
X96557934Y-109509057D01*
X96557934Y-109509057D02*
X96638746Y-109482120D01*
X96638746Y-109482120D02*
X96692621Y-109482120D01*
X96692621Y-109482120D02*
X96773433Y-109509057D01*
X96773433Y-109509057D02*
X96854245Y-109589870D01*
X96854245Y-109589870D02*
X96881182Y-109670682D01*
X96881182Y-109670682D02*
X96881182Y-109724557D01*
X96881182Y-109724557D02*
X96854245Y-109805369D01*
X96854245Y-109805369D02*
X96638746Y-110020868D01*
X97770117Y-109428245D02*
X97446868Y-109751494D01*
X97608492Y-109589870D02*
X97042807Y-109024184D01*
X97042807Y-109024184D02*
X97069744Y-109158871D01*
X97069744Y-109158871D02*
X97069744Y-109266621D01*
X97069744Y-109266621D02*
X97042807Y-109347433D01*
X97716242Y-108350749D02*
X97446868Y-108620123D01*
X97446868Y-108620123D02*
X97689305Y-108916434D01*
X97689305Y-108916434D02*
X97689305Y-108862560D01*
X97689305Y-108862560D02*
X97716242Y-108781747D01*
X97716242Y-108781747D02*
X97850929Y-108647060D01*
X97850929Y-108647060D02*
X97931741Y-108620123D01*
X97931741Y-108620123D02*
X97985616Y-108620123D01*
X97985616Y-108620123D02*
X98066428Y-108647060D01*
X98066428Y-108647060D02*
X98201115Y-108781747D01*
X98201115Y-108781747D02*
X98228053Y-108862560D01*
X98228053Y-108862560D02*
X98228053Y-108916434D01*
X98228053Y-108916434D02*
X98201115Y-108997247D01*
X98201115Y-108997247D02*
X98066428Y-109131934D01*
X98066428Y-109131934D02*
X97985616Y-109158871D01*
X97985616Y-109158871D02*
X97931741Y-109158871D01*
X96523372Y-69111494D02*
X96442560Y-69138431D01*
X96442560Y-69138431D02*
X96361748Y-69219243D01*
X96361748Y-69219243D02*
X96307873Y-69326993D01*
X96307873Y-69326993D02*
X96307873Y-69434742D01*
X96307873Y-69434742D02*
X96334810Y-69515555D01*
X96334810Y-69515555D02*
X96415623Y-69650242D01*
X96415623Y-69650242D02*
X96496435Y-69731054D01*
X96496435Y-69731054D02*
X96631122Y-69811866D01*
X96631122Y-69811866D02*
X96711934Y-69838803D01*
X96711934Y-69838803D02*
X96819684Y-69838803D01*
X96819684Y-69838803D02*
X96927433Y-69784929D01*
X96927433Y-69784929D02*
X96981308Y-69731054D01*
X96981308Y-69731054D02*
X97035183Y-69623304D01*
X97035183Y-69623304D02*
X97035183Y-69569429D01*
X97035183Y-69569429D02*
X96846621Y-69380868D01*
X96846621Y-69380868D02*
X96738871Y-69488617D01*
X97331494Y-69380868D02*
X96765809Y-68815182D01*
X96765809Y-68815182D02*
X96981308Y-68599683D01*
X96981308Y-68599683D02*
X97062120Y-68572746D01*
X97062120Y-68572746D02*
X97115995Y-68572746D01*
X97115995Y-68572746D02*
X97196807Y-68599683D01*
X97196807Y-68599683D02*
X97277619Y-68680495D01*
X97277619Y-68680495D02*
X97304557Y-68761307D01*
X97304557Y-68761307D02*
X97304557Y-68815182D01*
X97304557Y-68815182D02*
X97277619Y-68895994D01*
X97277619Y-68895994D02*
X97062120Y-69111494D01*
X97358432Y-68330309D02*
X97358432Y-68276434D01*
X97358432Y-68276434D02*
X97385369Y-68195622D01*
X97385369Y-68195622D02*
X97520056Y-68060935D01*
X97520056Y-68060935D02*
X97600868Y-68033998D01*
X97600868Y-68033998D02*
X97654743Y-68033998D01*
X97654743Y-68033998D02*
X97735555Y-68060935D01*
X97735555Y-68060935D02*
X97789430Y-68114810D01*
X97789430Y-68114810D02*
X97843305Y-68222559D01*
X97843305Y-68222559D02*
X97843305Y-68869057D01*
X97843305Y-68869057D02*
X98193491Y-68518871D01*
X96623372Y-76731494D02*
X96542560Y-76758431D01*
X96542560Y-76758431D02*
X96461748Y-76839243D01*
X96461748Y-76839243D02*
X96407873Y-76946993D01*
X96407873Y-76946993D02*
X96407873Y-77054742D01*
X96407873Y-77054742D02*
X96434810Y-77135555D01*
X96434810Y-77135555D02*
X96515623Y-77270242D01*
X96515623Y-77270242D02*
X96596435Y-77351054D01*
X96596435Y-77351054D02*
X96731122Y-77431866D01*
X96731122Y-77431866D02*
X96811934Y-77458803D01*
X96811934Y-77458803D02*
X96919684Y-77458803D01*
X96919684Y-77458803D02*
X97027433Y-77404929D01*
X97027433Y-77404929D02*
X97081308Y-77351054D01*
X97081308Y-77351054D02*
X97135183Y-77243304D01*
X97135183Y-77243304D02*
X97135183Y-77189429D01*
X97135183Y-77189429D02*
X96946621Y-77000868D01*
X96946621Y-77000868D02*
X96838871Y-77108617D01*
X97431494Y-77000868D02*
X96865809Y-76435182D01*
X96865809Y-76435182D02*
X97081308Y-76219683D01*
X97081308Y-76219683D02*
X97162120Y-76192746D01*
X97162120Y-76192746D02*
X97215995Y-76192746D01*
X97215995Y-76192746D02*
X97296807Y-76219683D01*
X97296807Y-76219683D02*
X97377619Y-76300495D01*
X97377619Y-76300495D02*
X97404557Y-76381307D01*
X97404557Y-76381307D02*
X97404557Y-76435182D01*
X97404557Y-76435182D02*
X97377619Y-76515994D01*
X97377619Y-76515994D02*
X97162120Y-76731494D01*
X97700868Y-75600123D02*
X97431494Y-75869497D01*
X97431494Y-75869497D02*
X97673931Y-76165808D01*
X97673931Y-76165808D02*
X97673931Y-76111933D01*
X97673931Y-76111933D02*
X97700868Y-76031121D01*
X97700868Y-76031121D02*
X97835555Y-75896434D01*
X97835555Y-75896434D02*
X97916367Y-75869497D01*
X97916367Y-75869497D02*
X97970242Y-75869497D01*
X97970242Y-75869497D02*
X98051054Y-75896434D01*
X98051054Y-75896434D02*
X98185741Y-76031121D01*
X98185741Y-76031121D02*
X98212679Y-76111933D01*
X98212679Y-76111933D02*
X98212679Y-76165808D01*
X98212679Y-76165808D02*
X98185741Y-76246620D01*
X98185741Y-76246620D02*
X98051054Y-76381307D01*
X98051054Y-76381307D02*
X97970242Y-76408245D01*
X97970242Y-76408245D02*
X97916367Y-76408245D01*
X122207998Y-99860868D02*
X122127185Y-99887805D01*
X122127185Y-99887805D02*
X122046373Y-99968618D01*
X122046373Y-99968618D02*
X121992498Y-100076367D01*
X121992498Y-100076367D02*
X121992498Y-100184117D01*
X121992498Y-100184117D02*
X122019436Y-100264929D01*
X122019436Y-100264929D02*
X122100248Y-100399616D01*
X122100248Y-100399616D02*
X122181060Y-100480428D01*
X122181060Y-100480428D02*
X122315747Y-100561241D01*
X122315747Y-100561241D02*
X122396560Y-100588178D01*
X122396560Y-100588178D02*
X122504309Y-100588178D01*
X122504309Y-100588178D02*
X122612059Y-100534303D01*
X122612059Y-100534303D02*
X122665934Y-100480428D01*
X122665934Y-100480428D02*
X122719808Y-100372679D01*
X122719808Y-100372679D02*
X122719808Y-100318804D01*
X122719808Y-100318804D02*
X122531247Y-100130242D01*
X122531247Y-100130242D02*
X122423497Y-100237992D01*
X123016120Y-100130242D02*
X122450434Y-99564557D01*
X122450434Y-99564557D02*
X122665934Y-99349057D01*
X122665934Y-99349057D02*
X122746746Y-99322120D01*
X122746746Y-99322120D02*
X122800621Y-99322120D01*
X122800621Y-99322120D02*
X122881433Y-99349057D01*
X122881433Y-99349057D02*
X122962245Y-99429870D01*
X122962245Y-99429870D02*
X122989182Y-99510682D01*
X122989182Y-99510682D02*
X122989182Y-99564557D01*
X122989182Y-99564557D02*
X122962245Y-99645369D01*
X122962245Y-99645369D02*
X122746746Y-99860868D01*
X123878117Y-99268245D02*
X123554868Y-99591494D01*
X123716492Y-99429870D02*
X123150807Y-98864184D01*
X123150807Y-98864184D02*
X123177744Y-98998871D01*
X123177744Y-98998871D02*
X123177744Y-99106621D01*
X123177744Y-99106621D02*
X123150807Y-99187433D01*
X124147491Y-98998871D02*
X124255240Y-98891121D01*
X124255240Y-98891121D02*
X124282178Y-98810309D01*
X124282178Y-98810309D02*
X124282178Y-98756434D01*
X124282178Y-98756434D02*
X124255240Y-98621747D01*
X124255240Y-98621747D02*
X124174428Y-98487060D01*
X124174428Y-98487060D02*
X123958929Y-98271561D01*
X123958929Y-98271561D02*
X123878117Y-98244624D01*
X123878117Y-98244624D02*
X123824242Y-98244624D01*
X123824242Y-98244624D02*
X123743430Y-98271561D01*
X123743430Y-98271561D02*
X123635680Y-98379311D01*
X123635680Y-98379311D02*
X123608743Y-98460123D01*
X123608743Y-98460123D02*
X123608743Y-98513998D01*
X123608743Y-98513998D02*
X123635680Y-98594810D01*
X123635680Y-98594810D02*
X123770367Y-98729497D01*
X123770367Y-98729497D02*
X123851179Y-98756434D01*
X123851179Y-98756434D02*
X123905054Y-98756434D01*
X123905054Y-98756434D02*
X123985866Y-98729497D01*
X123985866Y-98729497D02*
X124093616Y-98621747D01*
X124093616Y-98621747D02*
X124120553Y-98540935D01*
X124120553Y-98540935D02*
X124120553Y-98487060D01*
X124120553Y-98487060D02*
X124093616Y-98406248D01*
X122207998Y-76746868D02*
X122127185Y-76773805D01*
X122127185Y-76773805D02*
X122046373Y-76854618D01*
X122046373Y-76854618D02*
X121992498Y-76962367D01*
X121992498Y-76962367D02*
X121992498Y-77070117D01*
X121992498Y-77070117D02*
X122019436Y-77150929D01*
X122019436Y-77150929D02*
X122100248Y-77285616D01*
X122100248Y-77285616D02*
X122181060Y-77366428D01*
X122181060Y-77366428D02*
X122315747Y-77447241D01*
X122315747Y-77447241D02*
X122396560Y-77474178D01*
X122396560Y-77474178D02*
X122504309Y-77474178D01*
X122504309Y-77474178D02*
X122612059Y-77420303D01*
X122612059Y-77420303D02*
X122665934Y-77366428D01*
X122665934Y-77366428D02*
X122719808Y-77258679D01*
X122719808Y-77258679D02*
X122719808Y-77204804D01*
X122719808Y-77204804D02*
X122531247Y-77016242D01*
X122531247Y-77016242D02*
X122423497Y-77123992D01*
X123016120Y-77016242D02*
X122450434Y-76450557D01*
X122450434Y-76450557D02*
X122665934Y-76235057D01*
X122665934Y-76235057D02*
X122746746Y-76208120D01*
X122746746Y-76208120D02*
X122800621Y-76208120D01*
X122800621Y-76208120D02*
X122881433Y-76235057D01*
X122881433Y-76235057D02*
X122962245Y-76315870D01*
X122962245Y-76315870D02*
X122989182Y-76396682D01*
X122989182Y-76396682D02*
X122989182Y-76450557D01*
X122989182Y-76450557D02*
X122962245Y-76531369D01*
X122962245Y-76531369D02*
X122746746Y-76746868D01*
X123043057Y-75965683D02*
X123043057Y-75911809D01*
X123043057Y-75911809D02*
X123069995Y-75830996D01*
X123069995Y-75830996D02*
X123204682Y-75696309D01*
X123204682Y-75696309D02*
X123285494Y-75669372D01*
X123285494Y-75669372D02*
X123339369Y-75669372D01*
X123339369Y-75669372D02*
X123420181Y-75696309D01*
X123420181Y-75696309D02*
X123474056Y-75750184D01*
X123474056Y-75750184D02*
X123527930Y-75857934D01*
X123527930Y-75857934D02*
X123527930Y-76504431D01*
X123527930Y-76504431D02*
X123878117Y-76154245D01*
X123878117Y-75507747D02*
X123797305Y-75534685D01*
X123797305Y-75534685D02*
X123743430Y-75534685D01*
X123743430Y-75534685D02*
X123662618Y-75507747D01*
X123662618Y-75507747D02*
X123635680Y-75480810D01*
X123635680Y-75480810D02*
X123608743Y-75399998D01*
X123608743Y-75399998D02*
X123608743Y-75346123D01*
X123608743Y-75346123D02*
X123635680Y-75265311D01*
X123635680Y-75265311D02*
X123743430Y-75157561D01*
X123743430Y-75157561D02*
X123824242Y-75130624D01*
X123824242Y-75130624D02*
X123878117Y-75130624D01*
X123878117Y-75130624D02*
X123958929Y-75157561D01*
X123958929Y-75157561D02*
X123985866Y-75184499D01*
X123985866Y-75184499D02*
X124012804Y-75265311D01*
X124012804Y-75265311D02*
X124012804Y-75319186D01*
X124012804Y-75319186D02*
X123985866Y-75399998D01*
X123985866Y-75399998D02*
X123878117Y-75507747D01*
X123878117Y-75507747D02*
X123851179Y-75588560D01*
X123851179Y-75588560D02*
X123851179Y-75642434D01*
X123851179Y-75642434D02*
X123878117Y-75723247D01*
X123878117Y-75723247D02*
X123985866Y-75830996D01*
X123985866Y-75830996D02*
X124066679Y-75857934D01*
X124066679Y-75857934D02*
X124120553Y-75857934D01*
X124120553Y-75857934D02*
X124201366Y-75830996D01*
X124201366Y-75830996D02*
X124309115Y-75723247D01*
X124309115Y-75723247D02*
X124336053Y-75642434D01*
X124336053Y-75642434D02*
X124336053Y-75588560D01*
X124336053Y-75588560D02*
X124309115Y-75507747D01*
X124309115Y-75507747D02*
X124201366Y-75399998D01*
X124201366Y-75399998D02*
X124120553Y-75373060D01*
X124120553Y-75373060D02*
X124066679Y-75373060D01*
X124066679Y-75373060D02*
X123985866Y-75399998D01*
X122207998Y-110020868D02*
X122127185Y-110047805D01*
X122127185Y-110047805D02*
X122046373Y-110128618D01*
X122046373Y-110128618D02*
X121992498Y-110236367D01*
X121992498Y-110236367D02*
X121992498Y-110344117D01*
X121992498Y-110344117D02*
X122019436Y-110424929D01*
X122019436Y-110424929D02*
X122100248Y-110559616D01*
X122100248Y-110559616D02*
X122181060Y-110640428D01*
X122181060Y-110640428D02*
X122315747Y-110721241D01*
X122315747Y-110721241D02*
X122396560Y-110748178D01*
X122396560Y-110748178D02*
X122504309Y-110748178D01*
X122504309Y-110748178D02*
X122612059Y-110694303D01*
X122612059Y-110694303D02*
X122665934Y-110640428D01*
X122665934Y-110640428D02*
X122719808Y-110532679D01*
X122719808Y-110532679D02*
X122719808Y-110478804D01*
X122719808Y-110478804D02*
X122531247Y-110290242D01*
X122531247Y-110290242D02*
X122423497Y-110397992D01*
X123016120Y-110290242D02*
X122450434Y-109724557D01*
X122450434Y-109724557D02*
X122665934Y-109509057D01*
X122665934Y-109509057D02*
X122746746Y-109482120D01*
X122746746Y-109482120D02*
X122800621Y-109482120D01*
X122800621Y-109482120D02*
X122881433Y-109509057D01*
X122881433Y-109509057D02*
X122962245Y-109589870D01*
X122962245Y-109589870D02*
X122989182Y-109670682D01*
X122989182Y-109670682D02*
X122989182Y-109724557D01*
X122989182Y-109724557D02*
X122962245Y-109805369D01*
X122962245Y-109805369D02*
X122746746Y-110020868D01*
X123878117Y-109428245D02*
X123554868Y-109751494D01*
X123716492Y-109589870D02*
X123150807Y-109024184D01*
X123150807Y-109024184D02*
X123177744Y-109158871D01*
X123177744Y-109158871D02*
X123177744Y-109266621D01*
X123177744Y-109266621D02*
X123150807Y-109347433D01*
X123797305Y-108377686D02*
X123689555Y-108485436D01*
X123689555Y-108485436D02*
X123662618Y-108566248D01*
X123662618Y-108566248D02*
X123662618Y-108620123D01*
X123662618Y-108620123D02*
X123689555Y-108754810D01*
X123689555Y-108754810D02*
X123770367Y-108889497D01*
X123770367Y-108889497D02*
X123985866Y-109104996D01*
X123985866Y-109104996D02*
X124066679Y-109131934D01*
X124066679Y-109131934D02*
X124120553Y-109131934D01*
X124120553Y-109131934D02*
X124201366Y-109104996D01*
X124201366Y-109104996D02*
X124309115Y-108997247D01*
X124309115Y-108997247D02*
X124336053Y-108916434D01*
X124336053Y-108916434D02*
X124336053Y-108862560D01*
X124336053Y-108862560D02*
X124309115Y-108781747D01*
X124309115Y-108781747D02*
X124174428Y-108647060D01*
X124174428Y-108647060D02*
X124093616Y-108620123D01*
X124093616Y-108620123D02*
X124039741Y-108620123D01*
X124039741Y-108620123D02*
X123958929Y-108647060D01*
X123958929Y-108647060D02*
X123851179Y-108754810D01*
X123851179Y-108754810D02*
X123824242Y-108835622D01*
X123824242Y-108835622D02*
X123824242Y-108889497D01*
X123824242Y-108889497D02*
X123851179Y-108970309D01*
X122207998Y-84620868D02*
X122127185Y-84647805D01*
X122127185Y-84647805D02*
X122046373Y-84728618D01*
X122046373Y-84728618D02*
X121992498Y-84836367D01*
X121992498Y-84836367D02*
X121992498Y-84944117D01*
X121992498Y-84944117D02*
X122019436Y-85024929D01*
X122019436Y-85024929D02*
X122100248Y-85159616D01*
X122100248Y-85159616D02*
X122181060Y-85240428D01*
X122181060Y-85240428D02*
X122315747Y-85321241D01*
X122315747Y-85321241D02*
X122396560Y-85348178D01*
X122396560Y-85348178D02*
X122504309Y-85348178D01*
X122504309Y-85348178D02*
X122612059Y-85294303D01*
X122612059Y-85294303D02*
X122665934Y-85240428D01*
X122665934Y-85240428D02*
X122719808Y-85132679D01*
X122719808Y-85132679D02*
X122719808Y-85078804D01*
X122719808Y-85078804D02*
X122531247Y-84890242D01*
X122531247Y-84890242D02*
X122423497Y-84997992D01*
X123016120Y-84890242D02*
X122450434Y-84324557D01*
X122450434Y-84324557D02*
X122665934Y-84109057D01*
X122665934Y-84109057D02*
X122746746Y-84082120D01*
X122746746Y-84082120D02*
X122800621Y-84082120D01*
X122800621Y-84082120D02*
X122881433Y-84109057D01*
X122881433Y-84109057D02*
X122962245Y-84189870D01*
X122962245Y-84189870D02*
X122989182Y-84270682D01*
X122989182Y-84270682D02*
X122989182Y-84324557D01*
X122989182Y-84324557D02*
X122962245Y-84405369D01*
X122962245Y-84405369D02*
X122746746Y-84620868D01*
X123043057Y-83839683D02*
X123043057Y-83785809D01*
X123043057Y-83785809D02*
X123069995Y-83704996D01*
X123069995Y-83704996D02*
X123204682Y-83570309D01*
X123204682Y-83570309D02*
X123285494Y-83543372D01*
X123285494Y-83543372D02*
X123339369Y-83543372D01*
X123339369Y-83543372D02*
X123420181Y-83570309D01*
X123420181Y-83570309D02*
X123474056Y-83624184D01*
X123474056Y-83624184D02*
X123527930Y-83731934D01*
X123527930Y-83731934D02*
X123527930Y-84378431D01*
X123527930Y-84378431D02*
X123878117Y-84028245D01*
X123797305Y-82977686D02*
X123689555Y-83085436D01*
X123689555Y-83085436D02*
X123662618Y-83166248D01*
X123662618Y-83166248D02*
X123662618Y-83220123D01*
X123662618Y-83220123D02*
X123689555Y-83354810D01*
X123689555Y-83354810D02*
X123770367Y-83489497D01*
X123770367Y-83489497D02*
X123985866Y-83704996D01*
X123985866Y-83704996D02*
X124066679Y-83731934D01*
X124066679Y-83731934D02*
X124120553Y-83731934D01*
X124120553Y-83731934D02*
X124201366Y-83704996D01*
X124201366Y-83704996D02*
X124309115Y-83597247D01*
X124309115Y-83597247D02*
X124336053Y-83516434D01*
X124336053Y-83516434D02*
X124336053Y-83462560D01*
X124336053Y-83462560D02*
X124309115Y-83381747D01*
X124309115Y-83381747D02*
X124174428Y-83247060D01*
X124174428Y-83247060D02*
X124093616Y-83220123D01*
X124093616Y-83220123D02*
X124039741Y-83220123D01*
X124039741Y-83220123D02*
X123958929Y-83247060D01*
X123958929Y-83247060D02*
X123851179Y-83354810D01*
X123851179Y-83354810D02*
X123824242Y-83435622D01*
X123824242Y-83435622D02*
X123824242Y-83489497D01*
X123824242Y-83489497D02*
X123851179Y-83570309D01*
X96623372Y-81811494D02*
X96542560Y-81838431D01*
X96542560Y-81838431D02*
X96461748Y-81919243D01*
X96461748Y-81919243D02*
X96407873Y-82026993D01*
X96407873Y-82026993D02*
X96407873Y-82134742D01*
X96407873Y-82134742D02*
X96434810Y-82215555D01*
X96434810Y-82215555D02*
X96515623Y-82350242D01*
X96515623Y-82350242D02*
X96596435Y-82431054D01*
X96596435Y-82431054D02*
X96731122Y-82511866D01*
X96731122Y-82511866D02*
X96811934Y-82538803D01*
X96811934Y-82538803D02*
X96919684Y-82538803D01*
X96919684Y-82538803D02*
X97027433Y-82484929D01*
X97027433Y-82484929D02*
X97081308Y-82431054D01*
X97081308Y-82431054D02*
X97135183Y-82323304D01*
X97135183Y-82323304D02*
X97135183Y-82269429D01*
X97135183Y-82269429D02*
X96946621Y-82080868D01*
X96946621Y-82080868D02*
X96838871Y-82188617D01*
X97431494Y-82080868D02*
X96865809Y-81515182D01*
X96865809Y-81515182D02*
X97081308Y-81299683D01*
X97081308Y-81299683D02*
X97162120Y-81272746D01*
X97162120Y-81272746D02*
X97215995Y-81272746D01*
X97215995Y-81272746D02*
X97296807Y-81299683D01*
X97296807Y-81299683D02*
X97377619Y-81380495D01*
X97377619Y-81380495D02*
X97404557Y-81461307D01*
X97404557Y-81461307D02*
X97404557Y-81515182D01*
X97404557Y-81515182D02*
X97377619Y-81595994D01*
X97377619Y-81595994D02*
X97162120Y-81811494D01*
X97673931Y-80707060D02*
X97566181Y-80814810D01*
X97566181Y-80814810D02*
X97539244Y-80895622D01*
X97539244Y-80895622D02*
X97539244Y-80949497D01*
X97539244Y-80949497D02*
X97566181Y-81084184D01*
X97566181Y-81084184D02*
X97646993Y-81218871D01*
X97646993Y-81218871D02*
X97862493Y-81434370D01*
X97862493Y-81434370D02*
X97943305Y-81461307D01*
X97943305Y-81461307D02*
X97997180Y-81461307D01*
X97997180Y-81461307D02*
X98077992Y-81434370D01*
X98077992Y-81434370D02*
X98185741Y-81326620D01*
X98185741Y-81326620D02*
X98212679Y-81245808D01*
X98212679Y-81245808D02*
X98212679Y-81191933D01*
X98212679Y-81191933D02*
X98185741Y-81111121D01*
X98185741Y-81111121D02*
X98051054Y-80976434D01*
X98051054Y-80976434D02*
X97970242Y-80949497D01*
X97970242Y-80949497D02*
X97916367Y-80949497D01*
X97916367Y-80949497D02*
X97835555Y-80976434D01*
X97835555Y-80976434D02*
X97727806Y-81084184D01*
X97727806Y-81084184D02*
X97700868Y-81164996D01*
X97700868Y-81164996D02*
X97700868Y-81218871D01*
X97700868Y-81218871D02*
X97727806Y-81299683D01*
X122207998Y-82090868D02*
X122127185Y-82117805D01*
X122127185Y-82117805D02*
X122046373Y-82198618D01*
X122046373Y-82198618D02*
X121992498Y-82306367D01*
X121992498Y-82306367D02*
X121992498Y-82414117D01*
X121992498Y-82414117D02*
X122019436Y-82494929D01*
X122019436Y-82494929D02*
X122100248Y-82629616D01*
X122100248Y-82629616D02*
X122181060Y-82710428D01*
X122181060Y-82710428D02*
X122315747Y-82791241D01*
X122315747Y-82791241D02*
X122396560Y-82818178D01*
X122396560Y-82818178D02*
X122504309Y-82818178D01*
X122504309Y-82818178D02*
X122612059Y-82764303D01*
X122612059Y-82764303D02*
X122665934Y-82710428D01*
X122665934Y-82710428D02*
X122719808Y-82602679D01*
X122719808Y-82602679D02*
X122719808Y-82548804D01*
X122719808Y-82548804D02*
X122531247Y-82360242D01*
X122531247Y-82360242D02*
X122423497Y-82467992D01*
X123016120Y-82360242D02*
X122450434Y-81794557D01*
X122450434Y-81794557D02*
X122665934Y-81579057D01*
X122665934Y-81579057D02*
X122746746Y-81552120D01*
X122746746Y-81552120D02*
X122800621Y-81552120D01*
X122800621Y-81552120D02*
X122881433Y-81579057D01*
X122881433Y-81579057D02*
X122962245Y-81659870D01*
X122962245Y-81659870D02*
X122989182Y-81740682D01*
X122989182Y-81740682D02*
X122989182Y-81794557D01*
X122989182Y-81794557D02*
X122962245Y-81875369D01*
X122962245Y-81875369D02*
X122746746Y-82090868D01*
X123043057Y-81309683D02*
X123043057Y-81255809D01*
X123043057Y-81255809D02*
X123069995Y-81174996D01*
X123069995Y-81174996D02*
X123204682Y-81040309D01*
X123204682Y-81040309D02*
X123285494Y-81013372D01*
X123285494Y-81013372D02*
X123339369Y-81013372D01*
X123339369Y-81013372D02*
X123420181Y-81040309D01*
X123420181Y-81040309D02*
X123474056Y-81094184D01*
X123474056Y-81094184D02*
X123527930Y-81201934D01*
X123527930Y-81201934D02*
X123527930Y-81848431D01*
X123527930Y-81848431D02*
X123878117Y-81498245D01*
X123500993Y-80743998D02*
X123878117Y-80366874D01*
X123878117Y-80366874D02*
X124201366Y-81174996D01*
X96099998Y-102400868D02*
X96019185Y-102427805D01*
X96019185Y-102427805D02*
X95938373Y-102508618D01*
X95938373Y-102508618D02*
X95884498Y-102616367D01*
X95884498Y-102616367D02*
X95884498Y-102724117D01*
X95884498Y-102724117D02*
X95911436Y-102804929D01*
X95911436Y-102804929D02*
X95992248Y-102939616D01*
X95992248Y-102939616D02*
X96073060Y-103020428D01*
X96073060Y-103020428D02*
X96207747Y-103101241D01*
X96207747Y-103101241D02*
X96288560Y-103128178D01*
X96288560Y-103128178D02*
X96396309Y-103128178D01*
X96396309Y-103128178D02*
X96504059Y-103074303D01*
X96504059Y-103074303D02*
X96557934Y-103020428D01*
X96557934Y-103020428D02*
X96611808Y-102912679D01*
X96611808Y-102912679D02*
X96611808Y-102858804D01*
X96611808Y-102858804D02*
X96423247Y-102670242D01*
X96423247Y-102670242D02*
X96315497Y-102777992D01*
X96908120Y-102670242D02*
X96342434Y-102104557D01*
X96342434Y-102104557D02*
X96557934Y-101889057D01*
X96557934Y-101889057D02*
X96638746Y-101862120D01*
X96638746Y-101862120D02*
X96692621Y-101862120D01*
X96692621Y-101862120D02*
X96773433Y-101889057D01*
X96773433Y-101889057D02*
X96854245Y-101969870D01*
X96854245Y-101969870D02*
X96881182Y-102050682D01*
X96881182Y-102050682D02*
X96881182Y-102104557D01*
X96881182Y-102104557D02*
X96854245Y-102185369D01*
X96854245Y-102185369D02*
X96638746Y-102400868D01*
X97770117Y-101808245D02*
X97446868Y-102131494D01*
X97608492Y-101969870D02*
X97042807Y-101404184D01*
X97042807Y-101404184D02*
X97069744Y-101538871D01*
X97069744Y-101538871D02*
X97069744Y-101646621D01*
X97069744Y-101646621D02*
X97042807Y-101727433D01*
X97392993Y-101053998D02*
X97743179Y-100703812D01*
X97743179Y-100703812D02*
X97770117Y-101107873D01*
X97770117Y-101107873D02*
X97850929Y-101027060D01*
X97850929Y-101027060D02*
X97931741Y-101000123D01*
X97931741Y-101000123D02*
X97985616Y-101000123D01*
X97985616Y-101000123D02*
X98066428Y-101027060D01*
X98066428Y-101027060D02*
X98201115Y-101161747D01*
X98201115Y-101161747D02*
X98228053Y-101242560D01*
X98228053Y-101242560D02*
X98228053Y-101296434D01*
X98228053Y-101296434D02*
X98201115Y-101377247D01*
X98201115Y-101377247D02*
X98039491Y-101538871D01*
X98039491Y-101538871D02*
X97958679Y-101565808D01*
X97958679Y-101565808D02*
X97904804Y-101565808D01*
X95953998Y-97320868D02*
X95873185Y-97347805D01*
X95873185Y-97347805D02*
X95792373Y-97428618D01*
X95792373Y-97428618D02*
X95738498Y-97536367D01*
X95738498Y-97536367D02*
X95738498Y-97644117D01*
X95738498Y-97644117D02*
X95765436Y-97724929D01*
X95765436Y-97724929D02*
X95846248Y-97859616D01*
X95846248Y-97859616D02*
X95927060Y-97940428D01*
X95927060Y-97940428D02*
X96061747Y-98021241D01*
X96061747Y-98021241D02*
X96142560Y-98048178D01*
X96142560Y-98048178D02*
X96250309Y-98048178D01*
X96250309Y-98048178D02*
X96358059Y-97994303D01*
X96358059Y-97994303D02*
X96411934Y-97940428D01*
X96411934Y-97940428D02*
X96465808Y-97832679D01*
X96465808Y-97832679D02*
X96465808Y-97778804D01*
X96465808Y-97778804D02*
X96277247Y-97590242D01*
X96277247Y-97590242D02*
X96169497Y-97697992D01*
X96762120Y-97590242D02*
X96196434Y-97024557D01*
X96196434Y-97024557D02*
X96411934Y-96809057D01*
X96411934Y-96809057D02*
X96492746Y-96782120D01*
X96492746Y-96782120D02*
X96546621Y-96782120D01*
X96546621Y-96782120D02*
X96627433Y-96809057D01*
X96627433Y-96809057D02*
X96708245Y-96889870D01*
X96708245Y-96889870D02*
X96735182Y-96970682D01*
X96735182Y-96970682D02*
X96735182Y-97024557D01*
X96735182Y-97024557D02*
X96708245Y-97105369D01*
X96708245Y-97105369D02*
X96492746Y-97320868D01*
X97624117Y-96728245D02*
X97300868Y-97051494D01*
X97462492Y-96889870D02*
X96896807Y-96324184D01*
X96896807Y-96324184D02*
X96923744Y-96458871D01*
X96923744Y-96458871D02*
X96923744Y-96566621D01*
X96923744Y-96566621D02*
X96896807Y-96647433D01*
X98162865Y-96189497D02*
X97839616Y-96512746D01*
X98001240Y-96351121D02*
X97435555Y-95785436D01*
X97435555Y-95785436D02*
X97462492Y-95920123D01*
X97462492Y-95920123D02*
X97462492Y-96027873D01*
X97462492Y-96027873D02*
X97435555Y-96108685D01*
X96596435Y-91998431D02*
X96515623Y-92025368D01*
X96515623Y-92025368D02*
X96434811Y-92106180D01*
X96434811Y-92106180D02*
X96380936Y-92213930D01*
X96380936Y-92213930D02*
X96380936Y-92321680D01*
X96380936Y-92321680D02*
X96407873Y-92402492D01*
X96407873Y-92402492D02*
X96488685Y-92537179D01*
X96488685Y-92537179D02*
X96569498Y-92617991D01*
X96569498Y-92617991D02*
X96704185Y-92698803D01*
X96704185Y-92698803D02*
X96784997Y-92725741D01*
X96784997Y-92725741D02*
X96892746Y-92725741D01*
X96892746Y-92725741D02*
X97000496Y-92671866D01*
X97000496Y-92671866D02*
X97054371Y-92617991D01*
X97054371Y-92617991D02*
X97108246Y-92510241D01*
X97108246Y-92510241D02*
X97108246Y-92456367D01*
X97108246Y-92456367D02*
X96919684Y-92267805D01*
X96919684Y-92267805D02*
X96811934Y-92375554D01*
X97404557Y-92267805D02*
X96838872Y-91702119D01*
X96838872Y-91702119D02*
X97727806Y-91944556D01*
X97727806Y-91944556D02*
X97162120Y-91378871D01*
X97997180Y-91675182D02*
X97431494Y-91109497D01*
X97431494Y-91109497D02*
X97566181Y-90974810D01*
X97566181Y-90974810D02*
X97673931Y-90920935D01*
X97673931Y-90920935D02*
X97781680Y-90920935D01*
X97781680Y-90920935D02*
X97862493Y-90947872D01*
X97862493Y-90947872D02*
X97997180Y-91028685D01*
X97997180Y-91028685D02*
X98077992Y-91109497D01*
X98077992Y-91109497D02*
X98158804Y-91244184D01*
X98158804Y-91244184D02*
X98185741Y-91324996D01*
X98185741Y-91324996D02*
X98185741Y-91432746D01*
X98185741Y-91432746D02*
X98131867Y-91540495D01*
X98131867Y-91540495D02*
X97997180Y-91675182D01*
X95953998Y-99860868D02*
X95873185Y-99887805D01*
X95873185Y-99887805D02*
X95792373Y-99968618D01*
X95792373Y-99968618D02*
X95738498Y-100076367D01*
X95738498Y-100076367D02*
X95738498Y-100184117D01*
X95738498Y-100184117D02*
X95765436Y-100264929D01*
X95765436Y-100264929D02*
X95846248Y-100399616D01*
X95846248Y-100399616D02*
X95927060Y-100480428D01*
X95927060Y-100480428D02*
X96061747Y-100561241D01*
X96061747Y-100561241D02*
X96142560Y-100588178D01*
X96142560Y-100588178D02*
X96250309Y-100588178D01*
X96250309Y-100588178D02*
X96358059Y-100534303D01*
X96358059Y-100534303D02*
X96411934Y-100480428D01*
X96411934Y-100480428D02*
X96465808Y-100372679D01*
X96465808Y-100372679D02*
X96465808Y-100318804D01*
X96465808Y-100318804D02*
X96277247Y-100130242D01*
X96277247Y-100130242D02*
X96169497Y-100237992D01*
X96762120Y-100130242D02*
X96196434Y-99564557D01*
X96196434Y-99564557D02*
X96411934Y-99349057D01*
X96411934Y-99349057D02*
X96492746Y-99322120D01*
X96492746Y-99322120D02*
X96546621Y-99322120D01*
X96546621Y-99322120D02*
X96627433Y-99349057D01*
X96627433Y-99349057D02*
X96708245Y-99429870D01*
X96708245Y-99429870D02*
X96735182Y-99510682D01*
X96735182Y-99510682D02*
X96735182Y-99564557D01*
X96735182Y-99564557D02*
X96708245Y-99645369D01*
X96708245Y-99645369D02*
X96492746Y-99860868D01*
X97624117Y-99268245D02*
X97300868Y-99591494D01*
X97462492Y-99429870D02*
X96896807Y-98864184D01*
X96896807Y-98864184D02*
X96923744Y-98998871D01*
X96923744Y-98998871D02*
X96923744Y-99106621D01*
X96923744Y-99106621D02*
X96896807Y-99187433D01*
X97327805Y-98540935D02*
X97327805Y-98487060D01*
X97327805Y-98487060D02*
X97354743Y-98406248D01*
X97354743Y-98406248D02*
X97489430Y-98271561D01*
X97489430Y-98271561D02*
X97570242Y-98244624D01*
X97570242Y-98244624D02*
X97624117Y-98244624D01*
X97624117Y-98244624D02*
X97704929Y-98271561D01*
X97704929Y-98271561D02*
X97758804Y-98325436D01*
X97758804Y-98325436D02*
X97812679Y-98433186D01*
X97812679Y-98433186D02*
X97812679Y-99079683D01*
X97812679Y-99079683D02*
X98162865Y-98729497D01*
X96623372Y-86891494D02*
X96542560Y-86918431D01*
X96542560Y-86918431D02*
X96461748Y-86999243D01*
X96461748Y-86999243D02*
X96407873Y-87106993D01*
X96407873Y-87106993D02*
X96407873Y-87214742D01*
X96407873Y-87214742D02*
X96434810Y-87295555D01*
X96434810Y-87295555D02*
X96515623Y-87430242D01*
X96515623Y-87430242D02*
X96596435Y-87511054D01*
X96596435Y-87511054D02*
X96731122Y-87591866D01*
X96731122Y-87591866D02*
X96811934Y-87618803D01*
X96811934Y-87618803D02*
X96919684Y-87618803D01*
X96919684Y-87618803D02*
X97027433Y-87564929D01*
X97027433Y-87564929D02*
X97081308Y-87511054D01*
X97081308Y-87511054D02*
X97135183Y-87403304D01*
X97135183Y-87403304D02*
X97135183Y-87349429D01*
X97135183Y-87349429D02*
X96946621Y-87160868D01*
X96946621Y-87160868D02*
X96838871Y-87268617D01*
X97431494Y-87160868D02*
X96865809Y-86595182D01*
X96865809Y-86595182D02*
X97081308Y-86379683D01*
X97081308Y-86379683D02*
X97162120Y-86352746D01*
X97162120Y-86352746D02*
X97215995Y-86352746D01*
X97215995Y-86352746D02*
X97296807Y-86379683D01*
X97296807Y-86379683D02*
X97377619Y-86460495D01*
X97377619Y-86460495D02*
X97404557Y-86541307D01*
X97404557Y-86541307D02*
X97404557Y-86595182D01*
X97404557Y-86595182D02*
X97377619Y-86675994D01*
X97377619Y-86675994D02*
X97162120Y-86891494D01*
X97754743Y-86191121D02*
X97673931Y-86218059D01*
X97673931Y-86218059D02*
X97620056Y-86218059D01*
X97620056Y-86218059D02*
X97539244Y-86191121D01*
X97539244Y-86191121D02*
X97512306Y-86164184D01*
X97512306Y-86164184D02*
X97485369Y-86083372D01*
X97485369Y-86083372D02*
X97485369Y-86029497D01*
X97485369Y-86029497D02*
X97512306Y-85948685D01*
X97512306Y-85948685D02*
X97620056Y-85840935D01*
X97620056Y-85840935D02*
X97700868Y-85813998D01*
X97700868Y-85813998D02*
X97754743Y-85813998D01*
X97754743Y-85813998D02*
X97835555Y-85840935D01*
X97835555Y-85840935D02*
X97862493Y-85867872D01*
X97862493Y-85867872D02*
X97889430Y-85948685D01*
X97889430Y-85948685D02*
X97889430Y-86002559D01*
X97889430Y-86002559D02*
X97862493Y-86083372D01*
X97862493Y-86083372D02*
X97754743Y-86191121D01*
X97754743Y-86191121D02*
X97727806Y-86271933D01*
X97727806Y-86271933D02*
X97727806Y-86325808D01*
X97727806Y-86325808D02*
X97754743Y-86406620D01*
X97754743Y-86406620D02*
X97862493Y-86514370D01*
X97862493Y-86514370D02*
X97943305Y-86541307D01*
X97943305Y-86541307D02*
X97997180Y-86541307D01*
X97997180Y-86541307D02*
X98077992Y-86514370D01*
X98077992Y-86514370D02*
X98185741Y-86406620D01*
X98185741Y-86406620D02*
X98212679Y-86325808D01*
X98212679Y-86325808D02*
X98212679Y-86271933D01*
X98212679Y-86271933D02*
X98185741Y-86191121D01*
X98185741Y-86191121D02*
X98077992Y-86083372D01*
X98077992Y-86083372D02*
X97997180Y-86056434D01*
X97997180Y-86056434D02*
X97943305Y-86056434D01*
X97943305Y-86056434D02*
X97862493Y-86083372D01*
X122063406Y-62027585D02*
X122817653Y-62404709D01*
X122817653Y-62404709D02*
X122440529Y-61650462D01*
X123087027Y-61542712D02*
X123194776Y-61488838D01*
X123194776Y-61488838D02*
X123248651Y-61488838D01*
X123248651Y-61488838D02*
X123329463Y-61515775D01*
X123329463Y-61515775D02*
X123410276Y-61596587D01*
X123410276Y-61596587D02*
X123437213Y-61677399D01*
X123437213Y-61677399D02*
X123437213Y-61731274D01*
X123437213Y-61731274D02*
X123410276Y-61812086D01*
X123410276Y-61812086D02*
X123194776Y-62027586D01*
X123194776Y-62027586D02*
X122629091Y-61461900D01*
X122629091Y-61461900D02*
X122817653Y-61273338D01*
X122817653Y-61273338D02*
X122898465Y-61246401D01*
X122898465Y-61246401D02*
X122952340Y-61246401D01*
X122952340Y-61246401D02*
X123033152Y-61273338D01*
X123033152Y-61273338D02*
X123087027Y-61327213D01*
X123087027Y-61327213D02*
X123113964Y-61408025D01*
X123113964Y-61408025D02*
X123113964Y-61461900D01*
X123113964Y-61461900D02*
X123087027Y-61542712D01*
X123087027Y-61542712D02*
X122898465Y-61731274D01*
X123194776Y-60896215D02*
X123652712Y-61354151D01*
X123652712Y-61354151D02*
X123733524Y-61381088D01*
X123733524Y-61381088D02*
X123787399Y-61381088D01*
X123787399Y-61381088D02*
X123868211Y-61354151D01*
X123868211Y-61354151D02*
X123975961Y-61246401D01*
X123975961Y-61246401D02*
X124002898Y-61165589D01*
X124002898Y-61165589D02*
X124002898Y-61111714D01*
X124002898Y-61111714D02*
X123975961Y-61030902D01*
X123975961Y-61030902D02*
X123518025Y-60572966D01*
X124299210Y-60869277D02*
X124406959Y-60815403D01*
X124406959Y-60815403D02*
X124541646Y-60680716D01*
X124541646Y-60680716D02*
X124568584Y-60599903D01*
X124568584Y-60599903D02*
X124568584Y-60546029D01*
X124568584Y-60546029D02*
X124541646Y-60465216D01*
X124541646Y-60465216D02*
X124487771Y-60411342D01*
X124487771Y-60411342D02*
X124406959Y-60384404D01*
X124406959Y-60384404D02*
X124353084Y-60384404D01*
X124353084Y-60384404D02*
X124272272Y-60411342D01*
X124272272Y-60411342D02*
X124137585Y-60492154D01*
X124137585Y-60492154D02*
X124056773Y-60519091D01*
X124056773Y-60519091D02*
X124002898Y-60519091D01*
X124002898Y-60519091D02*
X123922086Y-60492154D01*
X123922086Y-60492154D02*
X123868211Y-60438279D01*
X123868211Y-60438279D02*
X123841274Y-60357467D01*
X123841274Y-60357467D02*
X123841274Y-60303592D01*
X123841274Y-60303592D02*
X123868211Y-60222780D01*
X123868211Y-60222780D02*
X124002898Y-60088093D01*
X124002898Y-60088093D02*
X124110648Y-60034218D01*
X122948651Y-87443710D02*
X122490716Y-87362898D01*
X122625403Y-87766959D02*
X122059717Y-87201274D01*
X122059717Y-87201274D02*
X122275216Y-86985775D01*
X122275216Y-86985775D02*
X122356029Y-86958837D01*
X122356029Y-86958837D02*
X122409903Y-86958837D01*
X122409903Y-86958837D02*
X122490716Y-86985775D01*
X122490716Y-86985775D02*
X122571528Y-87066587D01*
X122571528Y-87066587D02*
X122598465Y-87147399D01*
X122598465Y-87147399D02*
X122598465Y-87201274D01*
X122598465Y-87201274D02*
X122571528Y-87282086D01*
X122571528Y-87282086D02*
X122356029Y-87497585D01*
X122625403Y-86635588D02*
X123083338Y-87093524D01*
X123083338Y-87093524D02*
X123164151Y-87120462D01*
X123164151Y-87120462D02*
X123218025Y-87120462D01*
X123218025Y-87120462D02*
X123298838Y-87093524D01*
X123298838Y-87093524D02*
X123406587Y-86985775D01*
X123406587Y-86985775D02*
X123433525Y-86904962D01*
X123433525Y-86904962D02*
X123433525Y-86851088D01*
X123433525Y-86851088D02*
X123406587Y-86770275D01*
X123406587Y-86770275D02*
X122948651Y-86312340D01*
X123783711Y-86608651D02*
X123218025Y-86042966D01*
X123218025Y-86042966D02*
X124106959Y-86285402D01*
X124106959Y-86285402D02*
X123541274Y-85719717D01*
X96723372Y-84321494D02*
X96642560Y-84348431D01*
X96642560Y-84348431D02*
X96561748Y-84429243D01*
X96561748Y-84429243D02*
X96507873Y-84536993D01*
X96507873Y-84536993D02*
X96507873Y-84644742D01*
X96507873Y-84644742D02*
X96534810Y-84725555D01*
X96534810Y-84725555D02*
X96615623Y-84860242D01*
X96615623Y-84860242D02*
X96696435Y-84941054D01*
X96696435Y-84941054D02*
X96831122Y-85021866D01*
X96831122Y-85021866D02*
X96911934Y-85048803D01*
X96911934Y-85048803D02*
X97019684Y-85048803D01*
X97019684Y-85048803D02*
X97127433Y-84994929D01*
X97127433Y-84994929D02*
X97181308Y-84941054D01*
X97181308Y-84941054D02*
X97235183Y-84833304D01*
X97235183Y-84833304D02*
X97235183Y-84779429D01*
X97235183Y-84779429D02*
X97046621Y-84590868D01*
X97046621Y-84590868D02*
X96938871Y-84698617D01*
X97531494Y-84590868D02*
X96965809Y-84025182D01*
X96965809Y-84025182D02*
X97181308Y-83809683D01*
X97181308Y-83809683D02*
X97262120Y-83782746D01*
X97262120Y-83782746D02*
X97315995Y-83782746D01*
X97315995Y-83782746D02*
X97396807Y-83809683D01*
X97396807Y-83809683D02*
X97477619Y-83890495D01*
X97477619Y-83890495D02*
X97504557Y-83971307D01*
X97504557Y-83971307D02*
X97504557Y-84025182D01*
X97504557Y-84025182D02*
X97477619Y-84105994D01*
X97477619Y-84105994D02*
X97262120Y-84321494D01*
X97477619Y-83513372D02*
X97854743Y-83136248D01*
X97854743Y-83136248D02*
X98177992Y-83944370D01*
X96053998Y-107480868D02*
X95973185Y-107507805D01*
X95973185Y-107507805D02*
X95892373Y-107588618D01*
X95892373Y-107588618D02*
X95838498Y-107696367D01*
X95838498Y-107696367D02*
X95838498Y-107804117D01*
X95838498Y-107804117D02*
X95865436Y-107884929D01*
X95865436Y-107884929D02*
X95946248Y-108019616D01*
X95946248Y-108019616D02*
X96027060Y-108100428D01*
X96027060Y-108100428D02*
X96161747Y-108181241D01*
X96161747Y-108181241D02*
X96242560Y-108208178D01*
X96242560Y-108208178D02*
X96350309Y-108208178D01*
X96350309Y-108208178D02*
X96458059Y-108154303D01*
X96458059Y-108154303D02*
X96511934Y-108100428D01*
X96511934Y-108100428D02*
X96565808Y-107992679D01*
X96565808Y-107992679D02*
X96565808Y-107938804D01*
X96565808Y-107938804D02*
X96377247Y-107750242D01*
X96377247Y-107750242D02*
X96269497Y-107857992D01*
X96862120Y-107750242D02*
X96296434Y-107184557D01*
X96296434Y-107184557D02*
X96511934Y-106969057D01*
X96511934Y-106969057D02*
X96592746Y-106942120D01*
X96592746Y-106942120D02*
X96646621Y-106942120D01*
X96646621Y-106942120D02*
X96727433Y-106969057D01*
X96727433Y-106969057D02*
X96808245Y-107049870D01*
X96808245Y-107049870D02*
X96835182Y-107130682D01*
X96835182Y-107130682D02*
X96835182Y-107184557D01*
X96835182Y-107184557D02*
X96808245Y-107265369D01*
X96808245Y-107265369D02*
X96592746Y-107480868D01*
X97724117Y-106888245D02*
X97400868Y-107211494D01*
X97562492Y-107049870D02*
X96996807Y-106484184D01*
X96996807Y-106484184D02*
X97023744Y-106618871D01*
X97023744Y-106618871D02*
X97023744Y-106726621D01*
X97023744Y-106726621D02*
X96996807Y-106807433D01*
X97831866Y-106026248D02*
X98208990Y-106403372D01*
X97481680Y-105945436D02*
X97751054Y-106484184D01*
X97751054Y-106484184D02*
X98101240Y-106133998D01*
X122265064Y-75034049D02*
X122534438Y-74764675D01*
X122372813Y-75249549D02*
X121995690Y-74495301D01*
X121995690Y-74495301D02*
X122749937Y-74872425D01*
X122938499Y-74683863D02*
X122372813Y-74118178D01*
X122372813Y-74118178D02*
X122507500Y-73983491D01*
X122507500Y-73983491D02*
X122615250Y-73929616D01*
X122615250Y-73929616D02*
X122722999Y-73929616D01*
X122722999Y-73929616D02*
X122803812Y-73956553D01*
X122803812Y-73956553D02*
X122938499Y-74037366D01*
X122938499Y-74037366D02*
X123019311Y-74118178D01*
X123019311Y-74118178D02*
X123100123Y-74252865D01*
X123100123Y-74252865D02*
X123127060Y-74333677D01*
X123127060Y-74333677D02*
X123127060Y-74441427D01*
X123127060Y-74441427D02*
X123073186Y-74549176D01*
X123073186Y-74549176D02*
X122938499Y-74683863D01*
X123773558Y-73741054D02*
X123773558Y-73794929D01*
X123773558Y-73794929D02*
X123719683Y-73902679D01*
X123719683Y-73902679D02*
X123665808Y-73956553D01*
X123665808Y-73956553D02*
X123558059Y-74010428D01*
X123558059Y-74010428D02*
X123450309Y-74010428D01*
X123450309Y-74010428D02*
X123369497Y-73983491D01*
X123369497Y-73983491D02*
X123234810Y-73902679D01*
X123234810Y-73902679D02*
X123153998Y-73821866D01*
X123153998Y-73821866D02*
X123073186Y-73687179D01*
X123073186Y-73687179D02*
X123046248Y-73606367D01*
X123046248Y-73606367D02*
X123046248Y-73498618D01*
X123046248Y-73498618D02*
X123100123Y-73390868D01*
X123100123Y-73390868D02*
X123153998Y-73336993D01*
X123153998Y-73336993D02*
X123261747Y-73283118D01*
X123261747Y-73283118D02*
X123315622Y-73283118D01*
X123989057Y-73741054D02*
X124420056Y-73310056D01*
X123854370Y-72636621D02*
X124608618Y-73013744D01*
X124608618Y-73013744D02*
X124231494Y-72259497D01*
X125308990Y-72313372D02*
X124851054Y-72232560D01*
X124985741Y-72636621D02*
X124420056Y-72070935D01*
X124420056Y-72070935D02*
X124635555Y-71855436D01*
X124635555Y-71855436D02*
X124716367Y-71828499D01*
X124716367Y-71828499D02*
X124770242Y-71828499D01*
X124770242Y-71828499D02*
X124851054Y-71855436D01*
X124851054Y-71855436D02*
X124931866Y-71936248D01*
X124931866Y-71936248D02*
X124958804Y-72017061D01*
X124958804Y-72017061D02*
X124958804Y-72070935D01*
X124958804Y-72070935D02*
X124931866Y-72151748D01*
X124931866Y-72151748D02*
X124716367Y-72367247D01*
X125255115Y-71774624D02*
X125443677Y-71586062D01*
X125820800Y-71801561D02*
X125551426Y-72070935D01*
X125551426Y-72070935D02*
X124985741Y-71505250D01*
X124985741Y-71505250D02*
X125255115Y-71235876D01*
X125955488Y-71074251D02*
X125766926Y-71262813D01*
X126063237Y-71559125D02*
X125497552Y-70993439D01*
X125497552Y-70993439D02*
X125766926Y-70724065D01*
X114014761Y-112024200D02*
X114129047Y-112062295D01*
X114129047Y-112062295D02*
X114319523Y-112062295D01*
X114319523Y-112062295D02*
X114395714Y-112024200D01*
X114395714Y-112024200D02*
X114433809Y-111986104D01*
X114433809Y-111986104D02*
X114471904Y-111909914D01*
X114471904Y-111909914D02*
X114471904Y-111833723D01*
X114471904Y-111833723D02*
X114433809Y-111757533D01*
X114433809Y-111757533D02*
X114395714Y-111719438D01*
X114395714Y-111719438D02*
X114319523Y-111681342D01*
X114319523Y-111681342D02*
X114167142Y-111643247D01*
X114167142Y-111643247D02*
X114090952Y-111605152D01*
X114090952Y-111605152D02*
X114052857Y-111567057D01*
X114052857Y-111567057D02*
X114014761Y-111490866D01*
X114014761Y-111490866D02*
X114014761Y-111414676D01*
X114014761Y-111414676D02*
X114052857Y-111338485D01*
X114052857Y-111338485D02*
X114090952Y-111300390D01*
X114090952Y-111300390D02*
X114167142Y-111262295D01*
X114167142Y-111262295D02*
X114357619Y-111262295D01*
X114357619Y-111262295D02*
X114471904Y-111300390D01*
X114738571Y-111262295D02*
X114929047Y-112062295D01*
X114929047Y-112062295D02*
X115081428Y-111490866D01*
X115081428Y-111490866D02*
X115233809Y-112062295D01*
X115233809Y-112062295D02*
X115424286Y-111262295D01*
X115729048Y-112062295D02*
X115729048Y-111262295D01*
X115729048Y-111262295D02*
X115919524Y-111262295D01*
X115919524Y-111262295D02*
X116033810Y-111300390D01*
X116033810Y-111300390D02*
X116110000Y-111376580D01*
X116110000Y-111376580D02*
X116148095Y-111452771D01*
X116148095Y-111452771D02*
X116186191Y-111605152D01*
X116186191Y-111605152D02*
X116186191Y-111719438D01*
X116186191Y-111719438D02*
X116148095Y-111871819D01*
X116148095Y-111871819D02*
X116110000Y-111948009D01*
X116110000Y-111948009D02*
X116033810Y-112024200D01*
X116033810Y-112024200D02*
X115919524Y-112062295D01*
X115919524Y-112062295D02*
X115729048Y-112062295D01*
X116529048Y-112062295D02*
X116529048Y-111262295D01*
X117062381Y-111262295D02*
X117214762Y-111262295D01*
X117214762Y-111262295D02*
X117290952Y-111300390D01*
X117290952Y-111300390D02*
X117367143Y-111376580D01*
X117367143Y-111376580D02*
X117405238Y-111528961D01*
X117405238Y-111528961D02*
X117405238Y-111795628D01*
X117405238Y-111795628D02*
X117367143Y-111948009D01*
X117367143Y-111948009D02*
X117290952Y-112024200D01*
X117290952Y-112024200D02*
X117214762Y-112062295D01*
X117214762Y-112062295D02*
X117062381Y-112062295D01*
X117062381Y-112062295D02*
X116986190Y-112024200D01*
X116986190Y-112024200D02*
X116910000Y-111948009D01*
X116910000Y-111948009D02*
X116871904Y-111795628D01*
X116871904Y-111795628D02*
X116871904Y-111528961D01*
X116871904Y-111528961D02*
X116910000Y-111376580D01*
X116910000Y-111376580D02*
X116986190Y-111300390D01*
X116986190Y-111300390D02*
X117062381Y-111262295D01*
X102600475Y-112024200D02*
X102714761Y-112062295D01*
X102714761Y-112062295D02*
X102905237Y-112062295D01*
X102905237Y-112062295D02*
X102981428Y-112024200D01*
X102981428Y-112024200D02*
X103019523Y-111986104D01*
X103019523Y-111986104D02*
X103057618Y-111909914D01*
X103057618Y-111909914D02*
X103057618Y-111833723D01*
X103057618Y-111833723D02*
X103019523Y-111757533D01*
X103019523Y-111757533D02*
X102981428Y-111719438D01*
X102981428Y-111719438D02*
X102905237Y-111681342D01*
X102905237Y-111681342D02*
X102752856Y-111643247D01*
X102752856Y-111643247D02*
X102676666Y-111605152D01*
X102676666Y-111605152D02*
X102638571Y-111567057D01*
X102638571Y-111567057D02*
X102600475Y-111490866D01*
X102600475Y-111490866D02*
X102600475Y-111414676D01*
X102600475Y-111414676D02*
X102638571Y-111338485D01*
X102638571Y-111338485D02*
X102676666Y-111300390D01*
X102676666Y-111300390D02*
X102752856Y-111262295D01*
X102752856Y-111262295D02*
X102943333Y-111262295D01*
X102943333Y-111262295D02*
X103057618Y-111300390D01*
X103324285Y-111262295D02*
X103514761Y-112062295D01*
X103514761Y-112062295D02*
X103667142Y-111490866D01*
X103667142Y-111490866D02*
X103819523Y-112062295D01*
X103819523Y-112062295D02*
X104010000Y-111262295D01*
X104771905Y-111986104D02*
X104733809Y-112024200D01*
X104733809Y-112024200D02*
X104619524Y-112062295D01*
X104619524Y-112062295D02*
X104543333Y-112062295D01*
X104543333Y-112062295D02*
X104429047Y-112024200D01*
X104429047Y-112024200D02*
X104352857Y-111948009D01*
X104352857Y-111948009D02*
X104314762Y-111871819D01*
X104314762Y-111871819D02*
X104276666Y-111719438D01*
X104276666Y-111719438D02*
X104276666Y-111605152D01*
X104276666Y-111605152D02*
X104314762Y-111452771D01*
X104314762Y-111452771D02*
X104352857Y-111376580D01*
X104352857Y-111376580D02*
X104429047Y-111300390D01*
X104429047Y-111300390D02*
X104543333Y-111262295D01*
X104543333Y-111262295D02*
X104619524Y-111262295D01*
X104619524Y-111262295D02*
X104733809Y-111300390D01*
X104733809Y-111300390D02*
X104771905Y-111338485D01*
X105495714Y-112062295D02*
X105114762Y-112062295D01*
X105114762Y-112062295D02*
X105114762Y-111262295D01*
X105762381Y-112062295D02*
X105762381Y-111262295D01*
X106219524Y-112062295D02*
X105876666Y-111605152D01*
X106219524Y-111262295D02*
X105762381Y-111719438D01*
X96623372Y-61491494D02*
X96542560Y-61518431D01*
X96542560Y-61518431D02*
X96461748Y-61599243D01*
X96461748Y-61599243D02*
X96407873Y-61706993D01*
X96407873Y-61706993D02*
X96407873Y-61814742D01*
X96407873Y-61814742D02*
X96434810Y-61895555D01*
X96434810Y-61895555D02*
X96515623Y-62030242D01*
X96515623Y-62030242D02*
X96596435Y-62111054D01*
X96596435Y-62111054D02*
X96731122Y-62191866D01*
X96731122Y-62191866D02*
X96811934Y-62218803D01*
X96811934Y-62218803D02*
X96919684Y-62218803D01*
X96919684Y-62218803D02*
X97027433Y-62164929D01*
X97027433Y-62164929D02*
X97081308Y-62111054D01*
X97081308Y-62111054D02*
X97135183Y-62003304D01*
X97135183Y-62003304D02*
X97135183Y-61949429D01*
X97135183Y-61949429D02*
X96946621Y-61760868D01*
X96946621Y-61760868D02*
X96838871Y-61868617D01*
X97431494Y-61760868D02*
X96865809Y-61195182D01*
X96865809Y-61195182D02*
X97081308Y-60979683D01*
X97081308Y-60979683D02*
X97162120Y-60952746D01*
X97162120Y-60952746D02*
X97215995Y-60952746D01*
X97215995Y-60952746D02*
X97296807Y-60979683D01*
X97296807Y-60979683D02*
X97377619Y-61060495D01*
X97377619Y-61060495D02*
X97404557Y-61141307D01*
X97404557Y-61141307D02*
X97404557Y-61195182D01*
X97404557Y-61195182D02*
X97377619Y-61275994D01*
X97377619Y-61275994D02*
X97162120Y-61491494D01*
X97539244Y-60521747D02*
X97593119Y-60467872D01*
X97593119Y-60467872D02*
X97673931Y-60440935D01*
X97673931Y-60440935D02*
X97727806Y-60440935D01*
X97727806Y-60440935D02*
X97808618Y-60467872D01*
X97808618Y-60467872D02*
X97943305Y-60548685D01*
X97943305Y-60548685D02*
X98077992Y-60683372D01*
X98077992Y-60683372D02*
X98158804Y-60818059D01*
X98158804Y-60818059D02*
X98185741Y-60898871D01*
X98185741Y-60898871D02*
X98185741Y-60952746D01*
X98185741Y-60952746D02*
X98158804Y-61033558D01*
X98158804Y-61033558D02*
X98104929Y-61087433D01*
X98104929Y-61087433D02*
X98024117Y-61114370D01*
X98024117Y-61114370D02*
X97970242Y-61114370D01*
X97970242Y-61114370D02*
X97889430Y-61087433D01*
X97889430Y-61087433D02*
X97754743Y-61006620D01*
X97754743Y-61006620D02*
X97620056Y-60871933D01*
X97620056Y-60871933D02*
X97539244Y-60737246D01*
X97539244Y-60737246D02*
X97512306Y-60656434D01*
X97512306Y-60656434D02*
X97512306Y-60602559D01*
X97512306Y-60602559D02*
X97539244Y-60521747D01*
X122030749Y-64570242D02*
X122784996Y-64947366D01*
X122784996Y-64947366D02*
X122407873Y-64193118D01*
X123108245Y-64570242D02*
X123215995Y-64516367D01*
X123215995Y-64516367D02*
X123350682Y-64381680D01*
X123350682Y-64381680D02*
X123377619Y-64300868D01*
X123377619Y-64300868D02*
X123377619Y-64246993D01*
X123377619Y-64246993D02*
X123350682Y-64166181D01*
X123350682Y-64166181D02*
X123296807Y-64112306D01*
X123296807Y-64112306D02*
X123215995Y-64085369D01*
X123215995Y-64085369D02*
X123162120Y-64085369D01*
X123162120Y-64085369D02*
X123081308Y-64112306D01*
X123081308Y-64112306D02*
X122946621Y-64193118D01*
X122946621Y-64193118D02*
X122865808Y-64220056D01*
X122865808Y-64220056D02*
X122811934Y-64220056D01*
X122811934Y-64220056D02*
X122731121Y-64193118D01*
X122731121Y-64193118D02*
X122677247Y-64139244D01*
X122677247Y-64139244D02*
X122650309Y-64058431D01*
X122650309Y-64058431D02*
X122650309Y-64004557D01*
X122650309Y-64004557D02*
X122677247Y-63923744D01*
X122677247Y-63923744D02*
X122811934Y-63789057D01*
X122811934Y-63789057D02*
X122919683Y-63735183D01*
X123539244Y-63654370D02*
X123808618Y-63923744D01*
X123054370Y-63546621D02*
X123539244Y-63654370D01*
X123539244Y-63654370D02*
X123431494Y-63169497D01*
X124131866Y-63546621D02*
X124239616Y-63492746D01*
X124239616Y-63492746D02*
X124374303Y-63358059D01*
X124374303Y-63358059D02*
X124401240Y-63277247D01*
X124401240Y-63277247D02*
X124401240Y-63223372D01*
X124401240Y-63223372D02*
X124374303Y-63142560D01*
X124374303Y-63142560D02*
X124320428Y-63088685D01*
X124320428Y-63088685D02*
X124239616Y-63061748D01*
X124239616Y-63061748D02*
X124185741Y-63061748D01*
X124185741Y-63061748D02*
X124104929Y-63088685D01*
X124104929Y-63088685D02*
X123970242Y-63169497D01*
X123970242Y-63169497D02*
X123889430Y-63196435D01*
X123889430Y-63196435D02*
X123835555Y-63196435D01*
X123835555Y-63196435D02*
X123754743Y-63169497D01*
X123754743Y-63169497D02*
X123700868Y-63115622D01*
X123700868Y-63115622D02*
X123673930Y-63034810D01*
X123673930Y-63034810D02*
X123673930Y-62980935D01*
X123673930Y-62980935D02*
X123700868Y-62900123D01*
X123700868Y-62900123D02*
X123835555Y-62765436D01*
X123835555Y-62765436D02*
X123943304Y-62711561D01*
X122196435Y-91998431D02*
X122115623Y-92025368D01*
X122115623Y-92025368D02*
X122034811Y-92106180D01*
X122034811Y-92106180D02*
X121980936Y-92213930D01*
X121980936Y-92213930D02*
X121980936Y-92321680D01*
X121980936Y-92321680D02*
X122007873Y-92402492D01*
X122007873Y-92402492D02*
X122088685Y-92537179D01*
X122088685Y-92537179D02*
X122169498Y-92617991D01*
X122169498Y-92617991D02*
X122304185Y-92698803D01*
X122304185Y-92698803D02*
X122384997Y-92725741D01*
X122384997Y-92725741D02*
X122492746Y-92725741D01*
X122492746Y-92725741D02*
X122600496Y-92671866D01*
X122600496Y-92671866D02*
X122654371Y-92617991D01*
X122654371Y-92617991D02*
X122708246Y-92510241D01*
X122708246Y-92510241D02*
X122708246Y-92456367D01*
X122708246Y-92456367D02*
X122519684Y-92267805D01*
X122519684Y-92267805D02*
X122411934Y-92375554D01*
X123004557Y-92267805D02*
X122438872Y-91702119D01*
X122438872Y-91702119D02*
X123327806Y-91944556D01*
X123327806Y-91944556D02*
X122762120Y-91378871D01*
X123597180Y-91675182D02*
X123031494Y-91109497D01*
X123031494Y-91109497D02*
X123166181Y-90974810D01*
X123166181Y-90974810D02*
X123273931Y-90920935D01*
X123273931Y-90920935D02*
X123381680Y-90920935D01*
X123381680Y-90920935D02*
X123462493Y-90947872D01*
X123462493Y-90947872D02*
X123597180Y-91028685D01*
X123597180Y-91028685D02*
X123677992Y-91109497D01*
X123677992Y-91109497D02*
X123758804Y-91244184D01*
X123758804Y-91244184D02*
X123785741Y-91324996D01*
X123785741Y-91324996D02*
X123785741Y-91432746D01*
X123785741Y-91432746D02*
X123731867Y-91540495D01*
X123731867Y-91540495D02*
X123597180Y-91675182D01*
X122207998Y-94790868D02*
X122127185Y-94817805D01*
X122127185Y-94817805D02*
X122046373Y-94898618D01*
X122046373Y-94898618D02*
X121992498Y-95006367D01*
X121992498Y-95006367D02*
X121992498Y-95114117D01*
X121992498Y-95114117D02*
X122019436Y-95194929D01*
X122019436Y-95194929D02*
X122100248Y-95329616D01*
X122100248Y-95329616D02*
X122181060Y-95410428D01*
X122181060Y-95410428D02*
X122315747Y-95491241D01*
X122315747Y-95491241D02*
X122396560Y-95518178D01*
X122396560Y-95518178D02*
X122504309Y-95518178D01*
X122504309Y-95518178D02*
X122612059Y-95464303D01*
X122612059Y-95464303D02*
X122665934Y-95410428D01*
X122665934Y-95410428D02*
X122719808Y-95302679D01*
X122719808Y-95302679D02*
X122719808Y-95248804D01*
X122719808Y-95248804D02*
X122531247Y-95060242D01*
X122531247Y-95060242D02*
X122423497Y-95167992D01*
X123016120Y-95060242D02*
X122450434Y-94494557D01*
X122450434Y-94494557D02*
X122665934Y-94279057D01*
X122665934Y-94279057D02*
X122746746Y-94252120D01*
X122746746Y-94252120D02*
X122800621Y-94252120D01*
X122800621Y-94252120D02*
X122881433Y-94279057D01*
X122881433Y-94279057D02*
X122962245Y-94359870D01*
X122962245Y-94359870D02*
X122989182Y-94440682D01*
X122989182Y-94440682D02*
X122989182Y-94494557D01*
X122989182Y-94494557D02*
X122962245Y-94575369D01*
X122962245Y-94575369D02*
X122746746Y-94790868D01*
X123043057Y-94009683D02*
X123043057Y-93955809D01*
X123043057Y-93955809D02*
X123069995Y-93874996D01*
X123069995Y-93874996D02*
X123204682Y-93740309D01*
X123204682Y-93740309D02*
X123285494Y-93713372D01*
X123285494Y-93713372D02*
X123339369Y-93713372D01*
X123339369Y-93713372D02*
X123420181Y-93740309D01*
X123420181Y-93740309D02*
X123474056Y-93794184D01*
X123474056Y-93794184D02*
X123527930Y-93901934D01*
X123527930Y-93901934D02*
X123527930Y-94548431D01*
X123527930Y-94548431D02*
X123878117Y-94198245D01*
X124416865Y-93659497D02*
X124093616Y-93982746D01*
X124255240Y-93821121D02*
X123689555Y-93255436D01*
X123689555Y-93255436D02*
X123716492Y-93390123D01*
X123716492Y-93390123D02*
X123716492Y-93497873D01*
X123716492Y-93497873D02*
X123689555Y-93578685D01*
X122196435Y-104698431D02*
X122115623Y-104725368D01*
X122115623Y-104725368D02*
X122034811Y-104806180D01*
X122034811Y-104806180D02*
X121980936Y-104913930D01*
X121980936Y-104913930D02*
X121980936Y-105021680D01*
X121980936Y-105021680D02*
X122007873Y-105102492D01*
X122007873Y-105102492D02*
X122088685Y-105237179D01*
X122088685Y-105237179D02*
X122169498Y-105317991D01*
X122169498Y-105317991D02*
X122304185Y-105398803D01*
X122304185Y-105398803D02*
X122384997Y-105425741D01*
X122384997Y-105425741D02*
X122492746Y-105425741D01*
X122492746Y-105425741D02*
X122600496Y-105371866D01*
X122600496Y-105371866D02*
X122654371Y-105317991D01*
X122654371Y-105317991D02*
X122708246Y-105210241D01*
X122708246Y-105210241D02*
X122708246Y-105156367D01*
X122708246Y-105156367D02*
X122519684Y-104967805D01*
X122519684Y-104967805D02*
X122411934Y-105075554D01*
X123004557Y-104967805D02*
X122438872Y-104402119D01*
X122438872Y-104402119D02*
X123327806Y-104644556D01*
X123327806Y-104644556D02*
X122762120Y-104078871D01*
X123597180Y-104375182D02*
X123031494Y-103809497D01*
X123031494Y-103809497D02*
X123166181Y-103674810D01*
X123166181Y-103674810D02*
X123273931Y-103620935D01*
X123273931Y-103620935D02*
X123381680Y-103620935D01*
X123381680Y-103620935D02*
X123462493Y-103647872D01*
X123462493Y-103647872D02*
X123597180Y-103728685D01*
X123597180Y-103728685D02*
X123677992Y-103809497D01*
X123677992Y-103809497D02*
X123758804Y-103944184D01*
X123758804Y-103944184D02*
X123785741Y-104024996D01*
X123785741Y-104024996D02*
X123785741Y-104132746D01*
X123785741Y-104132746D02*
X123731867Y-104240495D01*
X123731867Y-104240495D02*
X123597180Y-104375182D01*
X96099998Y-94780868D02*
X96019185Y-94807805D01*
X96019185Y-94807805D02*
X95938373Y-94888618D01*
X95938373Y-94888618D02*
X95884498Y-94996367D01*
X95884498Y-94996367D02*
X95884498Y-95104117D01*
X95884498Y-95104117D02*
X95911436Y-95184929D01*
X95911436Y-95184929D02*
X95992248Y-95319616D01*
X95992248Y-95319616D02*
X96073060Y-95400428D01*
X96073060Y-95400428D02*
X96207747Y-95481241D01*
X96207747Y-95481241D02*
X96288560Y-95508178D01*
X96288560Y-95508178D02*
X96396309Y-95508178D01*
X96396309Y-95508178D02*
X96504059Y-95454303D01*
X96504059Y-95454303D02*
X96557934Y-95400428D01*
X96557934Y-95400428D02*
X96611808Y-95292679D01*
X96611808Y-95292679D02*
X96611808Y-95238804D01*
X96611808Y-95238804D02*
X96423247Y-95050242D01*
X96423247Y-95050242D02*
X96315497Y-95157992D01*
X96908120Y-95050242D02*
X96342434Y-94484557D01*
X96342434Y-94484557D02*
X96557934Y-94269057D01*
X96557934Y-94269057D02*
X96638746Y-94242120D01*
X96638746Y-94242120D02*
X96692621Y-94242120D01*
X96692621Y-94242120D02*
X96773433Y-94269057D01*
X96773433Y-94269057D02*
X96854245Y-94349870D01*
X96854245Y-94349870D02*
X96881182Y-94430682D01*
X96881182Y-94430682D02*
X96881182Y-94484557D01*
X96881182Y-94484557D02*
X96854245Y-94565369D01*
X96854245Y-94565369D02*
X96638746Y-94780868D01*
X97770117Y-94188245D02*
X97446868Y-94511494D01*
X97608492Y-94349870D02*
X97042807Y-93784184D01*
X97042807Y-93784184D02*
X97069744Y-93918871D01*
X97069744Y-93918871D02*
X97069744Y-94026621D01*
X97069744Y-94026621D02*
X97042807Y-94107433D01*
X97554618Y-93272373D02*
X97608492Y-93218499D01*
X97608492Y-93218499D02*
X97689305Y-93191561D01*
X97689305Y-93191561D02*
X97743179Y-93191561D01*
X97743179Y-93191561D02*
X97823992Y-93218499D01*
X97823992Y-93218499D02*
X97958679Y-93299311D01*
X97958679Y-93299311D02*
X98093366Y-93433998D01*
X98093366Y-93433998D02*
X98174178Y-93568685D01*
X98174178Y-93568685D02*
X98201115Y-93649497D01*
X98201115Y-93649497D02*
X98201115Y-93703372D01*
X98201115Y-93703372D02*
X98174178Y-93784184D01*
X98174178Y-93784184D02*
X98120303Y-93838059D01*
X98120303Y-93838059D02*
X98039491Y-93864996D01*
X98039491Y-93864996D02*
X97985616Y-93864996D01*
X97985616Y-93864996D02*
X97904804Y-93838059D01*
X97904804Y-93838059D02*
X97770117Y-93757247D01*
X97770117Y-93757247D02*
X97635430Y-93622560D01*
X97635430Y-93622560D02*
X97554618Y-93487873D01*
X97554618Y-93487873D02*
X97527680Y-93407060D01*
X97527680Y-93407060D02*
X97527680Y-93353186D01*
X97527680Y-93353186D02*
X97554618Y-93272373D01*
X96596435Y-104698431D02*
X96515623Y-104725368D01*
X96515623Y-104725368D02*
X96434811Y-104806180D01*
X96434811Y-104806180D02*
X96380936Y-104913930D01*
X96380936Y-104913930D02*
X96380936Y-105021680D01*
X96380936Y-105021680D02*
X96407873Y-105102492D01*
X96407873Y-105102492D02*
X96488685Y-105237179D01*
X96488685Y-105237179D02*
X96569498Y-105317991D01*
X96569498Y-105317991D02*
X96704185Y-105398803D01*
X96704185Y-105398803D02*
X96784997Y-105425741D01*
X96784997Y-105425741D02*
X96892746Y-105425741D01*
X96892746Y-105425741D02*
X97000496Y-105371866D01*
X97000496Y-105371866D02*
X97054371Y-105317991D01*
X97054371Y-105317991D02*
X97108246Y-105210241D01*
X97108246Y-105210241D02*
X97108246Y-105156367D01*
X97108246Y-105156367D02*
X96919684Y-104967805D01*
X96919684Y-104967805D02*
X96811934Y-105075554D01*
X97404557Y-104967805D02*
X96838872Y-104402119D01*
X96838872Y-104402119D02*
X97727806Y-104644556D01*
X97727806Y-104644556D02*
X97162120Y-104078871D01*
X97997180Y-104375182D02*
X97431494Y-103809497D01*
X97431494Y-103809497D02*
X97566181Y-103674810D01*
X97566181Y-103674810D02*
X97673931Y-103620935D01*
X97673931Y-103620935D02*
X97781680Y-103620935D01*
X97781680Y-103620935D02*
X97862493Y-103647872D01*
X97862493Y-103647872D02*
X97997180Y-103728685D01*
X97997180Y-103728685D02*
X98077992Y-103809497D01*
X98077992Y-103809497D02*
X98158804Y-103944184D01*
X98158804Y-103944184D02*
X98185741Y-104024996D01*
X98185741Y-104024996D02*
X98185741Y-104132746D01*
X98185741Y-104132746D02*
X98131867Y-104240495D01*
X98131867Y-104240495D02*
X97997180Y-104375182D01*
X122207998Y-89700868D02*
X122127185Y-89727805D01*
X122127185Y-89727805D02*
X122046373Y-89808618D01*
X122046373Y-89808618D02*
X121992498Y-89916367D01*
X121992498Y-89916367D02*
X121992498Y-90024117D01*
X121992498Y-90024117D02*
X122019436Y-90104929D01*
X122019436Y-90104929D02*
X122100248Y-90239616D01*
X122100248Y-90239616D02*
X122181060Y-90320428D01*
X122181060Y-90320428D02*
X122315747Y-90401241D01*
X122315747Y-90401241D02*
X122396560Y-90428178D01*
X122396560Y-90428178D02*
X122504309Y-90428178D01*
X122504309Y-90428178D02*
X122612059Y-90374303D01*
X122612059Y-90374303D02*
X122665934Y-90320428D01*
X122665934Y-90320428D02*
X122719808Y-90212679D01*
X122719808Y-90212679D02*
X122719808Y-90158804D01*
X122719808Y-90158804D02*
X122531247Y-89970242D01*
X122531247Y-89970242D02*
X122423497Y-90077992D01*
X123016120Y-89970242D02*
X122450434Y-89404557D01*
X122450434Y-89404557D02*
X122665934Y-89189057D01*
X122665934Y-89189057D02*
X122746746Y-89162120D01*
X122746746Y-89162120D02*
X122800621Y-89162120D01*
X122800621Y-89162120D02*
X122881433Y-89189057D01*
X122881433Y-89189057D02*
X122962245Y-89269870D01*
X122962245Y-89269870D02*
X122989182Y-89350682D01*
X122989182Y-89350682D02*
X122989182Y-89404557D01*
X122989182Y-89404557D02*
X122962245Y-89485369D01*
X122962245Y-89485369D02*
X122746746Y-89700868D01*
X123043057Y-88919683D02*
X123043057Y-88865809D01*
X123043057Y-88865809D02*
X123069995Y-88784996D01*
X123069995Y-88784996D02*
X123204682Y-88650309D01*
X123204682Y-88650309D02*
X123285494Y-88623372D01*
X123285494Y-88623372D02*
X123339369Y-88623372D01*
X123339369Y-88623372D02*
X123420181Y-88650309D01*
X123420181Y-88650309D02*
X123474056Y-88704184D01*
X123474056Y-88704184D02*
X123527930Y-88811934D01*
X123527930Y-88811934D02*
X123527930Y-89458431D01*
X123527930Y-89458431D02*
X123878117Y-89108245D01*
X123581805Y-88380935D02*
X123581805Y-88327060D01*
X123581805Y-88327060D02*
X123608743Y-88246248D01*
X123608743Y-88246248D02*
X123743430Y-88111561D01*
X123743430Y-88111561D02*
X123824242Y-88084624D01*
X123824242Y-88084624D02*
X123878117Y-88084624D01*
X123878117Y-88084624D02*
X123958929Y-88111561D01*
X123958929Y-88111561D02*
X124012804Y-88165436D01*
X124012804Y-88165436D02*
X124066679Y-88273186D01*
X124066679Y-88273186D02*
X124066679Y-88919683D01*
X124066679Y-88919683D02*
X124416865Y-88569497D01*
X122196435Y-66598431D02*
X122115623Y-66625368D01*
X122115623Y-66625368D02*
X122034811Y-66706180D01*
X122034811Y-66706180D02*
X121980936Y-66813930D01*
X121980936Y-66813930D02*
X121980936Y-66921680D01*
X121980936Y-66921680D02*
X122007873Y-67002492D01*
X122007873Y-67002492D02*
X122088685Y-67137179D01*
X122088685Y-67137179D02*
X122169498Y-67217991D01*
X122169498Y-67217991D02*
X122304185Y-67298803D01*
X122304185Y-67298803D02*
X122384997Y-67325741D01*
X122384997Y-67325741D02*
X122492746Y-67325741D01*
X122492746Y-67325741D02*
X122600496Y-67271866D01*
X122600496Y-67271866D02*
X122654371Y-67217991D01*
X122654371Y-67217991D02*
X122708246Y-67110241D01*
X122708246Y-67110241D02*
X122708246Y-67056367D01*
X122708246Y-67056367D02*
X122519684Y-66867805D01*
X122519684Y-66867805D02*
X122411934Y-66975554D01*
X123004557Y-66867805D02*
X122438872Y-66302119D01*
X122438872Y-66302119D02*
X123327806Y-66544556D01*
X123327806Y-66544556D02*
X122762120Y-65978871D01*
X123597180Y-66275182D02*
X123031494Y-65709497D01*
X123031494Y-65709497D02*
X123166181Y-65574810D01*
X123166181Y-65574810D02*
X123273931Y-65520935D01*
X123273931Y-65520935D02*
X123381680Y-65520935D01*
X123381680Y-65520935D02*
X123462493Y-65547872D01*
X123462493Y-65547872D02*
X123597180Y-65628685D01*
X123597180Y-65628685D02*
X123677992Y-65709497D01*
X123677992Y-65709497D02*
X123758804Y-65844184D01*
X123758804Y-65844184D02*
X123785741Y-65924996D01*
X123785741Y-65924996D02*
X123785741Y-66032746D01*
X123785741Y-66032746D02*
X123731867Y-66140495D01*
X123731867Y-66140495D02*
X123597180Y-66275182D01*
X113966666Y-114349819D02*
X113966666Y-115064104D01*
X113966666Y-115064104D02*
X113919047Y-115206961D01*
X113919047Y-115206961D02*
X113823809Y-115302200D01*
X113823809Y-115302200D02*
X113680952Y-115349819D01*
X113680952Y-115349819D02*
X113585714Y-115349819D01*
X114490476Y-115349819D02*
X114680952Y-115349819D01*
X114680952Y-115349819D02*
X114776190Y-115302200D01*
X114776190Y-115302200D02*
X114823809Y-115254580D01*
X114823809Y-115254580D02*
X114919047Y-115111723D01*
X114919047Y-115111723D02*
X114966666Y-114921247D01*
X114966666Y-114921247D02*
X114966666Y-114540295D01*
X114966666Y-114540295D02*
X114919047Y-114445057D01*
X114919047Y-114445057D02*
X114871428Y-114397438D01*
X114871428Y-114397438D02*
X114776190Y-114349819D01*
X114776190Y-114349819D02*
X114585714Y-114349819D01*
X114585714Y-114349819D02*
X114490476Y-114397438D01*
X114490476Y-114397438D02*
X114442857Y-114445057D01*
X114442857Y-114445057D02*
X114395238Y-114540295D01*
X114395238Y-114540295D02*
X114395238Y-114778390D01*
X114395238Y-114778390D02*
X114442857Y-114873628D01*
X114442857Y-114873628D02*
X114490476Y-114921247D01*
X114490476Y-114921247D02*
X114585714Y-114968866D01*
X114585714Y-114968866D02*
X114776190Y-114968866D01*
X114776190Y-114968866D02*
X114871428Y-114921247D01*
X114871428Y-114921247D02*
X114919047Y-114873628D01*
X114919047Y-114873628D02*
X114966666Y-114778390D01*
X92761904Y-70545180D02*
X92761904Y-69735657D01*
X92761904Y-69735657D02*
X92714285Y-69640419D01*
X92714285Y-69640419D02*
X92666666Y-69592800D01*
X92666666Y-69592800D02*
X92571428Y-69545180D01*
X92571428Y-69545180D02*
X92380952Y-69545180D01*
X92380952Y-69545180D02*
X92285714Y-69592800D01*
X92285714Y-69592800D02*
X92238095Y-69640419D01*
X92238095Y-69640419D02*
X92190476Y-69735657D01*
X92190476Y-69735657D02*
X92190476Y-70545180D01*
X91190476Y-69545180D02*
X91761904Y-69545180D01*
X91476190Y-69545180D02*
X91476190Y-70545180D01*
X91476190Y-70545180D02*
X91571428Y-70402323D01*
X91571428Y-70402323D02*
X91666666Y-70307085D01*
X91666666Y-70307085D02*
X91761904Y-70259466D01*
X97941485Y-71754980D02*
X97941485Y-72754980D01*
X97941485Y-72754980D02*
X97703390Y-72754980D01*
X97703390Y-72754980D02*
X97560533Y-72707361D01*
X97560533Y-72707361D02*
X97465295Y-72612123D01*
X97465295Y-72612123D02*
X97417676Y-72516885D01*
X97417676Y-72516885D02*
X97370057Y-72326409D01*
X97370057Y-72326409D02*
X97370057Y-72183552D01*
X97370057Y-72183552D02*
X97417676Y-71993076D01*
X97417676Y-71993076D02*
X97465295Y-71897838D01*
X97465295Y-71897838D02*
X97560533Y-71802600D01*
X97560533Y-71802600D02*
X97703390Y-71754980D01*
X97703390Y-71754980D02*
X97941485Y-71754980D01*
X96560533Y-71802600D02*
X96655771Y-71754980D01*
X96655771Y-71754980D02*
X96846247Y-71754980D01*
X96846247Y-71754980D02*
X96941485Y-71802600D01*
X96941485Y-71802600D02*
X96989104Y-71897838D01*
X96989104Y-71897838D02*
X96989104Y-72278790D01*
X96989104Y-72278790D02*
X96941485Y-72374028D01*
X96941485Y-72374028D02*
X96846247Y-72421647D01*
X96846247Y-72421647D02*
X96655771Y-72421647D01*
X96655771Y-72421647D02*
X96560533Y-72374028D01*
X96560533Y-72374028D02*
X96512914Y-72278790D01*
X96512914Y-72278790D02*
X96512914Y-72183552D01*
X96512914Y-72183552D02*
X96989104Y-72088314D01*
X96131961Y-71802600D02*
X96036723Y-71754980D01*
X96036723Y-71754980D02*
X95846247Y-71754980D01*
X95846247Y-71754980D02*
X95751009Y-71802600D01*
X95751009Y-71802600D02*
X95703390Y-71897838D01*
X95703390Y-71897838D02*
X95703390Y-71945457D01*
X95703390Y-71945457D02*
X95751009Y-72040695D01*
X95751009Y-72040695D02*
X95846247Y-72088314D01*
X95846247Y-72088314D02*
X95989104Y-72088314D01*
X95989104Y-72088314D02*
X96084342Y-72135933D01*
X96084342Y-72135933D02*
X96131961Y-72231171D01*
X96131961Y-72231171D02*
X96131961Y-72278790D01*
X96131961Y-72278790D02*
X96084342Y-72374028D01*
X96084342Y-72374028D02*
X95989104Y-72421647D01*
X95989104Y-72421647D02*
X95846247Y-72421647D01*
X95846247Y-72421647D02*
X95751009Y-72374028D01*
X95274818Y-71754980D02*
X95274818Y-72421647D01*
X95274818Y-72754980D02*
X95322437Y-72707361D01*
X95322437Y-72707361D02*
X95274818Y-72659742D01*
X95274818Y-72659742D02*
X95227199Y-72707361D01*
X95227199Y-72707361D02*
X95274818Y-72754980D01*
X95274818Y-72754980D02*
X95274818Y-72659742D01*
X94370057Y-72421647D02*
X94370057Y-71612123D01*
X94370057Y-71612123D02*
X94417676Y-71516885D01*
X94417676Y-71516885D02*
X94465295Y-71469266D01*
X94465295Y-71469266D02*
X94560533Y-71421647D01*
X94560533Y-71421647D02*
X94703390Y-71421647D01*
X94703390Y-71421647D02*
X94798628Y-71469266D01*
X94370057Y-71802600D02*
X94465295Y-71754980D01*
X94465295Y-71754980D02*
X94655771Y-71754980D01*
X94655771Y-71754980D02*
X94751009Y-71802600D01*
X94751009Y-71802600D02*
X94798628Y-71850219D01*
X94798628Y-71850219D02*
X94846247Y-71945457D01*
X94846247Y-71945457D02*
X94846247Y-72231171D01*
X94846247Y-72231171D02*
X94798628Y-72326409D01*
X94798628Y-72326409D02*
X94751009Y-72374028D01*
X94751009Y-72374028D02*
X94655771Y-72421647D01*
X94655771Y-72421647D02*
X94465295Y-72421647D01*
X94465295Y-72421647D02*
X94370057Y-72374028D01*
X93893866Y-72421647D02*
X93893866Y-71754980D01*
X93893866Y-72326409D02*
X93846247Y-72374028D01*
X93846247Y-72374028D02*
X93751009Y-72421647D01*
X93751009Y-72421647D02*
X93608152Y-72421647D01*
X93608152Y-72421647D02*
X93512914Y-72374028D01*
X93512914Y-72374028D02*
X93465295Y-72278790D01*
X93465295Y-72278790D02*
X93465295Y-71754980D01*
X92560533Y-71754980D02*
X92560533Y-72278790D01*
X92560533Y-72278790D02*
X92608152Y-72374028D01*
X92608152Y-72374028D02*
X92703390Y-72421647D01*
X92703390Y-72421647D02*
X92893866Y-72421647D01*
X92893866Y-72421647D02*
X92989104Y-72374028D01*
X92560533Y-71802600D02*
X92655771Y-71754980D01*
X92655771Y-71754980D02*
X92893866Y-71754980D01*
X92893866Y-71754980D02*
X92989104Y-71802600D01*
X92989104Y-71802600D02*
X93036723Y-71897838D01*
X93036723Y-71897838D02*
X93036723Y-71993076D01*
X93036723Y-71993076D02*
X92989104Y-72088314D01*
X92989104Y-72088314D02*
X92893866Y-72135933D01*
X92893866Y-72135933D02*
X92655771Y-72135933D01*
X92655771Y-72135933D02*
X92560533Y-72183552D01*
X92227199Y-72421647D02*
X91846247Y-72421647D01*
X92084342Y-72754980D02*
X92084342Y-71897838D01*
X92084342Y-71897838D02*
X92036723Y-71802600D01*
X92036723Y-71802600D02*
X91941485Y-71754980D01*
X91941485Y-71754980D02*
X91846247Y-71754980D01*
X91370056Y-71754980D02*
X91465294Y-71802600D01*
X91465294Y-71802600D02*
X91512913Y-71850219D01*
X91512913Y-71850219D02*
X91560532Y-71945457D01*
X91560532Y-71945457D02*
X91560532Y-72231171D01*
X91560532Y-72231171D02*
X91512913Y-72326409D01*
X91512913Y-72326409D02*
X91465294Y-72374028D01*
X91465294Y-72374028D02*
X91370056Y-72421647D01*
X91370056Y-72421647D02*
X91227199Y-72421647D01*
X91227199Y-72421647D02*
X91131961Y-72374028D01*
X91131961Y-72374028D02*
X91084342Y-72326409D01*
X91084342Y-72326409D02*
X91036723Y-72231171D01*
X91036723Y-72231171D02*
X91036723Y-71945457D01*
X91036723Y-71945457D02*
X91084342Y-71850219D01*
X91084342Y-71850219D02*
X91131961Y-71802600D01*
X91131961Y-71802600D02*
X91227199Y-71754980D01*
X91227199Y-71754980D02*
X91370056Y-71754980D01*
X90608151Y-71754980D02*
X90608151Y-72421647D01*
X90608151Y-72231171D02*
X90560532Y-72326409D01*
X90560532Y-72326409D02*
X90512913Y-72374028D01*
X90512913Y-72374028D02*
X90417675Y-72421647D01*
X90417675Y-72421647D02*
X90322437Y-72421647D01*
X89941484Y-71754980D02*
X89751008Y-71754980D01*
X89751008Y-71754980D02*
X89655770Y-71802600D01*
X89655770Y-71802600D02*
X89608151Y-71850219D01*
X89608151Y-71850219D02*
X89512913Y-71993076D01*
X89512913Y-71993076D02*
X89465294Y-72183552D01*
X89465294Y-72183552D02*
X89465294Y-72564504D01*
X89465294Y-72564504D02*
X89512913Y-72659742D01*
X89512913Y-72659742D02*
X89560532Y-72707361D01*
X89560532Y-72707361D02*
X89655770Y-72754980D01*
X89655770Y-72754980D02*
X89846246Y-72754980D01*
X89846246Y-72754980D02*
X89941484Y-72707361D01*
X89941484Y-72707361D02*
X89989103Y-72659742D01*
X89989103Y-72659742D02*
X90036722Y-72564504D01*
X90036722Y-72564504D02*
X90036722Y-72326409D01*
X90036722Y-72326409D02*
X89989103Y-72231171D01*
X89989103Y-72231171D02*
X89941484Y-72183552D01*
X89941484Y-72183552D02*
X89846246Y-72135933D01*
X89846246Y-72135933D02*
X89655770Y-72135933D01*
X89655770Y-72135933D02*
X89560532Y-72183552D01*
X89560532Y-72183552D02*
X89512913Y-72231171D01*
X89512913Y-72231171D02*
X89465294Y-72326409D01*
X109316666Y-114349819D02*
X109316666Y-115064104D01*
X109316666Y-115064104D02*
X109269047Y-115206961D01*
X109269047Y-115206961D02*
X109173809Y-115302200D01*
X109173809Y-115302200D02*
X109030952Y-115349819D01*
X109030952Y-115349819D02*
X108935714Y-115349819D01*
X110269047Y-114349819D02*
X109792857Y-114349819D01*
X109792857Y-114349819D02*
X109745238Y-114826009D01*
X109745238Y-114826009D02*
X109792857Y-114778390D01*
X109792857Y-114778390D02*
X109888095Y-114730771D01*
X109888095Y-114730771D02*
X110126190Y-114730771D01*
X110126190Y-114730771D02*
X110221428Y-114778390D01*
X110221428Y-114778390D02*
X110269047Y-114826009D01*
X110269047Y-114826009D02*
X110316666Y-114921247D01*
X110316666Y-114921247D02*
X110316666Y-115159342D01*
X110316666Y-115159342D02*
X110269047Y-115254580D01*
X110269047Y-115254580D02*
X110221428Y-115302200D01*
X110221428Y-115302200D02*
X110126190Y-115349819D01*
X110126190Y-115349819D02*
X109888095Y-115349819D01*
X109888095Y-115349819D02*
X109792857Y-115302200D01*
X109792857Y-115302200D02*
X109745238Y-115254580D01*
X91333333Y-78429580D02*
X91285714Y-78477200D01*
X91285714Y-78477200D02*
X91142857Y-78524819D01*
X91142857Y-78524819D02*
X91047619Y-78524819D01*
X91047619Y-78524819D02*
X90904762Y-78477200D01*
X90904762Y-78477200D02*
X90809524Y-78381961D01*
X90809524Y-78381961D02*
X90761905Y-78286723D01*
X90761905Y-78286723D02*
X90714286Y-78096247D01*
X90714286Y-78096247D02*
X90714286Y-77953390D01*
X90714286Y-77953390D02*
X90761905Y-77762914D01*
X90761905Y-77762914D02*
X90809524Y-77667676D01*
X90809524Y-77667676D02*
X90904762Y-77572438D01*
X90904762Y-77572438D02*
X91047619Y-77524819D01*
X91047619Y-77524819D02*
X91142857Y-77524819D01*
X91142857Y-77524819D02*
X91285714Y-77572438D01*
X91285714Y-77572438D02*
X91333333Y-77620057D01*
X91714286Y-77620057D02*
X91761905Y-77572438D01*
X91761905Y-77572438D02*
X91857143Y-77524819D01*
X91857143Y-77524819D02*
X92095238Y-77524819D01*
X92095238Y-77524819D02*
X92190476Y-77572438D01*
X92190476Y-77572438D02*
X92238095Y-77620057D01*
X92238095Y-77620057D02*
X92285714Y-77715295D01*
X92285714Y-77715295D02*
X92285714Y-77810533D01*
X92285714Y-77810533D02*
X92238095Y-77953390D01*
X92238095Y-77953390D02*
X91666667Y-78524819D01*
X91666667Y-78524819D02*
X92285714Y-78524819D01*
X130990057Y-73595238D02*
X130942438Y-73690476D01*
X130942438Y-73690476D02*
X130847200Y-73785714D01*
X130847200Y-73785714D02*
X130704342Y-73928571D01*
X130704342Y-73928571D02*
X130656723Y-74023809D01*
X130656723Y-74023809D02*
X130656723Y-74119047D01*
X130894819Y-74071428D02*
X130847200Y-74166666D01*
X130847200Y-74166666D02*
X130751961Y-74261904D01*
X130751961Y-74261904D02*
X130561485Y-74309523D01*
X130561485Y-74309523D02*
X130228152Y-74309523D01*
X130228152Y-74309523D02*
X130037676Y-74261904D01*
X130037676Y-74261904D02*
X129942438Y-74166666D01*
X129942438Y-74166666D02*
X129894819Y-74071428D01*
X129894819Y-74071428D02*
X129894819Y-73880952D01*
X129894819Y-73880952D02*
X129942438Y-73785714D01*
X129942438Y-73785714D02*
X130037676Y-73690476D01*
X130037676Y-73690476D02*
X130228152Y-73642857D01*
X130228152Y-73642857D02*
X130561485Y-73642857D01*
X130561485Y-73642857D02*
X130751961Y-73690476D01*
X130751961Y-73690476D02*
X130847200Y-73785714D01*
X130847200Y-73785714D02*
X130894819Y-73880952D01*
X130894819Y-73880952D02*
X130894819Y-74071428D01*
X130894819Y-72690476D02*
X130894819Y-73261904D01*
X130894819Y-72976190D02*
X129894819Y-72976190D01*
X129894819Y-72976190D02*
X130037676Y-73071428D01*
X130037676Y-73071428D02*
X130132914Y-73166666D01*
X130132914Y-73166666D02*
X130180533Y-73261904D01*
X132538871Y-73564285D02*
X132496014Y-73692857D01*
X132496014Y-73692857D02*
X132453157Y-73735714D01*
X132453157Y-73735714D02*
X132367442Y-73778571D01*
X132367442Y-73778571D02*
X132238871Y-73778571D01*
X132238871Y-73778571D02*
X132153157Y-73735714D01*
X132153157Y-73735714D02*
X132110300Y-73692857D01*
X132110300Y-73692857D02*
X132067442Y-73607142D01*
X132067442Y-73607142D02*
X132067442Y-73264285D01*
X132067442Y-73264285D02*
X132967442Y-73264285D01*
X132967442Y-73264285D02*
X132967442Y-73564285D01*
X132967442Y-73564285D02*
X132924585Y-73650000D01*
X132924585Y-73650000D02*
X132881728Y-73692857D01*
X132881728Y-73692857D02*
X132796014Y-73735714D01*
X132796014Y-73735714D02*
X132710300Y-73735714D01*
X132710300Y-73735714D02*
X132624585Y-73692857D01*
X132624585Y-73692857D02*
X132581728Y-73650000D01*
X132581728Y-73650000D02*
X132538871Y-73564285D01*
X132538871Y-73564285D02*
X132538871Y-73264285D01*
X132153157Y-70857571D02*
X132110300Y-70814714D01*
X132110300Y-70814714D02*
X132067442Y-70686142D01*
X132067442Y-70686142D02*
X132067442Y-70600428D01*
X132067442Y-70600428D02*
X132110300Y-70471857D01*
X132110300Y-70471857D02*
X132196014Y-70386142D01*
X132196014Y-70386142D02*
X132281728Y-70343285D01*
X132281728Y-70343285D02*
X132453157Y-70300428D01*
X132453157Y-70300428D02*
X132581728Y-70300428D01*
X132581728Y-70300428D02*
X132753157Y-70343285D01*
X132753157Y-70343285D02*
X132838871Y-70386142D01*
X132838871Y-70386142D02*
X132924585Y-70471857D01*
X132924585Y-70471857D02*
X132967442Y-70600428D01*
X132967442Y-70600428D02*
X132967442Y-70686142D01*
X132967442Y-70686142D02*
X132924585Y-70814714D01*
X132924585Y-70814714D02*
X132881728Y-70857571D01*
X132538871Y-76228142D02*
X132538871Y-76528142D01*
X132067442Y-76656714D02*
X132067442Y-76228142D01*
X132067442Y-76228142D02*
X132967442Y-76228142D01*
X132967442Y-76228142D02*
X132967442Y-76656714D01*
X91333333Y-71929580D02*
X91285714Y-71977200D01*
X91285714Y-71977200D02*
X91142857Y-72024819D01*
X91142857Y-72024819D02*
X91047619Y-72024819D01*
X91047619Y-72024819D02*
X90904762Y-71977200D01*
X90904762Y-71977200D02*
X90809524Y-71881961D01*
X90809524Y-71881961D02*
X90761905Y-71786723D01*
X90761905Y-71786723D02*
X90714286Y-71596247D01*
X90714286Y-71596247D02*
X90714286Y-71453390D01*
X90714286Y-71453390D02*
X90761905Y-71262914D01*
X90761905Y-71262914D02*
X90809524Y-71167676D01*
X90809524Y-71167676D02*
X90904762Y-71072438D01*
X90904762Y-71072438D02*
X91047619Y-71024819D01*
X91047619Y-71024819D02*
X91142857Y-71024819D01*
X91142857Y-71024819D02*
X91285714Y-71072438D01*
X91285714Y-71072438D02*
X91333333Y-71120057D01*
X92285714Y-72024819D02*
X91714286Y-72024819D01*
X92000000Y-72024819D02*
X92000000Y-71024819D01*
X92000000Y-71024819D02*
X91904762Y-71167676D01*
X91904762Y-71167676D02*
X91809524Y-71262914D01*
X91809524Y-71262914D02*
X91714286Y-71310533D01*
X83200969Y-81366733D02*
X83915254Y-81366733D01*
X83915254Y-81366733D02*
X84058111Y-81414352D01*
X84058111Y-81414352D02*
X84153350Y-81509590D01*
X84153350Y-81509590D02*
X84200969Y-81652447D01*
X84200969Y-81652447D02*
X84200969Y-81747685D01*
X83629540Y-80747685D02*
X83581921Y-80842923D01*
X83581921Y-80842923D02*
X83534302Y-80890542D01*
X83534302Y-80890542D02*
X83439064Y-80938161D01*
X83439064Y-80938161D02*
X83391445Y-80938161D01*
X83391445Y-80938161D02*
X83296207Y-80890542D01*
X83296207Y-80890542D02*
X83248588Y-80842923D01*
X83248588Y-80842923D02*
X83200969Y-80747685D01*
X83200969Y-80747685D02*
X83200969Y-80557209D01*
X83200969Y-80557209D02*
X83248588Y-80461971D01*
X83248588Y-80461971D02*
X83296207Y-80414352D01*
X83296207Y-80414352D02*
X83391445Y-80366733D01*
X83391445Y-80366733D02*
X83439064Y-80366733D01*
X83439064Y-80366733D02*
X83534302Y-80414352D01*
X83534302Y-80414352D02*
X83581921Y-80461971D01*
X83581921Y-80461971D02*
X83629540Y-80557209D01*
X83629540Y-80557209D02*
X83629540Y-80747685D01*
X83629540Y-80747685D02*
X83677159Y-80842923D01*
X83677159Y-80842923D02*
X83724778Y-80890542D01*
X83724778Y-80890542D02*
X83820016Y-80938161D01*
X83820016Y-80938161D02*
X84010492Y-80938161D01*
X84010492Y-80938161D02*
X84105730Y-80890542D01*
X84105730Y-80890542D02*
X84153350Y-80842923D01*
X84153350Y-80842923D02*
X84200969Y-80747685D01*
X84200969Y-80747685D02*
X84200969Y-80557209D01*
X84200969Y-80557209D02*
X84153350Y-80461971D01*
X84153350Y-80461971D02*
X84105730Y-80414352D01*
X84105730Y-80414352D02*
X84010492Y-80366733D01*
X84010492Y-80366733D02*
X83820016Y-80366733D01*
X83820016Y-80366733D02*
X83724778Y-80414352D01*
X83724778Y-80414352D02*
X83677159Y-80461971D01*
X83677159Y-80461971D02*
X83629540Y-80557209D01*
X83454819Y-69603333D02*
X84169104Y-69603333D01*
X84169104Y-69603333D02*
X84311961Y-69650952D01*
X84311961Y-69650952D02*
X84407200Y-69746190D01*
X84407200Y-69746190D02*
X84454819Y-69889047D01*
X84454819Y-69889047D02*
X84454819Y-69984285D01*
X83454819Y-69222380D02*
X83454819Y-68555714D01*
X83454819Y-68555714D02*
X84454819Y-68984285D01*
D11*
%TO.C,J12*%
X134870000Y-104870000D02*
X133540000Y-104870000D01*
X134870000Y-103540000D02*
X134870000Y-104870000D01*
X134870000Y-102270000D02*
X134870000Y-79350000D01*
X134870000Y-102270000D02*
X132270000Y-102270000D01*
X134870000Y-79350000D02*
X129670000Y-79350000D01*
X132270000Y-104870000D02*
X129670000Y-104870000D01*
X132270000Y-102270000D02*
X132270000Y-104870000D01*
X129670000Y-104870000D02*
X129670000Y-79350000D01*
%TO.C,R2*%
X88477500Y-78245276D02*
X88477500Y-78754724D01*
X89522500Y-78245276D02*
X89522500Y-78754724D01*
D12*
%TO.C,J11*%
X139072400Y-60171500D02*
X139072400Y-112038300D01*
X139072400Y-112038300D02*
X148927600Y-112038300D01*
X148927600Y-60171500D02*
X139072400Y-60171500D01*
X148927600Y-112038300D02*
X148927600Y-60171500D01*
D13*
X146931599Y-58393500D02*
G75*
G02*
X146169599Y-58393500I-381000J0D01*
G01*
X146169599Y-58393500D02*
G75*
G02*
X146931599Y-58393500I381000J0D01*
G01*
D11*
%TO.C,R1*%
X88477500Y-71745276D02*
X88477500Y-72254724D01*
X89522500Y-71745276D02*
X89522500Y-72254724D01*
D14*
%TO.C,U2*%
X92375001Y-76450000D02*
X91624999Y-76450000D01*
X93050000Y-78550000D02*
X91874999Y-78550000D01*
D11*
%TO.C,J10*%
X92170000Y-64770000D02*
X92170000Y-59630000D01*
X94830000Y-59630000D02*
X92170000Y-59630000D01*
X94830000Y-64770000D02*
X92170000Y-64770000D01*
X94830000Y-64770000D02*
X94830000Y-59630000D01*
X94830000Y-66040000D02*
X94830000Y-67370000D01*
X94830000Y-67370000D02*
X93500000Y-67370000D01*
%TO.C,J3*%
X99020000Y-115895000D02*
X100350000Y-115895000D01*
X99020000Y-117225000D02*
X99020000Y-115895000D01*
X99020000Y-118495000D02*
X99020000Y-121095000D01*
X99020000Y-118495000D02*
X101680000Y-118495000D01*
X99020000Y-121095000D02*
X101680000Y-121095000D01*
X101680000Y-118495000D02*
X101680000Y-121095000D01*
%TO.C,J13*%
X124240000Y-114490000D02*
X124240000Y-116360000D01*
X124240000Y-120640000D02*
X124240000Y-122510000D01*
X125700000Y-114165000D02*
X125700000Y-112475000D01*
X126400000Y-116705000D02*
X126400000Y-120315000D01*
X132600000Y-111775000D02*
X132600000Y-112475000D01*
X132600000Y-112475000D02*
X125700000Y-112475000D01*
X135600000Y-111775000D02*
X132600000Y-111775000D01*
X135600000Y-111775000D02*
X135600000Y-114165000D01*
X135600000Y-116685000D02*
X135600000Y-120315000D01*
%TO.C,J4*%
X103670000Y-115895000D02*
X105000000Y-115895000D01*
X103670000Y-117225000D02*
X103670000Y-115895000D01*
X103670000Y-118495000D02*
X103670000Y-121095000D01*
X103670000Y-118495000D02*
X106330000Y-118495000D01*
X103670000Y-121095000D02*
X106330000Y-121095000D01*
X106330000Y-118495000D02*
X106330000Y-121095000D01*
%TO.C,J6*%
X117620000Y-115895000D02*
X118950000Y-115895000D01*
X117620000Y-117225000D02*
X117620000Y-115895000D01*
X117620000Y-118495000D02*
X117620000Y-121095000D01*
X117620000Y-118495000D02*
X120280000Y-118495000D01*
X117620000Y-121095000D02*
X120280000Y-121095000D01*
X120280000Y-118495000D02*
X120280000Y-121095000D01*
%TO.C,SW1*%
X94320000Y-115895000D02*
X95650000Y-115895000D01*
X94320000Y-117225000D02*
X94320000Y-115895000D01*
X94320000Y-118495000D02*
X94320000Y-121095000D01*
X94320000Y-118495000D02*
X96980000Y-118495000D01*
X94320000Y-121095000D02*
X96980000Y-121095000D01*
X96980000Y-118495000D02*
X96980000Y-121095000D01*
%TO.C,J2*%
X99610000Y-60000000D02*
X99610000Y-60300000D01*
X99610000Y-60000000D02*
X120610000Y-60000000D01*
X99610000Y-62400000D02*
X99610000Y-62800000D01*
X99610000Y-62667000D02*
X102617000Y-62667000D01*
X99610000Y-65000000D02*
X99610000Y-65400000D01*
X99610000Y-67500000D02*
X99610000Y-67900000D01*
X99610000Y-70100000D02*
X99610000Y-70500000D01*
X99610000Y-72600000D02*
X99610000Y-73000000D01*
X99610000Y-75100000D02*
X99610000Y-75500000D01*
X99610000Y-77700000D02*
X99610000Y-78100000D01*
X99610000Y-80200000D02*
X99610000Y-80600000D01*
X99610000Y-82800000D02*
X99610000Y-83200000D01*
X99610000Y-85300000D02*
X99610000Y-85700000D01*
X99610000Y-87800000D02*
X99610000Y-88200000D01*
X99610000Y-90400000D02*
X99610000Y-90800000D01*
X99610000Y-92900000D02*
X99610000Y-93300000D01*
X99610000Y-95500000D02*
X99610000Y-95900000D01*
X99610000Y-98000000D02*
X99610000Y-98400000D01*
X99610000Y-100600000D02*
X99610000Y-101000000D01*
X99610000Y-103100000D02*
X99610000Y-103500000D01*
X99610000Y-105600000D02*
X99610000Y-106000000D01*
X99610000Y-108200000D02*
X99610000Y-108600000D01*
X102617000Y-62667000D02*
X102617000Y-60000000D01*
X106410000Y-111000000D02*
X99610000Y-111000000D01*
X108610000Y-111000000D02*
X109010000Y-111000000D01*
X111210000Y-111000000D02*
X111610000Y-111000000D01*
X120610000Y-60000000D02*
X120610000Y-60300000D01*
X120610000Y-62400000D02*
X120610000Y-62800000D01*
X120610000Y-65000000D02*
X120610000Y-65400000D01*
X120610000Y-67500000D02*
X120610000Y-67900000D01*
X120610000Y-70100000D02*
X120610000Y-70500000D01*
X120610000Y-72600000D02*
X120610000Y-73000000D01*
X120610000Y-75100000D02*
X120610000Y-75500000D01*
X120610000Y-77700000D02*
X120610000Y-78100000D01*
X120610000Y-80200000D02*
X120610000Y-80600000D01*
X120610000Y-82800000D02*
X120610000Y-83200000D01*
X120610000Y-85300000D02*
X120610000Y-85700000D01*
X120610000Y-87800000D02*
X120610000Y-88200000D01*
X120610000Y-90400000D02*
X120610000Y-90800000D01*
X120610000Y-92900000D02*
X120610000Y-93300000D01*
X120610000Y-95500000D02*
X120610000Y-95900000D01*
X120610000Y-98000000D02*
X120610000Y-98400000D01*
X120610000Y-100600000D02*
X120610000Y-101000000D01*
X120610000Y-103100000D02*
X120610000Y-103500000D01*
X120610000Y-105600000D02*
X120610000Y-106000000D01*
X120610000Y-108200000D02*
X120610000Y-108600000D01*
X120610000Y-111000000D02*
X113810000Y-111000000D01*
%TO.C,J9*%
X112970000Y-115895000D02*
X114300000Y-115895000D01*
X112970000Y-117225000D02*
X112970000Y-115895000D01*
X112970000Y-118495000D02*
X112970000Y-121095000D01*
X112970000Y-118495000D02*
X115630000Y-118495000D01*
X112970000Y-121095000D02*
X115630000Y-121095000D01*
X115630000Y-118495000D02*
X115630000Y-121095000D01*
D14*
%TO.C,U1*%
X92375001Y-68950000D02*
X91624999Y-68950000D01*
X93050000Y-71050000D02*
X91874999Y-71050000D01*
D11*
%TO.C,J5*%
X108320000Y-115895000D02*
X109650000Y-115895000D01*
X108320000Y-117225000D02*
X108320000Y-115895000D01*
X108320000Y-118495000D02*
X108320000Y-121095000D01*
X108320000Y-118495000D02*
X110980000Y-118495000D01*
X108320000Y-121095000D02*
X110980000Y-121095000D01*
X110980000Y-118495000D02*
X110980000Y-121095000D01*
%TO.C,C2*%
X91353733Y-78990000D02*
X91646267Y-78990000D01*
X91353733Y-80010000D02*
X91646267Y-80010000D01*
%TO.C,Q1*%
X135850000Y-75300000D02*
X135850000Y-71700000D01*
X131400000Y-73500000D02*
G75*
G02*
X132901193Y-71143600I2600000J0D01*
G01*
X132901193Y-75856400D02*
G75*
G02*
X131400000Y-73500000I1098807J2356400D01*
G01*
X135122795Y-71175816D02*
G75*
G02*
X135850000Y-71700000I-1122795J-2324184D01*
G01*
X135850000Y-75300000D02*
G75*
G02*
X135122795Y-75824184I-1850000J1800000D01*
G01*
%TO.C,C1*%
X91353733Y-72490000D02*
X91646267Y-72490000D01*
X91353733Y-73510000D02*
X91646267Y-73510000D01*
D12*
%TO.C,J8*%
X80319149Y-75801000D02*
X80319149Y-86265800D01*
X80319149Y-86265800D02*
X86415149Y-86265800D01*
X86415149Y-75801000D02*
X80319149Y-75801000D01*
X86415149Y-81465437D02*
X86415149Y-75801000D01*
X86415149Y-86265800D02*
X86415149Y-83141363D01*
D13*
X84127150Y-75166000D02*
G75*
G02*
X83365150Y-75166000I-381000J0D01*
G01*
X83365150Y-75166000D02*
G75*
G02*
X84127150Y-75166000I381000J0D01*
G01*
D12*
%TO.C,J7*%
X80572999Y-64037600D02*
X80572999Y-74502400D01*
X80572999Y-74502400D02*
X86668999Y-74502400D01*
X86668999Y-64037600D02*
X80572999Y-64037600D01*
X86668999Y-69702037D02*
X86668999Y-64037600D01*
X86668999Y-74502400D02*
X86668999Y-71377963D01*
D13*
X84381000Y-63402600D02*
G75*
G02*
X83619000Y-63402600I-381000J0D01*
G01*
X83619000Y-63402600D02*
G75*
G02*
X84381000Y-63402600I381000J0D01*
G01*
%TD*%
M02*
